<svg width="342" height="252" viewBox="0 0 342 252" fill="none" xmlns="http://www.w3.org/2000/svg">
<rect width="342" height="252" rx="12" fill="#141324"/>
<path d="M21.85 29C21.43 29 21.066 28.9347 20.758 28.804C20.45 28.6733 20.212 28.454 20.044 28.146C19.8853 27.8287 19.806 27.404 19.806 26.872V22.63H18.518V21.636H19.806L19.96 19.802H20.982V21.636H23.068V22.63H20.982V26.872C20.982 27.3107 21.0707 27.6093 21.248 27.768C21.4253 27.9173 21.738 27.992 22.186 27.992H23.04V29H21.85ZM24.6815 29V21.636H25.7455L25.8295 22.98C25.9975 22.644 26.2168 22.364 26.4875 22.14C26.7582 21.916 27.0848 21.748 27.4675 21.636C27.8595 21.524 28.2982 21.468 28.7835 21.468V22.7H28.0555C27.7755 22.7 27.5048 22.7373 27.2435 22.812C26.9822 22.8867 26.7442 23.008 26.5295 23.176C26.3242 23.344 26.1608 23.5727 26.0395 23.862C25.9182 24.1513 25.8575 24.5153 25.8575 24.954V29H24.6815ZM32.4326 29.168C31.8726 29.168 31.4059 29.0653 31.0326 28.86C30.6592 28.6453 30.3792 28.3653 30.1926 28.02C30.0059 27.6653 29.9126 27.2873 29.9126 26.886C29.9126 26.4007 30.0339 25.99 30.2766 25.654C30.5286 25.3087 30.8786 25.0473 31.3266 24.87C31.7746 24.6927 32.2972 24.604 32.8946 24.604H34.7286C34.7286 24.128 34.6726 23.7313 34.5606 23.414C34.4486 23.0967 34.2666 22.8587 34.0146 22.7C33.7626 22.5413 33.4266 22.462 33.0066 22.462C32.5866 22.462 32.2272 22.5693 31.9286 22.784C31.6299 22.9893 31.4432 23.2973 31.3686 23.708H30.1646C30.2206 23.2227 30.3839 22.8167 30.6546 22.49C30.9252 22.154 31.2659 21.902 31.6766 21.734C32.0966 21.5567 32.5399 21.468 33.0066 21.468C33.6692 21.468 34.2152 21.5893 34.6446 21.832C35.0739 22.0653 35.3912 22.3967 35.5966 22.826C35.8019 23.246 35.9046 23.7453 35.9046 24.324V29H34.8546L34.7846 27.74C34.6912 27.936 34.5699 28.1227 34.4206 28.3C34.2806 28.468 34.1126 28.6173 33.9166 28.748C33.7206 28.8787 33.4966 28.9813 33.2446 29.056C33.0019 29.1307 32.7312 29.168 32.4326 29.168ZM32.6006 28.174C32.9086 28.174 33.1932 28.104 33.4546 27.964C33.7159 27.824 33.9399 27.6373 34.1266 27.404C34.3226 27.1613 34.4719 26.8907 34.5746 26.592C34.6772 26.2933 34.7286 25.9807 34.7286 25.654V25.514H32.9926C32.5539 25.514 32.1946 25.57 31.9146 25.682C31.6439 25.794 31.4479 25.9527 31.3266 26.158C31.2052 26.354 31.1446 26.578 31.1446 26.83C31.1446 27.1007 31.2006 27.3387 31.3126 27.544C31.4246 27.74 31.5879 27.894 31.8026 28.006C32.0266 28.118 32.2926 28.174 32.6006 28.174ZM37.9595 29V21.636H39.1355V29H37.9595ZM38.5475 20.236C38.3142 20.236 38.1182 20.1613 37.9595 20.012C37.8102 19.8533 37.7355 19.6573 37.7355 19.424C37.7355 19.1907 37.8102 19.004 37.9595 18.864C38.1182 18.7147 38.3142 18.64 38.5475 18.64C38.7715 18.64 38.9628 18.7147 39.1215 18.864C39.2802 19.004 39.3595 19.1907 39.3595 19.424C39.3595 19.6573 39.2802 19.8533 39.1215 20.012C38.9628 20.1613 38.7715 20.236 38.5475 20.236ZM41.2245 29V21.636H42.2885L42.3445 22.798C42.5591 22.378 42.8671 22.0513 43.2685 21.818C43.6791 21.5847 44.1505 21.468 44.6825 21.468C45.2238 21.468 45.6951 21.5707 46.0965 21.776C46.4978 21.9813 46.8105 22.294 47.0345 22.714C47.2585 23.134 47.3705 23.666 47.3705 24.31V29H46.1945V24.436C46.1945 23.7827 46.0311 23.2927 45.7045 22.966C45.3871 22.6393 44.9578 22.476 44.4165 22.476C44.0525 22.476 43.7165 22.5647 43.4085 22.742C43.1005 22.91 42.8531 23.162 42.6665 23.498C42.4891 23.834 42.4005 24.2447 42.4005 24.73V29H41.2245ZM48.7302 30.33L52.2442 18.304H53.4062L49.8922 30.33H48.7302ZM57.6703 29C57.2503 29 56.8863 28.9347 56.5783 28.804C56.2703 28.6733 56.0323 28.454 55.8643 28.146C55.7056 27.8287 55.6263 27.404 55.6263 26.872V22.63H54.3383V21.636H55.6263L55.7803 19.802H56.8023V21.636H58.8883V22.63H56.8023V26.872C56.8023 27.3107 56.891 27.6093 57.0683 27.768C57.2456 27.9173 57.5583 27.992 58.0063 27.992H58.8603V29H57.6703ZM60.5018 29V21.636H61.5658L61.6498 22.98C61.8178 22.644 62.0371 22.364 62.3078 22.14C62.5785 21.916 62.9051 21.748 63.2878 21.636C63.6798 21.524 64.1185 21.468 64.6038 21.468V22.7H63.8758C63.5958 22.7 63.3251 22.7373 63.0638 22.812C62.8025 22.8867 62.5645 23.008 62.3498 23.176C62.1445 23.344 61.9811 23.5727 61.8598 23.862C61.7385 24.1513 61.6778 24.5153 61.6778 24.954V29H60.5018ZM68.2529 29.168C67.6929 29.168 67.2262 29.0653 66.8529 28.86C66.4796 28.6453 66.1996 28.3653 66.0129 28.02C65.8262 27.6653 65.7329 27.2873 65.7329 26.886C65.7329 26.4007 65.8542 25.99 66.0969 25.654C66.3489 25.3087 66.6989 25.0473 67.1469 24.87C67.5949 24.6927 68.1176 24.604 68.7149 24.604H70.5489C70.5489 24.128 70.4929 23.7313 70.3809 23.414C70.2689 23.0967 70.0869 22.8587 69.8349 22.7C69.5829 22.5413 69.2469 22.462 68.8269 22.462C68.4069 22.462 68.0476 22.5693 67.7489 22.784C67.4502 22.9893 67.2636 23.2973 67.1889 23.708H65.9849C66.0409 23.2227 66.2042 22.8167 66.4749 22.49C66.7456 22.154 67.0862 21.902 67.4969 21.734C67.9169 21.5567 68.3602 21.468 68.8269 21.468C69.4896 21.468 70.0356 21.5893 70.4649 21.832C70.8942 22.0653 71.2116 22.3967 71.4169 22.826C71.6222 23.246 71.7249 23.7453 71.7249 24.324V29H70.6749L70.6049 27.74C70.5116 27.936 70.3902 28.1227 70.2409 28.3C70.1009 28.468 69.9329 28.6173 69.7369 28.748C69.5409 28.8787 69.3169 28.9813 69.0649 29.056C68.8222 29.1307 68.5516 29.168 68.2529 29.168ZM68.4209 28.174C68.7289 28.174 69.0136 28.104 69.2749 27.964C69.5362 27.824 69.7602 27.6373 69.9469 27.404C70.1429 27.1613 70.2922 26.8907 70.3949 26.592C70.4976 26.2933 70.5489 25.9807 70.5489 25.654V25.514H68.8129C68.3742 25.514 68.0149 25.57 67.7349 25.682C67.4642 25.794 67.2682 25.9527 67.1469 26.158C67.0256 26.354 66.9649 26.578 66.9649 26.83C66.9649 27.1007 67.0209 27.3387 67.1329 27.544C67.2449 27.74 67.4082 27.894 67.6229 28.006C67.8469 28.118 68.1129 28.174 68.4209 28.174ZM73.7798 29V21.636H74.9558V29H73.7798ZM74.3678 20.236C74.1345 20.236 73.9385 20.1613 73.7798 20.012C73.6305 19.8533 73.5558 19.6573 73.5558 19.424C73.5558 19.1907 73.6305 19.004 73.7798 18.864C73.9385 18.7147 74.1345 18.64 74.3678 18.64C74.5918 18.64 74.7832 18.7147 74.9418 18.864C75.1005 19.004 75.1798 19.1907 75.1798 19.424C75.1798 19.6573 75.1005 19.8533 74.9418 20.012C74.7832 20.1613 74.5918 20.236 74.3678 20.236ZM77.0448 29V21.636H78.1088L78.1648 22.798C78.3794 22.378 78.6874 22.0513 79.0888 21.818C79.4994 21.5847 79.9708 21.468 80.5028 21.468C81.0441 21.468 81.5154 21.5707 81.9168 21.776C82.3181 21.9813 82.6308 22.294 82.8548 22.714C83.0788 23.134 83.1908 23.666 83.1908 24.31V29H82.0148V24.436C82.0148 23.7827 81.8514 23.2927 81.5248 22.966C81.2074 22.6393 80.7781 22.476 80.2368 22.476C79.8728 22.476 79.5368 22.5647 79.2288 22.742C78.9208 22.91 78.6734 23.162 78.4868 23.498C78.3094 23.834 78.2208 24.2447 78.2208 24.73V29H77.0448ZM85.1385 30.61V29.504H91.9845V30.61H85.1385ZM93.9706 29V18.92H95.1466V29H93.9706ZM100.293 29.168C99.6114 29.168 99.0094 29.0093 98.4868 28.692C97.9641 28.3747 97.5581 27.9267 97.2688 27.348C96.9794 26.7693 96.8348 26.0927 96.8348 25.318C96.8348 24.534 96.9794 23.8573 97.2688 23.288C97.5674 22.7093 97.9781 22.2613 98.5008 21.944C99.0328 21.6267 99.6394 21.468 100.321 21.468C101.011 21.468 101.613 21.6267 102.127 21.944C102.649 22.2613 103.055 22.7093 103.345 23.288C103.634 23.8573 103.779 24.534 103.779 25.318C103.779 26.0927 103.629 26.7693 103.331 27.348C103.041 27.9267 102.635 28.3747 102.113 28.692C101.59 29.0093 100.983 29.168 100.293 29.168ZM100.293 28.16C100.722 28.16 101.109 28.0573 101.455 27.852C101.8 27.6373 102.071 27.32 102.267 26.9C102.472 26.4707 102.575 25.9433 102.575 25.318C102.575 24.6833 102.477 24.156 102.281 23.736C102.085 23.316 101.814 23.0033 101.469 22.798C101.133 22.5833 100.75 22.476 100.321 22.476C99.9008 22.476 99.5181 22.5833 99.1728 22.798C98.8274 23.0033 98.5521 23.316 98.3468 23.736C98.1414 24.156 98.0388 24.6833 98.0388 25.318C98.0388 25.9433 98.1368 26.4707 98.3328 26.9C98.5381 27.32 98.8088 27.6373 99.1448 27.852C99.4901 28.0573 99.8728 28.16 100.293 28.16ZM108.142 29.168C107.48 29.168 106.929 29.07 106.49 28.874C106.061 28.6687 105.734 28.3887 105.51 28.034C105.286 27.67 105.151 27.25 105.104 26.774H106.308C106.346 27.026 106.43 27.2593 106.56 27.474C106.7 27.6793 106.901 27.8473 107.162 27.978C107.424 28.1087 107.755 28.174 108.156 28.174C108.474 28.174 108.744 28.1273 108.968 28.034C109.192 27.9313 109.36 27.7913 109.472 27.614C109.594 27.4367 109.654 27.2313 109.654 26.998C109.654 26.69 109.584 26.452 109.444 26.284C109.314 26.1067 109.118 25.976 108.856 25.892C108.604 25.7987 108.287 25.7287 107.904 25.682C107.494 25.626 107.13 25.5467 106.812 25.444C106.495 25.3413 106.224 25.206 106 25.038C105.786 24.87 105.622 24.66 105.51 24.408C105.398 24.156 105.342 23.8573 105.342 23.512C105.342 23.1107 105.45 22.756 105.664 22.448C105.879 22.14 106.182 21.902 106.574 21.734C106.976 21.5567 107.447 21.468 107.988 21.468C108.782 21.468 109.407 21.65 109.864 22.014C110.331 22.378 110.606 22.896 110.69 23.568H109.528C109.482 23.2227 109.323 22.952 109.052 22.756C108.782 22.56 108.422 22.462 107.974 22.462C107.498 22.462 107.139 22.5507 106.896 22.728C106.654 22.9053 106.532 23.1387 106.532 23.428C106.532 23.6427 106.584 23.8387 106.686 24.016C106.798 24.184 106.985 24.3287 107.246 24.45C107.508 24.562 107.858 24.646 108.296 24.702C108.847 24.7673 109.314 24.8747 109.696 25.024C110.079 25.164 110.368 25.3833 110.564 25.682C110.77 25.9807 110.868 26.3867 110.858 26.9C110.858 27.3853 110.742 27.796 110.508 28.132C110.284 28.468 109.967 28.7247 109.556 28.902C109.155 29.0793 108.684 29.168 108.142 29.168ZM115.265 29.168C114.603 29.168 114.052 29.07 113.613 28.874C113.184 28.6687 112.857 28.3887 112.633 28.034C112.409 27.67 112.274 27.25 112.227 26.774H113.431C113.469 27.026 113.553 27.2593 113.683 27.474C113.823 27.6793 114.024 27.8473 114.285 27.978C114.547 28.1087 114.878 28.174 115.279 28.174C115.597 28.174 115.867 28.1273 116.091 28.034C116.315 27.9313 116.483 27.7913 116.595 27.614C116.717 27.4367 116.777 27.2313 116.777 26.998C116.777 26.69 116.707 26.452 116.567 26.284C116.437 26.1067 116.241 25.976 115.979 25.892C115.727 25.7987 115.41 25.7287 115.027 25.682C114.617 25.626 114.253 25.5467 113.935 25.444C113.618 25.3413 113.347 25.206 113.123 25.038C112.909 24.87 112.745 24.66 112.633 24.408C112.521 24.156 112.465 23.8573 112.465 23.512C112.465 23.1107 112.573 22.756 112.787 22.448C113.002 22.14 113.305 21.902 113.697 21.734C114.099 21.5567 114.57 21.468 115.111 21.468C115.905 21.468 116.53 21.65 116.987 22.014C117.454 22.378 117.729 22.896 117.813 23.568H116.651C116.605 23.2227 116.446 22.952 116.175 22.756C115.905 22.56 115.545 22.462 115.097 22.462C114.621 22.462 114.262 22.5507 114.019 22.728C113.777 22.9053 113.655 23.1387 113.655 23.428C113.655 23.6427 113.707 23.8387 113.809 24.016C113.921 24.184 114.108 24.3287 114.369 24.45C114.631 24.562 114.981 24.646 115.419 24.702C115.97 24.7673 116.437 24.8747 116.819 25.024C117.202 25.164 117.491 25.3833 117.687 25.682C117.893 25.9807 117.991 26.3867 117.981 26.9C117.981 27.3853 117.865 27.796 117.631 28.132C117.407 28.468 117.09 28.7247 116.679 28.902C116.278 29.0793 115.807 29.168 115.265 29.168Z" fill="white"/>
<path d="M19.8 59V52.94L18.36 53.4V52.74L20.08 52H20.65V59H19.8ZM22.458 59.05C22.298 59.05 22.1613 58.9967 22.048 58.89C21.9413 58.7767 21.888 58.64 21.888 58.48C21.888 58.32 21.9413 58.1867 22.048 58.08C22.1613 57.9667 22.298 57.91 22.458 57.91C22.6313 57.91 22.768 57.9667 22.868 58.08C22.9746 58.1867 23.028 58.32 23.028 58.48C23.028 58.64 22.9746 58.7767 22.868 58.89C22.768 58.9967 22.6313 59.05 22.458 59.05ZM26.3877 59.12C25.8077 59.12 25.3077 58.97 24.8877 58.67C24.4743 58.3633 24.1543 57.94 23.9277 57.4C23.701 56.8533 23.5877 56.22 23.5877 55.5C23.5877 54.78 23.701 54.15 23.9277 53.61C24.1543 53.0633 24.4743 52.64 24.8877 52.34C25.3077 52.0333 25.8077 51.88 26.3877 51.88C26.9677 51.88 27.4643 52.0333 27.8777 52.34C28.291 52.64 28.6077 53.0633 28.8277 53.61C29.0543 54.15 29.1677 54.78 29.1677 55.5C29.1677 56.22 29.0543 56.8533 28.8277 57.4C28.6077 57.94 28.291 58.3633 27.8777 58.67C27.4643 58.97 26.9677 59.12 26.3877 59.12ZM26.3877 58.38C26.7543 58.38 27.081 58.2667 27.3677 58.04C27.6543 57.8067 27.881 57.4767 28.0477 57.05C28.221 56.6167 28.3077 56.1 28.3077 55.5C28.3077 54.8933 28.221 54.3767 28.0477 53.95C27.881 53.5233 27.6543 53.1967 27.3677 52.97C27.081 52.7433 26.7543 52.63 26.3877 52.63C26.0143 52.63 25.681 52.7433 25.3877 52.97C25.0943 53.1967 24.8643 53.5233 24.6977 53.95C24.531 54.3767 24.4477 54.8933 24.4477 55.5C24.4477 56.1 24.531 56.6167 24.6977 57.05C24.8643 57.4767 25.0943 57.8067 25.3877 58.04C25.681 58.2667 26.0143 58.38 26.3877 58.38Z" fill="#77758D"/>
<path d="M18.29 91.12C17.71 91.12 17.21 90.97 16.79 90.67C16.3767 90.3633 16.0567 89.94 15.83 89.4C15.6033 88.8533 15.49 88.22 15.49 87.5C15.49 86.78 15.6033 86.15 15.83 85.61C16.0567 85.0633 16.3767 84.64 16.79 84.34C17.21 84.0333 17.71 83.88 18.29 83.88C18.87 83.88 19.3667 84.0333 19.78 84.34C20.1933 84.64 20.51 85.0633 20.73 85.61C20.9567 86.15 21.07 86.78 21.07 87.5C21.07 88.22 20.9567 88.8533 20.73 89.4C20.51 89.94 20.1933 90.3633 19.78 90.67C19.3667 90.97 18.87 91.12 18.29 91.12ZM18.29 90.38C18.6567 90.38 18.9833 90.2667 19.27 90.04C19.5567 89.8067 19.7833 89.4767 19.95 89.05C20.1233 88.6167 20.21 88.1 20.21 87.5C20.21 86.8933 20.1233 86.3767 19.95 85.95C19.7833 85.5233 19.5567 85.1967 19.27 84.97C18.9833 84.7433 18.6567 84.63 18.29 84.63C17.9167 84.63 17.5833 84.7433 17.29 84.97C16.9967 85.1967 16.7667 85.5233 16.6 85.95C16.4333 86.3767 16.35 86.8933 16.35 87.5C16.35 88.1 16.4333 88.6167 16.6 89.05C16.7667 89.4767 16.9967 89.8067 17.29 90.04C17.5833 90.2667 17.9167 90.38 18.29 90.38ZM22.2021 91.05C22.0421 91.05 21.9054 90.9967 21.7921 90.89C21.6854 90.7767 21.6321 90.64 21.6321 90.48C21.6321 90.32 21.6854 90.1867 21.7921 90.08C21.9054 89.9667 22.0421 89.91 22.2021 89.91C22.3754 89.91 22.5121 89.9667 22.6121 90.08C22.7188 90.1867 22.7721 90.32 22.7721 90.48C22.7721 90.64 22.7188 90.7767 22.6121 90.89C22.5121 90.9967 22.3754 91.05 22.2021 91.05ZM26.2622 91.12C25.8222 91.12 25.4222 91.0367 25.0622 90.87C24.7089 90.6967 24.4289 90.46 24.2222 90.16C24.0155 89.8533 23.9122 89.5 23.9122 89.1C23.9122 88.8133 23.9655 88.5467 24.0722 88.3C24.1855 88.0533 24.3389 87.84 24.5322 87.66C24.7255 87.4733 24.9522 87.3433 25.2122 87.27C24.8589 87.1367 24.5822 86.93 24.3822 86.65C24.1822 86.37 24.0822 86.0667 24.0822 85.74C24.0822 85.3933 24.1689 85.08 24.3422 84.8C24.5222 84.52 24.7755 84.2967 25.1022 84.13C25.4289 83.9633 25.8155 83.88 26.2622 83.88C26.7155 83.88 27.1022 83.9633 27.4222 84.13C27.7489 84.2967 27.9989 84.52 28.1722 84.8C28.3455 85.08 28.4322 85.3933 28.4322 85.74C28.4322 86.0667 28.3322 86.37 28.1322 86.65C27.9389 86.93 27.6655 87.1367 27.3122 87.27C27.5722 87.3433 27.7989 87.4733 27.9922 87.66C28.1855 87.84 28.3355 88.0533 28.4422 88.3C28.5555 88.5467 28.6122 88.8133 28.6122 89.1C28.6122 89.5 28.5089 89.8533 28.3022 90.16C28.0955 90.46 27.8122 90.6967 27.4522 90.87C27.0989 91.0367 26.7022 91.12 26.2622 91.12ZM26.2622 90.38C26.7622 90.38 27.1389 90.26 27.3922 90.02C27.6455 89.7733 27.7722 89.45 27.7722 89.05C27.7722 88.5967 27.6322 88.2533 27.3522 88.02C27.0789 87.7867 26.7155 87.67 26.2622 87.67C25.8089 87.67 25.4422 87.7867 25.1622 88.02C24.8889 88.2533 24.7522 88.5967 24.7522 89.05C24.7522 89.45 24.8755 89.7733 25.1222 90.02C25.3755 90.26 25.7555 90.38 26.2622 90.38ZM26.2622 86.97C26.6622 86.97 26.9822 86.86 27.2222 86.64C27.4622 86.42 27.5822 86.1367 27.5822 85.79C27.5822 85.3967 27.4622 85.1 27.2222 84.9C26.9889 84.7 26.6689 84.6 26.2622 84.6C25.8555 84.6 25.5322 84.7 25.2922 84.9C25.0589 85.1 24.9422 85.3967 24.9422 85.79C24.9422 86.1367 25.0622 86.42 25.3022 86.64C25.5422 86.86 25.8622 86.97 26.2622 86.97Z" fill="#77758D"/>
<path d="M18.29 123.12C17.71 123.12 17.21 122.97 16.79 122.67C16.3767 122.363 16.0567 121.94 15.83 121.4C15.6033 120.853 15.49 120.22 15.49 119.5C15.49 118.78 15.6033 118.15 15.83 117.61C16.0567 117.063 16.3767 116.64 16.79 116.34C17.21 116.033 17.71 115.88 18.29 115.88C18.87 115.88 19.3667 116.033 19.78 116.34C20.1933 116.64 20.51 117.063 20.73 117.61C20.9567 118.15 21.07 118.78 21.07 119.5C21.07 120.22 20.9567 120.853 20.73 121.4C20.51 121.94 20.1933 122.363 19.78 122.67C19.3667 122.97 18.87 123.12 18.29 123.12ZM18.29 122.38C18.6567 122.38 18.9833 122.267 19.27 122.04C19.5567 121.807 19.7833 121.477 19.95 121.05C20.1233 120.617 20.21 120.1 20.21 119.5C20.21 118.893 20.1233 118.377 19.95 117.95C19.7833 117.523 19.5567 117.197 19.27 116.97C18.9833 116.743 18.6567 116.63 18.29 116.63C17.9167 116.63 17.5833 116.743 17.29 116.97C16.9967 117.197 16.7667 117.523 16.6 117.95C16.4333 118.377 16.35 118.893 16.35 119.5C16.35 120.1 16.4333 120.617 16.6 121.05C16.7667 121.477 16.9967 121.807 17.29 122.04C17.5833 122.267 17.9167 122.38 18.29 122.38ZM22.2021 123.05C22.0421 123.05 21.9054 122.997 21.7921 122.89C21.6854 122.777 21.6321 122.64 21.6321 122.48C21.6321 122.32 21.6854 122.187 21.7921 122.08C21.9054 121.967 22.0421 121.91 22.2021 121.91C22.3754 121.91 22.5121 121.967 22.6121 122.08C22.7188 122.187 22.7721 122.32 22.7721 122.48C22.7721 122.64 22.7188 122.777 22.6121 122.89C22.5121 122.997 22.3754 123.05 22.2021 123.05ZM26.1895 123.12C25.6895 123.12 25.2661 123.027 24.9195 122.84C24.5795 122.653 24.3061 122.403 24.0995 122.09C23.8995 121.77 23.7528 121.41 23.6595 121.01C23.5661 120.61 23.5195 120.2 23.5195 119.78C23.5195 119.007 23.6228 118.33 23.8295 117.75C24.0428 117.163 24.3495 116.707 24.7495 116.38C25.1495 116.047 25.6328 115.88 26.1995 115.88C26.6395 115.88 27.0161 115.963 27.3295 116.13C27.6495 116.297 27.9028 116.52 28.0895 116.8C28.2761 117.073 28.3895 117.38 28.4295 117.72H27.6495C27.5828 117.367 27.4195 117.093 27.1595 116.9C26.9061 116.707 26.5828 116.61 26.1895 116.61C25.8361 116.61 25.5195 116.72 25.2395 116.94C24.9661 117.16 24.7495 117.493 24.5895 117.94C24.4295 118.38 24.3395 118.943 24.3195 119.63C24.3195 119.643 24.3195 119.657 24.3195 119.67C24.3195 119.683 24.3195 119.697 24.3195 119.71C24.4128 119.497 24.5528 119.3 24.7395 119.12C24.9261 118.94 25.1528 118.797 25.4195 118.69C25.6861 118.577 25.9795 118.52 26.2995 118.52C26.6928 118.52 27.0561 118.613 27.3895 118.8C27.7295 118.987 28.0028 119.25 28.2095 119.59C28.4161 119.923 28.5195 120.317 28.5195 120.77C28.5195 121.163 28.4228 121.54 28.2295 121.9C28.0428 122.26 27.7761 122.553 27.4295 122.78C27.0828 123.007 26.6695 123.12 26.1895 123.12ZM26.1295 122.38C26.4228 122.38 26.6828 122.313 26.9095 122.18C27.1428 122.047 27.3261 121.863 27.4595 121.63C27.5995 121.39 27.6695 121.117 27.6695 120.81C27.6695 120.497 27.5995 120.223 27.4595 119.99C27.3261 119.757 27.1428 119.577 26.9095 119.45C26.6828 119.317 26.4228 119.25 26.1295 119.25C25.8295 119.25 25.5595 119.32 25.3195 119.46C25.0795 119.593 24.8895 119.78 24.7495 120.02C24.6095 120.253 24.5395 120.52 24.5395 120.82C24.5395 121.127 24.6095 121.4 24.7495 121.64C24.8895 121.873 25.0795 122.057 25.3195 122.19C25.5595 122.317 25.8295 122.38 26.1295 122.38Z" fill="#77758D"/>
<path d="M18.29 155.12C17.71 155.12 17.21 154.97 16.79 154.67C16.3767 154.363 16.0567 153.94 15.83 153.4C15.6033 152.853 15.49 152.22 15.49 151.5C15.49 150.78 15.6033 150.15 15.83 149.61C16.0567 149.063 16.3767 148.64 16.79 148.34C17.21 148.033 17.71 147.88 18.29 147.88C18.87 147.88 19.3667 148.033 19.78 148.34C20.1933 148.64 20.51 149.063 20.73 149.61C20.9567 150.15 21.07 150.78 21.07 151.5C21.07 152.22 20.9567 152.853 20.73 153.4C20.51 153.94 20.1933 154.363 19.78 154.67C19.3667 154.97 18.87 155.12 18.29 155.12ZM18.29 154.38C18.6567 154.38 18.9833 154.267 19.27 154.04C19.5567 153.807 19.7833 153.477 19.95 153.05C20.1233 152.617 20.21 152.1 20.21 151.5C20.21 150.893 20.1233 150.377 19.95 149.95C19.7833 149.523 19.5567 149.197 19.27 148.97C18.9833 148.743 18.6567 148.63 18.29 148.63C17.9167 148.63 17.5833 148.743 17.29 148.97C16.9967 149.197 16.7667 149.523 16.6 149.95C16.4333 150.377 16.35 150.893 16.35 151.5C16.35 152.1 16.4333 152.617 16.6 153.05C16.7667 153.477 16.9967 153.807 17.29 154.04C17.5833 154.267 17.9167 154.38 18.29 154.38ZM22.2021 155.05C22.0421 155.05 21.9054 154.997 21.7921 154.89C21.6854 154.777 21.6321 154.64 21.6321 154.48C21.6321 154.32 21.6854 154.187 21.7921 154.08C21.9054 153.967 22.0421 153.91 22.2021 153.91C22.3754 153.91 22.5121 153.967 22.6121 154.08C22.7188 154.187 22.7721 154.32 22.7721 154.48C22.7721 154.64 22.7188 154.777 22.6121 154.89C22.5121 154.997 22.3754 155.05 22.2021 155.05ZM27.2022 155V153.5H23.6522V152.85L27.0522 148H28.0322V152.76H29.0722V153.5H28.0322V155H27.2022ZM24.5822 152.76H27.2422V148.93L24.5822 152.76Z" fill="#77758D"/>
<path d="M18.29 187.12C17.71 187.12 17.21 186.97 16.79 186.67C16.3767 186.363 16.0567 185.94 15.83 185.4C15.6033 184.853 15.49 184.22 15.49 183.5C15.49 182.78 15.6033 182.15 15.83 181.61C16.0567 181.063 16.3767 180.64 16.79 180.34C17.21 180.033 17.71 179.88 18.29 179.88C18.87 179.88 19.3667 180.033 19.78 180.34C20.1933 180.64 20.51 181.063 20.73 181.61C20.9567 182.15 21.07 182.78 21.07 183.5C21.07 184.22 20.9567 184.853 20.73 185.4C20.51 185.94 20.1933 186.363 19.78 186.67C19.3667 186.97 18.87 187.12 18.29 187.12ZM18.29 186.38C18.6567 186.38 18.9833 186.267 19.27 186.04C19.5567 185.807 19.7833 185.477 19.95 185.05C20.1233 184.617 20.21 184.1 20.21 183.5C20.21 182.893 20.1233 182.377 19.95 181.95C19.7833 181.523 19.5567 181.197 19.27 180.97C18.9833 180.743 18.6567 180.63 18.29 180.63C17.9167 180.63 17.5833 180.743 17.29 180.97C16.9967 181.197 16.7667 181.523 16.6 181.95C16.4333 182.377 16.35 182.893 16.35 183.5C16.35 184.1 16.4333 184.617 16.6 185.05C16.7667 185.477 16.9967 185.807 17.29 186.04C17.5833 186.267 17.9167 186.38 18.29 186.38ZM22.2021 187.05C22.0421 187.05 21.9054 186.997 21.7921 186.89C21.6854 186.777 21.6321 186.64 21.6321 186.48C21.6321 186.32 21.6854 186.187 21.7921 186.08C21.9054 185.967 22.0421 185.91 22.2021 185.91C22.3754 185.91 22.5121 185.967 22.6121 186.08C22.7188 186.187 22.7721 186.32 22.7721 186.48C22.7721 186.64 22.7188 186.777 22.6121 186.89C22.5121 186.997 22.3754 187.05 22.2021 187.05ZM23.8922 187V186.41C24.3855 186.037 24.8522 185.66 25.2922 185.28C25.7322 184.9 26.1222 184.523 26.4622 184.15C26.8022 183.77 27.0689 183.4 27.2622 183.04C27.4555 182.68 27.5522 182.333 27.5522 182C27.5522 181.753 27.5055 181.527 27.4122 181.32C27.3255 181.107 27.1822 180.933 26.9822 180.8C26.7889 180.667 26.5255 180.6 26.1922 180.6C25.8722 180.6 25.6055 180.67 25.3922 180.81C25.1789 180.943 25.0189 181.123 24.9122 181.35C24.8055 181.57 24.7522 181.813 24.7522 182.08H23.9422C23.9489 181.62 24.0489 181.227 24.2422 180.9C24.4355 180.567 24.7022 180.313 25.0422 180.14C25.3822 179.967 25.7689 179.88 26.2022 179.88C26.6289 179.88 27.0055 179.96 27.3322 180.12C27.6589 180.273 27.9155 180.507 28.1022 180.82C28.2955 181.127 28.3922 181.51 28.3922 181.97C28.3922 182.297 28.3222 182.623 28.1822 182.95C28.0489 183.277 27.8655 183.597 27.6322 183.91C27.3989 184.217 27.1389 184.513 26.8522 184.8C26.5722 185.087 26.2822 185.357 25.9822 185.61C25.6822 185.863 25.3989 186.093 25.1322 186.3H28.6322V187H23.8922Z" fill="#77758D"/>
<path d="M18.29 219.12C17.71 219.12 17.21 218.97 16.79 218.67C16.3767 218.363 16.0567 217.94 15.83 217.4C15.6033 216.853 15.49 216.22 15.49 215.5C15.49 214.78 15.6033 214.15 15.83 213.61C16.0567 213.063 16.3767 212.64 16.79 212.34C17.21 212.033 17.71 211.88 18.29 211.88C18.87 211.88 19.3667 212.033 19.78 212.34C20.1933 212.64 20.51 213.063 20.73 213.61C20.9567 214.15 21.07 214.78 21.07 215.5C21.07 216.22 20.9567 216.853 20.73 217.4C20.51 217.94 20.1933 218.363 19.78 218.67C19.3667 218.97 18.87 219.12 18.29 219.12ZM18.29 218.38C18.6567 218.38 18.9833 218.267 19.27 218.04C19.5567 217.807 19.7833 217.477 19.95 217.05C20.1233 216.617 20.21 216.1 20.21 215.5C20.21 214.893 20.1233 214.377 19.95 213.95C19.7833 213.523 19.5567 213.197 19.27 212.97C18.9833 212.743 18.6567 212.63 18.29 212.63C17.9167 212.63 17.5833 212.743 17.29 212.97C16.9967 213.197 16.7667 213.523 16.6 213.95C16.4333 214.377 16.35 214.893 16.35 215.5C16.35 216.1 16.4333 216.617 16.6 217.05C16.7667 217.477 16.9967 217.807 17.29 218.04C17.5833 218.267 17.9167 218.38 18.29 218.38ZM22.2021 219.05C22.0421 219.05 21.9054 218.997 21.7921 218.89C21.6854 218.777 21.6321 218.64 21.6321 218.48C21.6321 218.32 21.6854 218.187 21.7921 218.08C21.9054 217.967 22.0421 217.91 22.2021 217.91C22.3754 217.91 22.5121 217.967 22.6121 218.08C22.7188 218.187 22.7721 218.32 22.7721 218.48C22.7721 218.64 22.7188 218.777 22.6121 218.89C22.5121 218.997 22.3754 219.05 22.2021 219.05ZM26.1318 219.12C25.5518 219.12 25.0518 218.97 24.6318 218.67C24.2185 218.363 23.8985 217.94 23.6718 217.4C23.4451 216.853 23.3318 216.22 23.3318 215.5C23.3318 214.78 23.4451 214.15 23.6718 213.61C23.8985 213.063 24.2185 212.64 24.6318 212.34C25.0518 212.033 25.5518 211.88 26.1318 211.88C26.7118 211.88 27.2085 212.033 27.6218 212.34C28.0351 212.64 28.3518 213.063 28.5718 213.61C28.7985 214.15 28.9118 214.78 28.9118 215.5C28.9118 216.22 28.7985 216.853 28.5718 217.4C28.3518 217.94 28.0351 218.363 27.6218 218.67C27.2085 218.97 26.7118 219.12 26.1318 219.12ZM26.1318 218.38C26.4985 218.38 26.8251 218.267 27.1118 218.04C27.3985 217.807 27.6251 217.477 27.7918 217.05C27.9651 216.617 28.0518 216.1 28.0518 215.5C28.0518 214.893 27.9651 214.377 27.7918 213.95C27.6251 213.523 27.3985 213.197 27.1118 212.97C26.8251 212.743 26.4985 212.63 26.1318 212.63C25.7585 212.63 25.4251 212.743 25.1318 212.97C24.8385 213.197 24.6085 213.523 24.4418 213.95C24.2751 214.377 24.1918 214.893 24.1918 215.5C24.1918 216.1 24.2751 216.617 24.4418 217.05C24.6085 217.477 24.8385 217.807 25.1318 218.04C25.4251 218.267 25.7585 218.38 26.1318 218.38Z" fill="#77758D"/>
<line x1="166.75" y1="215.75" x2="166.75" y2="48.25" stroke="#343246" stroke-width="0.5" stroke-linecap="round" stroke-dasharray="4 4"/>
<line x1="102.75" y1="215.75" x2="102.75" y2="48.25" stroke="#343246" stroke-width="0.5" stroke-linecap="round" stroke-dasharray="4 4"/>
<line x1="40.75" y1="215.75" x2="40.75" y2="48.25" stroke="#343246" stroke-width="0.5" stroke-linecap="round" stroke-dasharray="4 4"/>
<line x1="231.75" y1="215.75" x2="231.75" y2="48.25" stroke="#343246" stroke-width="0.5" stroke-linecap="round" stroke-dasharray="4 4"/>
<line x1="297.75" y1="215.75" x2="297.75" y2="48.25" stroke="#343246" stroke-width="0.5" stroke-linecap="round" stroke-dasharray="4 4"/>
<line x1="323.75" y1="216.25" x2="33.25" y2="216.25" stroke="#343246" stroke-width="0.5" stroke-linecap="round" stroke-dasharray="4 4"/>
<line x1="323.75" y1="184.25" x2="33.25" y2="184.25" stroke="#343246" stroke-width="0.5" stroke-linecap="round" stroke-dasharray="4 4"/>
<line x1="323.75" y1="152.25" x2="33.25" y2="152.25" stroke="#343246" stroke-width="0.5" stroke-linecap="round" stroke-dasharray="4 4"/>
<line x1="323.75" y1="120.25" x2="33.25" y2="120.25" stroke="#343246" stroke-width="0.5" stroke-linecap="round" stroke-dasharray="4 4"/>
<line x1="323.75" y1="88.25" x2="33.25" y2="88.25" stroke="#343246" stroke-width="0.5" stroke-linecap="round" stroke-dasharray="4 4"/>
<line x1="323.75" y1="56.25" x2="33.25" y2="56.25" stroke="#343246" stroke-width="0.5" stroke-linecap="round" stroke-dasharray="4 4"/>
<path d="M54.2 238L52.28 231H53.18L54.69 237L56.4 231H57.34L59.01 237.02L60.54 231H61.44L59.48 238H58.52L56.85 232.21L55.14 238H54.2ZM62.4073 238V230.8H63.2473V233.59C63.4206 233.29 63.6573 233.053 63.9573 232.88C64.2573 232.707 64.5806 232.62 64.9273 232.62C65.3339 232.62 65.6773 232.697 65.9573 232.85C66.2439 232.997 66.4606 233.223 66.6073 233.53C66.7606 233.837 66.8373 234.227 66.8373 234.7V238H66.0073V234.79C66.0073 234.31 65.8939 233.95 65.6673 233.71C65.4406 233.463 65.1339 233.34 64.7473 233.34C64.4739 233.34 64.2239 233.407 63.9973 233.54C63.7706 233.667 63.5873 233.857 63.4473 234.11C63.3139 234.363 63.2473 234.67 63.2473 235.03V238H62.4073ZM68.3076 238V232.74H69.1476V238H68.3076ZM68.7276 231.74C68.5609 231.74 68.4209 231.687 68.3076 231.58C68.2009 231.467 68.1476 231.327 68.1476 231.16C68.1476 230.993 68.2009 230.86 68.3076 230.76C68.4209 230.653 68.5609 230.6 68.7276 230.6C68.8876 230.6 69.0242 230.653 69.1376 230.76C69.2509 230.86 69.3076 230.993 69.3076 231.16C69.3076 231.327 69.2509 231.467 69.1376 231.58C69.0242 231.687 68.8876 231.74 68.7276 231.74ZM72.5397 238.12C72.0664 238.12 71.673 238.05 71.3597 237.91C71.053 237.763 70.8197 237.563 70.6597 237.31C70.4997 237.05 70.403 236.75 70.3697 236.41H71.2297C71.2564 236.59 71.3164 236.757 71.4097 236.91C71.5097 237.057 71.653 237.177 71.8397 237.27C72.0264 237.363 72.263 237.41 72.5497 237.41C72.7764 237.41 72.9697 237.377 73.1297 237.31C73.2897 237.237 73.4097 237.137 73.4897 237.01C73.5764 236.883 73.6197 236.737 73.6197 236.57C73.6197 236.35 73.5697 236.18 73.4697 236.06C73.3764 235.933 73.2364 235.84 73.0497 235.78C72.8697 235.713 72.643 235.663 72.3697 235.63C72.0764 235.59 71.8164 235.533 71.5897 235.46C71.363 235.387 71.1697 235.29 71.0097 235.17C70.8564 235.05 70.7397 234.9 70.6597 234.72C70.5797 234.54 70.5397 234.327 70.5397 234.08C70.5397 233.793 70.6164 233.54 70.7697 233.32C70.923 233.1 71.1397 232.93 71.4197 232.81C71.7064 232.683 72.043 232.62 72.4297 232.62C72.9964 232.62 73.443 232.75 73.7697 233.01C74.103 233.27 74.2997 233.64 74.3597 234.12H73.5297C73.4964 233.873 73.383 233.68 73.1897 233.54C72.9964 233.4 72.7397 233.33 72.4197 233.33C72.0797 233.33 71.823 233.393 71.6497 233.52C71.4764 233.647 71.3897 233.813 71.3897 234.02C71.3897 234.173 71.4264 234.313 71.4997 234.44C71.5797 234.56 71.713 234.663 71.8997 234.75C72.0864 234.83 72.3364 234.89 72.6497 234.93C73.043 234.977 73.3764 235.053 73.6497 235.16C73.923 235.26 74.1297 235.417 74.2697 235.63C74.4164 235.843 74.4864 236.133 74.4797 236.5C74.4797 236.847 74.3964 237.14 74.2297 237.38C74.0697 237.62 73.843 237.803 73.5497 237.93C73.263 238.057 72.9264 238.12 72.5397 238.12ZM75.7276 240.2V232.74H76.4876L76.5576 233.56C76.6642 233.387 76.7976 233.23 76.9576 233.09C77.1242 232.95 77.3209 232.837 77.5476 232.75C77.7809 232.663 78.0476 232.62 78.3476 232.62C78.8209 232.62 79.2342 232.74 79.5876 232.98C79.9476 233.22 80.2276 233.547 80.4276 233.96C80.6276 234.373 80.7276 234.847 80.7276 235.38C80.7276 235.907 80.6276 236.377 80.4276 236.79C80.2276 237.203 79.9476 237.53 79.5876 237.77C79.2276 238.003 78.8109 238.12 78.3376 238.12C77.9309 238.12 77.5742 238.037 77.2676 237.87C76.9609 237.703 76.7276 237.47 76.5676 237.17V240.2H75.7276ZM78.2376 237.39C78.5509 237.39 78.8276 237.31 79.0676 237.15C79.3142 236.983 79.5076 236.75 79.6476 236.45C79.7942 236.143 79.8676 235.783 79.8676 235.37C79.8676 234.957 79.7942 234.6 79.6476 234.3C79.5076 233.993 79.3142 233.76 79.0676 233.6C78.8276 233.433 78.5509 233.35 78.2376 233.35C77.9042 233.35 77.6142 233.433 77.3676 233.6C77.1209 233.76 76.9309 233.993 76.7976 234.3C76.6642 234.6 76.5976 234.957 76.5976 235.37C76.5976 235.783 76.6642 236.143 76.7976 236.45C76.9309 236.75 77.1209 236.983 77.3676 237.15C77.6142 237.31 77.9042 237.39 78.2376 237.39ZM84.1283 238.12C83.6616 238.12 83.2483 238.007 82.8883 237.78C82.5283 237.553 82.2449 237.233 82.0383 236.82C81.8383 236.407 81.7383 235.923 81.7383 235.37C81.7383 234.817 81.8383 234.333 82.0383 233.92C82.2449 233.507 82.5283 233.187 82.8883 232.96C83.2549 232.733 83.6749 232.62 84.1483 232.62C84.6549 232.62 85.0783 232.733 85.4183 232.96C85.7583 233.187 86.0149 233.49 86.1883 233.87C86.3616 234.25 86.4483 234.667 86.4483 235.12C86.4483 235.187 86.4483 235.253 86.4483 235.32C86.4483 235.387 86.4449 235.467 86.4383 235.56H82.3683V234.91H85.6283C85.6149 234.397 85.4649 234.007 85.1783 233.74C84.8983 233.467 84.5483 233.33 84.1283 233.33C83.8483 233.33 83.5883 233.4 83.3483 233.54C83.1149 233.673 82.9249 233.873 82.7783 234.14C82.6316 234.407 82.5583 234.74 82.5583 235.14V235.42C82.5583 235.86 82.6316 236.23 82.7783 236.53C82.9249 236.823 83.1149 237.043 83.3483 237.19C83.5883 237.337 83.8483 237.41 84.1283 237.41C84.5016 237.41 84.7949 237.34 85.0083 237.2C85.2216 237.053 85.3783 236.847 85.4783 236.58H86.3083C86.2283 236.873 86.0883 237.137 85.8883 237.37C85.6949 237.603 85.4483 237.787 85.1483 237.92C84.8549 238.053 84.5149 238.12 84.1283 238.12ZM87.6123 238V232.74H88.3723L88.4323 233.7C88.5523 233.46 88.709 233.26 88.9023 233.1C89.0957 232.94 89.329 232.82 89.6023 232.74C89.8823 232.66 90.1957 232.62 90.5423 232.62V233.5H90.0223C89.8223 233.5 89.629 233.527 89.4423 233.58C89.2557 233.633 89.0857 233.72 88.9323 233.84C88.7857 233.96 88.669 234.123 88.5823 234.33C88.4957 234.537 88.4523 234.797 88.4523 235.11V238H87.6123ZM91.5088 239.15V238.36H96.3988V239.15H91.5088ZM99.8574 238C99.5574 238 99.2974 237.953 99.0774 237.86C98.8574 237.767 98.6874 237.61 98.5674 237.39C98.4541 237.163 98.3974 236.86 98.3974 236.48V233.45H97.4774V232.74H98.3974L98.5074 231.43H99.2374V232.74H100.727V233.45H99.2374V236.48C99.2374 236.793 99.3008 237.007 99.4274 237.12C99.5541 237.227 99.7774 237.28 100.097 237.28H100.707V238H99.8574ZM101.96 238V232.74H102.8V238H101.96ZM102.38 231.74C102.213 231.74 102.073 231.687 101.96 231.58C101.853 231.467 101.8 231.327 101.8 231.16C101.8 230.993 101.853 230.86 101.96 230.76C102.073 230.653 102.213 230.6 102.38 230.6C102.54 230.6 102.677 230.653 102.79 230.76C102.903 230.86 102.96 230.993 102.96 231.16C102.96 231.327 102.903 231.467 102.79 231.58C102.677 231.687 102.54 231.74 102.38 231.74ZM104.292 238V232.74H105.052L105.092 233.57C105.245 233.27 105.465 233.037 105.752 232.87C106.045 232.703 106.382 232.62 106.762 232.62C107.149 232.62 107.485 232.693 107.772 232.84C108.059 232.987 108.282 233.21 108.442 233.51C108.602 233.81 108.682 234.19 108.682 234.65V238H107.842V234.74C107.842 234.273 107.725 233.923 107.492 233.69C107.265 233.457 106.959 233.34 106.572 233.34C106.312 233.34 106.072 233.403 105.852 233.53C105.632 233.65 105.455 233.83 105.322 234.07C105.195 234.31 105.132 234.603 105.132 234.95V238H104.292ZM110.517 240.2L111.707 237.44H111.417L109.447 232.74H110.357L111.987 236.79L113.687 232.74H114.557L111.387 240.2H110.517Z" fill="#806CFF"/>
<path d="M71 216L71 59C71 56.7909 72.7909 55 75 55C77.2091 55 79 56.7909 79 59L79 216H71Z" fill="#806CFF"/>
<path d="M148.2 238L146.28 231H147.18L148.69 237L150.4 231H151.34L153.01 237.02L154.54 231H155.44L153.48 238H152.52L150.85 232.21L149.14 238H148.2ZM156.407 238V230.8H157.247V233.59C157.421 233.29 157.657 233.053 157.957 232.88C158.257 232.707 158.581 232.62 158.927 232.62C159.334 232.62 159.677 232.697 159.957 232.85C160.244 232.997 160.461 233.223 160.607 233.53C160.761 233.837 160.837 234.227 160.837 234.7V238H160.007V234.79C160.007 234.31 159.894 233.95 159.667 233.71C159.441 233.463 159.134 233.34 158.747 233.34C158.474 233.34 158.224 233.407 157.997 233.54C157.771 233.667 157.587 233.857 157.447 234.11C157.314 234.363 157.247 234.67 157.247 235.03V238H156.407ZM162.308 238V232.74H163.148V238H162.308ZM162.728 231.74C162.561 231.74 162.421 231.687 162.308 231.58C162.201 231.467 162.148 231.327 162.148 231.16C162.148 230.993 162.201 230.86 162.308 230.76C162.421 230.653 162.561 230.6 162.728 230.6C162.888 230.6 163.024 230.653 163.138 230.76C163.251 230.86 163.308 230.993 163.308 231.16C163.308 231.327 163.251 231.467 163.138 231.58C163.024 231.687 162.888 231.74 162.728 231.74ZM166.54 238.12C166.066 238.12 165.673 238.05 165.36 237.91C165.053 237.763 164.82 237.563 164.66 237.31C164.5 237.05 164.403 236.75 164.37 236.41H165.23C165.256 236.59 165.316 236.757 165.41 236.91C165.51 237.057 165.653 237.177 165.84 237.27C166.026 237.363 166.263 237.41 166.55 237.41C166.776 237.41 166.97 237.377 167.13 237.31C167.29 237.237 167.41 237.137 167.49 237.01C167.576 236.883 167.62 236.737 167.62 236.57C167.62 236.35 167.57 236.18 167.47 236.06C167.376 235.933 167.236 235.84 167.05 235.78C166.87 235.713 166.643 235.663 166.37 235.63C166.076 235.59 165.816 235.533 165.59 235.46C165.363 235.387 165.17 235.29 165.01 235.17C164.856 235.05 164.74 234.9 164.66 234.72C164.58 234.54 164.54 234.327 164.54 234.08C164.54 233.793 164.616 233.54 164.77 233.32C164.923 233.1 165.14 232.93 165.42 232.81C165.706 232.683 166.043 232.62 166.43 232.62C166.996 232.62 167.443 232.75 167.77 233.01C168.103 233.27 168.3 233.64 168.36 234.12H167.53C167.496 233.873 167.383 233.68 167.19 233.54C166.996 233.4 166.74 233.33 166.42 233.33C166.08 233.33 165.823 233.393 165.65 233.52C165.476 233.647 165.39 233.813 165.39 234.02C165.39 234.173 165.426 234.313 165.5 234.44C165.58 234.56 165.713 234.663 165.9 234.75C166.086 234.83 166.336 234.89 166.65 234.93C167.043 234.977 167.376 235.053 167.65 235.16C167.923 235.26 168.13 235.417 168.27 235.63C168.416 235.843 168.486 236.133 168.48 236.5C168.48 236.847 168.396 237.14 168.23 237.38C168.07 237.62 167.843 237.803 167.55 237.93C167.263 238.057 166.926 238.12 166.54 238.12ZM169.728 238V230.8H170.568V233.59C170.741 233.29 170.978 233.053 171.278 232.88C171.578 232.707 171.901 232.62 172.248 232.62C172.654 232.62 172.998 232.697 173.278 232.85C173.564 232.997 173.781 233.223 173.928 233.53C174.081 233.837 174.158 234.227 174.158 234.7V238H173.328V234.79C173.328 234.31 173.214 233.95 172.988 233.71C172.761 233.463 172.454 233.34 172.068 233.34C171.794 233.34 171.544 233.407 171.318 233.54C171.091 233.667 170.908 233.857 170.768 234.11C170.634 234.363 170.568 234.67 170.568 235.03V238H169.728ZM175.548 240.2V232.74H176.308L176.378 233.56C176.485 233.387 176.618 233.23 176.778 233.09C176.945 232.95 177.141 232.837 177.368 232.75C177.601 232.663 177.868 232.62 178.168 232.62C178.641 232.62 179.055 232.74 179.408 232.98C179.768 233.22 180.048 233.547 180.248 233.96C180.448 234.373 180.548 234.847 180.548 235.38C180.548 235.907 180.448 236.377 180.248 236.79C180.048 237.203 179.768 237.53 179.408 237.77C179.048 238.003 178.631 238.12 178.158 238.12C177.751 238.12 177.395 238.037 177.088 237.87C176.781 237.703 176.548 237.47 176.388 237.17V240.2H175.548ZM178.058 237.39C178.371 237.39 178.648 237.31 178.888 237.15C179.135 236.983 179.328 236.75 179.468 236.45C179.615 236.143 179.688 235.783 179.688 235.37C179.688 234.957 179.615 234.6 179.468 234.3C179.328 233.993 179.135 233.76 178.888 233.6C178.648 233.433 178.371 233.35 178.058 233.35C177.725 233.35 177.435 233.433 177.188 233.6C176.941 233.76 176.751 233.993 176.618 234.3C176.485 234.6 176.418 234.957 176.418 235.37C176.418 235.783 176.485 236.143 176.618 236.45C176.751 236.75 176.941 236.983 177.188 237.15C177.435 237.31 177.725 237.39 178.058 237.39ZM183.949 238.12C183.482 238.12 183.069 238.007 182.709 237.78C182.349 237.553 182.065 237.233 181.859 236.82C181.659 236.407 181.559 235.923 181.559 235.37C181.559 234.817 181.659 234.333 181.859 233.92C182.065 233.507 182.349 233.187 182.709 232.96C183.075 232.733 183.495 232.62 183.969 232.62C184.475 232.62 184.899 232.733 185.239 232.96C185.579 233.187 185.835 233.49 186.009 233.87C186.182 234.25 186.269 234.667 186.269 235.12C186.269 235.187 186.269 235.253 186.269 235.32C186.269 235.387 186.265 235.467 186.259 235.56H182.189V234.91H185.449C185.435 234.397 185.285 234.007 184.999 233.74C184.719 233.467 184.369 233.33 183.949 233.33C183.669 233.33 183.409 233.4 183.169 233.54C182.935 233.673 182.745 233.873 182.599 234.14C182.452 234.407 182.379 234.74 182.379 235.14V235.42C182.379 235.86 182.452 236.23 182.599 236.53C182.745 236.823 182.935 237.043 183.169 237.19C183.409 237.337 183.669 237.41 183.949 237.41C184.322 237.41 184.615 237.34 184.829 237.2C185.042 237.053 185.199 236.847 185.299 236.58H186.129C186.049 236.873 185.909 237.137 185.709 237.37C185.515 237.603 185.269 237.787 184.969 237.92C184.675 238.053 184.335 238.12 183.949 238.12ZM187.433 238V232.74H188.193L188.253 233.7C188.373 233.46 188.529 233.26 188.723 233.1C188.916 232.94 189.149 232.82 189.423 232.74C189.703 232.66 190.016 232.62 190.363 232.62V233.5H189.843C189.643 233.5 189.449 233.527 189.263 233.58C189.076 233.633 188.906 233.72 188.753 233.84C188.606 233.96 188.489 234.123 188.403 234.33C188.316 234.537 188.273 234.797 188.273 235.11V238H187.433ZM191.329 239.15V238.36H196.219V239.15H191.329ZM200.258 238.12C199.938 238.12 199.661 238.073 199.428 237.98C199.201 237.88 199.008 237.757 198.848 237.61C198.694 237.463 198.568 237.32 198.468 237.18L198.398 238H197.638V230.8H198.478V233.57C198.638 233.257 198.874 233.02 199.188 232.86C199.501 232.7 199.851 232.62 200.238 232.62C200.718 232.62 201.138 232.737 201.498 232.97C201.858 233.203 202.138 233.527 202.338 233.94C202.538 234.347 202.638 234.817 202.638 235.35C202.638 235.877 202.538 236.35 202.338 236.77C202.138 237.19 201.858 237.52 201.498 237.76C201.144 238 200.731 238.12 200.258 238.12ZM200.148 237.39C200.461 237.39 200.738 237.31 200.978 237.15C201.224 236.983 201.418 236.75 201.558 236.45C201.704 236.143 201.778 235.783 201.778 235.37C201.778 234.957 201.704 234.6 201.558 234.3C201.418 233.993 201.224 233.76 200.978 233.6C200.738 233.433 200.461 233.35 200.148 233.35C199.814 233.35 199.524 233.433 199.278 233.6C199.031 233.76 198.841 233.993 198.708 234.3C198.574 234.6 198.508 234.957 198.508 235.37C198.508 235.783 198.574 236.143 198.708 236.45C198.841 236.75 199.031 236.983 199.278 237.15C199.524 237.31 199.814 237.39 200.148 237.39ZM205.498 238.12C205.098 238.12 204.765 238.047 204.498 237.9C204.232 237.747 204.032 237.547 203.898 237.3C203.765 237.047 203.698 236.777 203.698 236.49C203.698 236.143 203.785 235.85 203.958 235.61C204.138 235.363 204.388 235.177 204.708 235.05C205.028 234.923 205.402 234.86 205.828 234.86H207.138C207.138 234.52 207.098 234.237 207.018 234.01C206.938 233.783 206.808 233.613 206.628 233.5C206.448 233.387 206.208 233.33 205.908 233.33C205.608 233.33 205.352 233.407 205.138 233.56C204.925 233.707 204.792 233.927 204.738 234.22H203.878C203.918 233.873 204.035 233.583 204.228 233.35C204.422 233.11 204.665 232.93 204.958 232.81C205.258 232.683 205.575 232.62 205.908 232.62C206.382 232.62 206.772 232.707 207.078 232.88C207.385 233.047 207.612 233.283 207.758 233.59C207.905 233.89 207.978 234.247 207.978 234.66V238H207.228L207.178 237.1C207.112 237.24 207.025 237.373 206.918 237.5C206.818 237.62 206.698 237.727 206.558 237.82C206.418 237.913 206.258 237.987 206.078 238.04C205.905 238.093 205.712 238.12 205.498 238.12ZM205.618 237.41C205.838 237.41 206.042 237.36 206.228 237.26C206.415 237.16 206.575 237.027 206.708 236.86C206.848 236.687 206.955 236.493 207.028 236.28C207.102 236.067 207.138 235.843 207.138 235.61V235.51H205.898C205.585 235.51 205.328 235.55 205.128 235.63C204.935 235.71 204.795 235.823 204.708 235.97C204.622 236.11 204.578 236.27 204.578 236.45C204.578 236.643 204.618 236.813 204.698 236.96C204.778 237.1 204.895 237.21 205.048 237.29C205.208 237.37 205.398 237.41 205.618 237.41ZM211.266 238.12C210.793 238.12 210.4 238.05 210.086 237.91C209.78 237.763 209.546 237.563 209.386 237.31C209.226 237.05 209.13 236.75 209.096 236.41H209.956C209.983 236.59 210.043 236.757 210.136 236.91C210.236 237.057 210.38 237.177 210.566 237.27C210.753 237.363 210.99 237.41 211.276 237.41C211.503 237.41 211.696 237.377 211.856 237.31C212.016 237.237 212.136 237.137 212.216 237.01C212.303 236.883 212.346 236.737 212.346 236.57C212.346 236.35 212.296 236.18 212.196 236.06C212.103 235.933 211.963 235.84 211.776 235.78C211.596 235.713 211.37 235.663 211.096 235.63C210.803 235.59 210.543 235.533 210.316 235.46C210.09 235.387 209.896 235.29 209.736 235.17C209.583 235.05 209.466 234.9 209.386 234.72C209.306 234.54 209.266 234.327 209.266 234.08C209.266 233.793 209.343 233.54 209.496 233.32C209.65 233.1 209.866 232.93 210.146 232.81C210.433 232.683 210.77 232.62 211.156 232.62C211.723 232.62 212.17 232.75 212.496 233.01C212.83 233.27 213.026 233.64 213.086 234.12H212.256C212.223 233.873 212.11 233.68 211.916 233.54C211.723 233.4 211.466 233.33 211.146 233.33C210.806 233.33 210.55 233.393 210.376 233.52C210.203 233.647 210.116 233.813 210.116 234.02C210.116 234.173 210.153 234.313 210.226 234.44C210.306 234.56 210.44 234.663 210.626 234.75C210.813 234.83 211.063 234.89 211.376 234.93C211.77 234.977 212.103 235.053 212.376 235.16C212.65 235.26 212.856 235.417 212.996 235.63C213.143 235.843 213.213 236.133 213.206 236.5C213.206 236.847 213.123 237.14 212.956 237.38C212.796 237.62 212.57 237.803 212.276 237.93C211.99 238.057 211.653 238.12 211.266 238.12ZM216.634 238.12C216.167 238.12 215.754 238.007 215.394 237.78C215.034 237.553 214.751 237.233 214.544 236.82C214.344 236.407 214.244 235.923 214.244 235.37C214.244 234.817 214.344 234.333 214.544 233.92C214.751 233.507 215.034 233.187 215.394 232.96C215.761 232.733 216.181 232.62 216.654 232.62C217.161 232.62 217.584 232.733 217.924 232.96C218.264 233.187 218.521 233.49 218.694 233.87C218.867 234.25 218.954 234.667 218.954 235.12C218.954 235.187 218.954 235.253 218.954 235.32C218.954 235.387 218.951 235.467 218.944 235.56H214.874V234.91H218.134C218.121 234.397 217.971 234.007 217.684 233.74C217.404 233.467 217.054 233.33 216.634 233.33C216.354 233.33 216.094 233.4 215.854 233.54C215.621 233.673 215.431 233.873 215.284 234.14C215.137 234.407 215.064 234.74 215.064 235.14V235.42C215.064 235.86 215.137 236.23 215.284 236.53C215.431 236.823 215.621 237.043 215.854 237.19C216.094 237.337 216.354 237.41 216.634 237.41C217.007 237.41 217.301 237.34 217.514 237.2C217.727 237.053 217.884 236.847 217.984 236.58H218.814C218.734 236.873 218.594 237.137 218.394 237.37C218.201 237.603 217.954 237.787 217.654 237.92C217.361 238.053 217.021 238.12 216.634 238.12Z" fill="#2EBBBF"/>
<path d="M171 216V84C171 81.7909 172.791 80 175 80C177.209 80 179 81.7909 179 84V216H171Z" fill="#2EBBBF"/>
<path d="M270 216L270 156C270 153.791 271.791 152 274 152C276.209 152 278 153.791 278 156L278 216H270Z" fill="#FFAD32"/>
<path d="M247.2 238L245.28 231H246.18L247.69 237L249.4 231H250.34L252.01 237.02L253.54 231H254.44L252.48 238H251.52L249.85 232.21L248.14 238H247.2ZM255.407 238V230.8H256.247V233.59C256.421 233.29 256.657 233.053 256.957 232.88C257.257 232.707 257.581 232.62 257.927 232.62C258.334 232.62 258.677 232.697 258.957 232.85C259.244 232.997 259.461 233.223 259.607 233.53C259.761 233.837 259.837 234.227 259.837 234.7V238H259.007V234.79C259.007 234.31 258.894 233.95 258.667 233.71C258.441 233.463 258.134 233.34 257.747 233.34C257.474 233.34 257.224 233.407 256.997 233.54C256.771 233.667 256.587 233.857 256.447 234.11C256.314 234.363 256.247 234.67 256.247 235.03V238H255.407ZM261.308 238V232.74H262.148V238H261.308ZM261.728 231.74C261.561 231.74 261.421 231.687 261.308 231.58C261.201 231.467 261.148 231.327 261.148 231.16C261.148 230.993 261.201 230.86 261.308 230.76C261.421 230.653 261.561 230.6 261.728 230.6C261.888 230.6 262.024 230.653 262.138 230.76C262.251 230.86 262.308 230.993 262.308 231.16C262.308 231.327 262.251 231.467 262.138 231.58C262.024 231.687 261.888 231.74 261.728 231.74ZM265.54 238.12C265.066 238.12 264.673 238.05 264.36 237.91C264.053 237.763 263.82 237.563 263.66 237.31C263.5 237.05 263.403 236.75 263.37 236.41H264.23C264.256 236.59 264.316 236.757 264.41 236.91C264.51 237.057 264.653 237.177 264.84 237.27C265.026 237.363 265.263 237.41 265.55 237.41C265.776 237.41 265.97 237.377 266.13 237.31C266.29 237.237 266.41 237.137 266.49 237.01C266.576 236.883 266.62 236.737 266.62 236.57C266.62 236.35 266.57 236.18 266.47 236.06C266.376 235.933 266.236 235.84 266.05 235.78C265.87 235.713 265.643 235.663 265.37 235.63C265.076 235.59 264.816 235.533 264.59 235.46C264.363 235.387 264.17 235.29 264.01 235.17C263.856 235.05 263.74 234.9 263.66 234.72C263.58 234.54 263.54 234.327 263.54 234.08C263.54 233.793 263.616 233.54 263.77 233.32C263.923 233.1 264.14 232.93 264.42 232.81C264.706 232.683 265.043 232.62 265.43 232.62C265.996 232.62 266.443 232.75 266.77 233.01C267.103 233.27 267.3 233.64 267.36 234.12H266.53C266.496 233.873 266.383 233.68 266.19 233.54C265.996 233.4 265.74 233.33 265.42 233.33C265.08 233.33 264.823 233.393 264.65 233.52C264.476 233.647 264.39 233.813 264.39 234.02C264.39 234.173 264.426 234.313 264.5 234.44C264.58 234.56 264.713 234.663 264.9 234.75C265.086 234.83 265.336 234.89 265.65 234.93C266.043 234.977 266.376 235.053 266.65 235.16C266.923 235.26 267.13 235.417 267.27 235.63C267.416 235.843 267.486 236.133 267.48 236.5C267.48 236.847 267.396 237.14 267.23 237.38C267.07 237.62 266.843 237.803 266.55 237.93C266.263 238.057 265.926 238.12 265.54 238.12ZM268.728 238V230.8H269.568V233.59C269.741 233.29 269.978 233.053 270.278 232.88C270.578 232.707 270.901 232.62 271.248 232.62C271.654 232.62 271.998 232.697 272.278 232.85C272.564 232.997 272.781 233.223 272.928 233.53C273.081 233.837 273.158 234.227 273.158 234.7V238H272.328V234.79C272.328 234.31 272.214 233.95 271.988 233.71C271.761 233.463 271.454 233.34 271.068 233.34C270.794 233.34 270.544 233.407 270.318 233.54C270.091 233.667 269.908 233.857 269.768 234.11C269.634 234.363 269.568 234.67 269.568 235.03V238H268.728ZM274.548 240.2V232.74H275.308L275.378 233.56C275.485 233.387 275.618 233.23 275.778 233.09C275.945 232.95 276.141 232.837 276.368 232.75C276.601 232.663 276.868 232.62 277.168 232.62C277.641 232.62 278.055 232.74 278.408 232.98C278.768 233.22 279.048 233.547 279.248 233.96C279.448 234.373 279.548 234.847 279.548 235.38C279.548 235.907 279.448 236.377 279.248 236.79C279.048 237.203 278.768 237.53 278.408 237.77C278.048 238.003 277.631 238.12 277.158 238.12C276.751 238.12 276.395 238.037 276.088 237.87C275.781 237.703 275.548 237.47 275.388 237.17V240.2H274.548ZM277.058 237.39C277.371 237.39 277.648 237.31 277.888 237.15C278.135 236.983 278.328 236.75 278.468 236.45C278.615 236.143 278.688 235.783 278.688 235.37C278.688 234.957 278.615 234.6 278.468 234.3C278.328 233.993 278.135 233.76 277.888 233.6C277.648 233.433 277.371 233.35 277.058 233.35C276.725 233.35 276.435 233.433 276.188 233.6C275.941 233.76 275.751 233.993 275.618 234.3C275.485 234.6 275.418 234.957 275.418 235.37C275.418 235.783 275.485 236.143 275.618 236.45C275.751 236.75 275.941 236.983 276.188 237.15C276.435 237.31 276.725 237.39 277.058 237.39ZM282.949 238.12C282.482 238.12 282.069 238.007 281.709 237.78C281.349 237.553 281.065 237.233 280.859 236.82C280.659 236.407 280.559 235.923 280.559 235.37C280.559 234.817 280.659 234.333 280.859 233.92C281.065 233.507 281.349 233.187 281.709 232.96C282.075 232.733 282.495 232.62 282.969 232.62C283.475 232.62 283.899 232.733 284.239 232.96C284.579 233.187 284.835 233.49 285.009 233.87C285.182 234.25 285.269 234.667 285.269 235.12C285.269 235.187 285.269 235.253 285.269 235.32C285.269 235.387 285.265 235.467 285.259 235.56H281.189V234.91H284.449C284.435 234.397 284.285 234.007 283.999 233.74C283.719 233.467 283.369 233.33 282.949 233.33C282.669 233.33 282.409 233.4 282.169 233.54C281.935 233.673 281.745 233.873 281.599 234.14C281.452 234.407 281.379 234.74 281.379 235.14V235.42C281.379 235.86 281.452 236.23 281.599 236.53C281.745 236.823 281.935 237.043 282.169 237.19C282.409 237.337 282.669 237.41 282.949 237.41C283.322 237.41 283.615 237.34 283.829 237.2C284.042 237.053 284.199 236.847 284.299 236.58H285.129C285.049 236.873 284.909 237.137 284.709 237.37C284.515 237.603 284.269 237.787 283.969 237.92C283.675 238.053 283.335 238.12 282.949 238.12ZM286.433 238V232.74H287.193L287.253 233.7C287.373 233.46 287.529 233.26 287.723 233.1C287.916 232.94 288.149 232.82 288.423 232.74C288.703 232.66 289.016 232.62 289.363 232.62V233.5H288.843C288.643 233.5 288.449 233.527 288.263 233.58C288.076 233.633 287.906 233.72 287.753 233.84C287.606 233.96 287.489 234.123 287.403 234.33C287.316 234.537 287.273 234.797 287.273 235.11V238H286.433ZM290.329 239.15V238.36H295.219V239.15H290.329ZM296.638 238V230.8H297.478V238H296.638ZM300.534 238.12C300.134 238.12 299.8 238.047 299.534 237.9C299.267 237.747 299.067 237.547 298.934 237.3C298.8 237.047 298.734 236.777 298.734 236.49C298.734 236.143 298.82 235.85 298.994 235.61C299.174 235.363 299.424 235.177 299.744 235.05C300.064 234.923 300.437 234.86 300.864 234.86H302.174C302.174 234.52 302.134 234.237 302.054 234.01C301.974 233.783 301.844 233.613 301.664 233.5C301.484 233.387 301.244 233.33 300.944 233.33C300.644 233.33 300.387 233.407 300.174 233.56C299.96 233.707 299.827 233.927 299.774 234.22H298.914C298.954 233.873 299.07 233.583 299.264 233.35C299.457 233.11 299.7 232.93 299.994 232.81C300.294 232.683 300.61 232.62 300.944 232.62C301.417 232.62 301.807 232.707 302.114 232.88C302.42 233.047 302.647 233.283 302.794 233.59C302.94 233.89 303.014 234.247 303.014 234.66V238H302.264L302.214 237.1C302.147 237.24 302.06 237.373 301.954 237.5C301.854 237.62 301.734 237.727 301.594 237.82C301.454 237.913 301.294 237.987 301.114 238.04C300.94 238.093 300.747 238.12 300.534 238.12ZM300.654 237.41C300.874 237.41 301.077 237.36 301.264 237.26C301.45 237.16 301.61 237.027 301.744 236.86C301.884 236.687 301.99 236.493 302.064 236.28C302.137 236.067 302.174 235.843 302.174 235.61V235.51H300.934C300.62 235.51 300.364 235.55 300.164 235.63C299.97 235.71 299.83 235.823 299.744 235.97C299.657 236.11 299.614 236.27 299.614 236.45C299.614 236.643 299.654 236.813 299.734 236.96C299.814 237.1 299.93 237.21 300.084 237.29C300.244 237.37 300.434 237.41 300.654 237.41ZM304.401 238V232.74H305.161L305.221 233.7C305.341 233.46 305.498 233.26 305.691 233.1C305.885 232.94 306.118 232.82 306.391 232.74C306.671 232.66 306.985 232.62 307.331 232.62V233.5H306.811C306.611 233.5 306.418 233.527 306.231 233.58C306.045 233.633 305.875 233.72 305.721 233.84C305.575 233.96 305.458 234.123 305.371 234.33C305.285 234.537 305.241 234.797 305.241 235.11V238H304.401ZM310.241 240.32C309.767 240.32 309.351 240.26 308.991 240.14C308.637 240.027 308.361 239.85 308.161 239.61C307.967 239.37 307.871 239.073 307.871 238.72C307.871 238.553 307.901 238.38 307.961 238.2C308.027 238.02 308.137 237.847 308.291 237.68C308.451 237.513 308.674 237.363 308.961 237.23L309.601 237.57C309.221 237.717 308.974 237.887 308.861 238.08C308.747 238.273 308.691 238.46 308.691 238.64C308.691 238.86 308.754 239.043 308.881 239.19C309.014 239.337 309.197 239.447 309.431 239.52C309.664 239.593 309.934 239.63 310.241 239.63C310.541 239.63 310.797 239.59 311.011 239.51C311.231 239.437 311.397 239.327 311.511 239.18C311.631 239.04 311.691 238.873 311.691 238.68C311.691 238.4 311.601 238.18 311.421 238.02C311.241 237.867 310.891 237.777 310.371 237.75C309.964 237.723 309.624 237.687 309.351 237.64C309.077 237.593 308.851 237.54 308.671 237.48C308.497 237.413 308.351 237.34 308.231 237.26C308.117 237.18 308.014 237.097 307.921 237.01V236.78L308.911 235.83L309.701 236.09L308.621 236.98L308.751 236.6C308.824 236.653 308.894 236.703 308.961 236.75C309.027 236.797 309.117 236.84 309.231 236.88C309.351 236.913 309.514 236.947 309.721 236.98C309.934 237.013 310.214 237.043 310.561 237.07C311.041 237.103 311.424 237.183 311.711 237.31C311.997 237.437 312.204 237.613 312.331 237.84C312.457 238.06 312.521 238.33 312.521 238.65C312.521 238.93 312.441 239.197 312.281 239.45C312.127 239.703 311.881 239.91 311.541 240.07C311.207 240.237 310.774 240.32 310.241 240.32ZM310.231 236.36C309.804 236.36 309.441 236.28 309.141 236.12C308.847 235.953 308.624 235.73 308.471 235.45C308.317 235.163 308.241 234.843 308.241 234.49C308.241 234.137 308.317 233.82 308.471 233.54C308.631 233.26 308.857 233.037 309.151 232.87C309.451 232.703 309.811 232.62 310.231 232.62C310.664 232.62 311.027 232.703 311.321 232.87C311.614 233.037 311.837 233.26 311.991 233.54C312.144 233.82 312.221 234.137 312.221 234.49C312.221 234.843 312.144 235.163 311.991 235.45C311.837 235.73 311.614 235.953 311.321 236.12C311.027 236.28 310.664 236.36 310.231 236.36ZM310.231 235.67C310.604 235.67 310.894 235.573 311.101 235.38C311.307 235.18 311.411 234.883 311.411 234.49C311.411 234.097 311.307 233.803 311.101 233.61C310.894 233.417 310.604 233.32 310.231 233.32C309.877 233.32 309.587 233.417 309.361 233.61C309.141 233.803 309.031 234.097 309.031 234.49C309.031 234.883 309.137 235.18 309.351 235.38C309.571 235.573 309.864 235.67 310.231 235.67ZM311.111 233.45L310.861 232.74H312.921V233.37L311.111 233.45ZM315.917 238.12C315.451 238.12 315.037 238.007 314.677 237.78C314.317 237.553 314.034 237.233 313.827 236.82C313.627 236.407 313.527 235.923 313.527 235.37C313.527 234.817 313.627 234.333 313.827 233.92C314.034 233.507 314.317 233.187 314.677 232.96C315.044 232.733 315.464 232.62 315.937 232.62C316.444 232.62 316.867 232.733 317.207 232.96C317.547 233.187 317.804 233.49 317.977 233.87C318.151 234.25 318.237 234.667 318.237 235.12C318.237 235.187 318.237 235.253 318.237 235.32C318.237 235.387 318.234 235.467 318.227 235.56H314.157V234.91H317.417C317.404 234.397 317.254 234.007 316.967 233.74C316.687 233.467 316.337 233.33 315.917 233.33C315.637 233.33 315.377 233.4 315.137 233.54C314.904 233.673 314.714 233.873 314.567 234.14C314.421 234.407 314.347 234.74 314.347 235.14V235.42C314.347 235.86 314.421 236.23 314.567 236.53C314.714 236.823 314.904 237.043 315.137 237.19C315.377 237.337 315.637 237.41 315.917 237.41C316.291 237.41 316.584 237.34 316.797 237.2C317.011 237.053 317.167 236.847 317.267 236.58H318.097C318.017 236.873 317.877 237.137 317.677 237.37C317.484 237.603 317.237 237.787 316.937 237.92C316.644 238.053 316.304 238.12 315.917 238.12Z" fill="#FEC658"/>
</svg>
