<svg width="342" height="252" viewBox="0 0 342 252" fill="none" xmlns="http://www.w3.org/2000/svg">
<rect width="342" height="252" rx="12" fill="#141324"/>
<path d="M22.046 29.168C21.3927 29.168 20.814 29.0093 20.31 28.692C19.806 28.3747 19.4093 27.9267 19.12 27.348C18.84 26.7693 18.7 26.0927 18.7 25.318C18.7 24.5433 18.84 23.8667 19.12 23.288C19.4093 22.7093 19.806 22.2613 20.31 21.944C20.8233 21.6267 21.4113 21.468 22.074 21.468C22.7833 21.468 23.376 21.6267 23.852 21.944C24.328 22.2613 24.6873 22.686 24.93 23.218C25.1727 23.75 25.294 24.3333 25.294 24.968C25.294 25.0613 25.294 25.1547 25.294 25.248C25.294 25.3413 25.2893 25.4533 25.28 25.584H19.582V24.674H24.146C24.1273 23.9553 23.9173 23.4093 23.516 23.036C23.124 22.6533 22.634 22.462 22.046 22.462C21.654 22.462 21.29 22.56 20.954 22.756C20.6273 22.9427 20.3613 23.2227 20.156 23.596C19.9507 23.9693 19.848 24.436 19.848 24.996V25.388C19.848 26.004 19.9507 26.522 20.156 26.942C20.3613 27.3527 20.6273 27.6607 20.954 27.866C21.29 28.0713 21.654 28.174 22.046 28.174C22.5687 28.174 22.9793 28.076 23.278 27.88C23.5767 27.6747 23.796 27.3853 23.936 27.012H25.098C24.986 27.4227 24.79 27.7913 24.51 28.118C24.2393 28.4447 23.894 28.7013 23.474 28.888C23.0633 29.0747 22.5873 29.168 22.046 29.168ZM28.7923 29L25.9923 21.636H27.2383L29.4783 27.866L31.7323 21.636H32.9363L30.1503 29H28.7923ZM36.206 29.168C35.646 29.168 35.1793 29.0653 34.806 28.86C34.4327 28.6453 34.1527 28.3653 33.966 28.02C33.7793 27.6653 33.686 27.2873 33.686 26.886C33.686 26.4007 33.8073 25.99 34.05 25.654C34.302 25.3087 34.652 25.0473 35.1 24.87C35.548 24.6927 36.0707 24.604 36.668 24.604H38.502C38.502 24.128 38.446 23.7313 38.334 23.414C38.222 23.0967 38.04 22.8587 37.788 22.7C37.536 22.5413 37.2 22.462 36.78 22.462C36.36 22.462 36.0007 22.5693 35.702 22.784C35.4033 22.9893 35.2167 23.2973 35.142 23.708H33.938C33.994 23.2227 34.1573 22.8167 34.428 22.49C34.6987 22.154 35.0393 21.902 35.45 21.734C35.87 21.5567 36.3133 21.468 36.78 21.468C37.4427 21.468 37.9887 21.5893 38.418 21.832C38.8473 22.0653 39.1647 22.3967 39.37 22.826C39.5753 23.246 39.678 23.7453 39.678 24.324V29H38.628L38.558 27.74C38.4647 27.936 38.3433 28.1227 38.194 28.3C38.054 28.468 37.886 28.6173 37.69 28.748C37.494 28.8787 37.27 28.9813 37.018 29.056C36.7753 29.1307 36.5047 29.168 36.206 29.168ZM36.374 28.174C36.682 28.174 36.9667 28.104 37.228 27.964C37.4893 27.824 37.7133 27.6373 37.9 27.404C38.096 27.1613 38.2453 26.8907 38.348 26.592C38.4507 26.2933 38.502 25.9807 38.502 25.654V25.514H36.766C36.3273 25.514 35.968 25.57 35.688 25.682C35.4173 25.794 35.2213 25.9527 35.1 26.158C34.9787 26.354 34.918 26.578 34.918 26.83C34.918 27.1007 34.974 27.3387 35.086 27.544C35.198 27.74 35.3613 27.894 35.576 28.006C35.8 28.118 36.066 28.174 36.374 28.174ZM41.621 29V18.92H42.797V29H41.621ZM44.1912 30.33L47.7052 18.304H48.8672L45.3532 30.33H44.1912ZM50.2753 29V18.92H51.4513V29H50.2753ZM56.5975 29.168C55.9161 29.168 55.3141 29.0093 54.7915 28.692C54.2688 28.3747 53.8628 27.9267 53.5735 27.348C53.2841 26.7693 53.1395 26.0927 53.1395 25.318C53.1395 24.534 53.2841 23.8573 53.5735 23.288C53.8721 22.7093 54.2828 22.2613 54.8055 21.944C55.3375 21.6267 55.9441 21.468 56.6255 21.468C57.3161 21.468 57.9181 21.6267 58.4315 21.944C58.9541 22.2613 59.3601 22.7093 59.6495 23.288C59.9388 23.8573 60.0835 24.534 60.0835 25.318C60.0835 26.0927 59.9341 26.7693 59.6355 27.348C59.3461 27.9267 58.9401 28.3747 58.4175 28.692C57.8948 29.0093 57.2881 29.168 56.5975 29.168ZM56.5975 28.16C57.0268 28.16 57.4141 28.0573 57.7595 27.852C58.1048 27.6373 58.3755 27.32 58.5715 26.9C58.7768 26.4707 58.8795 25.9433 58.8795 25.318C58.8795 24.6833 58.7815 24.156 58.5855 23.736C58.3895 23.316 58.1188 23.0033 57.7735 22.798C57.4375 22.5833 57.0548 22.476 56.6255 22.476C56.2055 22.476 55.8228 22.5833 55.4775 22.798C55.1321 23.0033 54.8568 23.316 54.6515 23.736C54.4461 24.156 54.3435 24.6833 54.3435 25.318C54.3435 25.9433 54.4415 26.4707 54.6375 26.9C54.8428 27.32 55.1135 27.6373 55.4495 27.852C55.7948 28.0573 56.1775 28.16 56.5975 28.16ZM64.447 29.168C63.7843 29.168 63.2336 29.07 62.795 28.874C62.3656 28.6687 62.039 28.3887 61.815 28.034C61.591 27.67 61.4556 27.25 61.409 26.774H62.613C62.6503 27.026 62.7343 27.2593 62.865 27.474C63.005 27.6793 63.2056 27.8473 63.467 27.978C63.7283 28.1087 64.0596 28.174 64.461 28.174C64.7783 28.174 65.049 28.1273 65.273 28.034C65.497 27.9313 65.665 27.7913 65.777 27.614C65.8983 27.4367 65.959 27.2313 65.959 26.998C65.959 26.69 65.889 26.452 65.749 26.284C65.6183 26.1067 65.4223 25.976 65.161 25.892C64.909 25.7987 64.5916 25.7287 64.209 25.682C63.7983 25.626 63.4343 25.5467 63.117 25.444C62.7996 25.3413 62.529 25.206 62.305 25.038C62.0903 24.87 61.927 24.66 61.815 24.408C61.703 24.156 61.647 23.8573 61.647 23.512C61.647 23.1107 61.7543 22.756 61.969 22.448C62.1836 22.14 62.487 21.902 62.879 21.734C63.2803 21.5567 63.7516 21.468 64.293 21.468C65.0863 21.468 65.7116 21.65 66.169 22.014C66.6356 22.378 66.911 22.896 66.995 23.568H65.833C65.7863 23.2227 65.6276 22.952 65.357 22.756C65.0863 22.56 64.727 22.462 64.279 22.462C63.803 22.462 63.4436 22.5507 63.201 22.728C62.9583 22.9053 62.837 23.1387 62.837 23.428C62.837 23.6427 62.8883 23.8387 62.991 24.016C63.103 24.184 63.2896 24.3287 63.551 24.45C63.8123 24.562 64.1623 24.646 64.601 24.702C65.1516 24.7673 65.6183 24.8747 66.001 25.024C66.3836 25.164 66.673 25.3833 66.869 25.682C67.0743 25.9807 67.1723 26.3867 67.163 26.9C67.163 27.3853 67.0463 27.796 66.813 28.132C66.589 28.468 66.2716 28.7247 65.861 28.902C65.4596 29.0793 64.9883 29.168 64.447 29.168ZM71.57 29.168C70.9073 29.168 70.3567 29.07 69.918 28.874C69.4887 28.6687 69.162 28.3887 68.938 28.034C68.714 27.67 68.5787 27.25 68.532 26.774H69.736C69.7733 27.026 69.8573 27.2593 69.988 27.474C70.128 27.6793 70.3287 27.8473 70.59 27.978C70.8513 28.1087 71.1827 28.174 71.584 28.174C71.9013 28.174 72.172 28.1273 72.396 28.034C72.62 27.9313 72.788 27.7913 72.9 27.614C73.0213 27.4367 73.082 27.2313 73.082 26.998C73.082 26.69 73.012 26.452 72.872 26.284C72.7413 26.1067 72.5453 25.976 72.284 25.892C72.032 25.7987 71.7147 25.7287 71.332 25.682C70.9213 25.626 70.5573 25.5467 70.24 25.444C69.9227 25.3413 69.652 25.206 69.428 25.038C69.2133 24.87 69.05 24.66 68.938 24.408C68.826 24.156 68.77 23.8573 68.77 23.512C68.77 23.1107 68.8773 22.756 69.092 22.448C69.3067 22.14 69.61 21.902 70.002 21.734C70.4033 21.5567 70.8747 21.468 71.416 21.468C72.2093 21.468 72.8347 21.65 73.292 22.014C73.7587 22.378 74.034 22.896 74.118 23.568H72.956C72.9093 23.2227 72.7507 22.952 72.48 22.756C72.2093 22.56 71.85 22.462 71.402 22.462C70.926 22.462 70.5667 22.5507 70.324 22.728C70.0813 22.9053 69.96 23.1387 69.96 23.428C69.96 23.6427 70.0113 23.8387 70.114 24.016C70.226 24.184 70.4127 24.3287 70.674 24.45C70.9353 24.562 71.2853 24.646 71.724 24.702C72.2747 24.7673 72.7413 24.8747 73.124 25.024C73.5067 25.164 73.796 25.3833 73.992 25.682C74.1973 25.9807 74.2953 26.3867 74.286 26.9C74.286 27.3853 74.1693 27.796 73.936 28.132C73.712 28.468 73.3947 28.7247 72.984 28.902C72.5827 29.0793 72.1113 29.168 71.57 29.168Z" fill="white"/>
<path d="M18.29 87.12C17.71 87.12 17.21 86.97 16.79 86.67C16.3767 86.3633 16.0567 85.94 15.83 85.4C15.6033 84.8533 15.49 84.22 15.49 83.5C15.49 82.78 15.6033 82.15 15.83 81.61C16.0567 81.0633 16.3767 80.64 16.79 80.34C17.21 80.0333 17.71 79.88 18.29 79.88C18.87 79.88 19.3667 80.0333 19.78 80.34C20.1933 80.64 20.51 81.0633 20.73 81.61C20.9567 82.15 21.07 82.78 21.07 83.5C21.07 84.22 20.9567 84.8533 20.73 85.4C20.51 85.94 20.1933 86.3633 19.78 86.67C19.3667 86.97 18.87 87.12 18.29 87.12ZM18.29 86.38C18.6567 86.38 18.9833 86.2667 19.27 86.04C19.5567 85.8067 19.7833 85.4767 19.95 85.05C20.1233 84.6167 20.21 84.1 20.21 83.5C20.21 82.8933 20.1233 82.3767 19.95 81.95C19.7833 81.5233 19.5567 81.1967 19.27 80.97C18.9833 80.7433 18.6567 80.63 18.29 80.63C17.9167 80.63 17.5833 80.7433 17.29 80.97C16.9967 81.1967 16.7667 81.5233 16.6 81.95C16.4333 82.3767 16.35 82.8933 16.35 83.5C16.35 84.1 16.4333 84.6167 16.6 85.05C16.7667 85.4767 16.9967 85.8067 17.29 86.04C17.5833 86.2667 17.9167 86.38 18.29 86.38ZM22.2021 87.05C22.0421 87.05 21.9054 86.9967 21.7921 86.89C21.6854 86.7767 21.6321 86.64 21.6321 86.48C21.6321 86.32 21.6854 86.1867 21.7921 86.08C21.9054 85.9667 22.0421 85.91 22.2021 85.91C22.3754 85.91 22.5121 85.9667 22.6121 86.08C22.7188 86.1867 22.7721 86.32 22.7721 86.48C22.7721 86.64 22.7188 86.7767 22.6121 86.89C22.5121 86.9967 22.3754 87.05 22.2021 87.05ZM26.1895 87.12C25.6895 87.12 25.2661 87.0267 24.9195 86.84C24.5795 86.6533 24.3061 86.4033 24.0995 86.09C23.8995 85.77 23.7528 85.41 23.6595 85.01C23.5661 84.61 23.5195 84.2 23.5195 83.78C23.5195 83.0067 23.6228 82.33 23.8295 81.75C24.0428 81.1633 24.3495 80.7067 24.7495 80.38C25.1495 80.0467 25.6328 79.88 26.1995 79.88C26.6395 79.88 27.0161 79.9633 27.3295 80.13C27.6495 80.2967 27.9028 80.52 28.0895 80.8C28.2761 81.0733 28.3895 81.38 28.4295 81.72H27.6495C27.5828 81.3667 27.4195 81.0933 27.1595 80.9C26.9061 80.7067 26.5828 80.61 26.1895 80.61C25.8361 80.61 25.5195 80.72 25.2395 80.94C24.9661 81.16 24.7495 81.4933 24.5895 81.94C24.4295 82.38 24.3395 82.9433 24.3195 83.63C24.3195 83.6433 24.3195 83.6567 24.3195 83.67C24.3195 83.6833 24.3195 83.6967 24.3195 83.71C24.4128 83.4967 24.5528 83.3 24.7395 83.12C24.9261 82.94 25.1528 82.7967 25.4195 82.69C25.6861 82.5767 25.9795 82.52 26.2995 82.52C26.6928 82.52 27.0561 82.6133 27.3895 82.8C27.7295 82.9867 28.0028 83.25 28.2095 83.59C28.4161 83.9233 28.5195 84.3167 28.5195 84.77C28.5195 85.1633 28.4228 85.54 28.2295 85.9C28.0428 86.26 27.7761 86.5533 27.4295 86.78C27.0828 87.0067 26.6695 87.12 26.1895 87.12ZM26.1295 86.38C26.4228 86.38 26.6828 86.3133 26.9095 86.18C27.1428 86.0467 27.3261 85.8633 27.4595 85.63C27.5995 85.39 27.6695 85.1167 27.6695 84.81C27.6695 84.4967 27.5995 84.2233 27.4595 83.99C27.3261 83.7567 27.1428 83.5767 26.9095 83.45C26.6828 83.3167 26.4228 83.25 26.1295 83.25C25.8295 83.25 25.5595 83.32 25.3195 83.46C25.0795 83.5933 24.8895 83.78 24.7495 84.02C24.6095 84.2533 24.5395 84.52 24.5395 84.82C24.5395 85.1267 24.6095 85.4 24.7495 85.64C24.8895 85.8733 25.0795 86.0567 25.3195 86.19C25.5595 86.3167 25.8295 86.38 26.1295 86.38Z" fill="#77758D"/>
<path d="M18.29 131.12C17.71 131.12 17.21 130.97 16.79 130.67C16.3767 130.363 16.0567 129.94 15.83 129.4C15.6033 128.853 15.49 128.22 15.49 127.5C15.49 126.78 15.6033 126.15 15.83 125.61C16.0567 125.063 16.3767 124.64 16.79 124.34C17.21 124.033 17.71 123.88 18.29 123.88C18.87 123.88 19.3667 124.033 19.78 124.34C20.1933 124.64 20.51 125.063 20.73 125.61C20.9567 126.15 21.07 126.78 21.07 127.5C21.07 128.22 20.9567 128.853 20.73 129.4C20.51 129.94 20.1933 130.363 19.78 130.67C19.3667 130.97 18.87 131.12 18.29 131.12ZM18.29 130.38C18.6567 130.38 18.9833 130.267 19.27 130.04C19.5567 129.807 19.7833 129.477 19.95 129.05C20.1233 128.617 20.21 128.1 20.21 127.5C20.21 126.893 20.1233 126.377 19.95 125.95C19.7833 125.523 19.5567 125.197 19.27 124.97C18.9833 124.743 18.6567 124.63 18.29 124.63C17.9167 124.63 17.5833 124.743 17.29 124.97C16.9967 125.197 16.7667 125.523 16.6 125.95C16.4333 126.377 16.35 126.893 16.35 127.5C16.35 128.1 16.4333 128.617 16.6 129.05C16.7667 129.477 16.9967 129.807 17.29 130.04C17.5833 130.267 17.9167 130.38 18.29 130.38ZM22.2021 131.05C22.0421 131.05 21.9054 130.997 21.7921 130.89C21.6854 130.777 21.6321 130.64 21.6321 130.48C21.6321 130.32 21.6854 130.187 21.7921 130.08C21.9054 129.967 22.0421 129.91 22.2021 129.91C22.3754 129.91 22.5121 129.967 22.6121 130.08C22.7188 130.187 22.7721 130.32 22.7721 130.48C22.7721 130.64 22.7188 130.777 22.6121 130.89C22.5121 130.997 22.3754 131.05 22.2021 131.05ZM27.2022 131V129.5H23.6522V128.85L27.0522 124H28.0322V128.76H29.0722V129.5H28.0322V131H27.2022ZM24.5822 128.76H27.2422V124.93L24.5822 128.76Z" fill="#77758D"/>
<path d="M18.29 175.12C17.71 175.12 17.21 174.97 16.79 174.67C16.3767 174.363 16.0567 173.94 15.83 173.4C15.6033 172.853 15.49 172.22 15.49 171.5C15.49 170.78 15.6033 170.15 15.83 169.61C16.0567 169.063 16.3767 168.64 16.79 168.34C17.21 168.033 17.71 167.88 18.29 167.88C18.87 167.88 19.3667 168.033 19.78 168.34C20.1933 168.64 20.51 169.063 20.73 169.61C20.9567 170.15 21.07 170.78 21.07 171.5C21.07 172.22 20.9567 172.853 20.73 173.4C20.51 173.94 20.1933 174.363 19.78 174.67C19.3667 174.97 18.87 175.12 18.29 175.12ZM18.29 174.38C18.6567 174.38 18.9833 174.267 19.27 174.04C19.5567 173.807 19.7833 173.477 19.95 173.05C20.1233 172.617 20.21 172.1 20.21 171.5C20.21 170.893 20.1233 170.377 19.95 169.95C19.7833 169.523 19.5567 169.197 19.27 168.97C18.9833 168.743 18.6567 168.63 18.29 168.63C17.9167 168.63 17.5833 168.743 17.29 168.97C16.9967 169.197 16.7667 169.523 16.6 169.95C16.4333 170.377 16.35 170.893 16.35 171.5C16.35 172.1 16.4333 172.617 16.6 173.05C16.7667 173.477 16.9967 173.807 17.29 174.04C17.5833 174.267 17.9167 174.38 18.29 174.38ZM22.2021 175.05C22.0421 175.05 21.9054 174.997 21.7921 174.89C21.6854 174.777 21.6321 174.64 21.6321 174.48C21.6321 174.32 21.6854 174.187 21.7921 174.08C21.9054 173.967 22.0421 173.91 22.2021 173.91C22.3754 173.91 22.5121 173.967 22.6121 174.08C22.7188 174.187 22.7721 174.32 22.7721 174.48C22.7721 174.64 22.7188 174.777 22.6121 174.89C22.5121 174.997 22.3754 175.05 22.2021 175.05ZM23.8922 175V174.41C24.3855 174.037 24.8522 173.66 25.2922 173.28C25.7322 172.9 26.1222 172.523 26.4622 172.15C26.8022 171.77 27.0689 171.4 27.2622 171.04C27.4555 170.68 27.5522 170.333 27.5522 170C27.5522 169.753 27.5055 169.527 27.4122 169.32C27.3255 169.107 27.1822 168.933 26.9822 168.8C26.7889 168.667 26.5255 168.6 26.1922 168.6C25.8722 168.6 25.6055 168.67 25.3922 168.81C25.1789 168.943 25.0189 169.123 24.9122 169.35C24.8055 169.57 24.7522 169.813 24.7522 170.08H23.9422C23.9489 169.62 24.0489 169.227 24.2422 168.9C24.4355 168.567 24.7022 168.313 25.0422 168.14C25.3822 167.967 25.7689 167.88 26.2022 167.88C26.6289 167.88 27.0055 167.96 27.3322 168.12C27.6589 168.273 27.9155 168.507 28.1022 168.82C28.2955 169.127 28.3922 169.51 28.3922 169.97C28.3922 170.297 28.3222 170.623 28.1822 170.95C28.0489 171.277 27.8655 171.597 27.6322 171.91C27.3989 172.217 27.1389 172.513 26.8522 172.8C26.5722 173.087 26.2822 173.357 25.9822 173.61C25.6822 173.863 25.3989 174.093 25.1322 174.3H28.6322V175H23.8922Z" fill="#77758D"/>
<path d="M26.29 219.12C25.71 219.12 25.21 218.97 24.79 218.67C24.3767 218.363 24.0567 217.94 23.83 217.4C23.6033 216.853 23.49 216.22 23.49 215.5C23.49 214.78 23.6033 214.15 23.83 213.61C24.0567 213.063 24.3767 212.64 24.79 212.34C25.21 212.033 25.71 211.88 26.29 211.88C26.87 211.88 27.3667 212.033 27.78 212.34C28.1933 212.64 28.51 213.063 28.73 213.61C28.9567 214.15 29.07 214.78 29.07 215.5C29.07 216.22 28.9567 216.853 28.73 217.4C28.51 217.94 28.1933 218.363 27.78 218.67C27.3667 218.97 26.87 219.12 26.29 219.12ZM26.29 218.38C26.6567 218.38 26.9833 218.267 27.27 218.04C27.5567 217.807 27.7833 217.477 27.95 217.05C28.1233 216.617 28.21 216.1 28.21 215.5C28.21 214.893 28.1233 214.377 27.95 213.95C27.7833 213.523 27.5567 213.197 27.27 212.97C26.9833 212.743 26.6567 212.63 26.29 212.63C25.9167 212.63 25.5833 212.743 25.29 212.97C24.9967 213.197 24.7667 213.523 24.6 213.95C24.4333 214.377 24.35 214.893 24.35 215.5C24.35 216.1 24.4333 216.617 24.6 217.05C24.7667 217.477 24.9967 217.807 25.29 218.04C25.5833 218.267 25.9167 218.38 26.29 218.38Z" fill="#77758D"/>
<path d="M65.8 233V226.94L64.36 227.4V226.74L66.08 226H66.65V233H65.8ZM70.708 233.12C70.128 233.12 69.628 232.97 69.208 232.67C68.7946 232.363 68.4746 231.94 68.248 231.4C68.0213 230.853 67.908 230.22 67.908 229.5C67.908 228.78 68.0213 228.15 68.248 227.61C68.4746 227.063 68.7946 226.64 69.208 226.34C69.628 226.033 70.128 225.88 70.708 225.88C71.288 225.88 71.7846 226.033 72.198 226.34C72.6113 226.64 72.928 227.063 73.148 227.61C73.3746 228.15 73.488 228.78 73.488 229.5C73.488 230.22 73.3746 230.853 73.148 231.4C72.928 231.94 72.6113 232.363 72.198 232.67C71.7846 232.97 71.288 233.12 70.708 233.12ZM70.708 232.38C71.0746 232.38 71.4013 232.267 71.688 232.04C71.9746 231.807 72.2013 231.477 72.368 231.05C72.5413 230.617 72.628 230.1 72.628 229.5C72.628 228.893 72.5413 228.377 72.368 227.95C72.2013 227.523 71.9746 227.197 71.688 226.97C71.4013 226.743 71.0746 226.63 70.708 226.63C70.3346 226.63 70.0013 226.743 69.708 226.97C69.4146 227.197 69.1846 227.523 69.018 227.95C68.8513 228.377 68.768 228.893 68.768 229.5C68.768 230.1 68.8513 230.617 69.018 231.05C69.1846 231.477 69.4146 231.807 69.708 232.04C70.0013 232.267 70.3346 232.38 70.708 232.38ZM77.2705 233.12C76.6905 233.12 76.1905 232.97 75.7705 232.67C75.3571 232.363 75.0371 231.94 74.8105 231.4C74.5838 230.853 74.4705 230.22 74.4705 229.5C74.4705 228.78 74.5838 228.15 74.8105 227.61C75.0371 227.063 75.3571 226.64 75.7705 226.34C76.1905 226.033 76.6905 225.88 77.2705 225.88C77.8505 225.88 78.3471 226.033 78.7605 226.34C79.1738 226.64 79.4905 227.063 79.7105 227.61C79.9371 228.15 80.0505 228.78 80.0505 229.5C80.0505 230.22 79.9371 230.853 79.7105 231.4C79.4905 231.94 79.1738 232.363 78.7605 232.67C78.3471 232.97 77.8505 233.12 77.2705 233.12ZM77.2705 232.38C77.6371 232.38 77.9638 232.267 78.2505 232.04C78.5371 231.807 78.7638 231.477 78.9305 231.05C79.1038 230.617 79.1905 230.1 79.1905 229.5C79.1905 228.893 79.1038 228.377 78.9305 227.95C78.7638 227.523 78.5371 227.197 78.2505 226.97C77.9638 226.743 77.6371 226.63 77.2705 226.63C76.8971 226.63 76.5638 226.743 76.2705 226.97C75.9771 227.197 75.7471 227.523 75.5805 227.95C75.4138 228.377 75.3305 228.893 75.3305 229.5C75.3305 230.1 75.4138 230.617 75.5805 231.05C75.7471 231.477 75.9771 231.807 76.2705 232.04C76.5638 232.267 76.8971 232.38 77.2705 232.38Z" fill="#77758D"/>
<path d="M103.65 233V232.41C104.143 232.037 104.61 231.66 105.05 231.28C105.49 230.9 105.88 230.523 106.22 230.15C106.56 229.77 106.827 229.4 107.02 229.04C107.213 228.68 107.31 228.333 107.31 228C107.31 227.753 107.263 227.527 107.17 227.32C107.083 227.107 106.94 226.933 106.74 226.8C106.547 226.667 106.283 226.6 105.95 226.6C105.63 226.6 105.363 226.67 105.15 226.81C104.937 226.943 104.777 227.123 104.67 227.35C104.563 227.57 104.51 227.813 104.51 228.08H103.7C103.707 227.62 103.807 227.227 104 226.9C104.193 226.567 104.46 226.313 104.8 226.14C105.14 225.967 105.527 225.88 105.96 225.88C106.387 225.88 106.763 225.96 107.09 226.12C107.417 226.273 107.673 226.507 107.86 226.82C108.053 227.127 108.15 227.51 108.15 227.97C108.15 228.297 108.08 228.623 107.94 228.95C107.807 229.277 107.623 229.597 107.39 229.91C107.157 230.217 106.897 230.513 106.61 230.8C106.33 231.087 106.04 231.357 105.74 231.61C105.44 231.863 105.157 232.093 104.89 232.3H108.39V233H103.65ZM112.081 233.12C111.501 233.12 111.001 232.97 110.581 232.67C110.168 232.363 109.848 231.94 109.621 231.4C109.394 230.853 109.281 230.22 109.281 229.5C109.281 228.78 109.394 228.15 109.621 227.61C109.848 227.063 110.168 226.64 110.581 226.34C111.001 226.033 111.501 225.88 112.081 225.88C112.661 225.88 113.158 226.033 113.571 226.34C113.984 226.64 114.301 227.063 114.521 227.61C114.748 228.15 114.861 228.78 114.861 229.5C114.861 230.22 114.748 230.853 114.521 231.4C114.301 231.94 113.984 232.363 113.571 232.67C113.158 232.97 112.661 233.12 112.081 233.12ZM112.081 232.38C112.448 232.38 112.774 232.267 113.061 232.04C113.348 231.807 113.574 231.477 113.741 231.05C113.914 230.617 114.001 230.1 114.001 229.5C114.001 228.893 113.914 228.377 113.741 227.95C113.574 227.523 113.348 227.197 113.061 226.97C112.774 226.743 112.448 226.63 112.081 226.63C111.708 226.63 111.374 226.743 111.081 226.97C110.788 227.197 110.558 227.523 110.391 227.95C110.224 228.377 110.141 228.893 110.141 229.5C110.141 230.1 110.224 230.617 110.391 231.05C110.558 231.477 110.788 231.807 111.081 232.04C111.374 232.267 111.708 232.38 112.081 232.38ZM118.644 233.12C118.064 233.12 117.564 232.97 117.144 232.67C116.73 232.363 116.41 231.94 116.184 231.4C115.957 230.853 115.844 230.22 115.844 229.5C115.844 228.78 115.957 228.15 116.184 227.61C116.41 227.063 116.73 226.64 117.144 226.34C117.564 226.033 118.064 225.88 118.644 225.88C119.224 225.88 119.72 226.033 120.134 226.34C120.547 226.64 120.864 227.063 121.084 227.61C121.31 228.15 121.424 228.78 121.424 229.5C121.424 230.22 121.31 230.853 121.084 231.4C120.864 231.94 120.547 232.363 120.134 232.67C119.72 232.97 119.224 233.12 118.644 233.12ZM118.644 232.38C119.01 232.38 119.337 232.267 119.624 232.04C119.91 231.807 120.137 231.477 120.304 231.05C120.477 230.617 120.564 230.1 120.564 229.5C120.564 228.893 120.477 228.377 120.304 227.95C120.137 227.523 119.91 227.197 119.624 226.97C119.337 226.743 119.01 226.63 118.644 226.63C118.27 226.63 117.937 226.743 117.644 226.97C117.35 227.197 117.12 227.523 116.954 227.95C116.787 228.377 116.704 228.893 116.704 229.5C116.704 230.1 116.787 230.617 116.954 231.05C117.12 231.477 117.35 231.807 117.644 232.04C117.937 232.267 118.27 232.38 118.644 232.38Z" fill="#77758D"/>
<path d="M146.97 233.12C146.523 233.12 146.117 233.04 145.75 232.88C145.39 232.713 145.103 232.467 144.89 232.14C144.677 231.813 144.563 231.407 144.55 230.92H145.4C145.407 231.187 145.47 231.433 145.59 231.66C145.717 231.88 145.897 232.057 146.13 232.19C146.363 232.323 146.643 232.39 146.97 232.39C147.297 232.39 147.57 232.327 147.79 232.2C148.01 232.073 148.177 231.907 148.29 231.7C148.403 231.487 148.46 231.25 148.46 230.99C148.46 230.677 148.38 230.423 148.22 230.23C148.067 230.03 147.857 229.883 147.59 229.79C147.33 229.69 147.043 229.64 146.73 229.64H146.21V228.93H146.73C147.203 228.93 147.573 228.823 147.84 228.61C148.113 228.39 148.25 228.087 148.25 227.7C148.25 227.387 148.143 227.127 147.93 226.92C147.717 226.713 147.397 226.61 146.97 226.61C146.55 226.61 146.22 226.723 145.98 226.95C145.74 227.177 145.603 227.467 145.57 227.82H144.72C144.74 227.44 144.843 227.103 145.03 226.81C145.223 226.517 145.483 226.29 145.81 226.13C146.143 225.963 146.53 225.88 146.97 225.88C147.437 225.88 147.827 225.96 148.14 226.12C148.46 226.28 148.7 226.493 148.86 226.76C149.02 227.027 149.1 227.323 149.1 227.65C149.1 227.89 149.053 228.12 148.96 228.34C148.873 228.56 148.74 228.75 148.56 228.91C148.38 229.07 148.15 229.183 147.87 229.25C148.143 229.303 148.387 229.407 148.6 229.56C148.82 229.713 148.993 229.91 149.12 230.15C149.247 230.39 149.31 230.67 149.31 230.99C149.31 231.37 149.22 231.723 149.04 232.05C148.867 232.37 148.607 232.63 148.26 232.83C147.913 233.023 147.483 233.12 146.97 233.12ZM153.267 233.12C152.687 233.12 152.187 232.97 151.767 232.67C151.353 232.363 151.033 231.94 150.807 231.4C150.58 230.853 150.467 230.22 150.467 229.5C150.467 228.78 150.58 228.15 150.807 227.61C151.033 227.063 151.353 226.64 151.767 226.34C152.187 226.033 152.687 225.88 153.267 225.88C153.847 225.88 154.343 226.033 154.757 226.34C155.17 226.64 155.487 227.063 155.707 227.61C155.933 228.15 156.047 228.78 156.047 229.5C156.047 230.22 155.933 230.853 155.707 231.4C155.487 231.94 155.17 232.363 154.757 232.67C154.343 232.97 153.847 233.12 153.267 233.12ZM153.267 232.38C153.633 232.38 153.96 232.267 154.247 232.04C154.533 231.807 154.76 231.477 154.927 231.05C155.1 230.617 155.187 230.1 155.187 229.5C155.187 228.893 155.1 228.377 154.927 227.95C154.76 227.523 154.533 227.197 154.247 226.97C153.96 226.743 153.633 226.63 153.267 226.63C152.893 226.63 152.56 226.743 152.267 226.97C151.973 227.197 151.743 227.523 151.577 227.95C151.41 228.377 151.327 228.893 151.327 229.5C151.327 230.1 151.41 230.617 151.577 231.05C151.743 231.477 151.973 231.807 152.267 232.04C152.56 232.267 152.893 232.38 153.267 232.38ZM159.829 233.12C159.249 233.12 158.749 232.97 158.329 232.67C157.916 232.363 157.596 231.94 157.369 231.4C157.142 230.853 157.029 230.22 157.029 229.5C157.029 228.78 157.142 228.15 157.369 227.61C157.596 227.063 157.916 226.64 158.329 226.34C158.749 226.033 159.249 225.88 159.829 225.88C160.409 225.88 160.906 226.033 161.319 226.34C161.732 226.64 162.049 227.063 162.269 227.61C162.496 228.15 162.609 228.78 162.609 229.5C162.609 230.22 162.496 230.853 162.269 231.4C162.049 231.94 161.732 232.363 161.319 232.67C160.906 232.97 160.409 233.12 159.829 233.12ZM159.829 232.38C160.196 232.38 160.522 232.267 160.809 232.04C161.096 231.807 161.322 231.477 161.489 231.05C161.662 230.617 161.749 230.1 161.749 229.5C161.749 228.893 161.662 228.377 161.489 227.95C161.322 227.523 161.096 227.197 160.809 226.97C160.522 226.743 160.196 226.63 159.829 226.63C159.456 226.63 159.122 226.743 158.829 226.97C158.536 227.197 158.306 227.523 158.139 227.95C157.972 228.377 157.889 228.893 157.889 229.5C157.889 230.1 157.972 230.617 158.139 231.05C158.306 231.477 158.536 231.807 158.829 232.04C159.122 232.267 159.456 232.38 159.829 232.38Z" fill="#77758D"/>
<path d="M189.96 233V231.5H186.41V230.85L189.81 226H190.79V230.76H191.83V231.5H190.79V233H189.96ZM187.34 230.76H190V226.93L187.34 230.76ZM195.433 233.12C194.853 233.12 194.353 232.97 193.933 232.67C193.519 232.363 193.199 231.94 192.973 231.4C192.746 230.853 192.633 230.22 192.633 229.5C192.633 228.78 192.746 228.15 192.973 227.61C193.199 227.063 193.519 226.64 193.933 226.34C194.353 226.033 194.853 225.88 195.433 225.88C196.013 225.88 196.509 226.033 196.923 226.34C197.336 226.64 197.653 227.063 197.873 227.61C198.099 228.15 198.213 228.78 198.213 229.5C198.213 230.22 198.099 230.853 197.873 231.4C197.653 231.94 197.336 232.363 196.923 232.67C196.509 232.97 196.013 233.12 195.433 233.12ZM195.433 232.38C195.799 232.38 196.126 232.267 196.413 232.04C196.699 231.807 196.926 231.477 197.093 231.05C197.266 230.617 197.353 230.1 197.353 229.5C197.353 228.893 197.266 228.377 197.093 227.95C196.926 227.523 196.699 227.197 196.413 226.97C196.126 226.743 195.799 226.63 195.433 226.63C195.059 226.63 194.726 226.743 194.433 226.97C194.139 227.197 193.909 227.523 193.743 227.95C193.576 228.377 193.493 228.893 193.493 229.5C193.493 230.1 193.576 230.617 193.743 231.05C193.909 231.477 194.139 231.807 194.433 232.04C194.726 232.267 195.059 232.38 195.433 232.38ZM201.995 233.12C201.415 233.12 200.915 232.97 200.495 232.67C200.082 232.363 199.762 231.94 199.535 231.4C199.308 230.853 199.195 230.22 199.195 229.5C199.195 228.78 199.308 228.15 199.535 227.61C199.762 227.063 200.082 226.64 200.495 226.34C200.915 226.033 201.415 225.88 201.995 225.88C202.575 225.88 203.072 226.033 203.485 226.34C203.898 226.64 204.215 227.063 204.435 227.61C204.662 228.15 204.775 228.78 204.775 229.5C204.775 230.22 204.662 230.853 204.435 231.4C204.215 231.94 203.898 232.363 203.485 232.67C203.072 232.97 202.575 233.12 201.995 233.12ZM201.995 232.38C202.362 232.38 202.688 232.267 202.975 232.04C203.262 231.807 203.488 231.477 203.655 231.05C203.828 230.617 203.915 230.1 203.915 229.5C203.915 228.893 203.828 228.377 203.655 227.95C203.488 227.523 203.262 227.197 202.975 226.97C202.688 226.743 202.362 226.63 201.995 226.63C201.622 226.63 201.288 226.743 200.995 226.97C200.702 227.197 200.472 227.523 200.305 227.95C200.138 228.377 200.055 228.893 200.055 229.5C200.055 230.1 200.138 230.617 200.305 231.05C200.472 231.477 200.702 231.807 200.995 232.04C201.288 232.267 201.622 232.38 201.995 232.38Z" fill="#77758D"/>
<path d="M231.08 233.12C230.613 233.12 230.207 233.037 229.86 232.87C229.52 232.703 229.25 232.48 229.05 232.2C228.857 231.913 228.737 231.587 228.69 231.22H229.51C229.583 231.567 229.753 231.85 230.02 232.07C230.293 232.29 230.65 232.4 231.09 232.4C231.417 232.4 231.693 232.327 231.92 232.18C232.153 232.027 232.333 231.82 232.46 231.56C232.587 231.293 232.65 230.997 232.65 230.67C232.65 230.343 232.587 230.057 232.46 229.81C232.34 229.557 232.167 229.36 231.94 229.22C231.713 229.073 231.447 229 231.14 229C230.773 229 230.46 229.073 230.2 229.22C229.947 229.367 229.75 229.547 229.61 229.76H228.78L229.31 226H233.07V226.73H229.96L229.6 228.92C229.767 228.733 229.987 228.583 230.26 228.47C230.54 228.35 230.863 228.29 231.23 228.29C231.57 228.29 231.877 228.35 232.15 228.47C232.423 228.59 232.657 228.76 232.85 228.98C233.05 229.193 233.2 229.443 233.3 229.73C233.407 230.017 233.46 230.327 233.46 230.66C233.46 230.993 233.403 231.31 233.29 231.61C233.183 231.903 233.027 232.163 232.82 232.39C232.62 232.617 232.373 232.797 232.08 232.93C231.787 233.057 231.453 233.12 231.08 233.12ZM237.354 233.12C236.774 233.12 236.274 232.97 235.854 232.67C235.441 232.363 235.121 231.94 234.894 231.4C234.668 230.853 234.554 230.22 234.554 229.5C234.554 228.78 234.668 228.15 234.894 227.61C235.121 227.063 235.441 226.64 235.854 226.34C236.274 226.033 236.774 225.88 237.354 225.88C237.934 225.88 238.431 226.033 238.844 226.34C239.258 226.64 239.574 227.063 239.794 227.61C240.021 228.15 240.134 228.78 240.134 229.5C240.134 230.22 240.021 230.853 239.794 231.4C239.574 231.94 239.258 232.363 238.844 232.67C238.431 232.97 237.934 233.12 237.354 233.12ZM237.354 232.38C237.721 232.38 238.048 232.267 238.334 232.04C238.621 231.807 238.848 231.477 239.014 231.05C239.188 230.617 239.274 230.1 239.274 229.5C239.274 228.893 239.188 228.377 239.014 227.95C238.848 227.523 238.621 227.197 238.334 226.97C238.048 226.743 237.721 226.63 237.354 226.63C236.981 226.63 236.648 226.743 236.354 226.97C236.061 227.197 235.831 227.523 235.664 227.95C235.498 228.377 235.414 228.893 235.414 229.5C235.414 230.1 235.498 230.617 235.664 231.05C235.831 231.477 236.061 231.807 236.354 232.04C236.648 232.267 236.981 232.38 237.354 232.38ZM243.917 233.12C243.337 233.12 242.837 232.97 242.417 232.67C242.004 232.363 241.684 231.94 241.457 231.4C241.23 230.853 241.117 230.22 241.117 229.5C241.117 228.78 241.23 228.15 241.457 227.61C241.684 227.063 242.004 226.64 242.417 226.34C242.837 226.033 243.337 225.88 243.917 225.88C244.497 225.88 244.994 226.033 245.407 226.34C245.82 226.64 246.137 227.063 246.357 227.61C246.584 228.15 246.697 228.78 246.697 229.5C246.697 230.22 246.584 230.853 246.357 231.4C246.137 231.94 245.82 232.363 245.407 232.67C244.994 232.97 244.497 233.12 243.917 233.12ZM243.917 232.38C244.284 232.38 244.61 232.267 244.897 232.04C245.184 231.807 245.41 231.477 245.577 231.05C245.75 230.617 245.837 230.1 245.837 229.5C245.837 228.893 245.75 228.377 245.577 227.95C245.41 227.523 245.184 227.197 244.897 226.97C244.61 226.743 244.284 226.63 243.917 226.63C243.544 226.63 243.21 226.743 242.917 226.97C242.624 227.197 242.394 227.523 242.227 227.95C242.06 228.377 241.977 228.893 241.977 229.5C241.977 230.1 242.06 230.617 242.227 231.05C242.394 231.477 242.624 231.807 242.917 232.04C243.21 232.267 243.544 232.38 243.917 232.38Z" fill="#77758D"/>
<path d="M273.25 233.12C272.75 233.12 272.327 233.027 271.98 232.84C271.64 232.653 271.367 232.403 271.16 232.09C270.96 231.77 270.813 231.41 270.72 231.01C270.627 230.61 270.58 230.2 270.58 229.78C270.58 229.007 270.683 228.33 270.89 227.75C271.103 227.163 271.41 226.707 271.81 226.38C272.21 226.047 272.693 225.88 273.26 225.88C273.7 225.88 274.077 225.963 274.39 226.13C274.71 226.297 274.963 226.52 275.15 226.8C275.337 227.073 275.45 227.38 275.49 227.72H274.71C274.643 227.367 274.48 227.093 274.22 226.9C273.967 226.707 273.643 226.61 273.25 226.61C272.897 226.61 272.58 226.72 272.3 226.94C272.027 227.16 271.81 227.493 271.65 227.94C271.49 228.38 271.4 228.943 271.38 229.63C271.38 229.643 271.38 229.657 271.38 229.67C271.38 229.683 271.38 229.697 271.38 229.71C271.473 229.497 271.613 229.3 271.8 229.12C271.987 228.94 272.213 228.797 272.48 228.69C272.747 228.577 273.04 228.52 273.36 228.52C273.753 228.52 274.117 228.613 274.45 228.8C274.79 228.987 275.063 229.25 275.27 229.59C275.477 229.923 275.58 230.317 275.58 230.77C275.58 231.163 275.483 231.54 275.29 231.9C275.103 232.26 274.837 232.553 274.49 232.78C274.143 233.007 273.73 233.12 273.25 233.12ZM273.19 232.38C273.483 232.38 273.743 232.313 273.97 232.18C274.203 232.047 274.387 231.863 274.52 231.63C274.66 231.39 274.73 231.117 274.73 230.81C274.73 230.497 274.66 230.223 274.52 229.99C274.387 229.757 274.203 229.577 273.97 229.45C273.743 229.317 273.483 229.25 273.19 229.25C272.89 229.25 272.62 229.32 272.38 229.46C272.14 229.593 271.95 229.78 271.81 230.02C271.67 230.253 271.6 230.52 271.6 230.82C271.6 231.127 271.67 231.4 271.81 231.64C271.95 231.873 272.14 232.057 272.38 232.19C272.62 232.317 272.89 232.38 273.19 232.38ZM279.53 233.12C278.95 233.12 278.45 232.97 278.03 232.67C277.617 232.363 277.297 231.94 277.07 231.4C276.844 230.853 276.73 230.22 276.73 229.5C276.73 228.78 276.844 228.15 277.07 227.61C277.297 227.063 277.617 226.64 278.03 226.34C278.45 226.033 278.95 225.88 279.53 225.88C280.11 225.88 280.607 226.033 281.02 226.34C281.434 226.64 281.75 227.063 281.97 227.61C282.197 228.15 282.31 228.78 282.31 229.5C282.31 230.22 282.197 230.853 281.97 231.4C281.75 231.94 281.434 232.363 281.02 232.67C280.607 232.97 280.11 233.12 279.53 233.12ZM279.53 232.38C279.897 232.38 280.224 232.267 280.51 232.04C280.797 231.807 281.024 231.477 281.19 231.05C281.364 230.617 281.45 230.1 281.45 229.5C281.45 228.893 281.364 228.377 281.19 227.95C281.024 227.523 280.797 227.197 280.51 226.97C280.224 226.743 279.897 226.63 279.53 226.63C279.157 226.63 278.824 226.743 278.53 226.97C278.237 227.197 278.007 227.523 277.84 227.95C277.674 228.377 277.59 228.893 277.59 229.5C277.59 230.1 277.674 230.617 277.84 231.05C278.007 231.477 278.237 231.807 278.53 232.04C278.824 232.267 279.157 232.38 279.53 232.38ZM286.093 233.12C285.513 233.12 285.013 232.97 284.593 232.67C284.179 232.363 283.859 231.94 283.633 231.4C283.406 230.853 283.293 230.22 283.293 229.5C283.293 228.78 283.406 228.15 283.633 227.61C283.859 227.063 284.179 226.64 284.593 226.34C285.013 226.033 285.513 225.88 286.093 225.88C286.673 225.88 287.169 226.033 287.583 226.34C287.996 226.64 288.313 227.063 288.533 227.61C288.759 228.15 288.873 228.78 288.873 229.5C288.873 230.22 288.759 230.853 288.533 231.4C288.313 231.94 287.996 232.363 287.583 232.67C287.169 232.97 286.673 233.12 286.093 233.12ZM286.093 232.38C286.459 232.38 286.786 232.267 287.073 232.04C287.359 231.807 287.586 231.477 287.753 231.05C287.926 230.617 288.013 230.1 288.013 229.5C288.013 228.893 287.926 228.377 287.753 227.95C287.586 227.523 287.359 227.197 287.073 226.97C286.786 226.743 286.459 226.63 286.093 226.63C285.719 226.63 285.386 226.743 285.093 226.97C284.799 227.197 284.569 227.523 284.403 227.95C284.236 228.377 284.153 228.893 284.153 229.5C284.153 230.1 284.236 230.617 284.403 231.05C284.569 231.477 284.799 231.807 285.093 232.04C285.386 232.267 285.719 232.38 286.093 232.38Z" fill="#77758D"/>
<path d="M313.56 233L316.13 226.72H312.29V226H316.99V226.63L314.45 233H313.56ZM320.534 233.12C319.954 233.12 319.454 232.97 319.034 232.67C318.621 232.363 318.301 231.94 318.074 231.4C317.847 230.853 317.734 230.22 317.734 229.5C317.734 228.78 317.847 228.15 318.074 227.61C318.301 227.063 318.621 226.64 319.034 226.34C319.454 226.033 319.954 225.88 320.534 225.88C321.114 225.88 321.611 226.033 322.024 226.34C322.437 226.64 322.754 227.063 322.974 227.61C323.201 228.15 323.314 228.78 323.314 229.5C323.314 230.22 323.201 230.853 322.974 231.4C322.754 231.94 322.437 232.363 322.024 232.67C321.611 232.97 321.114 233.12 320.534 233.12ZM320.534 232.38C320.901 232.38 321.227 232.267 321.514 232.04C321.801 231.807 322.027 231.477 322.194 231.05C322.367 230.617 322.454 230.1 322.454 229.5C322.454 228.893 322.367 228.377 322.194 227.95C322.027 227.523 321.801 227.197 321.514 226.97C321.227 226.743 320.901 226.63 320.534 226.63C320.161 226.63 319.827 226.743 319.534 226.97C319.241 227.197 319.011 227.523 318.844 227.95C318.677 228.377 318.594 228.893 318.594 229.5C318.594 230.1 318.677 230.617 318.844 231.05C319.011 231.477 319.241 231.807 319.534 232.04C319.827 232.267 320.161 232.38 320.534 232.38ZM327.097 233.12C326.517 233.12 326.017 232.97 325.597 232.67C325.183 232.363 324.863 231.94 324.637 231.4C324.41 230.853 324.297 230.22 324.297 229.5C324.297 228.78 324.41 228.15 324.637 227.61C324.863 227.063 325.183 226.64 325.597 226.34C326.017 226.033 326.517 225.88 327.097 225.88C327.677 225.88 328.173 226.033 328.587 226.34C329 226.64 329.317 227.063 329.537 227.61C329.763 228.15 329.877 228.78 329.877 229.5C329.877 230.22 329.763 230.853 329.537 231.4C329.317 231.94 329 232.363 328.587 232.67C328.173 232.97 327.677 233.12 327.097 233.12ZM327.097 232.38C327.463 232.38 327.79 232.267 328.077 232.04C328.363 231.807 328.59 231.477 328.757 231.05C328.93 230.617 329.017 230.1 329.017 229.5C329.017 228.893 328.93 228.377 328.757 227.95C328.59 227.523 328.363 227.197 328.077 226.97C327.79 226.743 327.463 226.63 327.097 226.63C326.723 226.63 326.39 226.743 326.097 226.97C325.803 227.197 325.573 227.523 325.407 227.95C325.24 228.377 325.157 228.893 325.157 229.5C325.157 230.1 325.24 230.617 325.407 231.05C325.573 231.477 325.803 231.807 326.097 232.04C326.39 232.267 326.723 232.38 327.097 232.38Z" fill="#77758D"/>
<line x1="166.75" y1="215.75" x2="166.75" y2="48.25" stroke="#343246" stroke-width="0.5" stroke-linecap="round" stroke-dasharray="4 4"/>
<line x1="102.75" y1="215.75" x2="102.75" y2="48.25" stroke="#343246" stroke-width="0.5" stroke-linecap="round" stroke-dasharray="4 4"/>
<line x1="40.75" y1="215.75" x2="40.75" y2="48.25" stroke="#343246" stroke-width="0.5" stroke-linecap="round" stroke-dasharray="4 4"/>
<line x1="231.75" y1="215.75" x2="231.75" y2="48.25" stroke="#343246" stroke-width="0.5" stroke-linecap="round" stroke-dasharray="4 4"/>
<line x1="297.75" y1="215.75" x2="297.75" y2="48.25" stroke="#343246" stroke-width="0.5" stroke-linecap="round" stroke-dasharray="4 4"/>
<line x1="323.75" y1="216.25" x2="33.25" y2="216.25" stroke="#343246" stroke-width="0.5" stroke-linecap="round" stroke-dasharray="4 4"/>
<line x1="323.75" y1="184.25" x2="33.25" y2="184.25" stroke="#343246" stroke-width="0.5" stroke-linecap="round" stroke-dasharray="4 4"/>
<line x1="323.75" y1="152.25" x2="33.25" y2="152.25" stroke="#343246" stroke-width="0.5" stroke-linecap="round" stroke-dasharray="4 4"/>
<line x1="323.75" y1="120.25" x2="33.25" y2="120.25" stroke="#343246" stroke-width="0.5" stroke-linecap="round" stroke-dasharray="4 4"/>
<line x1="323.75" y1="88.25" x2="33.25" y2="88.25" stroke="#343246" stroke-width="0.5" stroke-linecap="round" stroke-dasharray="4 4"/>
<line x1="323.75" y1="56.25" x2="33.25" y2="56.25" stroke="#343246" stroke-width="0.5" stroke-linecap="round" stroke-dasharray="4 4"/>
<rect x="235" y="18" width="2" height="6" rx="1" fill="#8471FA"/>
<path d="M243.2 24L241.28 17H242.18L243.69 23L245.4 17H246.34L248.01 23.02L249.54 17H250.44L248.48 24H247.52L245.85 18.21L244.14 24H243.2ZM251.407 24V16.8H252.247V19.59C252.421 19.29 252.657 19.0533 252.957 18.88C253.257 18.7067 253.581 18.62 253.927 18.62C254.334 18.62 254.677 18.6967 254.957 18.85C255.244 18.9967 255.461 19.2233 255.607 19.53C255.761 19.8367 255.837 20.2267 255.837 20.7V24H255.007V20.79C255.007 20.31 254.894 19.95 254.667 19.71C254.441 19.4633 254.134 19.34 253.747 19.34C253.474 19.34 253.224 19.4067 252.997 19.54C252.771 19.6667 252.587 19.8567 252.447 20.11C252.314 20.3633 252.247 20.67 252.247 21.03V24H251.407ZM257.308 24V18.74H258.148V24H257.308ZM257.728 17.74C257.561 17.74 257.421 17.6867 257.308 17.58C257.201 17.4667 257.148 17.3267 257.148 17.16C257.148 16.9933 257.201 16.86 257.308 16.76C257.421 16.6533 257.561 16.6 257.728 16.6C257.888 16.6 258.024 16.6533 258.138 16.76C258.251 16.86 258.308 16.9933 258.308 17.16C258.308 17.3267 258.251 17.4667 258.138 17.58C258.024 17.6867 257.888 17.74 257.728 17.74ZM261.54 24.12C261.066 24.12 260.673 24.05 260.36 23.91C260.053 23.7633 259.82 23.5633 259.66 23.31C259.5 23.05 259.403 22.75 259.37 22.41H260.23C260.256 22.59 260.316 22.7567 260.41 22.91C260.51 23.0567 260.653 23.1767 260.84 23.27C261.026 23.3633 261.263 23.41 261.55 23.41C261.776 23.41 261.97 23.3767 262.13 23.31C262.29 23.2367 262.41 23.1367 262.49 23.01C262.576 22.8833 262.62 22.7367 262.62 22.57C262.62 22.35 262.57 22.18 262.47 22.06C262.376 21.9333 262.236 21.84 262.05 21.78C261.87 21.7133 261.643 21.6633 261.37 21.63C261.076 21.59 260.816 21.5333 260.59 21.46C260.363 21.3867 260.17 21.29 260.01 21.17C259.856 21.05 259.74 20.9 259.66 20.72C259.58 20.54 259.54 20.3267 259.54 20.08C259.54 19.7933 259.616 19.54 259.77 19.32C259.923 19.1 260.14 18.93 260.42 18.81C260.706 18.6833 261.043 18.62 261.43 18.62C261.996 18.62 262.443 18.75 262.77 19.01C263.103 19.27 263.3 19.64 263.36 20.12H262.53C262.496 19.8733 262.383 19.68 262.19 19.54C261.996 19.4 261.74 19.33 261.42 19.33C261.08 19.33 260.823 19.3933 260.65 19.52C260.476 19.6467 260.39 19.8133 260.39 20.02C260.39 20.1733 260.426 20.3133 260.5 20.44C260.58 20.56 260.713 20.6633 260.9 20.75C261.086 20.83 261.336 20.89 261.65 20.93C262.043 20.9767 262.376 21.0533 262.65 21.16C262.923 21.26 263.13 21.4167 263.27 21.63C263.416 21.8433 263.486 22.1333 263.48 22.5C263.48 22.8467 263.396 23.14 263.23 23.38C263.07 23.62 262.843 23.8033 262.55 23.93C262.263 24.0567 261.926 24.12 261.54 24.12ZM264.728 26.2V18.74H265.488L265.558 19.56C265.664 19.3867 265.798 19.23 265.958 19.09C266.124 18.95 266.321 18.8367 266.548 18.75C266.781 18.6633 267.048 18.62 267.348 18.62C267.821 18.62 268.234 18.74 268.588 18.98C268.948 19.22 269.228 19.5467 269.428 19.96C269.628 20.3733 269.728 20.8467 269.728 21.38C269.728 21.9067 269.628 22.3767 269.428 22.79C269.228 23.2033 268.948 23.53 268.588 23.77C268.228 24.0033 267.811 24.12 267.338 24.12C266.931 24.12 266.574 24.0367 266.268 23.87C265.961 23.7033 265.728 23.47 265.568 23.17V26.2H264.728ZM267.238 23.39C267.551 23.39 267.828 23.31 268.068 23.15C268.314 22.9833 268.508 22.75 268.648 22.45C268.794 22.1433 268.868 21.7833 268.868 21.37C268.868 20.9567 268.794 20.6 268.648 20.3C268.508 19.9933 268.314 19.76 268.068 19.6C267.828 19.4333 267.551 19.35 267.238 19.35C266.904 19.35 266.614 19.4333 266.368 19.6C266.121 19.76 265.931 19.9933 265.798 20.3C265.664 20.6 265.598 20.9567 265.598 21.37C265.598 21.7833 265.664 22.1433 265.798 22.45C265.931 22.75 266.121 22.9833 266.368 23.15C266.614 23.31 266.904 23.39 267.238 23.39ZM273.128 24.12C272.662 24.12 272.248 24.0067 271.888 23.78C271.528 23.5533 271.245 23.2333 271.038 22.82C270.838 22.4067 270.738 21.9233 270.738 21.37C270.738 20.8167 270.838 20.3333 271.038 19.92C271.245 19.5067 271.528 19.1867 271.888 18.96C272.255 18.7333 272.675 18.62 273.148 18.62C273.655 18.62 274.078 18.7333 274.418 18.96C274.758 19.1867 275.015 19.49 275.188 19.87C275.362 20.25 275.448 20.6667 275.448 21.12C275.448 21.1867 275.448 21.2533 275.448 21.32C275.448 21.3867 275.445 21.4667 275.438 21.56H271.368V20.91H274.628C274.615 20.3967 274.465 20.0067 274.178 19.74C273.898 19.4667 273.548 19.33 273.128 19.33C272.848 19.33 272.588 19.4 272.348 19.54C272.115 19.6733 271.925 19.8733 271.778 20.14C271.632 20.4067 271.558 20.74 271.558 21.14V21.42C271.558 21.86 271.632 22.23 271.778 22.53C271.925 22.8233 272.115 23.0433 272.348 23.19C272.588 23.3367 272.848 23.41 273.128 23.41C273.502 23.41 273.795 23.34 274.008 23.2C274.222 23.0533 274.378 22.8467 274.478 22.58H275.308C275.228 22.8733 275.088 23.1367 274.888 23.37C274.695 23.6033 274.448 23.7867 274.148 23.92C273.855 24.0533 273.515 24.12 273.128 24.12ZM276.612 24V18.74H277.372L277.432 19.7C277.552 19.46 277.709 19.26 277.902 19.1C278.096 18.94 278.329 18.82 278.602 18.74C278.882 18.66 279.196 18.62 279.542 18.62V19.5H279.022C278.822 19.5 278.629 19.5267 278.442 19.58C278.256 19.6333 278.086 19.72 277.932 19.84C277.786 19.96 277.669 20.1233 277.582 20.33C277.496 20.5367 277.452 20.7967 277.452 21.11V24H276.612ZM280.509 25.15V24.36H285.399V25.15H280.509ZM288.857 24C288.557 24 288.297 23.9533 288.077 23.86C287.857 23.7667 287.687 23.61 287.567 23.39C287.454 23.1633 287.397 22.86 287.397 22.48V19.45H286.477V18.74H287.397L287.507 17.43H288.237V18.74H289.727V19.45H288.237V22.48C288.237 22.7933 288.301 23.0067 288.427 23.12C288.554 23.2267 288.777 23.28 289.097 23.28H289.707V24H288.857ZM290.96 24V18.74H291.8V24H290.96ZM291.38 17.74C291.213 17.74 291.073 17.6867 290.96 17.58C290.853 17.4667 290.8 17.3267 290.8 17.16C290.8 16.9933 290.853 16.86 290.96 16.76C291.073 16.6533 291.213 16.6 291.38 16.6C291.54 16.6 291.677 16.6533 291.79 16.76C291.903 16.86 291.96 16.9933 291.96 17.16C291.96 17.3267 291.903 17.4667 291.79 17.58C291.677 17.6867 291.54 17.74 291.38 17.74ZM293.292 24V18.74H294.052L294.092 19.57C294.245 19.27 294.465 19.0367 294.752 18.87C295.045 18.7033 295.382 18.62 295.762 18.62C296.149 18.62 296.485 18.6933 296.772 18.84C297.059 18.9867 297.282 19.21 297.442 19.51C297.602 19.81 297.682 20.19 297.682 20.65V24H296.842V20.74C296.842 20.2733 296.725 19.9233 296.492 19.69C296.265 19.4567 295.959 19.34 295.572 19.34C295.312 19.34 295.072 19.4033 294.852 19.53C294.632 19.65 294.455 19.83 294.322 20.07C294.195 20.31 294.132 20.6033 294.132 20.95V24H293.292ZM299.517 26.2L300.707 23.44H300.417L298.447 18.74H299.357L300.987 22.79L302.687 18.74H303.557L300.387 26.2H299.517Z" fill="#8471FA"/>
<rect x="235" y="34" width="2" height="6" rx="1" fill="#2EBBBF"/>
<path d="M243.2 40L241.28 33H242.18L243.69 39L245.4 33H246.34L248.01 39.02L249.54 33H250.44L248.48 40H247.52L245.85 34.21L244.14 40H243.2ZM251.407 40V32.8H252.247V35.59C252.421 35.29 252.657 35.0533 252.957 34.88C253.257 34.7067 253.581 34.62 253.927 34.62C254.334 34.62 254.677 34.6967 254.957 34.85C255.244 34.9967 255.461 35.2233 255.607 35.53C255.761 35.8367 255.837 36.2267 255.837 36.7V40H255.007V36.79C255.007 36.31 254.894 35.95 254.667 35.71C254.441 35.4633 254.134 35.34 253.747 35.34C253.474 35.34 253.224 35.4067 252.997 35.54C252.771 35.6667 252.587 35.8567 252.447 36.11C252.314 36.3633 252.247 36.67 252.247 37.03V40H251.407ZM257.308 40V34.74H258.148V40H257.308ZM257.728 33.74C257.561 33.74 257.421 33.6867 257.308 33.58C257.201 33.4667 257.148 33.3267 257.148 33.16C257.148 32.9933 257.201 32.86 257.308 32.76C257.421 32.6533 257.561 32.6 257.728 32.6C257.888 32.6 258.024 32.6533 258.138 32.76C258.251 32.86 258.308 32.9933 258.308 33.16C258.308 33.3267 258.251 33.4667 258.138 33.58C258.024 33.6867 257.888 33.74 257.728 33.74ZM261.54 40.12C261.066 40.12 260.673 40.05 260.36 39.91C260.053 39.7633 259.82 39.5633 259.66 39.31C259.5 39.05 259.403 38.75 259.37 38.41H260.23C260.256 38.59 260.316 38.7567 260.41 38.91C260.51 39.0567 260.653 39.1767 260.84 39.27C261.026 39.3633 261.263 39.41 261.55 39.41C261.776 39.41 261.97 39.3767 262.13 39.31C262.29 39.2367 262.41 39.1367 262.49 39.01C262.576 38.8833 262.62 38.7367 262.62 38.57C262.62 38.35 262.57 38.18 262.47 38.06C262.376 37.9333 262.236 37.84 262.05 37.78C261.87 37.7133 261.643 37.6633 261.37 37.63C261.076 37.59 260.816 37.5333 260.59 37.46C260.363 37.3867 260.17 37.29 260.01 37.17C259.856 37.05 259.74 36.9 259.66 36.72C259.58 36.54 259.54 36.3267 259.54 36.08C259.54 35.7933 259.616 35.54 259.77 35.32C259.923 35.1 260.14 34.93 260.42 34.81C260.706 34.6833 261.043 34.62 261.43 34.62C261.996 34.62 262.443 34.75 262.77 35.01C263.103 35.27 263.3 35.64 263.36 36.12H262.53C262.496 35.8733 262.383 35.68 262.19 35.54C261.996 35.4 261.74 35.33 261.42 35.33C261.08 35.33 260.823 35.3933 260.65 35.52C260.476 35.6467 260.39 35.8133 260.39 36.02C260.39 36.1733 260.426 36.3133 260.5 36.44C260.58 36.56 260.713 36.6633 260.9 36.75C261.086 36.83 261.336 36.89 261.65 36.93C262.043 36.9767 262.376 37.0533 262.65 37.16C262.923 37.26 263.13 37.4167 263.27 37.63C263.416 37.8433 263.486 38.1333 263.48 38.5C263.48 38.8467 263.396 39.14 263.23 39.38C263.07 39.62 262.843 39.8033 262.55 39.93C262.263 40.0567 261.926 40.12 261.54 40.12ZM264.728 40V32.8H265.568V35.59C265.741 35.29 265.978 35.0533 266.278 34.88C266.578 34.7067 266.901 34.62 267.248 34.62C267.654 34.62 267.998 34.6967 268.278 34.85C268.564 34.9967 268.781 35.2233 268.928 35.53C269.081 35.8367 269.158 36.2267 269.158 36.7V40H268.328V36.79C268.328 36.31 268.214 35.95 267.988 35.71C267.761 35.4633 267.454 35.34 267.068 35.34C266.794 35.34 266.544 35.4067 266.318 35.54C266.091 35.6667 265.908 35.8567 265.768 36.11C265.634 36.3633 265.568 36.67 265.568 37.03V40H264.728ZM270.548 42.2V34.74H271.308L271.378 35.56C271.485 35.3867 271.618 35.23 271.778 35.09C271.945 34.95 272.141 34.8367 272.368 34.75C272.601 34.6633 272.868 34.62 273.168 34.62C273.641 34.62 274.055 34.74 274.408 34.98C274.768 35.22 275.048 35.5467 275.248 35.96C275.448 36.3733 275.548 36.8467 275.548 37.38C275.548 37.9067 275.448 38.3767 275.248 38.79C275.048 39.2033 274.768 39.53 274.408 39.77C274.048 40.0033 273.631 40.12 273.158 40.12C272.751 40.12 272.395 40.0367 272.088 39.87C271.781 39.7033 271.548 39.47 271.388 39.17V42.2H270.548ZM273.058 39.39C273.371 39.39 273.648 39.31 273.888 39.15C274.135 38.9833 274.328 38.75 274.468 38.45C274.615 38.1433 274.688 37.7833 274.688 37.37C274.688 36.9567 274.615 36.6 274.468 36.3C274.328 35.9933 274.135 35.76 273.888 35.6C273.648 35.4333 273.371 35.35 273.058 35.35C272.725 35.35 272.435 35.4333 272.188 35.6C271.941 35.76 271.751 35.9933 271.618 36.3C271.485 36.6 271.418 36.9567 271.418 37.37C271.418 37.7833 271.485 38.1433 271.618 38.45C271.751 38.75 271.941 38.9833 272.188 39.15C272.435 39.31 272.725 39.39 273.058 39.39ZM278.949 40.12C278.482 40.12 278.069 40.0067 277.709 39.78C277.349 39.5533 277.065 39.2333 276.859 38.82C276.659 38.4067 276.559 37.9233 276.559 37.37C276.559 36.8167 276.659 36.3333 276.859 35.92C277.065 35.5067 277.349 35.1867 277.709 34.96C278.075 34.7333 278.495 34.62 278.969 34.62C279.475 34.62 279.899 34.7333 280.239 34.96C280.579 35.1867 280.835 35.49 281.009 35.87C281.182 36.25 281.269 36.6667 281.269 37.12C281.269 37.1867 281.269 37.2533 281.269 37.32C281.269 37.3867 281.265 37.4667 281.259 37.56H277.189V36.91H280.449C280.435 36.3967 280.285 36.0067 279.999 35.74C279.719 35.4667 279.369 35.33 278.949 35.33C278.669 35.33 278.409 35.4 278.169 35.54C277.935 35.6733 277.745 35.8733 277.599 36.14C277.452 36.4067 277.379 36.74 277.379 37.14V37.42C277.379 37.86 277.452 38.23 277.599 38.53C277.745 38.8233 277.935 39.0433 278.169 39.19C278.409 39.3367 278.669 39.41 278.949 39.41C279.322 39.41 279.615 39.34 279.829 39.2C280.042 39.0533 280.199 38.8467 280.299 38.58H281.129C281.049 38.8733 280.909 39.1367 280.709 39.37C280.515 39.6033 280.269 39.7867 279.969 39.92C279.675 40.0533 279.335 40.12 278.949 40.12ZM282.433 40V34.74H283.193L283.253 35.7C283.373 35.46 283.529 35.26 283.723 35.1C283.916 34.94 284.149 34.82 284.423 34.74C284.703 34.66 285.016 34.62 285.363 34.62V35.5H284.843C284.643 35.5 284.449 35.5267 284.263 35.58C284.076 35.6333 283.906 35.72 283.753 35.84C283.606 35.96 283.489 36.1233 283.403 36.33C283.316 36.5367 283.273 36.7967 283.273 37.11V40H282.433ZM286.329 41.15V40.36H291.219V41.15H286.329ZM295.258 40.12C294.938 40.12 294.661 40.0733 294.428 39.98C294.201 39.88 294.008 39.7567 293.848 39.61C293.694 39.4633 293.568 39.32 293.468 39.18L293.398 40H292.638V32.8H293.478V35.57C293.638 35.2567 293.874 35.02 294.188 34.86C294.501 34.7 294.851 34.62 295.238 34.62C295.718 34.62 296.138 34.7367 296.498 34.97C296.858 35.2033 297.138 35.5267 297.338 35.94C297.538 36.3467 297.638 36.8167 297.638 37.35C297.638 37.8767 297.538 38.35 297.338 38.77C297.138 39.19 296.858 39.52 296.498 39.76C296.144 40 295.731 40.12 295.258 40.12ZM295.148 39.39C295.461 39.39 295.738 39.31 295.978 39.15C296.224 38.9833 296.418 38.75 296.558 38.45C296.704 38.1433 296.778 37.7833 296.778 37.37C296.778 36.9567 296.704 36.6 296.558 36.3C296.418 35.9933 296.224 35.76 295.978 35.6C295.738 35.4333 295.461 35.35 295.148 35.35C294.814 35.35 294.524 35.4333 294.278 35.6C294.031 35.76 293.841 35.9933 293.708 36.3C293.574 36.6 293.508 36.9567 293.508 37.37C293.508 37.7833 293.574 38.1433 293.708 38.45C293.841 38.75 294.031 38.9833 294.278 39.15C294.524 39.31 294.814 39.39 295.148 39.39ZM300.498 40.12C300.098 40.12 299.765 40.0467 299.498 39.9C299.232 39.7467 299.032 39.5467 298.898 39.3C298.765 39.0467 298.698 38.7767 298.698 38.49C298.698 38.1433 298.785 37.85 298.958 37.61C299.138 37.3633 299.388 37.1767 299.708 37.05C300.028 36.9233 300.402 36.86 300.828 36.86H302.138C302.138 36.52 302.098 36.2367 302.018 36.01C301.938 35.7833 301.808 35.6133 301.628 35.5C301.448 35.3867 301.208 35.33 300.908 35.33C300.608 35.33 300.352 35.4067 300.138 35.56C299.925 35.7067 299.792 35.9267 299.738 36.22H298.878C298.918 35.8733 299.035 35.5833 299.228 35.35C299.422 35.11 299.665 34.93 299.958 34.81C300.258 34.6833 300.575 34.62 300.908 34.62C301.382 34.62 301.772 34.7067 302.078 34.88C302.385 35.0467 302.612 35.2833 302.758 35.59C302.905 35.89 302.978 36.2467 302.978 36.66V40H302.228L302.178 39.1C302.112 39.24 302.025 39.3733 301.918 39.5C301.818 39.62 301.698 39.7267 301.558 39.82C301.418 39.9133 301.258 39.9867 301.078 40.04C300.905 40.0933 300.712 40.12 300.498 40.12ZM300.618 39.41C300.838 39.41 301.042 39.36 301.228 39.26C301.415 39.16 301.575 39.0267 301.708 38.86C301.848 38.6867 301.955 38.4933 302.028 38.28C302.102 38.0667 302.138 37.8433 302.138 37.61V37.51H300.898C300.585 37.51 300.328 37.55 300.128 37.63C299.935 37.71 299.795 37.8233 299.708 37.97C299.622 38.11 299.578 38.27 299.578 38.45C299.578 38.6433 299.618 38.8133 299.698 38.96C299.778 39.1 299.895 39.21 300.048 39.29C300.208 39.37 300.398 39.41 300.618 39.41ZM306.266 40.12C305.793 40.12 305.4 40.05 305.086 39.91C304.78 39.7633 304.546 39.5633 304.386 39.31C304.226 39.05 304.13 38.75 304.096 38.41H304.956C304.983 38.59 305.043 38.7567 305.136 38.91C305.236 39.0567 305.38 39.1767 305.566 39.27C305.753 39.3633 305.99 39.41 306.276 39.41C306.503 39.41 306.696 39.3767 306.856 39.31C307.016 39.2367 307.136 39.1367 307.216 39.01C307.303 38.8833 307.346 38.7367 307.346 38.57C307.346 38.35 307.296 38.18 307.196 38.06C307.103 37.9333 306.963 37.84 306.776 37.78C306.596 37.7133 306.37 37.6633 306.096 37.63C305.803 37.59 305.543 37.5333 305.316 37.46C305.09 37.3867 304.896 37.29 304.736 37.17C304.583 37.05 304.466 36.9 304.386 36.72C304.306 36.54 304.266 36.3267 304.266 36.08C304.266 35.7933 304.343 35.54 304.496 35.32C304.65 35.1 304.866 34.93 305.146 34.81C305.433 34.6833 305.77 34.62 306.156 34.62C306.723 34.62 307.17 34.75 307.496 35.01C307.83 35.27 308.026 35.64 308.086 36.12H307.256C307.223 35.8733 307.11 35.68 306.916 35.54C306.723 35.4 306.466 35.33 306.146 35.33C305.806 35.33 305.55 35.3933 305.376 35.52C305.203 35.6467 305.116 35.8133 305.116 36.02C305.116 36.1733 305.153 36.3133 305.226 36.44C305.306 36.56 305.44 36.6633 305.626 36.75C305.813 36.83 306.063 36.89 306.376 36.93C306.77 36.9767 307.103 37.0533 307.376 37.16C307.65 37.26 307.856 37.4167 307.996 37.63C308.143 37.8433 308.213 38.1333 308.206 38.5C308.206 38.8467 308.123 39.14 307.956 39.38C307.796 39.62 307.57 39.8033 307.276 39.93C306.99 40.0567 306.653 40.12 306.266 40.12ZM311.634 40.12C311.167 40.12 310.754 40.0067 310.394 39.78C310.034 39.5533 309.751 39.2333 309.544 38.82C309.344 38.4067 309.244 37.9233 309.244 37.37C309.244 36.8167 309.344 36.3333 309.544 35.92C309.751 35.5067 310.034 35.1867 310.394 34.96C310.761 34.7333 311.181 34.62 311.654 34.62C312.161 34.62 312.584 34.7333 312.924 34.96C313.264 35.1867 313.521 35.49 313.694 35.87C313.867 36.25 313.954 36.6667 313.954 37.12C313.954 37.1867 313.954 37.2533 313.954 37.32C313.954 37.3867 313.951 37.4667 313.944 37.56H309.874V36.91H313.134C313.121 36.3967 312.971 36.0067 312.684 35.74C312.404 35.4667 312.054 35.33 311.634 35.33C311.354 35.33 311.094 35.4 310.854 35.54C310.621 35.6733 310.431 35.8733 310.284 36.14C310.137 36.4067 310.064 36.74 310.064 37.14V37.42C310.064 37.86 310.137 38.23 310.284 38.53C310.431 38.8233 310.621 39.0433 310.854 39.19C311.094 39.3367 311.354 39.41 311.634 39.41C312.007 39.41 312.301 39.34 312.514 39.2C312.727 39.0533 312.884 38.8467 312.984 38.58H313.814C313.734 38.8733 313.594 39.1367 313.394 39.37C313.201 39.6033 312.954 39.7867 312.654 39.92C312.361 40.0533 312.021 40.12 311.634 40.12Z" fill="#2EBBBF"/>
<rect x="235" y="50" width="2" height="6" rx="1" fill="#FFAD32"/>
<path d="M243.2 56L241.28 49H242.18L243.69 55L245.4 49H246.34L248.01 55.02L249.54 49H250.44L248.48 56H247.52L245.85 50.21L244.14 56H243.2ZM251.407 56V48.8H252.247V51.59C252.421 51.29 252.657 51.0533 252.957 50.88C253.257 50.7067 253.581 50.62 253.927 50.62C254.334 50.62 254.677 50.6967 254.957 50.85C255.244 50.9967 255.461 51.2233 255.607 51.53C255.761 51.8367 255.837 52.2267 255.837 52.7V56H255.007V52.79C255.007 52.31 254.894 51.95 254.667 51.71C254.441 51.4633 254.134 51.34 253.747 51.34C253.474 51.34 253.224 51.4067 252.997 51.54C252.771 51.6667 252.587 51.8567 252.447 52.11C252.314 52.3633 252.247 52.67 252.247 53.03V56H251.407ZM257.308 56V50.74H258.148V56H257.308ZM257.728 49.74C257.561 49.74 257.421 49.6867 257.308 49.58C257.201 49.4667 257.148 49.3267 257.148 49.16C257.148 48.9933 257.201 48.86 257.308 48.76C257.421 48.6533 257.561 48.6 257.728 48.6C257.888 48.6 258.024 48.6533 258.138 48.76C258.251 48.86 258.308 48.9933 258.308 49.16C258.308 49.3267 258.251 49.4667 258.138 49.58C258.024 49.6867 257.888 49.74 257.728 49.74ZM261.54 56.12C261.066 56.12 260.673 56.05 260.36 55.91C260.053 55.7633 259.82 55.5633 259.66 55.31C259.5 55.05 259.403 54.75 259.37 54.41H260.23C260.256 54.59 260.316 54.7567 260.41 54.91C260.51 55.0567 260.653 55.1767 260.84 55.27C261.026 55.3633 261.263 55.41 261.55 55.41C261.776 55.41 261.97 55.3767 262.13 55.31C262.29 55.2367 262.41 55.1367 262.49 55.01C262.576 54.8833 262.62 54.7367 262.62 54.57C262.62 54.35 262.57 54.18 262.47 54.06C262.376 53.9333 262.236 53.84 262.05 53.78C261.87 53.7133 261.643 53.6633 261.37 53.63C261.076 53.59 260.816 53.5333 260.59 53.46C260.363 53.3867 260.17 53.29 260.01 53.17C259.856 53.05 259.74 52.9 259.66 52.72C259.58 52.54 259.54 52.3267 259.54 52.08C259.54 51.7933 259.616 51.54 259.77 51.32C259.923 51.1 260.14 50.93 260.42 50.81C260.706 50.6833 261.043 50.62 261.43 50.62C261.996 50.62 262.443 50.75 262.77 51.01C263.103 51.27 263.3 51.64 263.36 52.12H262.53C262.496 51.8733 262.383 51.68 262.19 51.54C261.996 51.4 261.74 51.33 261.42 51.33C261.08 51.33 260.823 51.3933 260.65 51.52C260.476 51.6467 260.39 51.8133 260.39 52.02C260.39 52.1733 260.426 52.3133 260.5 52.44C260.58 52.56 260.713 52.6633 260.9 52.75C261.086 52.83 261.336 52.89 261.65 52.93C262.043 52.9767 262.376 53.0533 262.65 53.16C262.923 53.26 263.13 53.4167 263.27 53.63C263.416 53.8433 263.486 54.1333 263.48 54.5C263.48 54.8467 263.396 55.14 263.23 55.38C263.07 55.62 262.843 55.8033 262.55 55.93C262.263 56.0567 261.926 56.12 261.54 56.12ZM264.728 56V48.8H265.568V51.59C265.741 51.29 265.978 51.0533 266.278 50.88C266.578 50.7067 266.901 50.62 267.248 50.62C267.654 50.62 267.998 50.6967 268.278 50.85C268.564 50.9967 268.781 51.2233 268.928 51.53C269.081 51.8367 269.158 52.2267 269.158 52.7V56H268.328V52.79C268.328 52.31 268.214 51.95 267.988 51.71C267.761 51.4633 267.454 51.34 267.068 51.34C266.794 51.34 266.544 51.4067 266.318 51.54C266.091 51.6667 265.908 51.8567 265.768 52.11C265.634 52.3633 265.568 52.67 265.568 53.03V56H264.728ZM270.548 58.2V50.74H271.308L271.378 51.56C271.485 51.3867 271.618 51.23 271.778 51.09C271.945 50.95 272.141 50.8367 272.368 50.75C272.601 50.6633 272.868 50.62 273.168 50.62C273.641 50.62 274.055 50.74 274.408 50.98C274.768 51.22 275.048 51.5467 275.248 51.96C275.448 52.3733 275.548 52.8467 275.548 53.38C275.548 53.9067 275.448 54.3767 275.248 54.79C275.048 55.2033 274.768 55.53 274.408 55.77C274.048 56.0033 273.631 56.12 273.158 56.12C272.751 56.12 272.395 56.0367 272.088 55.87C271.781 55.7033 271.548 55.47 271.388 55.17V58.2H270.548ZM273.058 55.39C273.371 55.39 273.648 55.31 273.888 55.15C274.135 54.9833 274.328 54.75 274.468 54.45C274.615 54.1433 274.688 53.7833 274.688 53.37C274.688 52.9567 274.615 52.6 274.468 52.3C274.328 51.9933 274.135 51.76 273.888 51.6C273.648 51.4333 273.371 51.35 273.058 51.35C272.725 51.35 272.435 51.4333 272.188 51.6C271.941 51.76 271.751 51.9933 271.618 52.3C271.485 52.6 271.418 52.9567 271.418 53.37C271.418 53.7833 271.485 54.1433 271.618 54.45C271.751 54.75 271.941 54.9833 272.188 55.15C272.435 55.31 272.725 55.39 273.058 55.39ZM278.949 56.12C278.482 56.12 278.069 56.0067 277.709 55.78C277.349 55.5533 277.065 55.2333 276.859 54.82C276.659 54.4067 276.559 53.9233 276.559 53.37C276.559 52.8167 276.659 52.3333 276.859 51.92C277.065 51.5067 277.349 51.1867 277.709 50.96C278.075 50.7333 278.495 50.62 278.969 50.62C279.475 50.62 279.899 50.7333 280.239 50.96C280.579 51.1867 280.835 51.49 281.009 51.87C281.182 52.25 281.269 52.6667 281.269 53.12C281.269 53.1867 281.269 53.2533 281.269 53.32C281.269 53.3867 281.265 53.4667 281.259 53.56H277.189V52.91H280.449C280.435 52.3967 280.285 52.0067 279.999 51.74C279.719 51.4667 279.369 51.33 278.949 51.33C278.669 51.33 278.409 51.4 278.169 51.54C277.935 51.6733 277.745 51.8733 277.599 52.14C277.452 52.4067 277.379 52.74 277.379 53.14V53.42C277.379 53.86 277.452 54.23 277.599 54.53C277.745 54.8233 277.935 55.0433 278.169 55.19C278.409 55.3367 278.669 55.41 278.949 55.41C279.322 55.41 279.615 55.34 279.829 55.2C280.042 55.0533 280.199 54.8467 280.299 54.58H281.129C281.049 54.8733 280.909 55.1367 280.709 55.37C280.515 55.6033 280.269 55.7867 279.969 55.92C279.675 56.0533 279.335 56.12 278.949 56.12ZM282.433 56V50.74H283.193L283.253 51.7C283.373 51.46 283.529 51.26 283.723 51.1C283.916 50.94 284.149 50.82 284.423 50.74C284.703 50.66 285.016 50.62 285.363 50.62V51.5H284.843C284.643 51.5 284.449 51.5267 284.263 51.58C284.076 51.6333 283.906 51.72 283.753 51.84C283.606 51.96 283.489 52.1233 283.403 52.33C283.316 52.5367 283.273 52.7967 283.273 53.11V56H282.433ZM286.329 57.15V56.36H291.219V57.15H286.329ZM292.638 56V48.8H293.478V56H292.638ZM296.534 56.12C296.134 56.12 295.8 56.0467 295.534 55.9C295.267 55.7467 295.067 55.5467 294.934 55.3C294.8 55.0467 294.734 54.7767 294.734 54.49C294.734 54.1433 294.82 53.85 294.994 53.61C295.174 53.3633 295.424 53.1767 295.744 53.05C296.064 52.9233 296.437 52.86 296.864 52.86H298.174C298.174 52.52 298.134 52.2367 298.054 52.01C297.974 51.7833 297.844 51.6133 297.664 51.5C297.484 51.3867 297.244 51.33 296.944 51.33C296.644 51.33 296.387 51.4067 296.174 51.56C295.96 51.7067 295.827 51.9267 295.774 52.22H294.914C294.954 51.8733 295.07 51.5833 295.264 51.35C295.457 51.11 295.7 50.93 295.994 50.81C296.294 50.6833 296.61 50.62 296.944 50.62C297.417 50.62 297.807 50.7067 298.114 50.88C298.42 51.0467 298.647 51.2833 298.794 51.59C298.94 51.89 299.014 52.2467 299.014 52.66V56H298.264L298.214 55.1C298.147 55.24 298.06 55.3733 297.954 55.5C297.854 55.62 297.734 55.7267 297.594 55.82C297.454 55.9133 297.294 55.9867 297.114 56.04C296.94 56.0933 296.747 56.12 296.534 56.12ZM296.654 55.41C296.874 55.41 297.077 55.36 297.264 55.26C297.45 55.16 297.61 55.0267 297.744 54.86C297.884 54.6867 297.99 54.4933 298.064 54.28C298.137 54.0667 298.174 53.8433 298.174 53.61V53.51H296.934C296.62 53.51 296.364 53.55 296.164 53.63C295.97 53.71 295.83 53.8233 295.744 53.97C295.657 54.11 295.614 54.27 295.614 54.45C295.614 54.6433 295.654 54.8133 295.734 54.96C295.814 55.1 295.93 55.21 296.084 55.29C296.244 55.37 296.434 55.41 296.654 55.41ZM300.401 56V50.74H301.161L301.221 51.7C301.341 51.46 301.498 51.26 301.691 51.1C301.885 50.94 302.118 50.82 302.391 50.74C302.671 50.66 302.985 50.62 303.331 50.62V51.5H302.811C302.611 51.5 302.418 51.5267 302.231 51.58C302.045 51.6333 301.875 51.72 301.721 51.84C301.575 51.96 301.458 52.1233 301.371 52.33C301.285 52.5367 301.241 52.7967 301.241 53.11V56H300.401ZM306.241 58.32C305.767 58.32 305.351 58.26 304.991 58.14C304.637 58.0267 304.361 57.85 304.161 57.61C303.967 57.37 303.871 57.0733 303.871 56.72C303.871 56.5533 303.901 56.38 303.961 56.2C304.027 56.02 304.137 55.8467 304.291 55.68C304.451 55.5133 304.674 55.3633 304.961 55.23L305.601 55.57C305.221 55.7167 304.974 55.8867 304.861 56.08C304.747 56.2733 304.691 56.46 304.691 56.64C304.691 56.86 304.754 57.0433 304.881 57.19C305.014 57.3367 305.197 57.4467 305.431 57.52C305.664 57.5933 305.934 57.63 306.241 57.63C306.541 57.63 306.797 57.59 307.011 57.51C307.231 57.4367 307.397 57.3267 307.511 57.18C307.631 57.04 307.691 56.8733 307.691 56.68C307.691 56.4 307.601 56.18 307.421 56.02C307.241 55.8667 306.891 55.7767 306.371 55.75C305.964 55.7233 305.624 55.6867 305.351 55.64C305.077 55.5933 304.851 55.54 304.671 55.48C304.497 55.4133 304.351 55.34 304.231 55.26C304.117 55.18 304.014 55.0967 303.921 55.01V54.78L304.911 53.83L305.701 54.09L304.621 54.98L304.751 54.6C304.824 54.6533 304.894 54.7033 304.961 54.75C305.027 54.7967 305.117 54.84 305.231 54.88C305.351 54.9133 305.514 54.9467 305.721 54.98C305.934 55.0133 306.214 55.0433 306.561 55.07C307.041 55.1033 307.424 55.1833 307.711 55.31C307.997 55.4367 308.204 55.6133 308.331 55.84C308.457 56.06 308.521 56.33 308.521 56.65C308.521 56.93 308.441 57.1967 308.281 57.45C308.127 57.7033 307.881 57.91 307.541 58.07C307.207 58.2367 306.774 58.32 306.241 58.32ZM306.231 54.36C305.804 54.36 305.441 54.28 305.141 54.12C304.847 53.9533 304.624 53.73 304.471 53.45C304.317 53.1633 304.241 52.8433 304.241 52.49C304.241 52.1367 304.317 51.82 304.471 51.54C304.631 51.26 304.857 51.0367 305.151 50.87C305.451 50.7033 305.811 50.62 306.231 50.62C306.664 50.62 307.027 50.7033 307.321 50.87C307.614 51.0367 307.837 51.26 307.991 51.54C308.144 51.82 308.221 52.1367 308.221 52.49C308.221 52.8433 308.144 53.1633 307.991 53.45C307.837 53.73 307.614 53.9533 307.321 54.12C307.027 54.28 306.664 54.36 306.231 54.36ZM306.231 53.67C306.604 53.67 306.894 53.5733 307.101 53.38C307.307 53.18 307.411 52.8833 307.411 52.49C307.411 52.0967 307.307 51.8033 307.101 51.61C306.894 51.4167 306.604 51.32 306.231 51.32C305.877 51.32 305.587 51.4167 305.361 51.61C305.141 51.8033 305.031 52.0967 305.031 52.49C305.031 52.8833 305.137 53.18 305.351 53.38C305.571 53.5733 305.864 53.67 306.231 53.67ZM307.111 51.45L306.861 50.74H308.921V51.37L307.111 51.45ZM311.917 56.12C311.451 56.12 311.037 56.0067 310.677 55.78C310.317 55.5533 310.034 55.2333 309.827 54.82C309.627 54.4067 309.527 53.9233 309.527 53.37C309.527 52.8167 309.627 52.3333 309.827 51.92C310.034 51.5067 310.317 51.1867 310.677 50.96C311.044 50.7333 311.464 50.62 311.937 50.62C312.444 50.62 312.867 50.7333 313.207 50.96C313.547 51.1867 313.804 51.49 313.977 51.87C314.151 52.25 314.237 52.6667 314.237 53.12C314.237 53.1867 314.237 53.2533 314.237 53.32C314.237 53.3867 314.234 53.4667 314.227 53.56H310.157V52.91H313.417C313.404 52.3967 313.254 52.0067 312.967 51.74C312.687 51.4667 312.337 51.33 311.917 51.33C311.637 51.33 311.377 51.4 311.137 51.54C310.904 51.6733 310.714 51.8733 310.567 52.14C310.421 52.4067 310.347 52.74 310.347 53.14V53.42C310.347 53.86 310.421 54.23 310.567 54.53C310.714 54.8233 310.904 55.0433 311.137 55.19C311.377 55.3367 311.637 55.41 311.917 55.41C312.291 55.41 312.584 55.34 312.797 55.2C313.011 55.0533 313.167 54.8467 313.267 54.58H314.097C314.017 54.8733 313.877 55.1367 313.677 55.37C313.484 55.6033 313.237 55.7867 312.937 55.92C312.644 56.0533 312.304 56.12 311.917 56.12Z" fill="#FFAD32"/>
<path d="M41 80L57 148.22L80.5 177" stroke="#2EBBBF" stroke-linecap="round"/>
<path d="M40.5369 103.665L73.0563 134.778V146.821H93.0187L109 161.374H131.5L148 174.5L186.5 178L210 198.5H252.5L324 205" stroke="#FFAD32" stroke-linecap="round"/>
<path d="M41 58L61 109.5L73 148L92.5 162" stroke="#8471FA" stroke-linecap="round"/>
<circle cx="92" cy="162" r="5" fill="#8471FA"/>
<circle cx="92" cy="162" r="4" fill="#1A182B"/>
<circle cx="80" cy="177" r="5" fill="#2EBBBF"/>
<circle cx="80" cy="177" r="4" fill="#1A182B"/>
<circle cx="324" cy="205" r="5" fill="#FFAD32"/>
<circle cx="324" cy="205" r="4" fill="#1A182B"/>
</svg>
