<svg width="342" height="252" viewBox="0 0 342 252" fill="none" xmlns="http://www.w3.org/2000/svg">
<rect width="342" height="252" rx="12" fill="#141324"/>
<path d="M22.046 29.168C21.3927 29.168 20.814 29.0093 20.31 28.692C19.806 28.3747 19.4093 27.9267 19.12 27.348C18.84 26.7693 18.7 26.0927 18.7 25.318C18.7 24.5433 18.84 23.8667 19.12 23.288C19.4093 22.7093 19.806 22.2613 20.31 21.944C20.8233 21.6267 21.4113 21.468 22.074 21.468C22.7833 21.468 23.376 21.6267 23.852 21.944C24.328 22.2613 24.6873 22.686 24.93 23.218C25.1727 23.75 25.294 24.3333 25.294 24.968C25.294 25.0613 25.294 25.1547 25.294 25.248C25.294 25.3413 25.2893 25.4533 25.28 25.584H19.582V24.674H24.146C24.1273 23.9553 23.9173 23.4093 23.516 23.036C23.124 22.6533 22.634 22.462 22.046 22.462C21.654 22.462 21.29 22.56 20.954 22.756C20.6273 22.9427 20.3613 23.2227 20.156 23.596C19.9507 23.9693 19.848 24.436 19.848 24.996V25.388C19.848 26.004 19.9507 26.522 20.156 26.942C20.3613 27.3527 20.6273 27.6607 20.954 27.866C21.29 28.0713 21.654 28.174 22.046 28.174C22.5687 28.174 22.9793 28.076 23.278 27.88C23.5767 27.6747 23.796 27.3853 23.936 27.012H25.098C24.986 27.4227 24.79 27.7913 24.51 28.118C24.2393 28.4447 23.894 28.7013 23.474 28.888C23.0633 29.0747 22.5873 29.168 22.046 29.168ZM28.7923 29L25.9923 21.636H27.2383L29.4783 27.866L31.7323 21.636H32.9363L30.1503 29H28.7923ZM36.206 29.168C35.646 29.168 35.1793 29.0653 34.806 28.86C34.4327 28.6453 34.1527 28.3653 33.966 28.02C33.7793 27.6653 33.686 27.2873 33.686 26.886C33.686 26.4007 33.8073 25.99 34.05 25.654C34.302 25.3087 34.652 25.0473 35.1 24.87C35.548 24.6927 36.0707 24.604 36.668 24.604H38.502C38.502 24.128 38.446 23.7313 38.334 23.414C38.222 23.0967 38.04 22.8587 37.788 22.7C37.536 22.5413 37.2 22.462 36.78 22.462C36.36 22.462 36.0007 22.5693 35.702 22.784C35.4033 22.9893 35.2167 23.2973 35.142 23.708H33.938C33.994 23.2227 34.1573 22.8167 34.428 22.49C34.6987 22.154 35.0393 21.902 35.45 21.734C35.87 21.5567 36.3133 21.468 36.78 21.468C37.4427 21.468 37.9887 21.5893 38.418 21.832C38.8473 22.0653 39.1647 22.3967 39.37 22.826C39.5753 23.246 39.678 23.7453 39.678 24.324V29H38.628L38.558 27.74C38.4647 27.936 38.3433 28.1227 38.194 28.3C38.054 28.468 37.886 28.6173 37.69 28.748C37.494 28.8787 37.27 28.9813 37.018 29.056C36.7753 29.1307 36.5047 29.168 36.206 29.168ZM36.374 28.174C36.682 28.174 36.9667 28.104 37.228 27.964C37.4893 27.824 37.7133 27.6373 37.9 27.404C38.096 27.1613 38.2453 26.8907 38.348 26.592C38.4507 26.2933 38.502 25.9807 38.502 25.654V25.514H36.766C36.3273 25.514 35.968 25.57 35.688 25.682C35.4173 25.794 35.2213 25.9527 35.1 26.158C34.9787 26.354 34.918 26.578 34.918 26.83C34.918 27.1007 34.974 27.3387 35.086 27.544C35.198 27.74 35.3613 27.894 35.576 28.006C35.8 28.118 36.066 28.174 36.374 28.174ZM41.621 29V18.92H42.797V29H41.621ZM44.1912 30.33L47.7052 18.304H48.8672L45.3532 30.33H44.1912ZM50.0292 29V21.636H51.0932L51.1772 22.98C51.3452 22.644 51.5645 22.364 51.8352 22.14C52.1058 21.916 52.4325 21.748 52.8152 21.636C53.2072 21.524 53.6458 21.468 54.1312 21.468V22.7H53.4032C53.1232 22.7 52.8525 22.7373 52.5912 22.812C52.3298 22.8867 52.0918 23.008 51.8772 23.176C51.6718 23.344 51.5085 23.5727 51.3872 23.862C51.2658 24.1513 51.2052 24.5153 51.2052 24.954V29H50.0292ZM58.1302 29.168C57.5889 29.168 57.1176 29.0653 56.7162 28.86C56.3149 28.6547 56.0022 28.342 55.7782 27.922C55.5542 27.4927 55.4422 26.9607 55.4422 26.326V21.636H56.6182V26.2C56.6182 26.8533 56.7769 27.3433 57.0942 27.67C57.4209 27.9967 57.8549 28.16 58.3962 28.16C58.7696 28.16 59.1056 28.076 59.4042 27.908C59.7029 27.7307 59.9409 27.474 60.1182 27.138C60.3049 26.802 60.3982 26.3913 60.3982 25.906V21.636H61.5742V29H60.5102L60.4402 27.824C60.2442 28.2533 59.9409 28.5847 59.5302 28.818C59.1289 29.0513 58.6622 29.168 58.1302 29.168ZM63.5643 29V21.636H64.6283L64.6843 22.798C64.899 22.378 65.207 22.0513 65.6083 21.818C66.019 21.5847 66.4903 21.468 67.0223 21.468C67.5636 21.468 68.035 21.5707 68.4363 21.776C68.8376 21.9813 69.1503 22.294 69.3743 22.714C69.5983 23.134 69.7103 23.666 69.7103 24.31V29H68.5343V24.436C68.5343 23.7827 68.371 23.2927 68.0443 22.966C67.727 22.6393 67.2976 22.476 66.7563 22.476C66.3923 22.476 66.0563 22.5647 65.7483 22.742C65.4403 22.91 65.193 23.162 65.0063 23.498C64.829 23.834 64.7403 24.2447 64.7403 24.73V29H63.5643ZM74.5141 29C74.0941 29 73.7301 28.9347 73.4221 28.804C73.1141 28.6733 72.8761 28.454 72.7081 28.146C72.5494 27.8287 72.4701 27.404 72.4701 26.872V22.63H71.1821V21.636H72.4701L72.6241 19.802H73.6461V21.636H75.7321V22.63H73.6461V26.872C73.6461 27.3107 73.7347 27.6093 73.9121 27.768C74.0894 27.9173 74.4021 27.992 74.8501 27.992H75.7041V29H74.5141ZM77.4576 29V21.636H78.6336V29H77.4576ZM78.0456 20.236C77.8122 20.236 77.6162 20.1613 77.4576 20.012C77.3082 19.8533 77.2336 19.6573 77.2336 19.424C77.2336 19.1907 77.3082 19.004 77.4576 18.864C77.6162 18.7147 77.8122 18.64 78.0456 18.64C78.2696 18.64 78.4609 18.7147 78.6196 18.864C78.7782 19.004 78.8576 19.1907 78.8576 19.424C78.8576 19.6573 78.7782 19.8533 78.6196 20.012C78.4609 20.1613 78.2696 20.236 78.0456 20.236ZM80.7225 29V21.636H81.7865L81.8425 22.644C82.0665 22.28 82.3698 21.9953 82.7525 21.79C83.1352 21.5753 83.5365 21.468 83.9565 21.468C84.3112 21.468 84.6285 21.5193 84.9085 21.622C85.1978 21.7153 85.4498 21.8647 85.6645 22.07C85.8792 22.266 86.0518 22.5133 86.1825 22.812C86.4252 22.3733 86.7518 22.042 87.1625 21.818C87.5825 21.5847 88.0212 21.468 88.4785 21.468C89.0198 21.468 89.4818 21.5753 89.8645 21.79C90.2565 21.9953 90.5552 22.3127 90.7605 22.742C90.9752 23.162 91.0825 23.6893 91.0825 24.324V29H89.9205V24.45C89.9205 23.7873 89.7758 23.2927 89.4865 22.966C89.1972 22.6393 88.8052 22.476 88.3105 22.476C87.9745 22.476 87.6665 22.5647 87.3865 22.742C87.1158 22.9193 86.8965 23.1807 86.7285 23.526C86.5698 23.8713 86.4905 24.2913 86.4905 24.786V29H85.3145V24.45C85.3145 23.7873 85.1698 23.2927 84.8805 22.966C84.5912 22.6393 84.2038 22.476 83.7185 22.476C83.3918 22.476 83.0885 22.5647 82.8085 22.742C82.5378 22.9193 82.3185 23.1807 82.1505 23.526C81.9825 23.8713 81.8985 24.2913 81.8985 24.786V29H80.7225ZM96.0792 29.168C95.4259 29.168 94.8472 29.0093 94.3432 28.692C93.8392 28.3747 93.4425 27.9267 93.1532 27.348C92.8732 26.7693 92.7332 26.0927 92.7332 25.318C92.7332 24.5433 92.8732 23.8667 93.1532 23.288C93.4425 22.7093 93.8392 22.2613 94.3432 21.944C94.8565 21.6267 95.4445 21.468 96.1072 21.468C96.8165 21.468 97.4092 21.6267 97.8852 21.944C98.3612 22.2613 98.7205 22.686 98.9632 23.218C99.2059 23.75 99.3272 24.3333 99.3272 24.968C99.3272 25.0613 99.3272 25.1547 99.3272 25.248C99.3272 25.3413 99.3225 25.4533 99.3132 25.584H93.6152V24.674H98.1792C98.1605 23.9553 97.9505 23.4093 97.5492 23.036C97.1572 22.6533 96.6672 22.462 96.0792 22.462C95.6872 22.462 95.3232 22.56 94.9872 22.756C94.6605 22.9427 94.3945 23.2227 94.1892 23.596C93.9839 23.9693 93.8812 24.436 93.8812 24.996V25.388C93.8812 26.004 93.9839 26.522 94.1892 26.942C94.3945 27.3527 94.6605 27.6607 94.9872 27.866C95.3232 28.0713 95.6872 28.174 96.0792 28.174C96.6019 28.174 97.0125 28.076 97.3112 27.88C97.6099 27.6747 97.8292 27.3853 97.9692 27.012H99.1312C99.0192 27.4227 98.8232 27.7913 98.5432 28.118C98.2725 28.4447 97.9272 28.7013 97.5072 28.888C97.0965 29.0747 96.6205 29.168 96.0792 29.168Z" fill="white"/>
<path d="M18.08 59.12C17.6133 59.12 17.2067 59.0367 16.86 58.87C16.52 58.7033 16.25 58.48 16.05 58.2C15.8567 57.9133 15.7367 57.5867 15.69 57.22H16.51C16.5833 57.5667 16.7533 57.85 17.02 58.07C17.2933 58.29 17.65 58.4 18.09 58.4C18.4167 58.4 18.6933 58.3267 18.92 58.18C19.1533 58.0267 19.3333 57.82 19.46 57.56C19.5867 57.2933 19.65 56.9967 19.65 56.67C19.65 56.3433 19.5867 56.0567 19.46 55.81C19.34 55.5567 19.1667 55.36 18.94 55.22C18.7133 55.0733 18.4467 55 18.14 55C17.7733 55 17.46 55.0733 17.2 55.22C16.9467 55.3667 16.75 55.5467 16.61 55.76H15.78L16.31 52H20.07V52.73H16.96L16.6 54.92C16.7667 54.7333 16.9867 54.5833 17.26 54.47C17.54 54.35 17.8633 54.29 18.23 54.29C18.57 54.29 18.8767 54.35 19.15 54.47C19.4233 54.59 19.6567 54.76 19.85 54.98C20.05 55.1933 20.2 55.4433 20.3 55.73C20.4067 56.0167 20.46 56.3267 20.46 56.66C20.46 56.9933 20.4033 57.31 20.29 57.61C20.1833 57.9033 20.0267 58.1633 19.82 58.39C19.62 58.6167 19.3733 58.7967 19.08 58.93C18.7867 59.0567 18.4533 59.12 18.08 59.12ZM24.3545 59.12C23.7745 59.12 23.2745 58.97 22.8545 58.67C22.4411 58.3633 22.1211 57.94 21.8945 57.4C21.6678 56.8533 21.5545 56.22 21.5545 55.5C21.5545 54.78 21.6678 54.15 21.8945 53.61C22.1211 53.0633 22.4411 52.64 22.8545 52.34C23.2745 52.0333 23.7745 51.88 24.3545 51.88C24.9345 51.88 25.4311 52.0333 25.8445 52.34C26.2578 52.64 26.5745 53.0633 26.7945 53.61C27.0211 54.15 27.1345 54.78 27.1345 55.5C27.1345 56.22 27.0211 56.8533 26.7945 57.4C26.5745 57.94 26.2578 58.3633 25.8445 58.67C25.4311 58.97 24.9345 59.12 24.3545 59.12ZM24.3545 58.38C24.7211 58.38 25.0478 58.2667 25.3345 58.04C25.6211 57.8067 25.8478 57.4767 26.0145 57.05C26.1878 56.6167 26.2745 56.1 26.2745 55.5C26.2745 54.8933 26.1878 54.3767 26.0145 53.95C25.8478 53.5233 25.6211 53.1967 25.3345 52.97C25.0478 52.7433 24.7211 52.63 24.3545 52.63C23.9811 52.63 23.6478 52.7433 23.3545 52.97C23.0611 53.1967 22.8311 53.5233 22.6645 53.95C22.4978 54.3767 22.4145 54.8933 22.4145 55.5C22.4145 56.1 22.4978 56.6167 22.6645 57.05C22.8311 57.4767 23.0611 57.8067 23.3545 58.04C23.6478 58.2667 23.9811 58.38 24.3545 58.38Z" fill="#77758D"/>
<path d="M18.96 91V89.5H15.41V88.85L18.81 84H19.79V88.76H20.83V89.5H19.79V91H18.96ZM16.34 88.76H19V84.93L16.34 88.76ZM24.4326 91.12C23.8526 91.12 23.3526 90.97 22.9326 90.67C22.5192 90.3633 22.1992 89.94 21.9726 89.4C21.7459 88.8533 21.6326 88.22 21.6326 87.5C21.6326 86.78 21.7459 86.15 21.9726 85.61C22.1992 85.0633 22.5192 84.64 22.9326 84.34C23.3526 84.0333 23.8526 83.88 24.4326 83.88C25.0126 83.88 25.5092 84.0333 25.9226 84.34C26.3359 84.64 26.6526 85.0633 26.8726 85.61C27.0992 86.15 27.2126 86.78 27.2126 87.5C27.2126 88.22 27.0992 88.8533 26.8726 89.4C26.6526 89.94 26.3359 90.3633 25.9226 90.67C25.5092 90.97 25.0126 91.12 24.4326 91.12ZM24.4326 90.38C24.7992 90.38 25.1259 90.2667 25.4126 90.04C25.6992 89.8067 25.9259 89.4767 26.0926 89.05C26.2659 88.6167 26.3526 88.1 26.3526 87.5C26.3526 86.8933 26.2659 86.3767 26.0926 85.95C25.9259 85.5233 25.6992 85.1967 25.4126 84.97C25.1259 84.7433 24.7992 84.63 24.4326 84.63C24.0592 84.63 23.7259 84.7433 23.4326 84.97C23.1392 85.1967 22.9092 85.5233 22.7426 85.95C22.5759 86.3767 22.4926 86.8933 22.4926 87.5C22.4926 88.1 22.5759 88.6167 22.7426 89.05C22.9092 89.4767 23.1392 89.8067 23.4326 90.04C23.7259 90.2667 24.0592 90.38 24.4326 90.38Z" fill="#77758D"/>
<path d="M17.97 123.12C17.5233 123.12 17.1167 123.04 16.75 122.88C16.39 122.713 16.1033 122.467 15.89 122.14C15.6767 121.813 15.5633 121.407 15.55 120.92H16.4C16.4067 121.187 16.47 121.433 16.59 121.66C16.7167 121.88 16.8967 122.057 17.13 122.19C17.3633 122.323 17.6433 122.39 17.97 122.39C18.2967 122.39 18.57 122.327 18.79 122.2C19.01 122.073 19.1767 121.907 19.29 121.7C19.4033 121.487 19.46 121.25 19.46 120.99C19.46 120.677 19.38 120.423 19.22 120.23C19.0667 120.03 18.8567 119.883 18.59 119.79C18.33 119.69 18.0433 119.64 17.73 119.64H17.21V118.93H17.73C18.2033 118.93 18.5733 118.823 18.84 118.61C19.1133 118.39 19.25 118.087 19.25 117.7C19.25 117.387 19.1433 117.127 18.93 116.92C18.7167 116.713 18.3967 116.61 17.97 116.61C17.55 116.61 17.22 116.723 16.98 116.95C16.74 117.177 16.6033 117.467 16.57 117.82H15.72C15.74 117.44 15.8433 117.103 16.03 116.81C16.2233 116.517 16.4833 116.29 16.81 116.13C17.1433 115.963 17.53 115.88 17.97 115.88C18.4367 115.88 18.8267 115.96 19.14 116.12C19.46 116.28 19.7 116.493 19.86 116.76C20.02 117.027 20.1 117.323 20.1 117.65C20.1 117.89 20.0533 118.12 19.96 118.34C19.8733 118.56 19.74 118.75 19.56 118.91C19.38 119.07 19.15 119.183 18.87 119.25C19.1433 119.303 19.3867 119.407 19.6 119.56C19.82 119.713 19.9933 119.91 20.12 120.15C20.2467 120.39 20.31 120.67 20.31 120.99C20.31 121.37 20.22 121.723 20.04 122.05C19.8667 122.37 19.6067 122.63 19.26 122.83C18.9133 123.023 18.4833 123.12 17.97 123.12ZM24.2666 123.12C23.6866 123.12 23.1866 122.97 22.7666 122.67C22.3532 122.363 22.0332 121.94 21.8066 121.4C21.5799 120.853 21.4666 120.22 21.4666 119.5C21.4666 118.78 21.5799 118.15 21.8066 117.61C22.0332 117.063 22.3532 116.64 22.7666 116.34C23.1866 116.033 23.6866 115.88 24.2666 115.88C24.8466 115.88 25.3432 116.033 25.7566 116.34C26.1699 116.64 26.4866 117.063 26.7066 117.61C26.9332 118.15 27.0466 118.78 27.0466 119.5C27.0466 120.22 26.9332 120.853 26.7066 121.4C26.4866 121.94 26.1699 122.363 25.7566 122.67C25.3432 122.97 24.8466 123.12 24.2666 123.12ZM24.2666 122.38C24.6332 122.38 24.9599 122.267 25.2466 122.04C25.5332 121.807 25.7599 121.477 25.9266 121.05C26.0999 120.617 26.1866 120.1 26.1866 119.5C26.1866 118.893 26.0999 118.377 25.9266 117.95C25.7599 117.523 25.5332 117.197 25.2466 116.97C24.9599 116.743 24.6332 116.63 24.2666 116.63C23.8932 116.63 23.5599 116.743 23.2666 116.97C22.9732 117.197 22.7432 117.523 22.5766 117.95C22.4099 118.377 22.3266 118.893 22.3266 119.5C22.3266 120.1 22.4099 120.617 22.5766 121.05C22.7432 121.477 22.9732 121.807 23.2666 122.04C23.5599 122.267 23.8932 122.38 24.2666 122.38Z" fill="#77758D"/>
<path d="M15.65 155V154.41C16.1433 154.037 16.61 153.66 17.05 153.28C17.49 152.9 17.88 152.523 18.22 152.15C18.56 151.77 18.8267 151.4 19.02 151.04C19.2133 150.68 19.31 150.333 19.31 150C19.31 149.753 19.2633 149.527 19.17 149.32C19.0833 149.107 18.94 148.933 18.74 148.8C18.5467 148.667 18.2833 148.6 17.95 148.6C17.63 148.6 17.3633 148.67 17.15 148.81C16.9367 148.943 16.7767 149.123 16.67 149.35C16.5633 149.57 16.51 149.813 16.51 150.08H15.7C15.7067 149.62 15.8067 149.227 16 148.9C16.1933 148.567 16.46 148.313 16.8 148.14C17.14 147.967 17.5267 147.88 17.96 147.88C18.3867 147.88 18.7633 147.96 19.09 148.12C19.4167 148.273 19.6733 148.507 19.86 148.82C20.0533 149.127 20.15 149.51 20.15 149.97C20.15 150.297 20.08 150.623 19.94 150.95C19.8067 151.277 19.6233 151.597 19.39 151.91C19.1567 152.217 18.8967 152.513 18.61 152.8C18.33 153.087 18.04 153.357 17.74 153.61C17.44 153.863 17.1567 154.093 16.89 154.3H20.39V155H15.65ZM24.081 155.12C23.501 155.12 23.001 154.97 22.581 154.67C22.1677 154.363 21.8477 153.94 21.621 153.4C21.3943 152.853 21.281 152.22 21.281 151.5C21.281 150.78 21.3943 150.15 21.621 149.61C21.8477 149.063 22.1677 148.64 22.581 148.34C23.001 148.033 23.501 147.88 24.081 147.88C24.661 147.88 25.1577 148.033 25.571 148.34C25.9843 148.64 26.301 149.063 26.521 149.61C26.7477 150.15 26.861 150.78 26.861 151.5C26.861 152.22 26.7477 152.853 26.521 153.4C26.301 153.94 25.9843 154.363 25.571 154.67C25.1577 154.97 24.661 155.12 24.081 155.12ZM24.081 154.38C24.4477 154.38 24.7743 154.267 25.061 154.04C25.3477 153.807 25.5743 153.477 25.741 153.05C25.9143 152.617 26.001 152.1 26.001 151.5C26.001 150.893 25.9143 150.377 25.741 149.95C25.5743 149.523 25.3477 149.197 25.061 148.97C24.7743 148.743 24.4477 148.63 24.081 148.63C23.7077 148.63 23.3743 148.743 23.081 148.97C22.7877 149.197 22.5577 149.523 22.391 149.95C22.2243 150.377 22.141 150.893 22.141 151.5C22.141 152.1 22.2243 152.617 22.391 153.05C22.5577 153.477 22.7877 153.807 23.081 154.04C23.3743 154.267 23.7077 154.38 24.081 154.38Z" fill="#77758D"/>
<path d="M19.8 187V180.94L18.36 181.4V180.74L20.08 180H20.65V187H19.8ZM24.708 187.12C24.128 187.12 23.628 186.97 23.208 186.67C22.7946 186.363 22.4746 185.94 22.248 185.4C22.0213 184.853 21.908 184.22 21.908 183.5C21.908 182.78 22.0213 182.15 22.248 181.61C22.4746 181.063 22.7946 180.64 23.208 180.34C23.628 180.033 24.128 179.88 24.708 179.88C25.288 179.88 25.7846 180.033 26.198 180.34C26.6113 180.64 26.928 181.063 27.148 181.61C27.3746 182.15 27.488 182.78 27.488 183.5C27.488 184.22 27.3746 184.853 27.148 185.4C26.928 185.94 26.6113 186.363 26.198 186.67C25.7846 186.97 25.288 187.12 24.708 187.12ZM24.708 186.38C25.0746 186.38 25.4013 186.267 25.688 186.04C25.9746 185.807 26.2013 185.477 26.368 185.05C26.5413 184.617 26.628 184.1 26.628 183.5C26.628 182.893 26.5413 182.377 26.368 181.95C26.2013 181.523 25.9746 181.197 25.688 180.97C25.4013 180.743 25.0746 180.63 24.708 180.63C24.3346 180.63 24.0013 180.743 23.708 180.97C23.4146 181.197 23.1846 181.523 23.018 181.95C22.8513 182.377 22.768 182.893 22.768 183.5C22.768 184.1 22.8513 184.617 23.018 185.05C23.1846 185.477 23.4146 185.807 23.708 186.04C24.0013 186.267 24.3346 186.38 24.708 186.38Z" fill="#77758D"/>
<path d="M24.29 219.12C23.71 219.12 23.21 218.97 22.79 218.67C22.3767 218.363 22.0567 217.94 21.83 217.4C21.6033 216.853 21.49 216.22 21.49 215.5C21.49 214.78 21.6033 214.15 21.83 213.61C22.0567 213.063 22.3767 212.64 22.79 212.34C23.21 212.033 23.71 211.88 24.29 211.88C24.87 211.88 25.3667 212.033 25.78 212.34C26.1933 212.64 26.51 213.063 26.73 213.61C26.9567 214.15 27.07 214.78 27.07 215.5C27.07 216.22 26.9567 216.853 26.73 217.4C26.51 217.94 26.1933 218.363 25.78 218.67C25.3667 218.97 24.87 219.12 24.29 219.12ZM24.29 218.38C24.6567 218.38 24.9833 218.267 25.27 218.04C25.5567 217.807 25.7833 217.477 25.95 217.05C26.1233 216.617 26.21 216.1 26.21 215.5C26.21 214.893 26.1233 214.377 25.95 213.95C25.7833 213.523 25.5567 213.197 25.27 212.97C24.9833 212.743 24.6567 212.63 24.29 212.63C23.9167 212.63 23.5833 212.743 23.29 212.97C22.9967 213.197 22.7667 213.523 22.6 213.95C22.4333 214.377 22.35 214.893 22.35 215.5C22.35 216.1 22.4333 216.617 22.6 217.05C22.7667 217.477 22.9967 217.807 23.29 218.04C23.5833 218.267 23.9167 218.38 24.29 218.38Z" fill="#77758D"/>
<path d="M38.08 233.12C37.6133 233.12 37.2067 233.037 36.86 232.87C36.52 232.703 36.25 232.48 36.05 232.2C35.8567 231.913 35.7367 231.587 35.69 231.22H36.51C36.5833 231.567 36.7533 231.85 37.02 232.07C37.2933 232.29 37.65 232.4 38.09 232.4C38.4167 232.4 38.6933 232.327 38.92 232.18C39.1533 232.027 39.3333 231.82 39.46 231.56C39.5867 231.293 39.65 230.997 39.65 230.67C39.65 230.343 39.5867 230.057 39.46 229.81C39.34 229.557 39.1667 229.36 38.94 229.22C38.7133 229.073 38.4467 229 38.14 229C37.7733 229 37.46 229.073 37.2 229.22C36.9467 229.367 36.75 229.547 36.61 229.76H35.78L36.31 226H40.07V226.73H36.96L36.6 228.92C36.7667 228.733 36.9867 228.583 37.26 228.47C37.54 228.35 37.8633 228.29 38.23 228.29C38.57 228.29 38.8767 228.35 39.15 228.47C39.4233 228.59 39.6567 228.76 39.85 228.98C40.05 229.193 40.2 229.443 40.3 229.73C40.4067 230.017 40.46 230.327 40.46 230.66C40.46 230.993 40.4033 231.31 40.29 231.61C40.1833 231.903 40.0267 232.163 39.82 232.39C39.62 232.617 39.3733 232.797 39.08 232.93C38.7867 233.057 38.4533 233.12 38.08 233.12ZM44.3545 233.12C43.7745 233.12 43.2745 232.97 42.8545 232.67C42.4411 232.363 42.1211 231.94 41.8945 231.4C41.6678 230.853 41.5545 230.22 41.5545 229.5C41.5545 228.78 41.6678 228.15 41.8945 227.61C42.1211 227.063 42.4411 226.64 42.8545 226.34C43.2745 226.033 43.7745 225.88 44.3545 225.88C44.9345 225.88 45.4311 226.033 45.8445 226.34C46.2578 226.64 46.5745 227.063 46.7945 227.61C47.0211 228.15 47.1345 228.78 47.1345 229.5C47.1345 230.22 47.0211 230.853 46.7945 231.4C46.5745 231.94 46.2578 232.363 45.8445 232.67C45.4311 232.97 44.9345 233.12 44.3545 233.12ZM44.3545 232.38C44.7211 232.38 45.0478 232.267 45.3345 232.04C45.6211 231.807 45.8478 231.477 46.0145 231.05C46.1878 230.617 46.2745 230.1 46.2745 229.5C46.2745 228.893 46.1878 228.377 46.0145 227.95C45.8478 227.523 45.6211 227.197 45.3345 226.97C45.0478 226.743 44.7211 226.63 44.3545 226.63C43.9811 226.63 43.6478 226.743 43.3545 226.97C43.0611 227.197 42.8311 227.523 42.6645 227.95C42.4978 228.377 42.4145 228.893 42.4145 229.5C42.4145 230.1 42.4978 230.617 42.6645 231.05C42.8311 231.477 43.0611 231.807 43.3545 232.04C43.6478 232.267 43.9811 232.38 44.3545 232.38Z" fill="#77758D"/>
<path d="M96.8 233V226.94L95.36 227.4V226.74L97.08 226H97.65V233H96.8ZM101.708 233.12C101.128 233.12 100.628 232.97 100.208 232.67C99.7946 232.363 99.4746 231.94 99.248 231.4C99.0213 230.853 98.908 230.22 98.908 229.5C98.908 228.78 99.0213 228.15 99.248 227.61C99.4746 227.063 99.7946 226.64 100.208 226.34C100.628 226.033 101.128 225.88 101.708 225.88C102.288 225.88 102.785 226.033 103.198 226.34C103.611 226.64 103.928 227.063 104.148 227.61C104.375 228.15 104.488 228.78 104.488 229.5C104.488 230.22 104.375 230.853 104.148 231.4C103.928 231.94 103.611 232.363 103.198 232.67C102.785 232.97 102.288 233.12 101.708 233.12ZM101.708 232.38C102.075 232.38 102.401 232.267 102.688 232.04C102.975 231.807 103.201 231.477 103.368 231.05C103.541 230.617 103.628 230.1 103.628 229.5C103.628 228.893 103.541 228.377 103.368 227.95C103.201 227.523 102.975 227.197 102.688 226.97C102.401 226.743 102.075 226.63 101.708 226.63C101.335 226.63 101.001 226.743 100.708 226.97C100.415 227.197 100.185 227.523 100.018 227.95C99.8513 228.377 99.768 228.893 99.768 229.5C99.768 230.1 99.8513 230.617 100.018 231.05C100.185 231.477 100.415 231.807 100.708 232.04C101.001 232.267 101.335 232.38 101.708 232.38ZM108.27 233.12C107.69 233.12 107.19 232.97 106.77 232.67C106.357 232.363 106.037 231.94 105.81 231.4C105.584 230.853 105.47 230.22 105.47 229.5C105.47 228.78 105.584 228.15 105.81 227.61C106.037 227.063 106.357 226.64 106.77 226.34C107.19 226.033 107.69 225.88 108.27 225.88C108.85 225.88 109.347 226.033 109.76 226.34C110.174 226.64 110.49 227.063 110.71 227.61C110.937 228.15 111.05 228.78 111.05 229.5C111.05 230.22 110.937 230.853 110.71 231.4C110.49 231.94 110.174 232.363 109.76 232.67C109.347 232.97 108.85 233.12 108.27 233.12ZM108.27 232.38C108.637 232.38 108.964 232.267 109.25 232.04C109.537 231.807 109.764 231.477 109.93 231.05C110.104 230.617 110.19 230.1 110.19 229.5C110.19 228.893 110.104 228.377 109.93 227.95C109.764 227.523 109.537 227.197 109.25 226.97C108.964 226.743 108.637 226.63 108.27 226.63C107.897 226.63 107.564 226.743 107.27 226.97C106.977 227.197 106.747 227.523 106.58 227.95C106.414 228.377 106.33 228.893 106.33 229.5C106.33 230.1 106.414 230.617 106.58 231.05C106.747 231.477 106.977 231.807 107.27 232.04C107.564 232.267 107.897 232.38 108.27 232.38Z" fill="#77758D"/>
<path d="M160.8 233V226.94L159.36 227.4V226.74L161.08 226H161.65V233H160.8ZM165.498 233.12C165.031 233.12 164.625 233.037 164.278 232.87C163.938 232.703 163.668 232.48 163.468 232.2C163.275 231.913 163.155 231.587 163.108 231.22H163.928C164.001 231.567 164.171 231.85 164.438 232.07C164.711 232.29 165.068 232.4 165.508 232.4C165.835 232.4 166.111 232.327 166.338 232.18C166.571 232.027 166.751 231.82 166.878 231.56C167.005 231.293 167.068 230.997 167.068 230.67C167.068 230.343 167.005 230.057 166.878 229.81C166.758 229.557 166.585 229.36 166.358 229.22C166.131 229.073 165.865 229 165.558 229C165.191 229 164.878 229.073 164.618 229.22C164.365 229.367 164.168 229.547 164.028 229.76H163.198L163.728 226H167.488V226.73H164.378L164.018 228.92C164.185 228.733 164.405 228.583 164.678 228.47C164.958 228.35 165.281 228.29 165.648 228.29C165.988 228.29 166.295 228.35 166.568 228.47C166.841 228.59 167.075 228.76 167.268 228.98C167.468 229.193 167.618 229.443 167.718 229.73C167.825 230.017 167.878 230.327 167.878 230.66C167.878 230.993 167.821 231.31 167.708 231.61C167.601 231.903 167.445 232.163 167.238 232.39C167.038 232.617 166.791 232.797 166.498 232.93C166.205 233.057 165.871 233.12 165.498 233.12ZM171.772 233.12C171.192 233.12 170.692 232.97 170.272 232.67C169.859 232.363 169.539 231.94 169.312 231.4C169.086 230.853 168.972 230.22 168.972 229.5C168.972 228.78 169.086 228.15 169.312 227.61C169.539 227.063 169.859 226.64 170.272 226.34C170.692 226.033 171.192 225.88 171.772 225.88C172.352 225.88 172.849 226.033 173.262 226.34C173.676 226.64 173.992 227.063 174.212 227.61C174.439 228.15 174.552 228.78 174.552 229.5C174.552 230.22 174.439 230.853 174.212 231.4C173.992 231.94 173.676 232.363 173.262 232.67C172.849 232.97 172.352 233.12 171.772 233.12ZM171.772 232.38C172.139 232.38 172.466 232.267 172.752 232.04C173.039 231.807 173.266 231.477 173.432 231.05C173.606 230.617 173.692 230.1 173.692 229.5C173.692 228.893 173.606 228.377 173.432 227.95C173.266 227.523 173.039 227.197 172.752 226.97C172.466 226.743 172.139 226.63 171.772 226.63C171.399 226.63 171.066 226.743 170.772 226.97C170.479 227.197 170.249 227.523 170.082 227.95C169.916 228.377 169.832 228.893 169.832 229.5C169.832 230.1 169.916 230.617 170.082 231.05C170.249 231.477 170.479 231.807 170.772 232.04C171.066 232.267 171.399 232.38 171.772 232.38Z" fill="#77758D"/>
<path d="M223.65 233V232.41C224.143 232.037 224.61 231.66 225.05 231.28C225.49 230.9 225.88 230.523 226.22 230.15C226.56 229.77 226.827 229.4 227.02 229.04C227.213 228.68 227.31 228.333 227.31 228C227.31 227.753 227.263 227.527 227.17 227.32C227.083 227.107 226.94 226.933 226.74 226.8C226.547 226.667 226.283 226.6 225.95 226.6C225.63 226.6 225.363 226.67 225.15 226.81C224.937 226.943 224.777 227.123 224.67 227.35C224.563 227.57 224.51 227.813 224.51 228.08H223.7C223.707 227.62 223.807 227.227 224 226.9C224.193 226.567 224.46 226.313 224.8 226.14C225.14 225.967 225.527 225.88 225.96 225.88C226.387 225.88 226.763 225.96 227.09 226.12C227.417 226.273 227.673 226.507 227.86 226.82C228.053 227.127 228.15 227.51 228.15 227.97C228.15 228.297 228.08 228.623 227.94 228.95C227.807 229.277 227.623 229.597 227.39 229.91C227.157 230.217 226.897 230.513 226.61 230.8C226.33 231.087 226.04 231.357 225.74 231.61C225.44 231.863 225.157 232.093 224.89 232.3H228.39V233H223.65ZM232.081 233.12C231.501 233.12 231.001 232.97 230.581 232.67C230.168 232.363 229.848 231.94 229.621 231.4C229.394 230.853 229.281 230.22 229.281 229.5C229.281 228.78 229.394 228.15 229.621 227.61C229.848 227.063 230.168 226.64 230.581 226.34C231.001 226.033 231.501 225.88 232.081 225.88C232.661 225.88 233.158 226.033 233.571 226.34C233.984 226.64 234.301 227.063 234.521 227.61C234.748 228.15 234.861 228.78 234.861 229.5C234.861 230.22 234.748 230.853 234.521 231.4C234.301 231.94 233.984 232.363 233.571 232.67C233.158 232.97 232.661 233.12 232.081 233.12ZM232.081 232.38C232.448 232.38 232.774 232.267 233.061 232.04C233.348 231.807 233.574 231.477 233.741 231.05C233.914 230.617 234.001 230.1 234.001 229.5C234.001 228.893 233.914 228.377 233.741 227.95C233.574 227.523 233.348 227.197 233.061 226.97C232.774 226.743 232.448 226.63 232.081 226.63C231.708 226.63 231.374 226.743 231.081 226.97C230.788 227.197 230.558 227.523 230.391 227.95C230.224 228.377 230.141 228.893 230.141 229.5C230.141 230.1 230.224 230.617 230.391 231.05C230.558 231.477 230.788 231.807 231.081 232.04C231.374 232.267 231.708 232.38 232.081 232.38ZM238.644 233.12C238.064 233.12 237.564 232.97 237.144 232.67C236.73 232.363 236.41 231.94 236.184 231.4C235.957 230.853 235.844 230.22 235.844 229.5C235.844 228.78 235.957 228.15 236.184 227.61C236.41 227.063 236.73 226.64 237.144 226.34C237.564 226.033 238.064 225.88 238.644 225.88C239.224 225.88 239.72 226.033 240.134 226.34C240.547 226.64 240.864 227.063 241.084 227.61C241.31 228.15 241.424 228.78 241.424 229.5C241.424 230.22 241.31 230.853 241.084 231.4C240.864 231.94 240.547 232.363 240.134 232.67C239.72 232.97 239.224 233.12 238.644 233.12ZM238.644 232.38C239.01 232.38 239.337 232.267 239.624 232.04C239.91 231.807 240.137 231.477 240.304 231.05C240.477 230.617 240.564 230.1 240.564 229.5C240.564 228.893 240.477 228.377 240.304 227.95C240.137 227.523 239.91 227.197 239.624 226.97C239.337 226.743 239.01 226.63 238.644 226.63C238.27 226.63 237.937 226.743 237.644 226.97C237.35 227.197 237.12 227.523 236.954 227.95C236.787 228.377 236.704 228.893 236.704 229.5C236.704 230.1 236.787 230.617 236.954 231.05C237.12 231.477 237.35 231.807 237.644 232.04C237.937 232.267 238.27 232.38 238.644 232.38Z" fill="#77758D"/>
<path d="M289.65 233V232.41C290.143 232.037 290.61 231.66 291.05 231.28C291.49 230.9 291.88 230.523 292.22 230.15C292.56 229.77 292.827 229.4 293.02 229.04C293.213 228.68 293.31 228.333 293.31 228C293.31 227.753 293.263 227.527 293.17 227.32C293.083 227.107 292.94 226.933 292.74 226.8C292.547 226.667 292.283 226.6 291.95 226.6C291.63 226.6 291.363 226.67 291.15 226.81C290.937 226.943 290.777 227.123 290.67 227.35C290.563 227.57 290.51 227.813 290.51 228.08H289.7C289.707 227.62 289.807 227.227 290 226.9C290.193 226.567 290.46 226.313 290.8 226.14C291.14 225.967 291.527 225.88 291.96 225.88C292.387 225.88 292.763 225.96 293.09 226.12C293.417 226.273 293.673 226.507 293.86 226.82C294.053 227.127 294.15 227.51 294.15 227.97C294.15 228.297 294.08 228.623 293.94 228.95C293.807 229.277 293.623 229.597 293.39 229.91C293.157 230.217 292.897 230.513 292.61 230.8C292.33 231.087 292.04 231.357 291.74 231.61C291.44 231.863 291.157 232.093 290.89 232.3H294.39V233H289.65ZM297.969 233.12C297.502 233.12 297.095 233.037 296.749 232.87C296.409 232.703 296.139 232.48 295.939 232.2C295.745 231.913 295.625 231.587 295.579 231.22H296.399C296.472 231.567 296.642 231.85 296.909 232.07C297.182 232.29 297.539 232.4 297.979 232.4C298.305 232.4 298.582 232.327 298.809 232.18C299.042 232.027 299.222 231.82 299.349 231.56C299.475 231.293 299.539 230.997 299.539 230.67C299.539 230.343 299.475 230.057 299.349 229.81C299.229 229.557 299.055 229.36 298.829 229.22C298.602 229.073 298.335 229 298.029 229C297.662 229 297.349 229.073 297.089 229.22C296.835 229.367 296.639 229.547 296.499 229.76H295.669L296.199 226H299.959V226.73H296.849L296.489 228.92C296.655 228.733 296.875 228.583 297.149 228.47C297.429 228.35 297.752 228.29 298.119 228.29C298.459 228.29 298.765 228.35 299.039 228.47C299.312 228.59 299.545 228.76 299.739 228.98C299.939 229.193 300.089 229.443 300.189 229.73C300.295 230.017 300.349 230.327 300.349 230.66C300.349 230.993 300.292 231.31 300.179 231.61C300.072 231.903 299.915 232.163 299.709 232.39C299.509 232.617 299.262 232.797 298.969 232.93C298.675 233.057 298.342 233.12 297.969 233.12ZM304.243 233.12C303.663 233.12 303.163 232.97 302.743 232.67C302.33 232.363 302.01 231.94 301.783 231.4C301.556 230.853 301.443 230.22 301.443 229.5C301.443 228.78 301.556 228.15 301.783 227.61C302.01 227.063 302.33 226.64 302.743 226.34C303.163 226.033 303.663 225.88 304.243 225.88C304.823 225.88 305.32 226.033 305.733 226.34C306.146 226.64 306.463 227.063 306.683 227.61C306.91 228.15 307.023 228.78 307.023 229.5C307.023 230.22 306.91 230.853 306.683 231.4C306.463 231.94 306.146 232.363 305.733 232.67C305.32 232.97 304.823 233.12 304.243 233.12ZM304.243 232.38C304.61 232.38 304.936 232.267 305.223 232.04C305.51 231.807 305.736 231.477 305.903 231.05C306.076 230.617 306.163 230.1 306.163 229.5C306.163 228.893 306.076 228.377 305.903 227.95C305.736 227.523 305.51 227.197 305.223 226.97C304.936 226.743 304.61 226.63 304.243 226.63C303.87 226.63 303.536 226.743 303.243 226.97C302.95 227.197 302.72 227.523 302.553 227.95C302.386 228.377 302.303 228.893 302.303 229.5C302.303 230.1 302.386 230.617 302.553 231.05C302.72 231.477 302.95 231.807 303.243 232.04C303.536 232.267 303.87 232.38 304.243 232.38Z" fill="#77758D"/>
<path d="M303.61 206.12C303.137 206.12 302.743 206.05 302.43 205.91C302.123 205.763 301.89 205.563 301.73 205.31C301.57 205.05 301.473 204.75 301.44 204.41H302.3C302.327 204.59 302.387 204.757 302.48 204.91C302.58 205.057 302.723 205.177 302.91 205.27C303.097 205.363 303.333 205.41 303.62 205.41C303.847 205.41 304.04 205.377 304.2 205.31C304.36 205.237 304.48 205.137 304.56 205.01C304.647 204.883 304.69 204.737 304.69 204.57C304.69 204.35 304.64 204.18 304.54 204.06C304.447 203.933 304.307 203.84 304.12 203.78C303.94 203.713 303.713 203.663 303.44 203.63C303.147 203.59 302.887 203.533 302.66 203.46C302.433 203.387 302.24 203.29 302.08 203.17C301.927 203.05 301.81 202.9 301.73 202.72C301.65 202.54 301.61 202.327 301.61 202.08C301.61 201.793 301.687 201.54 301.84 201.32C301.993 201.1 302.21 200.93 302.49 200.81C302.777 200.683 303.113 200.62 303.5 200.62C304.067 200.62 304.513 200.75 304.84 201.01C305.173 201.27 305.37 201.64 305.43 202.12H304.6C304.567 201.873 304.453 201.68 304.26 201.54C304.067 201.4 303.81 201.33 303.49 201.33C303.15 201.33 302.893 201.393 302.72 201.52C302.547 201.647 302.46 201.813 302.46 202.02C302.46 202.173 302.497 202.313 302.57 202.44C302.65 202.56 302.783 202.663 302.97 202.75C303.157 202.83 303.407 202.89 303.72 202.93C304.113 202.977 304.447 203.053 304.72 203.16C304.993 203.26 305.2 203.417 305.34 203.63C305.487 203.843 305.557 204.133 305.55 204.5C305.55 204.847 305.467 205.14 305.3 205.38C305.14 205.62 304.913 205.803 304.62 205.93C304.333 206.057 303.997 206.12 303.61 206.12ZM308.613 206C308.313 206 308.053 205.953 307.833 205.86C307.613 205.767 307.443 205.61 307.323 205.39C307.21 205.163 307.153 204.86 307.153 204.48V201.45H306.233V200.74H307.153L307.263 199.43H307.993V200.74H309.483V201.45H307.993V204.48C307.993 204.793 308.057 205.007 308.183 205.12C308.31 205.227 308.533 205.28 308.853 205.28H309.463V206H308.613ZM312.679 206.12C312.212 206.12 311.799 206.007 311.439 205.78C311.079 205.553 310.796 205.233 310.589 204.82C310.389 204.407 310.289 203.923 310.289 203.37C310.289 202.817 310.389 202.333 310.589 201.92C310.796 201.507 311.079 201.187 311.439 200.96C311.806 200.733 312.226 200.62 312.699 200.62C313.206 200.62 313.629 200.733 313.969 200.96C314.309 201.187 314.566 201.49 314.739 201.87C314.912 202.25 314.999 202.667 314.999 203.12C314.999 203.187 314.999 203.253 314.999 203.32C314.999 203.387 314.996 203.467 314.989 203.56H310.919V202.91H314.179C314.166 202.397 314.016 202.007 313.729 201.74C313.449 201.467 313.099 201.33 312.679 201.33C312.399 201.33 312.139 201.4 311.899 201.54C311.666 201.673 311.476 201.873 311.329 202.14C311.182 202.407 311.109 202.74 311.109 203.14V203.42C311.109 203.86 311.182 204.23 311.329 204.53C311.476 204.823 311.666 205.043 311.899 205.19C312.139 205.337 312.399 205.41 312.679 205.41C313.052 205.41 313.346 205.34 313.559 205.2C313.772 205.053 313.929 204.847 314.029 204.58H314.859C314.779 204.873 314.639 205.137 314.439 205.37C314.246 205.603 313.999 205.787 313.699 205.92C313.406 206.053 313.066 206.12 312.679 206.12ZM316.163 208.2V200.74H316.923L316.993 201.56C317.1 201.387 317.233 201.23 317.393 201.09C317.56 200.95 317.756 200.837 317.983 200.75C318.216 200.663 318.483 200.62 318.783 200.62C319.256 200.62 319.67 200.74 320.023 200.98C320.383 201.22 320.663 201.547 320.863 201.96C321.063 202.373 321.163 202.847 321.163 203.38C321.163 203.907 321.063 204.377 320.863 204.79C320.663 205.203 320.383 205.53 320.023 205.77C319.663 206.003 319.246 206.12 318.773 206.12C318.366 206.12 318.01 206.037 317.703 205.87C317.396 205.703 317.163 205.47 317.003 205.17V208.2H316.163ZM318.673 205.39C318.986 205.39 319.263 205.31 319.503 205.15C319.75 204.983 319.943 204.75 320.083 204.45C320.23 204.143 320.303 203.783 320.303 203.37C320.303 202.957 320.23 202.6 320.083 202.3C319.943 201.993 319.75 201.76 319.503 201.6C319.263 201.433 318.986 201.35 318.673 201.35C318.34 201.35 318.05 201.433 317.803 201.6C317.556 201.76 317.366 201.993 317.233 202.3C317.1 202.6 317.033 202.957 317.033 203.37C317.033 203.783 317.1 204.143 317.233 204.45C317.366 204.75 317.556 204.983 317.803 205.15C318.05 205.31 318.34 205.39 318.673 205.39Z" fill="#77758D"/>
<line x1="166.75" y1="215.75" x2="166.75" y2="48.25" stroke="#343246" stroke-width="0.5" stroke-linecap="round" stroke-dasharray="4 4"/>
<line x1="102.75" y1="215.75" x2="102.75" y2="48.25" stroke="#343246" stroke-width="0.5" stroke-linecap="round" stroke-dasharray="4 4"/>
<line x1="40.75" y1="215.75" x2="40.75" y2="48.25" stroke="#343246" stroke-width="0.5" stroke-linecap="round" stroke-dasharray="4 4"/>
<line x1="231.75" y1="215.75" x2="231.75" y2="48.25" stroke="#343246" stroke-width="0.5" stroke-linecap="round" stroke-dasharray="4 4"/>
<line x1="297.75" y1="215.75" x2="297.75" y2="48.25" stroke="#343246" stroke-width="0.5" stroke-linecap="round" stroke-dasharray="4 4"/>
<line x1="323.75" y1="216.25" x2="33.25" y2="216.25" stroke="#343246" stroke-width="0.5" stroke-linecap="round" stroke-dasharray="4 4"/>
<line x1="323.75" y1="184.25" x2="33.25" y2="184.25" stroke="#343246" stroke-width="0.5" stroke-linecap="round" stroke-dasharray="4 4"/>
<line x1="323.75" y1="152.25" x2="33.25" y2="152.25" stroke="#343246" stroke-width="0.5" stroke-linecap="round" stroke-dasharray="4 4"/>
<line x1="323.75" y1="120.25" x2="33.25" y2="120.25" stroke="#343246" stroke-width="0.5" stroke-linecap="round" stroke-dasharray="4 4"/>
<line x1="323.75" y1="88.25" x2="33.25" y2="88.25" stroke="#343246" stroke-width="0.5" stroke-linecap="round" stroke-dasharray="4 4"/>
<line x1="323.75" y1="56.25" x2="33.25" y2="56.25" stroke="#343246" stroke-width="0.5" stroke-linecap="round" stroke-dasharray="4 4"/>
<path d="M41 152H208" stroke="#2EBBBF" stroke-linecap="round"/>
<path d="M41 140H208" stroke="#8471FA" stroke-linecap="round"/>
<circle cx="208" cy="140" r="5" fill="#8471FA"/>
<circle cx="208" cy="140" r="4" fill="#1A182B"/>
<circle cx="208" cy="152" r="5" fill="#2EBBBF"/>
<circle cx="208" cy="152" r="4" fill="#1A182B"/>
<rect x="235" y="18" width="2" height="6" rx="1" fill="#8471FA"/>
<path d="M243.2 24L241.28 17H242.18L243.69 23L245.4 17H246.34L248.01 23.02L249.54 17H250.44L248.48 24H247.52L245.85 18.21L244.14 24H243.2ZM251.407 24V16.8H252.247V19.59C252.421 19.29 252.657 19.0533 252.957 18.88C253.257 18.7067 253.581 18.62 253.927 18.62C254.334 18.62 254.677 18.6967 254.957 18.85C255.244 18.9967 255.461 19.2233 255.607 19.53C255.761 19.8367 255.837 20.2267 255.837 20.7V24H255.007V20.79C255.007 20.31 254.894 19.95 254.667 19.71C254.441 19.4633 254.134 19.34 253.747 19.34C253.474 19.34 253.224 19.4067 252.997 19.54C252.771 19.6667 252.587 19.8567 252.447 20.11C252.314 20.3633 252.247 20.67 252.247 21.03V24H251.407ZM257.308 24V18.74H258.148V24H257.308ZM257.728 17.74C257.561 17.74 257.421 17.6867 257.308 17.58C257.201 17.4667 257.148 17.3267 257.148 17.16C257.148 16.9933 257.201 16.86 257.308 16.76C257.421 16.6533 257.561 16.6 257.728 16.6C257.888 16.6 258.024 16.6533 258.138 16.76C258.251 16.86 258.308 16.9933 258.308 17.16C258.308 17.3267 258.251 17.4667 258.138 17.58C258.024 17.6867 257.888 17.74 257.728 17.74ZM261.54 24.12C261.066 24.12 260.673 24.05 260.36 23.91C260.053 23.7633 259.82 23.5633 259.66 23.31C259.5 23.05 259.403 22.75 259.37 22.41H260.23C260.256 22.59 260.316 22.7567 260.41 22.91C260.51 23.0567 260.653 23.1767 260.84 23.27C261.026 23.3633 261.263 23.41 261.55 23.41C261.776 23.41 261.97 23.3767 262.13 23.31C262.29 23.2367 262.41 23.1367 262.49 23.01C262.576 22.8833 262.62 22.7367 262.62 22.57C262.62 22.35 262.57 22.18 262.47 22.06C262.376 21.9333 262.236 21.84 262.05 21.78C261.87 21.7133 261.643 21.6633 261.37 21.63C261.076 21.59 260.816 21.5333 260.59 21.46C260.363 21.3867 260.17 21.29 260.01 21.17C259.856 21.05 259.74 20.9 259.66 20.72C259.58 20.54 259.54 20.3267 259.54 20.08C259.54 19.7933 259.616 19.54 259.77 19.32C259.923 19.1 260.14 18.93 260.42 18.81C260.706 18.6833 261.043 18.62 261.43 18.62C261.996 18.62 262.443 18.75 262.77 19.01C263.103 19.27 263.3 19.64 263.36 20.12H262.53C262.496 19.8733 262.383 19.68 262.19 19.54C261.996 19.4 261.74 19.33 261.42 19.33C261.08 19.33 260.823 19.3933 260.65 19.52C260.476 19.6467 260.39 19.8133 260.39 20.02C260.39 20.1733 260.426 20.3133 260.5 20.44C260.58 20.56 260.713 20.6633 260.9 20.75C261.086 20.83 261.336 20.89 261.65 20.93C262.043 20.9767 262.376 21.0533 262.65 21.16C262.923 21.26 263.13 21.4167 263.27 21.63C263.416 21.8433 263.486 22.1333 263.48 22.5C263.48 22.8467 263.396 23.14 263.23 23.38C263.07 23.62 262.843 23.8033 262.55 23.93C262.263 24.0567 261.926 24.12 261.54 24.12ZM264.728 26.2V18.74H265.488L265.558 19.56C265.664 19.3867 265.798 19.23 265.958 19.09C266.124 18.95 266.321 18.8367 266.548 18.75C266.781 18.6633 267.048 18.62 267.348 18.62C267.821 18.62 268.234 18.74 268.588 18.98C268.948 19.22 269.228 19.5467 269.428 19.96C269.628 20.3733 269.728 20.8467 269.728 21.38C269.728 21.9067 269.628 22.3767 269.428 22.79C269.228 23.2033 268.948 23.53 268.588 23.77C268.228 24.0033 267.811 24.12 267.338 24.12C266.931 24.12 266.574 24.0367 266.268 23.87C265.961 23.7033 265.728 23.47 265.568 23.17V26.2H264.728ZM267.238 23.39C267.551 23.39 267.828 23.31 268.068 23.15C268.314 22.9833 268.508 22.75 268.648 22.45C268.794 22.1433 268.868 21.7833 268.868 21.37C268.868 20.9567 268.794 20.6 268.648 20.3C268.508 19.9933 268.314 19.76 268.068 19.6C267.828 19.4333 267.551 19.35 267.238 19.35C266.904 19.35 266.614 19.4333 266.368 19.6C266.121 19.76 265.931 19.9933 265.798 20.3C265.664 20.6 265.598 20.9567 265.598 21.37C265.598 21.7833 265.664 22.1433 265.798 22.45C265.931 22.75 266.121 22.9833 266.368 23.15C266.614 23.31 266.904 23.39 267.238 23.39ZM273.128 24.12C272.662 24.12 272.248 24.0067 271.888 23.78C271.528 23.5533 271.245 23.2333 271.038 22.82C270.838 22.4067 270.738 21.9233 270.738 21.37C270.738 20.8167 270.838 20.3333 271.038 19.92C271.245 19.5067 271.528 19.1867 271.888 18.96C272.255 18.7333 272.675 18.62 273.148 18.62C273.655 18.62 274.078 18.7333 274.418 18.96C274.758 19.1867 275.015 19.49 275.188 19.87C275.362 20.25 275.448 20.6667 275.448 21.12C275.448 21.1867 275.448 21.2533 275.448 21.32C275.448 21.3867 275.445 21.4667 275.438 21.56H271.368V20.91H274.628C274.615 20.3967 274.465 20.0067 274.178 19.74C273.898 19.4667 273.548 19.33 273.128 19.33C272.848 19.33 272.588 19.4 272.348 19.54C272.115 19.6733 271.925 19.8733 271.778 20.14C271.632 20.4067 271.558 20.74 271.558 21.14V21.42C271.558 21.86 271.632 22.23 271.778 22.53C271.925 22.8233 272.115 23.0433 272.348 23.19C272.588 23.3367 272.848 23.41 273.128 23.41C273.502 23.41 273.795 23.34 274.008 23.2C274.222 23.0533 274.378 22.8467 274.478 22.58H275.308C275.228 22.8733 275.088 23.1367 274.888 23.37C274.695 23.6033 274.448 23.7867 274.148 23.92C273.855 24.0533 273.515 24.12 273.128 24.12ZM276.612 24V18.74H277.372L277.432 19.7C277.552 19.46 277.709 19.26 277.902 19.1C278.096 18.94 278.329 18.82 278.602 18.74C278.882 18.66 279.196 18.62 279.542 18.62V19.5H279.022C278.822 19.5 278.629 19.5267 278.442 19.58C278.256 19.6333 278.086 19.72 277.932 19.84C277.786 19.96 277.669 20.1233 277.582 20.33C277.496 20.5367 277.452 20.7967 277.452 21.11V24H276.612ZM280.509 25.15V24.36H285.399V25.15H280.509ZM288.857 24C288.557 24 288.297 23.9533 288.077 23.86C287.857 23.7667 287.687 23.61 287.567 23.39C287.454 23.1633 287.397 22.86 287.397 22.48V19.45H286.477V18.74H287.397L287.507 17.43H288.237V18.74H289.727V19.45H288.237V22.48C288.237 22.7933 288.301 23.0067 288.427 23.12C288.554 23.2267 288.777 23.28 289.097 23.28H289.707V24H288.857ZM290.96 24V18.74H291.8V24H290.96ZM291.38 17.74C291.213 17.74 291.073 17.6867 290.96 17.58C290.853 17.4667 290.8 17.3267 290.8 17.16C290.8 16.9933 290.853 16.86 290.96 16.76C291.073 16.6533 291.213 16.6 291.38 16.6C291.54 16.6 291.677 16.6533 291.79 16.76C291.903 16.86 291.96 16.9933 291.96 17.16C291.96 17.3267 291.903 17.4667 291.79 17.58C291.677 17.6867 291.54 17.74 291.38 17.74ZM293.292 24V18.74H294.052L294.092 19.57C294.245 19.27 294.465 19.0367 294.752 18.87C295.045 18.7033 295.382 18.62 295.762 18.62C296.149 18.62 296.485 18.6933 296.772 18.84C297.059 18.9867 297.282 19.21 297.442 19.51C297.602 19.81 297.682 20.19 297.682 20.65V24H296.842V20.74C296.842 20.2733 296.725 19.9233 296.492 19.69C296.265 19.4567 295.959 19.34 295.572 19.34C295.312 19.34 295.072 19.4033 294.852 19.53C294.632 19.65 294.455 19.83 294.322 20.07C294.195 20.31 294.132 20.6033 294.132 20.95V24H293.292ZM299.517 26.2L300.707 23.44H300.417L298.447 18.74H299.357L300.987 22.79L302.687 18.74H303.557L300.387 26.2H299.517Z" fill="#8471FA"/>
<rect x="235" y="34" width="2" height="6" rx="1" fill="#2EBBBF"/>
<path d="M243.2 40L241.28 33H242.18L243.69 39L245.4 33H246.34L248.01 39.02L249.54 33H250.44L248.48 40H247.52L245.85 34.21L244.14 40H243.2ZM251.407 40V32.8H252.247V35.59C252.421 35.29 252.657 35.0533 252.957 34.88C253.257 34.7067 253.581 34.62 253.927 34.62C254.334 34.62 254.677 34.6967 254.957 34.85C255.244 34.9967 255.461 35.2233 255.607 35.53C255.761 35.8367 255.837 36.2267 255.837 36.7V40H255.007V36.79C255.007 36.31 254.894 35.95 254.667 35.71C254.441 35.4633 254.134 35.34 253.747 35.34C253.474 35.34 253.224 35.4067 252.997 35.54C252.771 35.6667 252.587 35.8567 252.447 36.11C252.314 36.3633 252.247 36.67 252.247 37.03V40H251.407ZM257.308 40V34.74H258.148V40H257.308ZM257.728 33.74C257.561 33.74 257.421 33.6867 257.308 33.58C257.201 33.4667 257.148 33.3267 257.148 33.16C257.148 32.9933 257.201 32.86 257.308 32.76C257.421 32.6533 257.561 32.6 257.728 32.6C257.888 32.6 258.024 32.6533 258.138 32.76C258.251 32.86 258.308 32.9933 258.308 33.16C258.308 33.3267 258.251 33.4667 258.138 33.58C258.024 33.6867 257.888 33.74 257.728 33.74ZM261.54 40.12C261.066 40.12 260.673 40.05 260.36 39.91C260.053 39.7633 259.82 39.5633 259.66 39.31C259.5 39.05 259.403 38.75 259.37 38.41H260.23C260.256 38.59 260.316 38.7567 260.41 38.91C260.51 39.0567 260.653 39.1767 260.84 39.27C261.026 39.3633 261.263 39.41 261.55 39.41C261.776 39.41 261.97 39.3767 262.13 39.31C262.29 39.2367 262.41 39.1367 262.49 39.01C262.576 38.8833 262.62 38.7367 262.62 38.57C262.62 38.35 262.57 38.18 262.47 38.06C262.376 37.9333 262.236 37.84 262.05 37.78C261.87 37.7133 261.643 37.6633 261.37 37.63C261.076 37.59 260.816 37.5333 260.59 37.46C260.363 37.3867 260.17 37.29 260.01 37.17C259.856 37.05 259.74 36.9 259.66 36.72C259.58 36.54 259.54 36.3267 259.54 36.08C259.54 35.7933 259.616 35.54 259.77 35.32C259.923 35.1 260.14 34.93 260.42 34.81C260.706 34.6833 261.043 34.62 261.43 34.62C261.996 34.62 262.443 34.75 262.77 35.01C263.103 35.27 263.3 35.64 263.36 36.12H262.53C262.496 35.8733 262.383 35.68 262.19 35.54C261.996 35.4 261.74 35.33 261.42 35.33C261.08 35.33 260.823 35.3933 260.65 35.52C260.476 35.6467 260.39 35.8133 260.39 36.02C260.39 36.1733 260.426 36.3133 260.5 36.44C260.58 36.56 260.713 36.6633 260.9 36.75C261.086 36.83 261.336 36.89 261.65 36.93C262.043 36.9767 262.376 37.0533 262.65 37.16C262.923 37.26 263.13 37.4167 263.27 37.63C263.416 37.8433 263.486 38.1333 263.48 38.5C263.48 38.8467 263.396 39.14 263.23 39.38C263.07 39.62 262.843 39.8033 262.55 39.93C262.263 40.0567 261.926 40.12 261.54 40.12ZM264.728 40V32.8H265.568V35.59C265.741 35.29 265.978 35.0533 266.278 34.88C266.578 34.7067 266.901 34.62 267.248 34.62C267.654 34.62 267.998 34.6967 268.278 34.85C268.564 34.9967 268.781 35.2233 268.928 35.53C269.081 35.8367 269.158 36.2267 269.158 36.7V40H268.328V36.79C268.328 36.31 268.214 35.95 267.988 35.71C267.761 35.4633 267.454 35.34 267.068 35.34C266.794 35.34 266.544 35.4067 266.318 35.54C266.091 35.6667 265.908 35.8567 265.768 36.11C265.634 36.3633 265.568 36.67 265.568 37.03V40H264.728ZM270.548 42.2V34.74H271.308L271.378 35.56C271.485 35.3867 271.618 35.23 271.778 35.09C271.945 34.95 272.141 34.8367 272.368 34.75C272.601 34.6633 272.868 34.62 273.168 34.62C273.641 34.62 274.055 34.74 274.408 34.98C274.768 35.22 275.048 35.5467 275.248 35.96C275.448 36.3733 275.548 36.8467 275.548 37.38C275.548 37.9067 275.448 38.3767 275.248 38.79C275.048 39.2033 274.768 39.53 274.408 39.77C274.048 40.0033 273.631 40.12 273.158 40.12C272.751 40.12 272.395 40.0367 272.088 39.87C271.781 39.7033 271.548 39.47 271.388 39.17V42.2H270.548ZM273.058 39.39C273.371 39.39 273.648 39.31 273.888 39.15C274.135 38.9833 274.328 38.75 274.468 38.45C274.615 38.1433 274.688 37.7833 274.688 37.37C274.688 36.9567 274.615 36.6 274.468 36.3C274.328 35.9933 274.135 35.76 273.888 35.6C273.648 35.4333 273.371 35.35 273.058 35.35C272.725 35.35 272.435 35.4333 272.188 35.6C271.941 35.76 271.751 35.9933 271.618 36.3C271.485 36.6 271.418 36.9567 271.418 37.37C271.418 37.7833 271.485 38.1433 271.618 38.45C271.751 38.75 271.941 38.9833 272.188 39.15C272.435 39.31 272.725 39.39 273.058 39.39ZM278.949 40.12C278.482 40.12 278.069 40.0067 277.709 39.78C277.349 39.5533 277.065 39.2333 276.859 38.82C276.659 38.4067 276.559 37.9233 276.559 37.37C276.559 36.8167 276.659 36.3333 276.859 35.92C277.065 35.5067 277.349 35.1867 277.709 34.96C278.075 34.7333 278.495 34.62 278.969 34.62C279.475 34.62 279.899 34.7333 280.239 34.96C280.579 35.1867 280.835 35.49 281.009 35.87C281.182 36.25 281.269 36.6667 281.269 37.12C281.269 37.1867 281.269 37.2533 281.269 37.32C281.269 37.3867 281.265 37.4667 281.259 37.56H277.189V36.91H280.449C280.435 36.3967 280.285 36.0067 279.999 35.74C279.719 35.4667 279.369 35.33 278.949 35.33C278.669 35.33 278.409 35.4 278.169 35.54C277.935 35.6733 277.745 35.8733 277.599 36.14C277.452 36.4067 277.379 36.74 277.379 37.14V37.42C277.379 37.86 277.452 38.23 277.599 38.53C277.745 38.8233 277.935 39.0433 278.169 39.19C278.409 39.3367 278.669 39.41 278.949 39.41C279.322 39.41 279.615 39.34 279.829 39.2C280.042 39.0533 280.199 38.8467 280.299 38.58H281.129C281.049 38.8733 280.909 39.1367 280.709 39.37C280.515 39.6033 280.269 39.7867 279.969 39.92C279.675 40.0533 279.335 40.12 278.949 40.12ZM282.433 40V34.74H283.193L283.253 35.7C283.373 35.46 283.529 35.26 283.723 35.1C283.916 34.94 284.149 34.82 284.423 34.74C284.703 34.66 285.016 34.62 285.363 34.62V35.5H284.843C284.643 35.5 284.449 35.5267 284.263 35.58C284.076 35.6333 283.906 35.72 283.753 35.84C283.606 35.96 283.489 36.1233 283.403 36.33C283.316 36.5367 283.273 36.7967 283.273 37.11V40H282.433ZM286.329 41.15V40.36H291.219V41.15H286.329ZM295.258 40.12C294.938 40.12 294.661 40.0733 294.428 39.98C294.201 39.88 294.008 39.7567 293.848 39.61C293.694 39.4633 293.568 39.32 293.468 39.18L293.398 40H292.638V32.8H293.478V35.57C293.638 35.2567 293.874 35.02 294.188 34.86C294.501 34.7 294.851 34.62 295.238 34.62C295.718 34.62 296.138 34.7367 296.498 34.97C296.858 35.2033 297.138 35.5267 297.338 35.94C297.538 36.3467 297.638 36.8167 297.638 37.35C297.638 37.8767 297.538 38.35 297.338 38.77C297.138 39.19 296.858 39.52 296.498 39.76C296.144 40 295.731 40.12 295.258 40.12ZM295.148 39.39C295.461 39.39 295.738 39.31 295.978 39.15C296.224 38.9833 296.418 38.75 296.558 38.45C296.704 38.1433 296.778 37.7833 296.778 37.37C296.778 36.9567 296.704 36.6 296.558 36.3C296.418 35.9933 296.224 35.76 295.978 35.6C295.738 35.4333 295.461 35.35 295.148 35.35C294.814 35.35 294.524 35.4333 294.278 35.6C294.031 35.76 293.841 35.9933 293.708 36.3C293.574 36.6 293.508 36.9567 293.508 37.37C293.508 37.7833 293.574 38.1433 293.708 38.45C293.841 38.75 294.031 38.9833 294.278 39.15C294.524 39.31 294.814 39.39 295.148 39.39ZM300.498 40.12C300.098 40.12 299.765 40.0467 299.498 39.9C299.232 39.7467 299.032 39.5467 298.898 39.3C298.765 39.0467 298.698 38.7767 298.698 38.49C298.698 38.1433 298.785 37.85 298.958 37.61C299.138 37.3633 299.388 37.1767 299.708 37.05C300.028 36.9233 300.402 36.86 300.828 36.86H302.138C302.138 36.52 302.098 36.2367 302.018 36.01C301.938 35.7833 301.808 35.6133 301.628 35.5C301.448 35.3867 301.208 35.33 300.908 35.33C300.608 35.33 300.352 35.4067 300.138 35.56C299.925 35.7067 299.792 35.9267 299.738 36.22H298.878C298.918 35.8733 299.035 35.5833 299.228 35.35C299.422 35.11 299.665 34.93 299.958 34.81C300.258 34.6833 300.575 34.62 300.908 34.62C301.382 34.62 301.772 34.7067 302.078 34.88C302.385 35.0467 302.612 35.2833 302.758 35.59C302.905 35.89 302.978 36.2467 302.978 36.66V40H302.228L302.178 39.1C302.112 39.24 302.025 39.3733 301.918 39.5C301.818 39.62 301.698 39.7267 301.558 39.82C301.418 39.9133 301.258 39.9867 301.078 40.04C300.905 40.0933 300.712 40.12 300.498 40.12ZM300.618 39.41C300.838 39.41 301.042 39.36 301.228 39.26C301.415 39.16 301.575 39.0267 301.708 38.86C301.848 38.6867 301.955 38.4933 302.028 38.28C302.102 38.0667 302.138 37.8433 302.138 37.61V37.51H300.898C300.585 37.51 300.328 37.55 300.128 37.63C299.935 37.71 299.795 37.8233 299.708 37.97C299.622 38.11 299.578 38.27 299.578 38.45C299.578 38.6433 299.618 38.8133 299.698 38.96C299.778 39.1 299.895 39.21 300.048 39.29C300.208 39.37 300.398 39.41 300.618 39.41ZM306.266 40.12C305.793 40.12 305.4 40.05 305.086 39.91C304.78 39.7633 304.546 39.5633 304.386 39.31C304.226 39.05 304.13 38.75 304.096 38.41H304.956C304.983 38.59 305.043 38.7567 305.136 38.91C305.236 39.0567 305.38 39.1767 305.566 39.27C305.753 39.3633 305.99 39.41 306.276 39.41C306.503 39.41 306.696 39.3767 306.856 39.31C307.016 39.2367 307.136 39.1367 307.216 39.01C307.303 38.8833 307.346 38.7367 307.346 38.57C307.346 38.35 307.296 38.18 307.196 38.06C307.103 37.9333 306.963 37.84 306.776 37.78C306.596 37.7133 306.37 37.6633 306.096 37.63C305.803 37.59 305.543 37.5333 305.316 37.46C305.09 37.3867 304.896 37.29 304.736 37.17C304.583 37.05 304.466 36.9 304.386 36.72C304.306 36.54 304.266 36.3267 304.266 36.08C304.266 35.7933 304.343 35.54 304.496 35.32C304.65 35.1 304.866 34.93 305.146 34.81C305.433 34.6833 305.77 34.62 306.156 34.62C306.723 34.62 307.17 34.75 307.496 35.01C307.83 35.27 308.026 35.64 308.086 36.12H307.256C307.223 35.8733 307.11 35.68 306.916 35.54C306.723 35.4 306.466 35.33 306.146 35.33C305.806 35.33 305.55 35.3933 305.376 35.52C305.203 35.6467 305.116 35.8133 305.116 36.02C305.116 36.1733 305.153 36.3133 305.226 36.44C305.306 36.56 305.44 36.6633 305.626 36.75C305.813 36.83 306.063 36.89 306.376 36.93C306.77 36.9767 307.103 37.0533 307.376 37.16C307.65 37.26 307.856 37.4167 307.996 37.63C308.143 37.8433 308.213 38.1333 308.206 38.5C308.206 38.8467 308.123 39.14 307.956 39.38C307.796 39.62 307.57 39.8033 307.276 39.93C306.99 40.0567 306.653 40.12 306.266 40.12ZM311.634 40.12C311.167 40.12 310.754 40.0067 310.394 39.78C310.034 39.5533 309.751 39.2333 309.544 38.82C309.344 38.4067 309.244 37.9233 309.244 37.37C309.244 36.8167 309.344 36.3333 309.544 35.92C309.751 35.5067 310.034 35.1867 310.394 34.96C310.761 34.7333 311.181 34.62 311.654 34.62C312.161 34.62 312.584 34.7333 312.924 34.96C313.264 35.1867 313.521 35.49 313.694 35.87C313.867 36.25 313.954 36.6667 313.954 37.12C313.954 37.1867 313.954 37.2533 313.954 37.32C313.954 37.3867 313.951 37.4667 313.944 37.56H309.874V36.91H313.134C313.121 36.3967 312.971 36.0067 312.684 35.74C312.404 35.4667 312.054 35.33 311.634 35.33C311.354 35.33 311.094 35.4 310.854 35.54C310.621 35.6733 310.431 35.8733 310.284 36.14C310.137 36.4067 310.064 36.74 310.064 37.14V37.42C310.064 37.86 310.137 38.23 310.284 38.53C310.431 38.8233 310.621 39.0433 310.854 39.19C311.094 39.3367 311.354 39.41 311.634 39.41C312.007 39.41 312.301 39.34 312.514 39.2C312.727 39.0533 312.884 38.8467 312.984 38.58H313.814C313.734 38.8733 313.594 39.1367 313.394 39.37C313.201 39.6033 312.954 39.7867 312.654 39.92C312.361 40.0533 312.021 40.12 311.634 40.12Z" fill="#2EBBBF"/>
<rect x="235" y="50" width="2" height="6" rx="1" fill="#FFAD32"/>
<path d="M243.2 56L241.28 49H242.18L243.69 55L245.4 49H246.34L248.01 55.02L249.54 49H250.44L248.48 56H247.52L245.85 50.21L244.14 56H243.2ZM251.407 56V48.8H252.247V51.59C252.421 51.29 252.657 51.0533 252.957 50.88C253.257 50.7067 253.581 50.62 253.927 50.62C254.334 50.62 254.677 50.6967 254.957 50.85C255.244 50.9967 255.461 51.2233 255.607 51.53C255.761 51.8367 255.837 52.2267 255.837 52.7V56H255.007V52.79C255.007 52.31 254.894 51.95 254.667 51.71C254.441 51.4633 254.134 51.34 253.747 51.34C253.474 51.34 253.224 51.4067 252.997 51.54C252.771 51.6667 252.587 51.8567 252.447 52.11C252.314 52.3633 252.247 52.67 252.247 53.03V56H251.407ZM257.308 56V50.74H258.148V56H257.308ZM257.728 49.74C257.561 49.74 257.421 49.6867 257.308 49.58C257.201 49.4667 257.148 49.3267 257.148 49.16C257.148 48.9933 257.201 48.86 257.308 48.76C257.421 48.6533 257.561 48.6 257.728 48.6C257.888 48.6 258.024 48.6533 258.138 48.76C258.251 48.86 258.308 48.9933 258.308 49.16C258.308 49.3267 258.251 49.4667 258.138 49.58C258.024 49.6867 257.888 49.74 257.728 49.74ZM261.54 56.12C261.066 56.12 260.673 56.05 260.36 55.91C260.053 55.7633 259.82 55.5633 259.66 55.31C259.5 55.05 259.403 54.75 259.37 54.41H260.23C260.256 54.59 260.316 54.7567 260.41 54.91C260.51 55.0567 260.653 55.1767 260.84 55.27C261.026 55.3633 261.263 55.41 261.55 55.41C261.776 55.41 261.97 55.3767 262.13 55.31C262.29 55.2367 262.41 55.1367 262.49 55.01C262.576 54.8833 262.62 54.7367 262.62 54.57C262.62 54.35 262.57 54.18 262.47 54.06C262.376 53.9333 262.236 53.84 262.05 53.78C261.87 53.7133 261.643 53.6633 261.37 53.63C261.076 53.59 260.816 53.5333 260.59 53.46C260.363 53.3867 260.17 53.29 260.01 53.17C259.856 53.05 259.74 52.9 259.66 52.72C259.58 52.54 259.54 52.3267 259.54 52.08C259.54 51.7933 259.616 51.54 259.77 51.32C259.923 51.1 260.14 50.93 260.42 50.81C260.706 50.6833 261.043 50.62 261.43 50.62C261.996 50.62 262.443 50.75 262.77 51.01C263.103 51.27 263.3 51.64 263.36 52.12H262.53C262.496 51.8733 262.383 51.68 262.19 51.54C261.996 51.4 261.74 51.33 261.42 51.33C261.08 51.33 260.823 51.3933 260.65 51.52C260.476 51.6467 260.39 51.8133 260.39 52.02C260.39 52.1733 260.426 52.3133 260.5 52.44C260.58 52.56 260.713 52.6633 260.9 52.75C261.086 52.83 261.336 52.89 261.65 52.93C262.043 52.9767 262.376 53.0533 262.65 53.16C262.923 53.26 263.13 53.4167 263.27 53.63C263.416 53.8433 263.486 54.1333 263.48 54.5C263.48 54.8467 263.396 55.14 263.23 55.38C263.07 55.62 262.843 55.8033 262.55 55.93C262.263 56.0567 261.926 56.12 261.54 56.12ZM264.728 56V48.8H265.568V51.59C265.741 51.29 265.978 51.0533 266.278 50.88C266.578 50.7067 266.901 50.62 267.248 50.62C267.654 50.62 267.998 50.6967 268.278 50.85C268.564 50.9967 268.781 51.2233 268.928 51.53C269.081 51.8367 269.158 52.2267 269.158 52.7V56H268.328V52.79C268.328 52.31 268.214 51.95 267.988 51.71C267.761 51.4633 267.454 51.34 267.068 51.34C266.794 51.34 266.544 51.4067 266.318 51.54C266.091 51.6667 265.908 51.8567 265.768 52.11C265.634 52.3633 265.568 52.67 265.568 53.03V56H264.728ZM270.548 58.2V50.74H271.308L271.378 51.56C271.485 51.3867 271.618 51.23 271.778 51.09C271.945 50.95 272.141 50.8367 272.368 50.75C272.601 50.6633 272.868 50.62 273.168 50.62C273.641 50.62 274.055 50.74 274.408 50.98C274.768 51.22 275.048 51.5467 275.248 51.96C275.448 52.3733 275.548 52.8467 275.548 53.38C275.548 53.9067 275.448 54.3767 275.248 54.79C275.048 55.2033 274.768 55.53 274.408 55.77C274.048 56.0033 273.631 56.12 273.158 56.12C272.751 56.12 272.395 56.0367 272.088 55.87C271.781 55.7033 271.548 55.47 271.388 55.17V58.2H270.548ZM273.058 55.39C273.371 55.39 273.648 55.31 273.888 55.15C274.135 54.9833 274.328 54.75 274.468 54.45C274.615 54.1433 274.688 53.7833 274.688 53.37C274.688 52.9567 274.615 52.6 274.468 52.3C274.328 51.9933 274.135 51.76 273.888 51.6C273.648 51.4333 273.371 51.35 273.058 51.35C272.725 51.35 272.435 51.4333 272.188 51.6C271.941 51.76 271.751 51.9933 271.618 52.3C271.485 52.6 271.418 52.9567 271.418 53.37C271.418 53.7833 271.485 54.1433 271.618 54.45C271.751 54.75 271.941 54.9833 272.188 55.15C272.435 55.31 272.725 55.39 273.058 55.39ZM278.949 56.12C278.482 56.12 278.069 56.0067 277.709 55.78C277.349 55.5533 277.065 55.2333 276.859 54.82C276.659 54.4067 276.559 53.9233 276.559 53.37C276.559 52.8167 276.659 52.3333 276.859 51.92C277.065 51.5067 277.349 51.1867 277.709 50.96C278.075 50.7333 278.495 50.62 278.969 50.62C279.475 50.62 279.899 50.7333 280.239 50.96C280.579 51.1867 280.835 51.49 281.009 51.87C281.182 52.25 281.269 52.6667 281.269 53.12C281.269 53.1867 281.269 53.2533 281.269 53.32C281.269 53.3867 281.265 53.4667 281.259 53.56H277.189V52.91H280.449C280.435 52.3967 280.285 52.0067 279.999 51.74C279.719 51.4667 279.369 51.33 278.949 51.33C278.669 51.33 278.409 51.4 278.169 51.54C277.935 51.6733 277.745 51.8733 277.599 52.14C277.452 52.4067 277.379 52.74 277.379 53.14V53.42C277.379 53.86 277.452 54.23 277.599 54.53C277.745 54.8233 277.935 55.0433 278.169 55.19C278.409 55.3367 278.669 55.41 278.949 55.41C279.322 55.41 279.615 55.34 279.829 55.2C280.042 55.0533 280.199 54.8467 280.299 54.58H281.129C281.049 54.8733 280.909 55.1367 280.709 55.37C280.515 55.6033 280.269 55.7867 279.969 55.92C279.675 56.0533 279.335 56.12 278.949 56.12ZM282.433 56V50.74H283.193L283.253 51.7C283.373 51.46 283.529 51.26 283.723 51.1C283.916 50.94 284.149 50.82 284.423 50.74C284.703 50.66 285.016 50.62 285.363 50.62V51.5H284.843C284.643 51.5 284.449 51.5267 284.263 51.58C284.076 51.6333 283.906 51.72 283.753 51.84C283.606 51.96 283.489 52.1233 283.403 52.33C283.316 52.5367 283.273 52.7967 283.273 53.11V56H282.433ZM286.329 57.15V56.36H291.219V57.15H286.329ZM292.638 56V48.8H293.478V56H292.638ZM296.534 56.12C296.134 56.12 295.8 56.0467 295.534 55.9C295.267 55.7467 295.067 55.5467 294.934 55.3C294.8 55.0467 294.734 54.7767 294.734 54.49C294.734 54.1433 294.82 53.85 294.994 53.61C295.174 53.3633 295.424 53.1767 295.744 53.05C296.064 52.9233 296.437 52.86 296.864 52.86H298.174C298.174 52.52 298.134 52.2367 298.054 52.01C297.974 51.7833 297.844 51.6133 297.664 51.5C297.484 51.3867 297.244 51.33 296.944 51.33C296.644 51.33 296.387 51.4067 296.174 51.56C295.96 51.7067 295.827 51.9267 295.774 52.22H294.914C294.954 51.8733 295.07 51.5833 295.264 51.35C295.457 51.11 295.7 50.93 295.994 50.81C296.294 50.6833 296.61 50.62 296.944 50.62C297.417 50.62 297.807 50.7067 298.114 50.88C298.42 51.0467 298.647 51.2833 298.794 51.59C298.94 51.89 299.014 52.2467 299.014 52.66V56H298.264L298.214 55.1C298.147 55.24 298.06 55.3733 297.954 55.5C297.854 55.62 297.734 55.7267 297.594 55.82C297.454 55.9133 297.294 55.9867 297.114 56.04C296.94 56.0933 296.747 56.12 296.534 56.12ZM296.654 55.41C296.874 55.41 297.077 55.36 297.264 55.26C297.45 55.16 297.61 55.0267 297.744 54.86C297.884 54.6867 297.99 54.4933 298.064 54.28C298.137 54.0667 298.174 53.8433 298.174 53.61V53.51H296.934C296.62 53.51 296.364 53.55 296.164 53.63C295.97 53.71 295.83 53.8233 295.744 53.97C295.657 54.11 295.614 54.27 295.614 54.45C295.614 54.6433 295.654 54.8133 295.734 54.96C295.814 55.1 295.93 55.21 296.084 55.29C296.244 55.37 296.434 55.41 296.654 55.41ZM300.401 56V50.74H301.161L301.221 51.7C301.341 51.46 301.498 51.26 301.691 51.1C301.885 50.94 302.118 50.82 302.391 50.74C302.671 50.66 302.985 50.62 303.331 50.62V51.5H302.811C302.611 51.5 302.418 51.5267 302.231 51.58C302.045 51.6333 301.875 51.72 301.721 51.84C301.575 51.96 301.458 52.1233 301.371 52.33C301.285 52.5367 301.241 52.7967 301.241 53.11V56H300.401ZM306.241 58.32C305.767 58.32 305.351 58.26 304.991 58.14C304.637 58.0267 304.361 57.85 304.161 57.61C303.967 57.37 303.871 57.0733 303.871 56.72C303.871 56.5533 303.901 56.38 303.961 56.2C304.027 56.02 304.137 55.8467 304.291 55.68C304.451 55.5133 304.674 55.3633 304.961 55.23L305.601 55.57C305.221 55.7167 304.974 55.8867 304.861 56.08C304.747 56.2733 304.691 56.46 304.691 56.64C304.691 56.86 304.754 57.0433 304.881 57.19C305.014 57.3367 305.197 57.4467 305.431 57.52C305.664 57.5933 305.934 57.63 306.241 57.63C306.541 57.63 306.797 57.59 307.011 57.51C307.231 57.4367 307.397 57.3267 307.511 57.18C307.631 57.04 307.691 56.8733 307.691 56.68C307.691 56.4 307.601 56.18 307.421 56.02C307.241 55.8667 306.891 55.7767 306.371 55.75C305.964 55.7233 305.624 55.6867 305.351 55.64C305.077 55.5933 304.851 55.54 304.671 55.48C304.497 55.4133 304.351 55.34 304.231 55.26C304.117 55.18 304.014 55.0967 303.921 55.01V54.78L304.911 53.83L305.701 54.09L304.621 54.98L304.751 54.6C304.824 54.6533 304.894 54.7033 304.961 54.75C305.027 54.7967 305.117 54.84 305.231 54.88C305.351 54.9133 305.514 54.9467 305.721 54.98C305.934 55.0133 306.214 55.0433 306.561 55.07C307.041 55.1033 307.424 55.1833 307.711 55.31C307.997 55.4367 308.204 55.6133 308.331 55.84C308.457 56.06 308.521 56.33 308.521 56.65C308.521 56.93 308.441 57.1967 308.281 57.45C308.127 57.7033 307.881 57.91 307.541 58.07C307.207 58.2367 306.774 58.32 306.241 58.32ZM306.231 54.36C305.804 54.36 305.441 54.28 305.141 54.12C304.847 53.9533 304.624 53.73 304.471 53.45C304.317 53.1633 304.241 52.8433 304.241 52.49C304.241 52.1367 304.317 51.82 304.471 51.54C304.631 51.26 304.857 51.0367 305.151 50.87C305.451 50.7033 305.811 50.62 306.231 50.62C306.664 50.62 307.027 50.7033 307.321 50.87C307.614 51.0367 307.837 51.26 307.991 51.54C308.144 51.82 308.221 52.1367 308.221 52.49C308.221 52.8433 308.144 53.1633 307.991 53.45C307.837 53.73 307.614 53.9533 307.321 54.12C307.027 54.28 306.664 54.36 306.231 54.36ZM306.231 53.67C306.604 53.67 306.894 53.5733 307.101 53.38C307.307 53.18 307.411 52.8833 307.411 52.49C307.411 52.0967 307.307 51.8033 307.101 51.61C306.894 51.4167 306.604 51.32 306.231 51.32C305.877 51.32 305.587 51.4167 305.361 51.61C305.141 51.8033 305.031 52.0967 305.031 52.49C305.031 52.8833 305.137 53.18 305.351 53.38C305.571 53.5733 305.864 53.67 306.231 53.67ZM307.111 51.45L306.861 50.74H308.921V51.37L307.111 51.45ZM311.917 56.12C311.451 56.12 311.037 56.0067 310.677 55.78C310.317 55.5533 310.034 55.2333 309.827 54.82C309.627 54.4067 309.527 53.9233 309.527 53.37C309.527 52.8167 309.627 52.3333 309.827 51.92C310.034 51.5067 310.317 51.1867 310.677 50.96C311.044 50.7333 311.464 50.62 311.937 50.62C312.444 50.62 312.867 50.7333 313.207 50.96C313.547 51.1867 313.804 51.49 313.977 51.87C314.151 52.25 314.237 52.6667 314.237 53.12C314.237 53.1867 314.237 53.2533 314.237 53.32C314.237 53.3867 314.234 53.4667 314.227 53.56H310.157V52.91H313.417C313.404 52.3967 313.254 52.0067 312.967 51.74C312.687 51.4667 312.337 51.33 311.917 51.33C311.637 51.33 311.377 51.4 311.137 51.54C310.904 51.6733 310.714 51.8733 310.567 52.14C310.421 52.4067 310.347 52.74 310.347 53.14V53.42C310.347 53.86 310.421 54.23 310.567 54.53C310.714 54.8233 310.904 55.0433 311.137 55.19C311.377 55.3367 311.637 55.41 311.917 55.41C312.291 55.41 312.584 55.34 312.797 55.2C313.011 55.0533 313.167 54.8467 313.267 54.58H314.097C314.017 54.8733 313.877 55.1367 313.677 55.37C313.484 55.6033 313.237 55.7867 312.937 55.92C312.644 56.0533 312.304 56.12 311.917 56.12Z" fill="#FFAD32"/>
</svg>
