<svg width="342" height="175" viewBox="0 0 342 175" fill="none" xmlns="http://www.w3.org/2000/svg">
<rect width="342" height="252" rx="12" fill="#141324"/>
<path d="M22.046 29.168C21.3927 29.168 20.814 29.0093 20.31 28.692C19.806 28.3747 19.4093 27.9267 19.12 27.348C18.84 26.7693 18.7 26.0927 18.7 25.318C18.7 24.5433 18.84 23.8667 19.12 23.288C19.4093 22.7093 19.806 22.2613 20.31 21.944C20.8233 21.6267 21.4113 21.468 22.074 21.468C22.7833 21.468 23.376 21.6267 23.852 21.944C24.328 22.2613 24.6873 22.686 24.93 23.218C25.1727 23.75 25.294 24.3333 25.294 24.968C25.294 25.0613 25.294 25.1547 25.294 25.248C25.294 25.3413 25.2893 25.4533 25.28 25.584H19.582V24.674H24.146C24.1273 23.9553 23.9173 23.4093 23.516 23.036C23.124 22.6533 22.634 22.462 22.046 22.462C21.654 22.462 21.29 22.56 20.954 22.756C20.6273 22.9427 20.3613 23.2227 20.156 23.596C19.9507 23.9693 19.848 24.436 19.848 24.996V25.388C19.848 26.004 19.9507 26.522 20.156 26.942C20.3613 27.3527 20.6273 27.6607 20.954 27.866C21.29 28.0713 21.654 28.174 22.046 28.174C22.5687 28.174 22.9793 28.076 23.278 27.88C23.5767 27.6747 23.796 27.3853 23.936 27.012H25.098C24.986 27.4227 24.79 27.7913 24.51 28.118C24.2393 28.4447 23.894 28.7013 23.474 28.888C23.0633 29.0747 22.5873 29.168 22.046 29.168ZM28.7923 29L25.9923 21.636H27.2383L29.4783 27.866L31.7323 21.636H32.9363L30.1503 29H28.7923ZM36.206 29.168C35.646 29.168 35.1793 29.0653 34.806 28.86C34.4327 28.6453 34.1527 28.3653 33.966 28.02C33.7793 27.6653 33.686 27.2873 33.686 26.886C33.686 26.4007 33.8073 25.99 34.05 25.654C34.302 25.3087 34.652 25.0473 35.1 24.87C35.548 24.6927 36.0707 24.604 36.668 24.604H38.502C38.502 24.128 38.446 23.7313 38.334 23.414C38.222 23.0967 38.04 22.8587 37.788 22.7C37.536 22.5413 37.2 22.462 36.78 22.462C36.36 22.462 36.0007 22.5693 35.702 22.784C35.4033 22.9893 35.2167 23.2973 35.142 23.708H33.938C33.994 23.2227 34.1573 22.8167 34.428 22.49C34.6987 22.154 35.0393 21.902 35.45 21.734C35.87 21.5567 36.3133 21.468 36.78 21.468C37.4427 21.468 37.9887 21.5893 38.418 21.832C38.8473 22.0653 39.1647 22.3967 39.37 22.826C39.5753 23.246 39.678 23.7453 39.678 24.324V29H38.628L38.558 27.74C38.4647 27.936 38.3433 28.1227 38.194 28.3C38.054 28.468 37.886 28.6173 37.69 28.748C37.494 28.8787 37.27 28.9813 37.018 29.056C36.7753 29.1307 36.5047 29.168 36.206 29.168ZM36.374 28.174C36.682 28.174 36.9667 28.104 37.228 27.964C37.4893 27.824 37.7133 27.6373 37.9 27.404C38.096 27.1613 38.2453 26.8907 38.348 26.592C38.4507 26.2933 38.502 25.9807 38.502 25.654V25.514H36.766C36.3273 25.514 35.968 25.57 35.688 25.682C35.4173 25.794 35.2213 25.9527 35.1 26.158C34.9787 26.354 34.918 26.578 34.918 26.83C34.918 27.1007 34.974 27.3387 35.086 27.544C35.198 27.74 35.3613 27.894 35.576 28.006C35.8 28.118 36.066 28.174 36.374 28.174ZM41.621 29V18.92H42.797V29H41.621ZM44.1912 30.33L47.7052 18.304H48.8672L45.3532 30.33H44.1912ZM52.5114 29.168C51.8488 29.168 51.2981 29.07 50.8594 28.874C50.4301 28.6687 50.1034 28.3887 49.8794 28.034C49.6554 27.67 49.5201 27.25 49.4734 26.774H50.6774C50.7148 27.026 50.7988 27.2593 50.9294 27.474C51.0694 27.6793 51.2701 27.8473 51.5314 27.978C51.7928 28.1087 52.1241 28.174 52.5254 28.174C52.8428 28.174 53.1134 28.1273 53.3374 28.034C53.5614 27.9313 53.7294 27.7913 53.8414 27.614C53.9628 27.4367 54.0234 27.2313 54.0234 26.998C54.0234 26.69 53.9534 26.452 53.8134 26.284C53.6828 26.1067 53.4868 25.976 53.2254 25.892C52.9734 25.7987 52.6561 25.7287 52.2734 25.682C51.8628 25.626 51.4988 25.5467 51.1814 25.444C50.8641 25.3413 50.5934 25.206 50.3694 25.038C50.1548 24.87 49.9914 24.66 49.8794 24.408C49.7674 24.156 49.7114 23.8573 49.7114 23.512C49.7114 23.1107 49.8188 22.756 50.0334 22.448C50.2481 22.14 50.5514 21.902 50.9434 21.734C51.3448 21.5567 51.8161 21.468 52.3574 21.468C53.1508 21.468 53.7761 21.65 54.2334 22.014C54.7001 22.378 54.9754 22.896 55.0594 23.568H53.8974C53.8508 23.2227 53.6921 22.952 53.4214 22.756C53.1508 22.56 52.7914 22.462 52.3434 22.462C51.8674 22.462 51.5081 22.5507 51.2654 22.728C51.0228 22.9053 50.9014 23.1387 50.9014 23.428C50.9014 23.6427 50.9528 23.8387 51.0554 24.016C51.1674 24.184 51.3541 24.3287 51.6154 24.45C51.8768 24.562 52.2268 24.646 52.6654 24.702C53.2161 24.7673 53.6828 24.8747 54.0654 25.024C54.4481 25.164 54.7374 25.3833 54.9334 25.682C55.1388 25.9807 55.2368 26.3867 55.2274 26.9C55.2274 27.3853 55.1108 27.796 54.8774 28.132C54.6534 28.468 54.3361 28.7247 53.9254 28.902C53.5241 29.0793 53.0528 29.168 52.5114 29.168ZM59.516 29C59.096 29 58.732 28.9347 58.424 28.804C58.116 28.6733 57.878 28.454 57.71 28.146C57.5513 27.8287 57.472 27.404 57.472 26.872V22.63H56.184V21.636H57.472L57.626 19.802H58.648V21.636H60.734V22.63H58.648V26.872C58.648 27.3107 58.7367 27.6093 58.914 27.768C59.0913 27.9173 59.404 27.992 59.852 27.992H60.706V29H59.516ZM65.2081 29.168C64.5548 29.168 63.9761 29.0093 63.4721 28.692C62.9681 28.3747 62.5714 27.9267 62.2821 27.348C62.0021 26.7693 61.8621 26.0927 61.8621 25.318C61.8621 24.5433 62.0021 23.8667 62.2821 23.288C62.5714 22.7093 62.9681 22.2613 63.4721 21.944C63.9854 21.6267 64.5734 21.468 65.2361 21.468C65.9454 21.468 66.5381 21.6267 67.0141 21.944C67.4901 22.2613 67.8494 22.686 68.0921 23.218C68.3348 23.75 68.4561 24.3333 68.4561 24.968C68.4561 25.0613 68.4561 25.1547 68.4561 25.248C68.4561 25.3413 68.4514 25.4533 68.4421 25.584H62.7441V24.674H67.3081C67.2894 23.9553 67.0794 23.4093 66.6781 23.036C66.2861 22.6533 65.7961 22.462 65.2081 22.462C64.8161 22.462 64.4521 22.56 64.1161 22.756C63.7894 22.9427 63.5234 23.2227 63.3181 23.596C63.1128 23.9693 63.0101 24.436 63.0101 24.996V25.388C63.0101 26.004 63.1128 26.522 63.3181 26.942C63.5234 27.3527 63.7894 27.6607 64.1161 27.866C64.4521 28.0713 64.8161 28.174 65.2081 28.174C65.7308 28.174 66.1414 28.076 66.4401 27.88C66.7388 27.6747 66.9581 27.3853 67.0981 27.012H68.2601C68.1481 27.4227 67.9521 27.7913 67.6721 28.118C67.4014 28.4447 67.0561 28.7013 66.6361 28.888C66.2254 29.0747 65.7494 29.168 65.2081 29.168ZM70.0858 32.08V21.636H71.1498L71.2478 22.784C71.3971 22.5413 71.5838 22.322 71.8078 22.126C72.0411 21.93 72.3165 21.7713 72.6338 21.65C72.9605 21.5287 73.3338 21.468 73.7538 21.468C74.4165 21.468 74.9951 21.636 75.4898 21.972C75.9938 22.308 76.3858 22.7653 76.6658 23.344C76.9458 23.9227 77.0858 24.5853 77.0858 25.332C77.0858 26.0693 76.9458 26.7273 76.6658 27.306C76.3858 27.8847 75.9938 28.342 75.4898 28.678C74.9858 29.0047 74.4025 29.168 73.7398 29.168C73.1705 29.168 72.6711 29.0513 72.2418 28.818C71.8125 28.5847 71.4858 28.258 71.2618 27.838V32.08H70.0858ZM73.5998 28.146C74.0385 28.146 74.4258 28.034 74.7618 27.81C75.1071 27.5767 75.3778 27.25 75.5738 26.83C75.7791 26.4007 75.8818 25.8967 75.8818 25.318C75.8818 24.7393 75.7791 24.24 75.5738 23.82C75.3778 23.3907 75.1071 23.064 74.7618 22.84C74.4258 22.6067 74.0385 22.49 73.5998 22.49C73.1331 22.49 72.7271 22.6067 72.3818 22.84C72.0365 23.064 71.7705 23.3907 71.5838 23.82C71.3971 24.24 71.3038 24.7393 71.3038 25.318C71.3038 25.8967 71.3971 26.4007 71.5838 26.83C71.7705 27.25 72.0365 27.5767 72.3818 27.81C72.7271 28.034 73.1331 28.146 73.5998 28.146ZM81.4548 29.168C80.7921 29.168 80.2414 29.07 79.8028 28.874C79.3734 28.6687 79.0468 28.3887 78.8228 28.034C78.5988 27.67 78.4634 27.25 78.4168 26.774H79.6208C79.6581 27.026 79.7421 27.2593 79.8728 27.474C80.0128 27.6793 80.2134 27.8473 80.4748 27.978C80.7361 28.1087 81.0674 28.174 81.4688 28.174C81.7861 28.174 82.0568 28.1273 82.2808 28.034C82.5048 27.9313 82.6728 27.7913 82.7848 27.614C82.9061 27.4367 82.9668 27.2313 82.9668 26.998C82.9668 26.69 82.8968 26.452 82.7568 26.284C82.6261 26.1067 82.4301 25.976 82.1688 25.892C81.9168 25.7987 81.5994 25.7287 81.2168 25.682C80.8061 25.626 80.4421 25.5467 80.1248 25.444C79.8074 25.3413 79.5368 25.206 79.3128 25.038C79.0981 24.87 78.9348 24.66 78.8228 24.408C78.7108 24.156 78.6548 23.8573 78.6548 23.512C78.6548 23.1107 78.7621 22.756 78.9768 22.448C79.1914 22.14 79.4948 21.902 79.8868 21.734C80.2881 21.5567 80.7594 21.468 81.3008 21.468C82.0941 21.468 82.7194 21.65 83.1768 22.014C83.6434 22.378 83.9188 22.896 84.0028 23.568H82.8408C82.7941 23.2227 82.6354 22.952 82.3648 22.756C82.0941 22.56 81.7348 22.462 81.2868 22.462C80.8108 22.462 80.4514 22.5507 80.2088 22.728C79.9661 22.9053 79.8448 23.1387 79.8448 23.428C79.8448 23.6427 79.8961 23.8387 79.9988 24.016C80.1108 24.184 80.2974 24.3287 80.5588 24.45C80.8201 24.562 81.1701 24.646 81.6088 24.702C82.1594 24.7673 82.6261 24.8747 83.0088 25.024C83.3914 25.164 83.6808 25.3833 83.8768 25.682C84.0821 25.9807 84.1801 26.3867 84.1708 26.9C84.1708 27.3853 84.0541 27.796 83.8208 28.132C83.5968 28.468 83.2794 28.7247 82.8688 28.902C82.4674 29.0793 81.9961 29.168 81.4548 29.168ZM85.9178 30.61V29.504H92.7638V30.61H85.9178ZM94.7499 32.08V21.636H95.8139L95.9119 22.784C96.0612 22.5413 96.2479 22.322 96.4719 22.126C96.7052 21.93 96.9805 21.7713 97.2979 21.65C97.6245 21.5287 97.9979 21.468 98.4179 21.468C99.0805 21.468 99.6592 21.636 100.154 21.972C100.658 22.308 101.05 22.7653 101.33 23.344C101.61 23.9227 101.75 24.5853 101.75 25.332C101.75 26.0693 101.61 26.7273 101.33 27.306C101.05 27.8847 100.658 28.342 100.154 28.678C99.6499 29.0047 99.0665 29.168 98.4039 29.168C97.8345 29.168 97.3352 29.0513 96.9059 28.818C96.4765 28.5847 96.1499 28.258 95.9259 27.838V32.08H94.7499ZM98.2639 28.146C98.7025 28.146 99.0899 28.034 99.4259 27.81C99.7712 27.5767 100.042 27.25 100.238 26.83C100.443 26.4007 100.546 25.8967 100.546 25.318C100.546 24.7393 100.443 24.24 100.238 23.82C100.042 23.3907 99.7712 23.064 99.4259 22.84C99.0899 22.6067 98.7025 22.49 98.2639 22.49C97.7972 22.49 97.3912 22.6067 97.0459 22.84C96.7005 23.064 96.4345 23.3907 96.2479 23.82C96.0612 24.24 95.9679 24.7393 95.9679 25.318C95.9679 25.8967 96.0612 26.4007 96.2479 26.83C96.4345 27.25 96.7005 27.5767 97.0459 27.81C97.3912 28.034 97.7972 28.146 98.2639 28.146ZM106.511 29.168C105.858 29.168 105.279 29.0093 104.775 28.692C104.271 28.3747 103.874 27.9267 103.585 27.348C103.305 26.7693 103.165 26.0927 103.165 25.318C103.165 24.5433 103.305 23.8667 103.585 23.288C103.874 22.7093 104.271 22.2613 104.775 21.944C105.288 21.6267 105.876 21.468 106.539 21.468C107.248 21.468 107.841 21.6267 108.317 21.944C108.793 22.2613 109.152 22.686 109.395 23.218C109.638 23.75 109.759 24.3333 109.759 24.968C109.759 25.0613 109.759 25.1547 109.759 25.248C109.759 25.3413 109.754 25.4533 109.745 25.584H104.047V24.674H108.611C108.592 23.9553 108.382 23.4093 107.981 23.036C107.589 22.6533 107.099 22.462 106.511 22.462C106.119 22.462 105.755 22.56 105.419 22.756C105.092 22.9427 104.826 23.2227 104.621 23.596C104.416 23.9693 104.313 24.436 104.313 24.996V25.388C104.313 26.004 104.416 26.522 104.621 26.942C104.826 27.3527 105.092 27.6607 105.419 27.866C105.755 28.0713 106.119 28.174 106.511 28.174C107.034 28.174 107.444 28.076 107.743 27.88C108.042 27.6747 108.261 27.3853 108.401 27.012H109.563C109.451 27.4227 109.255 27.7913 108.975 28.118C108.704 28.4447 108.359 28.7013 107.939 28.888C107.528 29.0747 107.052 29.168 106.511 29.168ZM111.389 29V21.636H112.453L112.537 22.98C112.705 22.644 112.924 22.364 113.195 22.14C113.465 21.916 113.792 21.748 114.175 21.636C114.567 21.524 115.005 21.468 115.491 21.468V22.7H114.763C114.483 22.7 114.212 22.7373 113.951 22.812C113.689 22.8867 113.451 23.008 113.237 23.176C113.031 23.344 112.868 23.5727 112.747 23.862C112.625 24.1513 112.565 24.5153 112.565 24.954V29H111.389ZM116.844 30.61V29.504H123.69V30.61H116.844ZM128.336 29.168C127.673 29.168 127.122 29.07 126.684 28.874C126.254 28.6687 125.928 28.3887 125.704 28.034C125.48 27.67 125.344 27.25 125.298 26.774H126.502C126.539 27.026 126.623 27.2593 126.754 27.474C126.894 27.6793 127.094 27.8473 127.356 27.978C127.617 28.1087 127.948 28.174 128.35 28.174C128.667 28.174 128.938 28.1273 129.162 28.034C129.386 27.9313 129.554 27.7913 129.666 27.614C129.787 27.4367 129.848 27.2313 129.848 26.998C129.848 26.69 129.778 26.452 129.638 26.284C129.507 26.1067 129.311 25.976 129.05 25.892C128.798 25.7987 128.48 25.7287 128.098 25.682C127.687 25.626 127.323 25.5467 127.006 25.444C126.688 25.3413 126.418 25.206 126.194 25.038C125.979 24.87 125.816 24.66 125.704 24.408C125.592 24.156 125.536 23.8573 125.536 23.512C125.536 23.1107 125.643 22.756 125.858 22.448C126.072 22.14 126.376 21.902 126.768 21.734C127.169 21.5567 127.64 21.468 128.182 21.468C128.975 21.468 129.6 21.65 130.058 22.014C130.524 22.378 130.8 22.896 130.884 23.568H129.722C129.675 23.2227 129.516 22.952 129.246 22.756C128.975 22.56 128.616 22.462 128.168 22.462C127.692 22.462 127.332 22.5507 127.09 22.728C126.847 22.9053 126.726 23.1387 126.726 23.428C126.726 23.6427 126.777 23.8387 126.88 24.016C126.992 24.184 127.178 24.3287 127.44 24.45C127.701 24.562 128.051 24.646 128.49 24.702C129.04 24.7673 129.507 24.8747 129.89 25.024C130.272 25.164 130.562 25.3833 130.758 25.682C130.963 25.9807 131.061 26.3867 131.052 26.9C131.052 27.3853 130.935 27.796 130.702 28.132C130.478 28.468 130.16 28.7247 129.75 28.902C129.348 29.0793 128.877 29.168 128.336 29.168ZM135.851 29.168C135.197 29.168 134.619 29.0093 134.115 28.692C133.611 28.3747 133.214 27.9267 132.925 27.348C132.645 26.7693 132.505 26.0927 132.505 25.318C132.505 24.5433 132.645 23.8667 132.925 23.288C133.214 22.7093 133.611 22.2613 134.115 21.944C134.628 21.6267 135.216 21.468 135.879 21.468C136.588 21.468 137.181 21.6267 137.657 21.944C138.133 22.2613 138.492 22.686 138.735 23.218C138.977 23.75 139.099 24.3333 139.099 24.968C139.099 25.0613 139.099 25.1547 139.099 25.248C139.099 25.3413 139.094 25.4533 139.085 25.584H133.387V24.674H137.951C137.932 23.9553 137.722 23.4093 137.321 23.036C136.929 22.6533 136.439 22.462 135.851 22.462C135.459 22.462 135.095 22.56 134.759 22.756C134.432 22.9427 134.166 23.2227 133.961 23.596C133.755 23.9693 133.653 24.436 133.653 24.996V25.388C133.653 26.004 133.755 26.522 133.961 26.942C134.166 27.3527 134.432 27.6607 134.759 27.866C135.095 28.0713 135.459 28.174 135.851 28.174C136.373 28.174 136.784 28.076 137.083 27.88C137.381 27.6747 137.601 27.3853 137.741 27.012H138.903C138.791 27.4227 138.595 27.7913 138.315 28.118C138.044 28.4447 137.699 28.7013 137.279 28.888C136.868 29.0747 136.392 29.168 135.851 29.168ZM143.906 29.168C143.234 29.168 142.637 29.0093 142.114 28.692C141.592 28.3653 141.181 27.9127 140.882 27.334C140.584 26.7553 140.434 26.0833 140.434 25.318C140.434 24.5433 140.584 23.8713 140.882 23.302C141.181 22.7233 141.592 22.2753 142.114 21.958C142.637 21.6313 143.234 21.468 143.906 21.468C144.746 21.468 145.446 21.692 146.006 22.14C146.576 22.588 146.94 23.19 147.098 23.946H145.894C145.792 23.4793 145.554 23.12 145.18 22.868C144.816 22.6067 144.387 22.476 143.892 22.476C143.463 22.476 143.076 22.5833 142.73 22.798C142.394 23.0127 142.128 23.33 141.932 23.75C141.736 24.17 141.638 24.6927 141.638 25.318C141.638 25.7847 141.694 26.2 141.806 26.564C141.918 26.9187 142.072 27.2173 142.268 27.46C142.474 27.6933 142.712 27.8707 142.982 27.992C143.262 28.1133 143.566 28.174 143.892 28.174C144.228 28.174 144.532 28.118 144.802 28.006C145.082 27.8847 145.316 27.712 145.502 27.488C145.698 27.264 145.829 26.998 145.894 26.69H147.098C146.949 27.4273 146.585 28.0247 146.006 28.482C145.437 28.9393 144.737 29.168 143.906 29.168ZM151.972 29.168C151.291 29.168 150.689 29.0093 150.166 28.692C149.644 28.3747 149.238 27.9267 148.948 27.348C148.659 26.7693 148.514 26.0927 148.514 25.318C148.514 24.534 148.659 23.8573 148.948 23.288C149.247 22.7093 149.658 22.2613 150.18 21.944C150.712 21.6267 151.319 21.468 152 21.468C152.691 21.468 153.293 21.6267 153.806 21.944C154.329 22.2613 154.735 22.7093 155.024 23.288C155.314 23.8573 155.458 24.534 155.458 25.318C155.458 26.0927 155.309 26.7693 155.01 27.348C154.721 27.9267 154.315 28.3747 153.792 28.692C153.27 29.0093 152.663 29.168 151.972 29.168ZM151.972 28.16C152.402 28.16 152.789 28.0573 153.134 27.852C153.48 27.6373 153.75 27.32 153.946 26.9C154.152 26.4707 154.254 25.9433 154.254 25.318C154.254 24.6833 154.156 24.156 153.96 23.736C153.764 23.316 153.494 23.0033 153.148 22.798C152.812 22.5833 152.43 22.476 152 22.476C151.58 22.476 151.198 22.5833 150.852 22.798C150.507 23.0033 150.232 23.316 150.026 23.736C149.821 24.156 149.718 24.6833 149.718 25.318C149.718 25.9433 149.816 26.4707 150.012 26.9C150.218 27.32 150.488 27.6373 150.824 27.852C151.17 28.0573 151.552 28.16 151.972 28.16ZM157.162 29V21.636H158.226L158.282 22.798C158.497 22.378 158.805 22.0513 159.206 21.818C159.617 21.5847 160.088 21.468 160.62 21.468C161.161 21.468 161.633 21.5707 162.034 21.776C162.435 21.9813 162.748 22.294 162.972 22.714C163.196 23.134 163.308 23.666 163.308 24.31V29H162.132V24.436C162.132 23.7827 161.969 23.2927 161.642 22.966C161.325 22.6393 160.895 22.476 160.354 22.476C159.99 22.476 159.654 22.5647 159.346 22.742C159.038 22.91 158.791 23.162 158.604 23.498C158.427 23.834 158.338 24.2447 158.338 24.73V29H157.162ZM168.294 29.168C167.64 29.168 167.062 29 166.558 28.664C166.054 28.328 165.662 27.8707 165.382 27.292C165.102 26.704 164.962 26.0413 164.962 25.304C164.962 24.5573 165.102 23.8993 165.382 23.33C165.662 22.7513 166.054 22.2987 166.558 21.972C167.062 21.636 167.645 21.468 168.308 21.468C168.886 21.468 169.381 21.5847 169.792 21.818C170.212 22.0513 170.543 22.378 170.786 22.798V18.92H171.962V29H170.898L170.8 27.824C170.66 28.0573 170.473 28.2767 170.24 28.482C170.016 28.6873 169.74 28.8553 169.414 28.986C169.096 29.1073 168.723 29.168 168.294 29.168ZM168.448 28.146C168.914 28.146 169.32 28.034 169.666 27.81C170.011 27.5767 170.277 27.25 170.464 26.83C170.65 26.4007 170.744 25.8967 170.744 25.318C170.744 24.7393 170.65 24.24 170.464 23.82C170.277 23.3907 170.011 23.064 169.666 22.84C169.32 22.6067 168.914 22.49 168.448 22.49C168.009 22.49 167.617 22.6067 167.272 22.84C166.926 23.064 166.656 23.3907 166.46 23.82C166.264 24.24 166.166 24.7393 166.166 25.318C166.166 25.8967 166.264 26.4007 166.46 26.83C166.656 27.25 166.926 27.5767 167.272 27.81C167.617 28.034 168.009 28.146 168.448 28.146Z" fill="white"/>
<path d="M19.8 87V80.94L18.36 81.4V80.74L20.08 80H20.65V87H19.8ZM22.458 87.05C22.298 87.05 22.1613 86.9967 22.048 86.89C21.9413 86.7767 21.888 86.64 21.888 86.48C21.888 86.32 21.9413 86.1867 22.048 86.08C22.1613 85.9667 22.298 85.91 22.458 85.91C22.6313 85.91 22.768 85.9667 22.868 86.08C22.9746 86.1867 23.028 86.32 23.028 86.48C23.028 86.64 22.9746 86.7767 22.868 86.89C22.768 86.9967 22.6313 87.05 22.458 87.05ZM26.578 87.12C26.1114 87.12 25.7047 87.0367 25.358 86.87C25.018 86.7033 24.748 86.48 24.548 86.2C24.3547 85.9133 24.2347 85.5867 24.188 85.22H25.008C25.0814 85.5667 25.2514 85.85 25.518 86.07C25.7914 86.29 26.148 86.4 26.588 86.4C26.9147 86.4 27.1914 86.3267 27.418 86.18C27.6514 86.0267 27.8314 85.82 27.958 85.56C28.0847 85.2933 28.148 84.9967 28.148 84.67C28.148 84.3433 28.0847 84.0567 27.958 83.81C27.838 83.5567 27.6647 83.36 27.438 83.22C27.2114 83.0733 26.9447 83 26.638 83C26.2714 83 25.958 83.0733 25.698 83.22C25.4447 83.3667 25.248 83.5467 25.108 83.76H24.278L24.808 80H28.568V80.73H25.458L25.098 82.92C25.2647 82.7333 25.4847 82.5833 25.758 82.47C26.038 82.35 26.3614 82.29 26.728 82.29C27.068 82.29 27.3747 82.35 27.648 82.47C27.9214 82.59 28.1547 82.76 28.348 82.98C28.548 83.1933 28.698 83.4433 28.798 83.73C28.9047 84.0167 28.958 84.3267 28.958 84.66C28.958 84.9933 28.9014 85.31 28.788 85.61C28.6814 85.9033 28.5247 86.1633 28.318 86.39C28.118 86.6167 27.8714 86.7967 27.578 86.93C27.2847 87.0567 26.9514 87.12 26.578 87.12Z" fill="#77758D"/>
<path d="M27.8 131V124.94L26.36 125.4V124.74L28.08 124H28.65V131H27.8Z" fill="#77758D"/>
<path d="M18.29 175.12C17.71 175.12 17.21 174.97 16.79 174.67C16.3767 174.363 16.0567 173.94 15.83 173.4C15.6033 172.853 15.49 172.22 15.49 171.5C15.49 170.78 15.6033 170.15 15.83 169.61C16.0567 169.063 16.3767 168.64 16.79 168.34C17.21 168.033 17.71 167.88 18.29 167.88C18.87 167.88 19.3667 168.033 19.78 168.34C20.1933 168.64 20.51 169.063 20.73 169.61C20.9567 170.15 21.07 170.78 21.07 171.5C21.07 172.22 20.9567 172.853 20.73 173.4C20.51 173.94 20.1933 174.363 19.78 174.67C19.3667 174.97 18.87 175.12 18.29 175.12ZM18.29 174.38C18.6567 174.38 18.9833 174.267 19.27 174.04C19.5567 173.807 19.7833 173.477 19.95 173.05C20.1233 172.617 20.21 172.1 20.21 171.5C20.21 170.893 20.1233 170.377 19.95 169.95C19.7833 169.523 19.5567 169.197 19.27 168.97C18.9833 168.743 18.6567 168.63 18.29 168.63C17.9167 168.63 17.5833 168.743 17.29 168.97C16.9967 169.197 16.7667 169.523 16.6 169.95C16.4333 170.377 16.35 170.893 16.35 171.5C16.35 172.1 16.4333 172.617 16.6 173.05C16.7667 173.477 16.9967 173.807 17.29 174.04C17.5833 174.267 17.9167 174.38 18.29 174.38ZM22.2021 175.05C22.0421 175.05 21.9054 174.997 21.7921 174.89C21.6854 174.777 21.6321 174.64 21.6321 174.48C21.6321 174.32 21.6854 174.187 21.7921 174.08C21.9054 173.967 22.0421 173.91 22.2021 173.91C22.3754 173.91 22.5121 173.967 22.6121 174.08C22.7188 174.187 22.7721 174.32 22.7721 174.48C22.7721 174.64 22.7188 174.777 22.6121 174.89C22.5121 174.997 22.3754 175.05 22.2021 175.05ZM26.3222 175.12C25.8555 175.12 25.4489 175.037 25.1022 174.87C24.7622 174.703 24.4922 174.48 24.2922 174.2C24.0989 173.913 23.9789 173.587 23.9322 173.22H24.7522C24.8255 173.567 24.9955 173.85 25.2622 174.07C25.5355 174.29 25.8922 174.4 26.3322 174.4C26.6589 174.4 26.9355 174.327 27.1622 174.18C27.3955 174.027 27.5755 173.82 27.7022 173.56C27.8289 173.293 27.8922 172.997 27.8922 172.67C27.8922 172.343 27.8289 172.057 27.7022 171.81C27.5822 171.557 27.4089 171.36 27.1822 171.22C26.9555 171.073 26.6889 171 26.3822 171C26.0155 171 25.7022 171.073 25.4422 171.22C25.1889 171.367 24.9922 171.547 24.8522 171.76H24.0222L24.5522 168H28.3122V168.73H25.2022L24.8422 170.92C25.0089 170.733 25.2289 170.583 25.5022 170.47C25.7822 170.35 26.1055 170.29 26.4722 170.29C26.8122 170.29 27.1189 170.35 27.3922 170.47C27.6655 170.59 27.8989 170.76 28.0922 170.98C28.2922 171.193 28.4422 171.443 28.5422 171.73C28.6489 172.017 28.7022 172.327 28.7022 172.66C28.7022 172.993 28.6455 173.31 28.5322 173.61C28.4255 173.903 28.2689 174.163 28.0622 174.39C27.8622 174.617 27.6155 174.797 27.3222 174.93C27.0289 175.057 26.6955 175.12 26.3222 175.12Z" fill="#77758D"/>
<line x1="166.75" y1="215.75" x2="166.75" y2="48.25" stroke="#343246" stroke-width="0.5" stroke-linecap="round" stroke-dasharray="4 4"/>
<line x1="102.75" y1="215.75" x2="102.75" y2="48.25" stroke="#343246" stroke-width="0.5" stroke-linecap="round" stroke-dasharray="4 4"/>
<line x1="40.75" y1="215.75" x2="40.75" y2="48.25" stroke="#343246" stroke-width="0.5" stroke-linecap="round" stroke-dasharray="4 4"/>
<line x1="231.75" y1="215.75" x2="231.75" y2="48.25" stroke="#343246" stroke-width="0.5" stroke-linecap="round" stroke-dasharray="4 4"/>
<line x1="297.75" y1="215.75" x2="297.75" y2="48.25" stroke="#343246" stroke-width="0.5" stroke-linecap="round" stroke-dasharray="4 4"/>
<line x1="323.75" y1="152.25" x2="33.25" y2="152.25" stroke="#343246" stroke-width="0.5" stroke-linecap="round" stroke-dasharray="4 4"/>
<line x1="323.75" y1="120.25" x2="33.25" y2="120.25" stroke="#343246" stroke-width="0.5" stroke-linecap="round" stroke-dasharray="4 4"/>
<line x1="323.75" y1="88.25" x2="33.25" y2="88.25" stroke="#343246" stroke-width="0.5" stroke-linecap="round" stroke-dasharray="4 4"/>
<line x1="323.75" y1="56.25" x2="33.25" y2="56.25" stroke="#343246" stroke-width="0.5" stroke-linecap="round" stroke-dasharray="4 4"/>
<path d="M41 152H318" stroke="#D9A215" stroke-linecap="round"/>
<path d="M41 66H100.008" stroke="#2EBBBF" stroke-linecap="round"/>
<path d="M41 53H100.008" stroke="#8471FA" stroke-linecap="round"/>
<circle cx="100.004" cy="66" r="5" fill="#2EBBBF"/>
<circle cx="100.004" cy="66" r="4" fill="#1A182B"/>
<circle cx="100.004" cy="53" r="5" fill="#8471FA"/>
<circle cx="100.004" cy="53" r="4" fill="#1A182B"/>
<circle cx="318" cy="152" r="5" fill="#D9A215"/>
<circle cx="318" cy="152" r="4" fill="#1A182B"/>
<rect x="235" y="18" width="2" height="6" rx="1" fill="#8471FA"/>
<path d="M243.2 24L241.28 17H242.18L243.69 23L245.4 17H246.34L248.01 23.02L249.54 17H250.44L248.48 24H247.52L245.85 18.21L244.14 24H243.2ZM251.407 24V16.8H252.247V19.59C252.421 19.29 252.657 19.0533 252.957 18.88C253.257 18.7067 253.581 18.62 253.927 18.62C254.334 18.62 254.677 18.6967 254.957 18.85C255.244 18.9967 255.461 19.2233 255.607 19.53C255.761 19.8367 255.837 20.2267 255.837 20.7V24H255.007V20.79C255.007 20.31 254.894 19.95 254.667 19.71C254.441 19.4633 254.134 19.34 253.747 19.34C253.474 19.34 253.224 19.4067 252.997 19.54C252.771 19.6667 252.587 19.8567 252.447 20.11C252.314 20.3633 252.247 20.67 252.247 21.03V24H251.407ZM257.308 24V18.74H258.148V24H257.308ZM257.728 17.74C257.561 17.74 257.421 17.6867 257.308 17.58C257.201 17.4667 257.148 17.3267 257.148 17.16C257.148 16.9933 257.201 16.86 257.308 16.76C257.421 16.6533 257.561 16.6 257.728 16.6C257.888 16.6 258.024 16.6533 258.138 16.76C258.251 16.86 258.308 16.9933 258.308 17.16C258.308 17.3267 258.251 17.4667 258.138 17.58C258.024 17.6867 257.888 17.74 257.728 17.74ZM261.54 24.12C261.066 24.12 260.673 24.05 260.36 23.91C260.053 23.7633 259.82 23.5633 259.66 23.31C259.5 23.05 259.403 22.75 259.37 22.41H260.23C260.256 22.59 260.316 22.7567 260.41 22.91C260.51 23.0567 260.653 23.1767 260.84 23.27C261.026 23.3633 261.263 23.41 261.55 23.41C261.776 23.41 261.97 23.3767 262.13 23.31C262.29 23.2367 262.41 23.1367 262.49 23.01C262.576 22.8833 262.62 22.7367 262.62 22.57C262.62 22.35 262.57 22.18 262.47 22.06C262.376 21.9333 262.236 21.84 262.05 21.78C261.87 21.7133 261.643 21.6633 261.37 21.63C261.076 21.59 260.816 21.5333 260.59 21.46C260.363 21.3867 260.17 21.29 260.01 21.17C259.856 21.05 259.74 20.9 259.66 20.72C259.58 20.54 259.54 20.3267 259.54 20.08C259.54 19.7933 259.616 19.54 259.77 19.32C259.923 19.1 260.14 18.93 260.42 18.81C260.706 18.6833 261.043 18.62 261.43 18.62C261.996 18.62 262.443 18.75 262.77 19.01C263.103 19.27 263.3 19.64 263.36 20.12H262.53C262.496 19.8733 262.383 19.68 262.19 19.54C261.996 19.4 261.74 19.33 261.42 19.33C261.08 19.33 260.823 19.3933 260.65 19.52C260.476 19.6467 260.39 19.8133 260.39 20.02C260.39 20.1733 260.426 20.3133 260.5 20.44C260.58 20.56 260.713 20.6633 260.9 20.75C261.086 20.83 261.336 20.89 261.65 20.93C262.043 20.9767 262.376 21.0533 262.65 21.16C262.923 21.26 263.13 21.4167 263.27 21.63C263.416 21.8433 263.486 22.1333 263.48 22.5C263.48 22.8467 263.396 23.14 263.23 23.38C263.07 23.62 262.843 23.8033 262.55 23.93C262.263 24.0567 261.926 24.12 261.54 24.12ZM264.728 26.2V18.74H265.488L265.558 19.56C265.664 19.3867 265.798 19.23 265.958 19.09C266.124 18.95 266.321 18.8367 266.548 18.75C266.781 18.6633 267.048 18.62 267.348 18.62C267.821 18.62 268.234 18.74 268.588 18.98C268.948 19.22 269.228 19.5467 269.428 19.96C269.628 20.3733 269.728 20.8467 269.728 21.38C269.728 21.9067 269.628 22.3767 269.428 22.79C269.228 23.2033 268.948 23.53 268.588 23.77C268.228 24.0033 267.811 24.12 267.338 24.12C266.931 24.12 266.574 24.0367 266.268 23.87C265.961 23.7033 265.728 23.47 265.568 23.17V26.2H264.728ZM267.238 23.39C267.551 23.39 267.828 23.31 268.068 23.15C268.314 22.9833 268.508 22.75 268.648 22.45C268.794 22.1433 268.868 21.7833 268.868 21.37C268.868 20.9567 268.794 20.6 268.648 20.3C268.508 19.9933 268.314 19.76 268.068 19.6C267.828 19.4333 267.551 19.35 267.238 19.35C266.904 19.35 266.614 19.4333 266.368 19.6C266.121 19.76 265.931 19.9933 265.798 20.3C265.664 20.6 265.598 20.9567 265.598 21.37C265.598 21.7833 265.664 22.1433 265.798 22.45C265.931 22.75 266.121 22.9833 266.368 23.15C266.614 23.31 266.904 23.39 267.238 23.39ZM273.128 24.12C272.662 24.12 272.248 24.0067 271.888 23.78C271.528 23.5533 271.245 23.2333 271.038 22.82C270.838 22.4067 270.738 21.9233 270.738 21.37C270.738 20.8167 270.838 20.3333 271.038 19.92C271.245 19.5067 271.528 19.1867 271.888 18.96C272.255 18.7333 272.675 18.62 273.148 18.62C273.655 18.62 274.078 18.7333 274.418 18.96C274.758 19.1867 275.015 19.49 275.188 19.87C275.362 20.25 275.448 20.6667 275.448 21.12C275.448 21.1867 275.448 21.2533 275.448 21.32C275.448 21.3867 275.445 21.4667 275.438 21.56H271.368V20.91H274.628C274.615 20.3967 274.465 20.0067 274.178 19.74C273.898 19.4667 273.548 19.33 273.128 19.33C272.848 19.33 272.588 19.4 272.348 19.54C272.115 19.6733 271.925 19.8733 271.778 20.14C271.632 20.4067 271.558 20.74 271.558 21.14V21.42C271.558 21.86 271.632 22.23 271.778 22.53C271.925 22.8233 272.115 23.0433 272.348 23.19C272.588 23.3367 272.848 23.41 273.128 23.41C273.502 23.41 273.795 23.34 274.008 23.2C274.222 23.0533 274.378 22.8467 274.478 22.58H275.308C275.228 22.8733 275.088 23.1367 274.888 23.37C274.695 23.6033 274.448 23.7867 274.148 23.92C273.855 24.0533 273.515 24.12 273.128 24.12ZM276.612 24V18.74H277.372L277.432 19.7C277.552 19.46 277.709 19.26 277.902 19.1C278.096 18.94 278.329 18.82 278.602 18.74C278.882 18.66 279.196 18.62 279.542 18.62V19.5H279.022C278.822 19.5 278.629 19.5267 278.442 19.58C278.256 19.6333 278.086 19.72 277.932 19.84C277.786 19.96 277.669 20.1233 277.582 20.33C277.496 20.5367 277.452 20.7967 277.452 21.11V24H276.612ZM280.509 25.15V24.36H285.399V25.15H280.509ZM288.857 24C288.557 24 288.297 23.9533 288.077 23.86C287.857 23.7667 287.687 23.61 287.567 23.39C287.454 23.1633 287.397 22.86 287.397 22.48V19.45H286.477V18.74H287.397L287.507 17.43H288.237V18.74H289.727V19.45H288.237V22.48C288.237 22.7933 288.301 23.0067 288.427 23.12C288.554 23.2267 288.777 23.28 289.097 23.28H289.707V24H288.857ZM290.96 24V18.74H291.8V24H290.96ZM291.38 17.74C291.213 17.74 291.073 17.6867 290.96 17.58C290.853 17.4667 290.8 17.3267 290.8 17.16C290.8 16.9933 290.853 16.86 290.96 16.76C291.073 16.6533 291.213 16.6 291.38 16.6C291.54 16.6 291.677 16.6533 291.79 16.76C291.903 16.86 291.96 16.9933 291.96 17.16C291.96 17.3267 291.903 17.4667 291.79 17.58C291.677 17.6867 291.54 17.74 291.38 17.74ZM293.292 24V18.74H294.052L294.092 19.57C294.245 19.27 294.465 19.0367 294.752 18.87C295.045 18.7033 295.382 18.62 295.762 18.62C296.149 18.62 296.485 18.6933 296.772 18.84C297.059 18.9867 297.282 19.21 297.442 19.51C297.602 19.81 297.682 20.19 297.682 20.65V24H296.842V20.74C296.842 20.2733 296.725 19.9233 296.492 19.69C296.265 19.4567 295.959 19.34 295.572 19.34C295.312 19.34 295.072 19.4033 294.852 19.53C294.632 19.65 294.455 19.83 294.322 20.07C294.195 20.31 294.132 20.6033 294.132 20.95V24H293.292ZM299.517 26.2L300.707 23.44H300.417L298.447 18.74H299.357L300.987 22.79L302.687 18.74H303.557L300.387 26.2H299.517Z" fill="#8471FA"/>
<rect x="235" y="34" width="2" height="6" rx="1" fill="#2EBBBF"/>
<path d="M243.2 40L241.28 33H242.18L243.69 39L245.4 33H246.34L248.01 39.02L249.54 33H250.44L248.48 40H247.52L245.85 34.21L244.14 40H243.2ZM251.407 40V32.8H252.247V35.59C252.421 35.29 252.657 35.0533 252.957 34.88C253.257 34.7067 253.581 34.62 253.927 34.62C254.334 34.62 254.677 34.6967 254.957 34.85C255.244 34.9967 255.461 35.2233 255.607 35.53C255.761 35.8367 255.837 36.2267 255.837 36.7V40H255.007V36.79C255.007 36.31 254.894 35.95 254.667 35.71C254.441 35.4633 254.134 35.34 253.747 35.34C253.474 35.34 253.224 35.4067 252.997 35.54C252.771 35.6667 252.587 35.8567 252.447 36.11C252.314 36.3633 252.247 36.67 252.247 37.03V40H251.407ZM257.308 40V34.74H258.148V40H257.308ZM257.728 33.74C257.561 33.74 257.421 33.6867 257.308 33.58C257.201 33.4667 257.148 33.3267 257.148 33.16C257.148 32.9933 257.201 32.86 257.308 32.76C257.421 32.6533 257.561 32.6 257.728 32.6C257.888 32.6 258.024 32.6533 258.138 32.76C258.251 32.86 258.308 32.9933 258.308 33.16C258.308 33.3267 258.251 33.4667 258.138 33.58C258.024 33.6867 257.888 33.74 257.728 33.74ZM261.54 40.12C261.066 40.12 260.673 40.05 260.36 39.91C260.053 39.7633 259.82 39.5633 259.66 39.31C259.5 39.05 259.403 38.75 259.37 38.41H260.23C260.256 38.59 260.316 38.7567 260.41 38.91C260.51 39.0567 260.653 39.1767 260.84 39.27C261.026 39.3633 261.263 39.41 261.55 39.41C261.776 39.41 261.97 39.3767 262.13 39.31C262.29 39.2367 262.41 39.1367 262.49 39.01C262.576 38.8833 262.62 38.7367 262.62 38.57C262.62 38.35 262.57 38.18 262.47 38.06C262.376 37.9333 262.236 37.84 262.05 37.78C261.87 37.7133 261.643 37.6633 261.37 37.63C261.076 37.59 260.816 37.5333 260.59 37.46C260.363 37.3867 260.17 37.29 260.01 37.17C259.856 37.05 259.74 36.9 259.66 36.72C259.58 36.54 259.54 36.3267 259.54 36.08C259.54 35.7933 259.616 35.54 259.77 35.32C259.923 35.1 260.14 34.93 260.42 34.81C260.706 34.6833 261.043 34.62 261.43 34.62C261.996 34.62 262.443 34.75 262.77 35.01C263.103 35.27 263.3 35.64 263.36 36.12H262.53C262.496 35.8733 262.383 35.68 262.19 35.54C261.996 35.4 261.74 35.33 261.42 35.33C261.08 35.33 260.823 35.3933 260.65 35.52C260.476 35.6467 260.39 35.8133 260.39 36.02C260.39 36.1733 260.426 36.3133 260.5 36.44C260.58 36.56 260.713 36.6633 260.9 36.75C261.086 36.83 261.336 36.89 261.65 36.93C262.043 36.9767 262.376 37.0533 262.65 37.16C262.923 37.26 263.13 37.4167 263.27 37.63C263.416 37.8433 263.486 38.1333 263.48 38.5C263.48 38.8467 263.396 39.14 263.23 39.38C263.07 39.62 262.843 39.8033 262.55 39.93C262.263 40.0567 261.926 40.12 261.54 40.12ZM264.728 40V32.8H265.568V35.59C265.741 35.29 265.978 35.0533 266.278 34.88C266.578 34.7067 266.901 34.62 267.248 34.62C267.654 34.62 267.998 34.6967 268.278 34.85C268.564 34.9967 268.781 35.2233 268.928 35.53C269.081 35.8367 269.158 36.2267 269.158 36.7V40H268.328V36.79C268.328 36.31 268.214 35.95 267.988 35.71C267.761 35.4633 267.454 35.34 267.068 35.34C266.794 35.34 266.544 35.4067 266.318 35.54C266.091 35.6667 265.908 35.8567 265.768 36.11C265.634 36.3633 265.568 36.67 265.568 37.03V40H264.728ZM270.548 42.2V34.74H271.308L271.378 35.56C271.485 35.3867 271.618 35.23 271.778 35.09C271.945 34.95 272.141 34.8367 272.368 34.75C272.601 34.6633 272.868 34.62 273.168 34.62C273.641 34.62 274.055 34.74 274.408 34.98C274.768 35.22 275.048 35.5467 275.248 35.96C275.448 36.3733 275.548 36.8467 275.548 37.38C275.548 37.9067 275.448 38.3767 275.248 38.79C275.048 39.2033 274.768 39.53 274.408 39.77C274.048 40.0033 273.631 40.12 273.158 40.12C272.751 40.12 272.395 40.0367 272.088 39.87C271.781 39.7033 271.548 39.47 271.388 39.17V42.2H270.548ZM273.058 39.39C273.371 39.39 273.648 39.31 273.888 39.15C274.135 38.9833 274.328 38.75 274.468 38.45C274.615 38.1433 274.688 37.7833 274.688 37.37C274.688 36.9567 274.615 36.6 274.468 36.3C274.328 35.9933 274.135 35.76 273.888 35.6C273.648 35.4333 273.371 35.35 273.058 35.35C272.725 35.35 272.435 35.4333 272.188 35.6C271.941 35.76 271.751 35.9933 271.618 36.3C271.485 36.6 271.418 36.9567 271.418 37.37C271.418 37.7833 271.485 38.1433 271.618 38.45C271.751 38.75 271.941 38.9833 272.188 39.15C272.435 39.31 272.725 39.39 273.058 39.39ZM278.949 40.12C278.482 40.12 278.069 40.0067 277.709 39.78C277.349 39.5533 277.065 39.2333 276.859 38.82C276.659 38.4067 276.559 37.9233 276.559 37.37C276.559 36.8167 276.659 36.3333 276.859 35.92C277.065 35.5067 277.349 35.1867 277.709 34.96C278.075 34.7333 278.495 34.62 278.969 34.62C279.475 34.62 279.899 34.7333 280.239 34.96C280.579 35.1867 280.835 35.49 281.009 35.87C281.182 36.25 281.269 36.6667 281.269 37.12C281.269 37.1867 281.269 37.2533 281.269 37.32C281.269 37.3867 281.265 37.4667 281.259 37.56H277.189V36.91H280.449C280.435 36.3967 280.285 36.0067 279.999 35.74C279.719 35.4667 279.369 35.33 278.949 35.33C278.669 35.33 278.409 35.4 278.169 35.54C277.935 35.6733 277.745 35.8733 277.599 36.14C277.452 36.4067 277.379 36.74 277.379 37.14V37.42C277.379 37.86 277.452 38.23 277.599 38.53C277.745 38.8233 277.935 39.0433 278.169 39.19C278.409 39.3367 278.669 39.41 278.949 39.41C279.322 39.41 279.615 39.34 279.829 39.2C280.042 39.0533 280.199 38.8467 280.299 38.58H281.129C281.049 38.8733 280.909 39.1367 280.709 39.37C280.515 39.6033 280.269 39.7867 279.969 39.92C279.675 40.0533 279.335 40.12 278.949 40.12ZM282.433 40V34.74H283.193L283.253 35.7C283.373 35.46 283.529 35.26 283.723 35.1C283.916 34.94 284.149 34.82 284.423 34.74C284.703 34.66 285.016 34.62 285.363 34.62V35.5H284.843C284.643 35.5 284.449 35.5267 284.263 35.58C284.076 35.6333 283.906 35.72 283.753 35.84C283.606 35.96 283.489 36.1233 283.403 36.33C283.316 36.5367 283.273 36.7967 283.273 37.11V40H282.433ZM286.329 41.15V40.36H291.219V41.15H286.329ZM295.258 40.12C294.938 40.12 294.661 40.0733 294.428 39.98C294.201 39.88 294.008 39.7567 293.848 39.61C293.694 39.4633 293.568 39.32 293.468 39.18L293.398 40H292.638V32.8H293.478V35.57C293.638 35.2567 293.874 35.02 294.188 34.86C294.501 34.7 294.851 34.62 295.238 34.62C295.718 34.62 296.138 34.7367 296.498 34.97C296.858 35.2033 297.138 35.5267 297.338 35.94C297.538 36.3467 297.638 36.8167 297.638 37.35C297.638 37.8767 297.538 38.35 297.338 38.77C297.138 39.19 296.858 39.52 296.498 39.76C296.144 40 295.731 40.12 295.258 40.12ZM295.148 39.39C295.461 39.39 295.738 39.31 295.978 39.15C296.224 38.9833 296.418 38.75 296.558 38.45C296.704 38.1433 296.778 37.7833 296.778 37.37C296.778 36.9567 296.704 36.6 296.558 36.3C296.418 35.9933 296.224 35.76 295.978 35.6C295.738 35.4333 295.461 35.35 295.148 35.35C294.814 35.35 294.524 35.4333 294.278 35.6C294.031 35.76 293.841 35.9933 293.708 36.3C293.574 36.6 293.508 36.9567 293.508 37.37C293.508 37.7833 293.574 38.1433 293.708 38.45C293.841 38.75 294.031 38.9833 294.278 39.15C294.524 39.31 294.814 39.39 295.148 39.39ZM300.498 40.12C300.098 40.12 299.765 40.0467 299.498 39.9C299.232 39.7467 299.032 39.5467 298.898 39.3C298.765 39.0467 298.698 38.7767 298.698 38.49C298.698 38.1433 298.785 37.85 298.958 37.61C299.138 37.3633 299.388 37.1767 299.708 37.05C300.028 36.9233 300.402 36.86 300.828 36.86H302.138C302.138 36.52 302.098 36.2367 302.018 36.01C301.938 35.7833 301.808 35.6133 301.628 35.5C301.448 35.3867 301.208 35.33 300.908 35.33C300.608 35.33 300.352 35.4067 300.138 35.56C299.925 35.7067 299.792 35.9267 299.738 36.22H298.878C298.918 35.8733 299.035 35.5833 299.228 35.35C299.422 35.11 299.665 34.93 299.958 34.81C300.258 34.6833 300.575 34.62 300.908 34.62C301.382 34.62 301.772 34.7067 302.078 34.88C302.385 35.0467 302.612 35.2833 302.758 35.59C302.905 35.89 302.978 36.2467 302.978 36.66V40H302.228L302.178 39.1C302.112 39.24 302.025 39.3733 301.918 39.5C301.818 39.62 301.698 39.7267 301.558 39.82C301.418 39.9133 301.258 39.9867 301.078 40.04C300.905 40.0933 300.712 40.12 300.498 40.12ZM300.618 39.41C300.838 39.41 301.042 39.36 301.228 39.26C301.415 39.16 301.575 39.0267 301.708 38.86C301.848 38.6867 301.955 38.4933 302.028 38.28C302.102 38.0667 302.138 37.8433 302.138 37.61V37.51H300.898C300.585 37.51 300.328 37.55 300.128 37.63C299.935 37.71 299.795 37.8233 299.708 37.97C299.622 38.11 299.578 38.27 299.578 38.45C299.578 38.6433 299.618 38.8133 299.698 38.96C299.778 39.1 299.895 39.21 300.048 39.29C300.208 39.37 300.398 39.41 300.618 39.41ZM306.266 40.12C305.793 40.12 305.4 40.05 305.086 39.91C304.78 39.7633 304.546 39.5633 304.386 39.31C304.226 39.05 304.13 38.75 304.096 38.41H304.956C304.983 38.59 305.043 38.7567 305.136 38.91C305.236 39.0567 305.38 39.1767 305.566 39.27C305.753 39.3633 305.99 39.41 306.276 39.41C306.503 39.41 306.696 39.3767 306.856 39.31C307.016 39.2367 307.136 39.1367 307.216 39.01C307.303 38.8833 307.346 38.7367 307.346 38.57C307.346 38.35 307.296 38.18 307.196 38.06C307.103 37.9333 306.963 37.84 306.776 37.78C306.596 37.7133 306.37 37.6633 306.096 37.63C305.803 37.59 305.543 37.5333 305.316 37.46C305.09 37.3867 304.896 37.29 304.736 37.17C304.583 37.05 304.466 36.9 304.386 36.72C304.306 36.54 304.266 36.3267 304.266 36.08C304.266 35.7933 304.343 35.54 304.496 35.32C304.65 35.1 304.866 34.93 305.146 34.81C305.433 34.6833 305.77 34.62 306.156 34.62C306.723 34.62 307.17 34.75 307.496 35.01C307.83 35.27 308.026 35.64 308.086 36.12H307.256C307.223 35.8733 307.11 35.68 306.916 35.54C306.723 35.4 306.466 35.33 306.146 35.33C305.806 35.33 305.55 35.3933 305.376 35.52C305.203 35.6467 305.116 35.8133 305.116 36.02C305.116 36.1733 305.153 36.3133 305.226 36.44C305.306 36.56 305.44 36.6633 305.626 36.75C305.813 36.83 306.063 36.89 306.376 36.93C306.77 36.9767 307.103 37.0533 307.376 37.16C307.65 37.26 307.856 37.4167 307.996 37.63C308.143 37.8433 308.213 38.1333 308.206 38.5C308.206 38.8467 308.123 39.14 307.956 39.38C307.796 39.62 307.57 39.8033 307.276 39.93C306.99 40.0567 306.653 40.12 306.266 40.12ZM311.634 40.12C311.167 40.12 310.754 40.0067 310.394 39.78C310.034 39.5533 309.751 39.2333 309.544 38.82C309.344 38.4067 309.244 37.9233 309.244 37.37C309.244 36.8167 309.344 36.3333 309.544 35.92C309.751 35.5067 310.034 35.1867 310.394 34.96C310.761 34.7333 311.181 34.62 311.654 34.62C312.161 34.62 312.584 34.7333 312.924 34.96C313.264 35.1867 313.521 35.49 313.694 35.87C313.867 36.25 313.954 36.6667 313.954 37.12C313.954 37.1867 313.954 37.2533 313.954 37.32C313.954 37.3867 313.951 37.4667 313.944 37.56H309.874V36.91H313.134C313.121 36.3967 312.971 36.0067 312.684 35.74C312.404 35.4667 312.054 35.33 311.634 35.33C311.354 35.33 311.094 35.4 310.854 35.54C310.621 35.6733 310.431 35.8733 310.284 36.14C310.137 36.4067 310.064 36.74 310.064 37.14V37.42C310.064 37.86 310.137 38.23 310.284 38.53C310.431 38.8233 310.621 39.0433 310.854 39.19C311.094 39.3367 311.354 39.41 311.634 39.41C312.007 39.41 312.301 39.34 312.514 39.2C312.727 39.0533 312.884 38.8467 312.984 38.58H313.814C313.734 38.8733 313.594 39.1367 313.394 39.37C313.201 39.6033 312.954 39.7867 312.654 39.92C312.361 40.0533 312.021 40.12 311.634 40.12Z" fill="#2EBBBF"/>
<rect x="235" y="50" width="2" height="6" rx="1" fill="#FFAD32"/>
<path d="M243.2 56L241.28 49H242.18L243.69 55L245.4 49H246.34L248.01 55.02L249.54 49H250.44L248.48 56H247.52L245.85 50.21L244.14 56H243.2ZM251.407 56V48.8H252.247V51.59C252.421 51.29 252.657 51.0533 252.957 50.88C253.257 50.7067 253.581 50.62 253.927 50.62C254.334 50.62 254.677 50.6967 254.957 50.85C255.244 50.9967 255.461 51.2233 255.607 51.53C255.761 51.8367 255.837 52.2267 255.837 52.7V56H255.007V52.79C255.007 52.31 254.894 51.95 254.667 51.71C254.441 51.4633 254.134 51.34 253.747 51.34C253.474 51.34 253.224 51.4067 252.997 51.54C252.771 51.6667 252.587 51.8567 252.447 52.11C252.314 52.3633 252.247 52.67 252.247 53.03V56H251.407ZM257.308 56V50.74H258.148V56H257.308ZM257.728 49.74C257.561 49.74 257.421 49.6867 257.308 49.58C257.201 49.4667 257.148 49.3267 257.148 49.16C257.148 48.9933 257.201 48.86 257.308 48.76C257.421 48.6533 257.561 48.6 257.728 48.6C257.888 48.6 258.024 48.6533 258.138 48.76C258.251 48.86 258.308 48.9933 258.308 49.16C258.308 49.3267 258.251 49.4667 258.138 49.58C258.024 49.6867 257.888 49.74 257.728 49.74ZM261.54 56.12C261.066 56.12 260.673 56.05 260.36 55.91C260.053 55.7633 259.82 55.5633 259.66 55.31C259.5 55.05 259.403 54.75 259.37 54.41H260.23C260.256 54.59 260.316 54.7567 260.41 54.91C260.51 55.0567 260.653 55.1767 260.84 55.27C261.026 55.3633 261.263 55.41 261.55 55.41C261.776 55.41 261.97 55.3767 262.13 55.31C262.29 55.2367 262.41 55.1367 262.49 55.01C262.576 54.8833 262.62 54.7367 262.62 54.57C262.62 54.35 262.57 54.18 262.47 54.06C262.376 53.9333 262.236 53.84 262.05 53.78C261.87 53.7133 261.643 53.6633 261.37 53.63C261.076 53.59 260.816 53.5333 260.59 53.46C260.363 53.3867 260.17 53.29 260.01 53.17C259.856 53.05 259.74 52.9 259.66 52.72C259.58 52.54 259.54 52.3267 259.54 52.08C259.54 51.7933 259.616 51.54 259.77 51.32C259.923 51.1 260.14 50.93 260.42 50.81C260.706 50.6833 261.043 50.62 261.43 50.62C261.996 50.62 262.443 50.75 262.77 51.01C263.103 51.27 263.3 51.64 263.36 52.12H262.53C262.496 51.8733 262.383 51.68 262.19 51.54C261.996 51.4 261.74 51.33 261.42 51.33C261.08 51.33 260.823 51.3933 260.65 51.52C260.476 51.6467 260.39 51.8133 260.39 52.02C260.39 52.1733 260.426 52.3133 260.5 52.44C260.58 52.56 260.713 52.6633 260.9 52.75C261.086 52.83 261.336 52.89 261.65 52.93C262.043 52.9767 262.376 53.0533 262.65 53.16C262.923 53.26 263.13 53.4167 263.27 53.63C263.416 53.8433 263.486 54.1333 263.48 54.5C263.48 54.8467 263.396 55.14 263.23 55.38C263.07 55.62 262.843 55.8033 262.55 55.93C262.263 56.0567 261.926 56.12 261.54 56.12ZM264.728 56V48.8H265.568V51.59C265.741 51.29 265.978 51.0533 266.278 50.88C266.578 50.7067 266.901 50.62 267.248 50.62C267.654 50.62 267.998 50.6967 268.278 50.85C268.564 50.9967 268.781 51.2233 268.928 51.53C269.081 51.8367 269.158 52.2267 269.158 52.7V56H268.328V52.79C268.328 52.31 268.214 51.95 267.988 51.71C267.761 51.4633 267.454 51.34 267.068 51.34C266.794 51.34 266.544 51.4067 266.318 51.54C266.091 51.6667 265.908 51.8567 265.768 52.11C265.634 52.3633 265.568 52.67 265.568 53.03V56H264.728ZM270.548 58.2V50.74H271.308L271.378 51.56C271.485 51.3867 271.618 51.23 271.778 51.09C271.945 50.95 272.141 50.8367 272.368 50.75C272.601 50.6633 272.868 50.62 273.168 50.62C273.641 50.62 274.055 50.74 274.408 50.98C274.768 51.22 275.048 51.5467 275.248 51.96C275.448 52.3733 275.548 52.8467 275.548 53.38C275.548 53.9067 275.448 54.3767 275.248 54.79C275.048 55.2033 274.768 55.53 274.408 55.77C274.048 56.0033 273.631 56.12 273.158 56.12C272.751 56.12 272.395 56.0367 272.088 55.87C271.781 55.7033 271.548 55.47 271.388 55.17V58.2H270.548ZM273.058 55.39C273.371 55.39 273.648 55.31 273.888 55.15C274.135 54.9833 274.328 54.75 274.468 54.45C274.615 54.1433 274.688 53.7833 274.688 53.37C274.688 52.9567 274.615 52.6 274.468 52.3C274.328 51.9933 274.135 51.76 273.888 51.6C273.648 51.4333 273.371 51.35 273.058 51.35C272.725 51.35 272.435 51.4333 272.188 51.6C271.941 51.76 271.751 51.9933 271.618 52.3C271.485 52.6 271.418 52.9567 271.418 53.37C271.418 53.7833 271.485 54.1433 271.618 54.45C271.751 54.75 271.941 54.9833 272.188 55.15C272.435 55.31 272.725 55.39 273.058 55.39ZM278.949 56.12C278.482 56.12 278.069 56.0067 277.709 55.78C277.349 55.5533 277.065 55.2333 276.859 54.82C276.659 54.4067 276.559 53.9233 276.559 53.37C276.559 52.8167 276.659 52.3333 276.859 51.92C277.065 51.5067 277.349 51.1867 277.709 50.96C278.075 50.7333 278.495 50.62 278.969 50.62C279.475 50.62 279.899 50.7333 280.239 50.96C280.579 51.1867 280.835 51.49 281.009 51.87C281.182 52.25 281.269 52.6667 281.269 53.12C281.269 53.1867 281.269 53.2533 281.269 53.32C281.269 53.3867 281.265 53.4667 281.259 53.56H277.189V52.91H280.449C280.435 52.3967 280.285 52.0067 279.999 51.74C279.719 51.4667 279.369 51.33 278.949 51.33C278.669 51.33 278.409 51.4 278.169 51.54C277.935 51.6733 277.745 51.8733 277.599 52.14C277.452 52.4067 277.379 52.74 277.379 53.14V53.42C277.379 53.86 277.452 54.23 277.599 54.53C277.745 54.8233 277.935 55.0433 278.169 55.19C278.409 55.3367 278.669 55.41 278.949 55.41C279.322 55.41 279.615 55.34 279.829 55.2C280.042 55.0533 280.199 54.8467 280.299 54.58H281.129C281.049 54.8733 280.909 55.1367 280.709 55.37C280.515 55.6033 280.269 55.7867 279.969 55.92C279.675 56.0533 279.335 56.12 278.949 56.12ZM282.433 56V50.74H283.193L283.253 51.7C283.373 51.46 283.529 51.26 283.723 51.1C283.916 50.94 284.149 50.82 284.423 50.74C284.703 50.66 285.016 50.62 285.363 50.62V51.5H284.843C284.643 51.5 284.449 51.5267 284.263 51.58C284.076 51.6333 283.906 51.72 283.753 51.84C283.606 51.96 283.489 52.1233 283.403 52.33C283.316 52.5367 283.273 52.7967 283.273 53.11V56H282.433ZM286.329 57.15V56.36H291.219V57.15H286.329ZM292.638 56V48.8H293.478V56H292.638ZM296.534 56.12C296.134 56.12 295.8 56.0467 295.534 55.9C295.267 55.7467 295.067 55.5467 294.934 55.3C294.8 55.0467 294.734 54.7767 294.734 54.49C294.734 54.1433 294.82 53.85 294.994 53.61C295.174 53.3633 295.424 53.1767 295.744 53.05C296.064 52.9233 296.437 52.86 296.864 52.86H298.174C298.174 52.52 298.134 52.2367 298.054 52.01C297.974 51.7833 297.844 51.6133 297.664 51.5C297.484 51.3867 297.244 51.33 296.944 51.33C296.644 51.33 296.387 51.4067 296.174 51.56C295.96 51.7067 295.827 51.9267 295.774 52.22H294.914C294.954 51.8733 295.07 51.5833 295.264 51.35C295.457 51.11 295.7 50.93 295.994 50.81C296.294 50.6833 296.61 50.62 296.944 50.62C297.417 50.62 297.807 50.7067 298.114 50.88C298.42 51.0467 298.647 51.2833 298.794 51.59C298.94 51.89 299.014 52.2467 299.014 52.66V56H298.264L298.214 55.1C298.147 55.24 298.06 55.3733 297.954 55.5C297.854 55.62 297.734 55.7267 297.594 55.82C297.454 55.9133 297.294 55.9867 297.114 56.04C296.94 56.0933 296.747 56.12 296.534 56.12ZM296.654 55.41C296.874 55.41 297.077 55.36 297.264 55.26C297.45 55.16 297.61 55.0267 297.744 54.86C297.884 54.6867 297.99 54.4933 298.064 54.28C298.137 54.0667 298.174 53.8433 298.174 53.61V53.51H296.934C296.62 53.51 296.364 53.55 296.164 53.63C295.97 53.71 295.83 53.8233 295.744 53.97C295.657 54.11 295.614 54.27 295.614 54.45C295.614 54.6433 295.654 54.8133 295.734 54.96C295.814 55.1 295.93 55.21 296.084 55.29C296.244 55.37 296.434 55.41 296.654 55.41ZM300.401 56V50.74H301.161L301.221 51.7C301.341 51.46 301.498 51.26 301.691 51.1C301.885 50.94 302.118 50.82 302.391 50.74C302.671 50.66 302.985 50.62 303.331 50.62V51.5H302.811C302.611 51.5 302.418 51.5267 302.231 51.58C302.045 51.6333 301.875 51.72 301.721 51.84C301.575 51.96 301.458 52.1233 301.371 52.33C301.285 52.5367 301.241 52.7967 301.241 53.11V56H300.401ZM306.241 58.32C305.767 58.32 305.351 58.26 304.991 58.14C304.637 58.0267 304.361 57.85 304.161 57.61C303.967 57.37 303.871 57.0733 303.871 56.72C303.871 56.5533 303.901 56.38 303.961 56.2C304.027 56.02 304.137 55.8467 304.291 55.68C304.451 55.5133 304.674 55.3633 304.961 55.23L305.601 55.57C305.221 55.7167 304.974 55.8867 304.861 56.08C304.747 56.2733 304.691 56.46 304.691 56.64C304.691 56.86 304.754 57.0433 304.881 57.19C305.014 57.3367 305.197 57.4467 305.431 57.52C305.664 57.5933 305.934 57.63 306.241 57.63C306.541 57.63 306.797 57.59 307.011 57.51C307.231 57.4367 307.397 57.3267 307.511 57.18C307.631 57.04 307.691 56.8733 307.691 56.68C307.691 56.4 307.601 56.18 307.421 56.02C307.241 55.8667 306.891 55.7767 306.371 55.75C305.964 55.7233 305.624 55.6867 305.351 55.64C305.077 55.5933 304.851 55.54 304.671 55.48C304.497 55.4133 304.351 55.34 304.231 55.26C304.117 55.18 304.014 55.0967 303.921 55.01V54.78L304.911 53.83L305.701 54.09L304.621 54.98L304.751 54.6C304.824 54.6533 304.894 54.7033 304.961 54.75C305.027 54.7967 305.117 54.84 305.231 54.88C305.351 54.9133 305.514 54.9467 305.721 54.98C305.934 55.0133 306.214 55.0433 306.561 55.07C307.041 55.1033 307.424 55.1833 307.711 55.31C307.997 55.4367 308.204 55.6133 308.331 55.84C308.457 56.06 308.521 56.33 308.521 56.65C308.521 56.93 308.441 57.1967 308.281 57.45C308.127 57.7033 307.881 57.91 307.541 58.07C307.207 58.2367 306.774 58.32 306.241 58.32ZM306.231 54.36C305.804 54.36 305.441 54.28 305.141 54.12C304.847 53.9533 304.624 53.73 304.471 53.45C304.317 53.1633 304.241 52.8433 304.241 52.49C304.241 52.1367 304.317 51.82 304.471 51.54C304.631 51.26 304.857 51.0367 305.151 50.87C305.451 50.7033 305.811 50.62 306.231 50.62C306.664 50.62 307.027 50.7033 307.321 50.87C307.614 51.0367 307.837 51.26 307.991 51.54C308.144 51.82 308.221 52.1367 308.221 52.49C308.221 52.8433 308.144 53.1633 307.991 53.45C307.837 53.73 307.614 53.9533 307.321 54.12C307.027 54.28 306.664 54.36 306.231 54.36ZM306.231 53.67C306.604 53.67 306.894 53.5733 307.101 53.38C307.307 53.18 307.411 52.8833 307.411 52.49C307.411 52.0967 307.307 51.8033 307.101 51.61C306.894 51.4167 306.604 51.32 306.231 51.32C305.877 51.32 305.587 51.4167 305.361 51.61C305.141 51.8033 305.031 52.0967 305.031 52.49C305.031 52.8833 305.137 53.18 305.351 53.38C305.571 53.5733 305.864 53.67 306.231 53.67ZM307.111 51.45L306.861 50.74H308.921V51.37L307.111 51.45ZM311.917 56.12C311.451 56.12 311.037 56.0067 310.677 55.78C310.317 55.5533 310.034 55.2333 309.827 54.82C309.627 54.4067 309.527 53.9233 309.527 53.37C309.527 52.8167 309.627 52.3333 309.827 51.92C310.034 51.5067 310.317 51.1867 310.677 50.96C311.044 50.7333 311.464 50.62 311.937 50.62C312.444 50.62 312.867 50.7333 313.207 50.96C313.547 51.1867 313.804 51.49 313.977 51.87C314.151 52.25 314.237 52.6667 314.237 53.12C314.237 53.1867 314.237 53.2533 314.237 53.32C314.237 53.3867 314.234 53.4667 314.227 53.56H310.157V52.91H313.417C313.404 52.3967 313.254 52.0067 312.967 51.74C312.687 51.4667 312.337 51.33 311.917 51.33C311.637 51.33 311.377 51.4 311.137 51.54C310.904 51.6733 310.714 51.8733 310.567 52.14C310.421 52.4067 310.347 52.74 310.347 53.14V53.42C310.347 53.86 310.421 54.23 310.567 54.53C310.714 54.8233 310.904 55.0433 311.137 55.19C311.377 55.3367 311.637 55.41 311.917 55.41C312.291 55.41 312.584 55.34 312.797 55.2C313.011 55.0533 313.167 54.8467 313.267 54.58H314.097C314.017 54.8733 313.877 55.1367 313.677 55.37C313.484 55.6033 313.237 55.7867 312.937 55.92C312.644 56.0533 312.304 56.12 311.917 56.12Z" fill="#FFAD32"/>
</svg>
