<svg width="342" height="252" viewBox="0 0 342 252" fill="none" xmlns="http://www.w3.org/2000/svg">
<rect width="342" height="252" rx="12" fill="#141324"/>
<path d="M21.85 29C21.43 29 21.066 28.9347 20.758 28.804C20.45 28.6733 20.212 28.454 20.044 28.146C19.8853 27.8287 19.806 27.404 19.806 26.872V22.63H18.518V21.636H19.806L19.96 19.802H20.982V21.636H23.068V22.63H20.982V26.872C20.982 27.3107 21.0707 27.6093 21.248 27.768C21.4253 27.9173 21.738 27.992 22.186 27.992H23.04V29H21.85ZM24.6815 29V21.636H25.7455L25.8295 22.98C25.9975 22.644 26.2168 22.364 26.4875 22.14C26.7582 21.916 27.0848 21.748 27.4675 21.636C27.8595 21.524 28.2982 21.468 28.7835 21.468V22.7H28.0555C27.7755 22.7 27.5048 22.7373 27.2435 22.812C26.9822 22.8867 26.7442 23.008 26.5295 23.176C26.3242 23.344 26.1608 23.5727 26.0395 23.862C25.9182 24.1513 25.8575 24.5153 25.8575 24.954V29H24.6815ZM32.4326 29.168C31.8726 29.168 31.4059 29.0653 31.0326 28.86C30.6592 28.6453 30.3792 28.3653 30.1926 28.02C30.0059 27.6653 29.9126 27.2873 29.9126 26.886C29.9126 26.4007 30.0339 25.99 30.2766 25.654C30.5286 25.3087 30.8786 25.0473 31.3266 24.87C31.7746 24.6927 32.2972 24.604 32.8946 24.604H34.7286C34.7286 24.128 34.6726 23.7313 34.5606 23.414C34.4486 23.0967 34.2666 22.8587 34.0146 22.7C33.7626 22.5413 33.4266 22.462 33.0066 22.462C32.5866 22.462 32.2272 22.5693 31.9286 22.784C31.6299 22.9893 31.4432 23.2973 31.3686 23.708H30.1646C30.2206 23.2227 30.3839 22.8167 30.6546 22.49C30.9252 22.154 31.2659 21.902 31.6766 21.734C32.0966 21.5567 32.5399 21.468 33.0066 21.468C33.6692 21.468 34.2152 21.5893 34.6446 21.832C35.0739 22.0653 35.3912 22.3967 35.5966 22.826C35.8019 23.246 35.9046 23.7453 35.9046 24.324V29H34.8546L34.7846 27.74C34.6912 27.936 34.5699 28.1227 34.4206 28.3C34.2806 28.468 34.1126 28.6173 33.9166 28.748C33.7206 28.8787 33.4966 28.9813 33.2446 29.056C33.0019 29.1307 32.7312 29.168 32.4326 29.168ZM32.6006 28.174C32.9086 28.174 33.1932 28.104 33.4546 27.964C33.7159 27.824 33.9399 27.6373 34.1266 27.404C34.3226 27.1613 34.4719 26.8907 34.5746 26.592C34.6772 26.2933 34.7286 25.9807 34.7286 25.654V25.514H32.9926C32.5539 25.514 32.1946 25.57 31.9146 25.682C31.6439 25.794 31.4479 25.9527 31.3266 26.158C31.2052 26.354 31.1446 26.578 31.1446 26.83C31.1446 27.1007 31.2006 27.3387 31.3126 27.544C31.4246 27.74 31.5879 27.894 31.8026 28.006C32.0266 28.118 32.2926 28.174 32.6006 28.174ZM37.9595 29V21.636H39.1355V29H37.9595ZM38.5475 20.236C38.3142 20.236 38.1182 20.1613 37.9595 20.012C37.8102 19.8533 37.7355 19.6573 37.7355 19.424C37.7355 19.1907 37.8102 19.004 37.9595 18.864C38.1182 18.7147 38.3142 18.64 38.5475 18.64C38.7715 18.64 38.9628 18.7147 39.1215 18.864C39.2802 19.004 39.3595 19.1907 39.3595 19.424C39.3595 19.6573 39.2802 19.8533 39.1215 20.012C38.9628 20.1613 38.7715 20.236 38.5475 20.236ZM41.2245 29V21.636H42.2885L42.3445 22.798C42.5591 22.378 42.8671 22.0513 43.2685 21.818C43.6791 21.5847 44.1505 21.468 44.6825 21.468C45.2238 21.468 45.6951 21.5707 46.0965 21.776C46.4978 21.9813 46.8105 22.294 47.0345 22.714C47.2585 23.134 47.3705 23.666 47.3705 24.31V29H46.1945V24.436C46.1945 23.7827 46.0311 23.2927 45.7045 22.966C45.3871 22.6393 44.9578 22.476 44.4165 22.476C44.0525 22.476 43.7165 22.5647 43.4085 22.742C43.1005 22.91 42.8531 23.162 42.6665 23.498C42.4891 23.834 42.4005 24.2447 42.4005 24.73V29H41.2245ZM48.7302 30.33L52.2442 18.304H53.4062L49.8922 30.33H48.7302ZM54.8143 29V18.92H55.9903V29H54.8143ZM61.1365 29.168C60.4552 29.168 59.8532 29.0093 59.3305 28.692C58.8078 28.3747 58.4018 27.9267 58.1125 27.348C57.8232 26.7693 57.6785 26.0927 57.6785 25.318C57.6785 24.534 57.8232 23.8573 58.1125 23.288C58.4112 22.7093 58.8218 22.2613 59.3445 21.944C59.8765 21.6267 60.4832 21.468 61.1645 21.468C61.8552 21.468 62.4572 21.6267 62.9705 21.944C63.4932 22.2613 63.8992 22.7093 64.1885 23.288C64.4778 23.8573 64.6225 24.534 64.6225 25.318C64.6225 26.0927 64.4732 26.7693 64.1745 27.348C63.8852 27.9267 63.4792 28.3747 62.9565 28.692C62.4338 29.0093 61.8272 29.168 61.1365 29.168ZM61.1365 28.16C61.5658 28.16 61.9532 28.0573 62.2985 27.852C62.6438 27.6373 62.9145 27.32 63.1105 26.9C63.3158 26.4707 63.4185 25.9433 63.4185 25.318C63.4185 24.6833 63.3205 24.156 63.1245 23.736C62.9285 23.316 62.6578 23.0033 62.3125 22.798C61.9765 22.5833 61.5938 22.476 61.1645 22.476C60.7445 22.476 60.3618 22.5833 60.0165 22.798C59.6712 23.0033 59.3958 23.316 59.1905 23.736C58.9852 24.156 58.8825 24.6833 58.8825 25.318C58.8825 25.9433 58.9805 26.4707 59.1765 26.9C59.3818 27.32 59.6525 27.6373 59.9885 27.852C60.3338 28.0573 60.7165 28.16 61.1365 28.16ZM68.986 29.168C68.3234 29.168 67.7727 29.07 67.334 28.874C66.9047 28.6687 66.578 28.3887 66.354 28.034C66.13 27.67 65.9947 27.25 65.948 26.774H67.152C67.1894 27.026 67.2734 27.2593 67.404 27.474C67.544 27.6793 67.7447 27.8473 68.006 27.978C68.2674 28.1087 68.5987 28.174 69 28.174C69.3174 28.174 69.588 28.1273 69.812 28.034C70.036 27.9313 70.204 27.7913 70.316 27.614C70.4374 27.4367 70.498 27.2313 70.498 26.998C70.498 26.69 70.428 26.452 70.288 26.284C70.1574 26.1067 69.9614 25.976 69.7 25.892C69.448 25.7987 69.1307 25.7287 68.748 25.682C68.3374 25.626 67.9734 25.5467 67.656 25.444C67.3387 25.3413 67.068 25.206 66.844 25.038C66.6294 24.87 66.466 24.66 66.354 24.408C66.242 24.156 66.186 23.8573 66.186 23.512C66.186 23.1107 66.2934 22.756 66.508 22.448C66.7227 22.14 67.026 21.902 67.418 21.734C67.8194 21.5567 68.2907 21.468 68.832 21.468C69.6254 21.468 70.2507 21.65 70.708 22.014C71.1747 22.378 71.45 22.896 71.534 23.568H70.372C70.3254 23.2227 70.1667 22.952 69.896 22.756C69.6254 22.56 69.266 22.462 68.818 22.462C68.342 22.462 67.9827 22.5507 67.74 22.728C67.4974 22.9053 67.376 23.1387 67.376 23.428C67.376 23.6427 67.4274 23.8387 67.53 24.016C67.642 24.184 67.8287 24.3287 68.09 24.45C68.3514 24.562 68.7014 24.646 69.14 24.702C69.6907 24.7673 70.1574 24.8747 70.54 25.024C70.9227 25.164 71.212 25.3833 71.408 25.682C71.6134 25.9807 71.7114 26.3867 71.702 26.9C71.702 27.3853 71.5854 27.796 71.352 28.132C71.128 28.468 70.8107 28.7247 70.4 28.902C69.9987 29.0793 69.5274 29.168 68.986 29.168ZM76.1091 29.168C75.4464 29.168 74.8957 29.07 74.4571 28.874C74.0277 28.6687 73.7011 28.3887 73.4771 28.034C73.2531 27.67 73.1177 27.25 73.0711 26.774H74.2751C74.3124 27.026 74.3964 27.2593 74.5271 27.474C74.6671 27.6793 74.8677 27.8473 75.1291 27.978C75.3904 28.1087 75.7217 28.174 76.1231 28.174C76.4404 28.174 76.7111 28.1273 76.9351 28.034C77.1591 27.9313 77.3271 27.7913 77.4391 27.614C77.5604 27.4367 77.6211 27.2313 77.6211 26.998C77.6211 26.69 77.5511 26.452 77.4111 26.284C77.2804 26.1067 77.0844 25.976 76.8231 25.892C76.5711 25.7987 76.2537 25.7287 75.8711 25.682C75.4604 25.626 75.0964 25.5467 74.7791 25.444C74.4617 25.3413 74.1911 25.206 73.9671 25.038C73.7524 24.87 73.5891 24.66 73.4771 24.408C73.3651 24.156 73.3091 23.8573 73.3091 23.512C73.3091 23.1107 73.4164 22.756 73.6311 22.448C73.8457 22.14 74.1491 21.902 74.5411 21.734C74.9424 21.5567 75.4137 21.468 75.9551 21.468C76.7484 21.468 77.3737 21.65 77.8311 22.014C78.2977 22.378 78.5731 22.896 78.6571 23.568H77.4951C77.4484 23.2227 77.2897 22.952 77.0191 22.756C76.7484 22.56 76.3891 22.462 75.9411 22.462C75.4651 22.462 75.1057 22.5507 74.8631 22.728C74.6204 22.9053 74.4991 23.1387 74.4991 23.428C74.4991 23.6427 74.5504 23.8387 74.6531 24.016C74.7651 24.184 74.9517 24.3287 75.2131 24.45C75.4744 24.562 75.8244 24.646 76.2631 24.702C76.8137 24.7673 77.2804 24.8747 77.6631 25.024C78.0457 25.164 78.3351 25.3833 78.5311 25.682C78.7364 25.9807 78.8344 26.3867 78.8251 26.9C78.8251 27.3853 78.7084 27.796 78.4751 28.132C78.2511 28.468 77.9337 28.7247 77.5231 28.902C77.1217 29.0793 76.6504 29.168 76.1091 29.168Z" fill="white"/>
<path d="M18.25 63.12C17.75 63.12 17.3267 63.0267 16.98 62.84C16.64 62.6533 16.3667 62.4033 16.16 62.09C15.96 61.77 15.8133 61.41 15.72 61.01C15.6267 60.61 15.58 60.2 15.58 59.78C15.58 59.0067 15.6833 58.33 15.89 57.75C16.1033 57.1633 16.41 56.7067 16.81 56.38C17.21 56.0467 17.6933 55.88 18.26 55.88C18.7 55.88 19.0767 55.9633 19.39 56.13C19.71 56.2967 19.9633 56.52 20.15 56.8C20.3367 57.0733 20.45 57.38 20.49 57.72H19.71C19.6433 57.3667 19.48 57.0933 19.22 56.9C18.9667 56.7067 18.6433 56.61 18.25 56.61C17.8967 56.61 17.58 56.72 17.3 56.94C17.0267 57.16 16.81 57.4933 16.65 57.94C16.49 58.38 16.4 58.9433 16.38 59.63C16.38 59.6433 16.38 59.6567 16.38 59.67C16.38 59.6833 16.38 59.6967 16.38 59.71C16.4733 59.4967 16.6133 59.3 16.8 59.12C16.9867 58.94 17.2133 58.7967 17.48 58.69C17.7467 58.5767 18.04 58.52 18.36 58.52C18.7533 58.52 19.1167 58.6133 19.45 58.8C19.79 58.9867 20.0633 59.25 20.27 59.59C20.4767 59.9233 20.58 60.3167 20.58 60.77C20.58 61.1633 20.4833 61.54 20.29 61.9C20.1033 62.26 19.8367 62.5533 19.49 62.78C19.1433 63.0067 18.73 63.12 18.25 63.12ZM18.19 62.38C18.4833 62.38 18.7433 62.3133 18.97 62.18C19.2033 62.0467 19.3867 61.8633 19.52 61.63C19.66 61.39 19.73 61.1167 19.73 60.81C19.73 60.4967 19.66 60.2233 19.52 59.99C19.3867 59.7567 19.2033 59.5767 18.97 59.45C18.7433 59.3167 18.4833 59.25 18.19 59.25C17.89 59.25 17.62 59.32 17.38 59.46C17.14 59.5933 16.95 59.78 16.81 60.02C16.67 60.2533 16.6 60.52 16.6 60.82C16.6 61.1267 16.67 61.4 16.81 61.64C16.95 61.8733 17.14 62.0567 17.38 62.19C17.62 62.3167 17.89 62.38 18.19 62.38Z" fill="#77758D"/>
<path d="M18.08 89.12C17.6133 89.12 17.2067 89.0367 16.86 88.87C16.52 88.7033 16.25 88.48 16.05 88.2C15.8567 87.9133 15.7367 87.5867 15.69 87.22H16.51C16.5833 87.5667 16.7533 87.85 17.02 88.07C17.2933 88.29 17.65 88.4 18.09 88.4C18.4167 88.4 18.6933 88.3267 18.92 88.18C19.1533 88.0267 19.3333 87.82 19.46 87.56C19.5867 87.2933 19.65 86.9967 19.65 86.67C19.65 86.3433 19.5867 86.0567 19.46 85.81C19.34 85.5567 19.1667 85.36 18.94 85.22C18.7133 85.0733 18.4467 85 18.14 85C17.7733 85 17.46 85.0733 17.2 85.22C16.9467 85.3667 16.75 85.5467 16.61 85.76H15.78L16.31 82H20.07V82.73H16.96L16.6 84.92C16.7667 84.7333 16.9867 84.5833 17.26 84.47C17.54 84.35 17.8633 84.29 18.23 84.29C18.57 84.29 18.8767 84.35 19.15 84.47C19.4233 84.59 19.6567 84.76 19.85 84.98C20.05 85.1933 20.2 85.4433 20.3 85.73C20.4067 86.0167 20.46 86.3267 20.46 86.66C20.46 86.9933 20.4033 87.31 20.29 87.61C20.1833 87.9033 20.0267 88.1633 19.82 88.39C19.62 88.6167 19.3733 88.7967 19.08 88.93C18.7867 89.0567 18.4533 89.12 18.08 89.12Z" fill="#77758D"/>
<path d="M18.96 115V113.5H15.41V112.85L18.81 108H19.79V112.76H20.83V113.5H19.79V115H18.96ZM16.34 112.76H19V108.93L16.34 112.76Z" fill="#77758D"/>
<path d="M18.97 141.12C18.5233 141.12 18.1167 141.04 17.75 140.88C17.39 140.713 17.1033 140.467 16.89 140.14C16.6767 139.813 16.5633 139.407 16.55 138.92H17.4C17.4067 139.187 17.47 139.433 17.59 139.66C17.7167 139.88 17.8967 140.057 18.13 140.19C18.3633 140.323 18.6433 140.39 18.97 140.39C19.2967 140.39 19.57 140.327 19.79 140.2C20.01 140.073 20.1767 139.907 20.29 139.7C20.4033 139.487 20.46 139.25 20.46 138.99C20.46 138.677 20.38 138.423 20.22 138.23C20.0667 138.03 19.8567 137.883 19.59 137.79C19.33 137.69 19.0433 137.64 18.73 137.64H18.21V136.93H18.73C19.2033 136.93 19.5733 136.823 19.84 136.61C20.1133 136.39 20.25 136.087 20.25 135.7C20.25 135.387 20.1433 135.127 19.93 134.92C19.7167 134.713 19.3967 134.61 18.97 134.61C18.55 134.61 18.22 134.723 17.98 134.95C17.74 135.177 17.6033 135.467 17.57 135.82H16.72C16.74 135.44 16.8433 135.103 17.03 134.81C17.2233 134.517 17.4833 134.29 17.81 134.13C18.1433 133.963 18.53 133.88 18.97 133.88C19.4367 133.88 19.8267 133.96 20.14 134.12C20.46 134.28 20.7 134.493 20.86 134.76C21.02 135.027 21.1 135.323 21.1 135.65C21.1 135.89 21.0533 136.12 20.96 136.34C20.8733 136.56 20.74 136.75 20.56 136.91C20.38 137.07 20.15 137.183 19.87 137.25C20.1433 137.303 20.3867 137.407 20.6 137.56C20.82 137.713 20.9933 137.91 21.12 138.15C21.2467 138.39 21.31 138.67 21.31 138.99C21.31 139.37 21.22 139.723 21.04 140.05C20.8667 140.37 20.6067 140.63 20.26 140.83C19.9133 141.023 19.4833 141.12 18.97 141.12Z" fill="#77758D"/>
<path d="M16.65 167V166.41C17.1433 166.037 17.61 165.66 18.05 165.28C18.49 164.9 18.88 164.523 19.22 164.15C19.56 163.77 19.8267 163.4 20.02 163.04C20.2133 162.68 20.31 162.333 20.31 162C20.31 161.753 20.2633 161.527 20.17 161.32C20.0833 161.107 19.94 160.933 19.74 160.8C19.5467 160.667 19.2833 160.6 18.95 160.6C18.63 160.6 18.3633 160.67 18.15 160.81C17.9367 160.943 17.7767 161.123 17.67 161.35C17.5633 161.57 17.51 161.813 17.51 162.08H16.7C16.7067 161.62 16.8067 161.227 17 160.9C17.1933 160.567 17.46 160.313 17.8 160.14C18.14 159.967 18.5267 159.88 18.96 159.88C19.3867 159.88 19.7633 159.96 20.09 160.12C20.4167 160.273 20.6733 160.507 20.86 160.82C21.0533 161.127 21.15 161.51 21.15 161.97C21.15 162.297 21.08 162.623 20.94 162.95C20.8067 163.277 20.6233 163.597 20.39 163.91C20.1567 164.217 19.8967 164.513 19.61 164.8C19.33 165.087 19.04 165.357 18.74 165.61C18.44 165.863 18.1567 166.093 17.89 166.3H21.39V167H16.65Z" fill="#77758D"/>
<path d="M19.8 193V186.94L18.36 187.4V186.74L20.08 186H20.65V193H19.8Z" fill="#77758D"/>
<path d="M18.29 219.12C17.71 219.12 17.21 218.97 16.79 218.67C16.3767 218.363 16.0567 217.94 15.83 217.4C15.6033 216.853 15.49 216.22 15.49 215.5C15.49 214.78 15.6033 214.15 15.83 213.61C16.0567 213.063 16.3767 212.64 16.79 212.34C17.21 212.033 17.71 211.88 18.29 211.88C18.87 211.88 19.3667 212.033 19.78 212.34C20.1933 212.64 20.51 213.063 20.73 213.61C20.9567 214.15 21.07 214.78 21.07 215.5C21.07 216.22 20.9567 216.853 20.73 217.4C20.51 217.94 20.1933 218.363 19.78 218.67C19.3667 218.97 18.87 219.12 18.29 219.12ZM18.29 218.38C18.6567 218.38 18.9833 218.267 19.27 218.04C19.5567 217.807 19.7833 217.477 19.95 217.05C20.1233 216.617 20.21 216.1 20.21 215.5C20.21 214.893 20.1233 214.377 19.95 213.95C19.7833 213.523 19.5567 213.197 19.27 212.97C18.9833 212.743 18.6567 212.63 18.29 212.63C17.9167 212.63 17.5833 212.743 17.29 212.97C16.9967 213.197 16.7667 213.523 16.6 213.95C16.4333 214.377 16.35 214.893 16.35 215.5C16.35 216.1 16.4333 216.617 16.6 217.05C16.7667 217.477 16.9967 217.807 17.29 218.04C17.5833 218.267 17.9167 218.38 18.29 218.38Z" fill="#77758D"/>
<path d="M75.8 233V226.94L74.36 227.4V226.74L76.08 226H76.65V233H75.8ZM80.708 233.12C80.128 233.12 79.628 232.97 79.208 232.67C78.7946 232.363 78.4746 231.94 78.248 231.4C78.0213 230.853 77.908 230.22 77.908 229.5C77.908 228.78 78.0213 228.15 78.248 227.61C78.4746 227.063 78.7946 226.64 79.208 226.34C79.628 226.033 80.128 225.88 80.708 225.88C81.288 225.88 81.7846 226.033 82.198 226.34C82.6113 226.64 82.928 227.063 83.148 227.61C83.3746 228.15 83.488 228.78 83.488 229.5C83.488 230.22 83.3746 230.853 83.148 231.4C82.928 231.94 82.6113 232.363 82.198 232.67C81.7846 232.97 81.288 233.12 80.708 233.12ZM80.708 232.38C81.0746 232.38 81.4013 232.267 81.688 232.04C81.9746 231.807 82.2013 231.477 82.368 231.05C82.5413 230.617 82.628 230.1 82.628 229.5C82.628 228.893 82.5413 228.377 82.368 227.95C82.2013 227.523 81.9746 227.197 81.688 226.97C81.4013 226.743 81.0746 226.63 80.708 226.63C80.3346 226.63 80.0013 226.743 79.708 226.97C79.4146 227.197 79.1846 227.523 79.018 227.95C78.8513 228.377 78.768 228.893 78.768 229.5C78.768 230.1 78.8513 230.617 79.018 231.05C79.1846 231.477 79.4146 231.807 79.708 232.04C80.0013 232.267 80.3346 232.38 80.708 232.38ZM87.2705 233.12C86.6905 233.12 86.1905 232.97 85.7705 232.67C85.3571 232.363 85.0371 231.94 84.8105 231.4C84.5838 230.853 84.4705 230.22 84.4705 229.5C84.4705 228.78 84.5838 228.15 84.8105 227.61C85.0371 227.063 85.3571 226.64 85.7705 226.34C86.1905 226.033 86.6905 225.88 87.2705 225.88C87.8505 225.88 88.3471 226.033 88.7605 226.34C89.1738 226.64 89.4905 227.063 89.7105 227.61C89.9371 228.15 90.0505 228.78 90.0505 229.5C90.0505 230.22 89.9371 230.853 89.7105 231.4C89.4905 231.94 89.1738 232.363 88.7605 232.67C88.3471 232.97 87.8505 233.12 87.2705 233.12ZM87.2705 232.38C87.6371 232.38 87.9638 232.267 88.2505 232.04C88.5371 231.807 88.7638 231.477 88.9305 231.05C89.1038 230.617 89.1905 230.1 89.1905 229.5C89.1905 228.893 89.1038 228.377 88.9305 227.95C88.7638 227.523 88.5371 227.197 88.2505 226.97C87.9638 226.743 87.6371 226.63 87.2705 226.63C86.8971 226.63 86.5638 226.743 86.2705 226.97C85.9771 227.197 85.7471 227.523 85.5805 227.95C85.4138 228.377 85.3305 228.893 85.3305 229.5C85.3305 230.1 85.4138 230.617 85.5805 231.05C85.7471 231.477 85.9771 231.807 86.2705 232.04C86.5638 232.267 86.8971 232.38 87.2705 232.38Z" fill="#77758D"/>
<path d="M117.65 233V232.41C118.143 232.037 118.61 231.66 119.05 231.28C119.49 230.9 119.88 230.523 120.22 230.15C120.56 229.77 120.827 229.4 121.02 229.04C121.213 228.68 121.31 228.333 121.31 228C121.31 227.753 121.263 227.527 121.17 227.32C121.083 227.107 120.94 226.933 120.74 226.8C120.547 226.667 120.283 226.6 119.95 226.6C119.63 226.6 119.363 226.67 119.15 226.81C118.937 226.943 118.777 227.123 118.67 227.35C118.563 227.57 118.51 227.813 118.51 228.08H117.7C117.707 227.62 117.807 227.227 118 226.9C118.193 226.567 118.46 226.313 118.8 226.14C119.14 225.967 119.527 225.88 119.96 225.88C120.387 225.88 120.763 225.96 121.09 226.12C121.417 226.273 121.673 226.507 121.86 226.82C122.053 227.127 122.15 227.51 122.15 227.97C122.15 228.297 122.08 228.623 121.94 228.95C121.807 229.277 121.623 229.597 121.39 229.91C121.157 230.217 120.897 230.513 120.61 230.8C120.33 231.087 120.04 231.357 119.74 231.61C119.44 231.863 119.157 232.093 118.89 232.3H122.39V233H117.65ZM126.081 233.12C125.501 233.12 125.001 232.97 124.581 232.67C124.168 232.363 123.848 231.94 123.621 231.4C123.394 230.853 123.281 230.22 123.281 229.5C123.281 228.78 123.394 228.15 123.621 227.61C123.848 227.063 124.168 226.64 124.581 226.34C125.001 226.033 125.501 225.88 126.081 225.88C126.661 225.88 127.158 226.033 127.571 226.34C127.984 226.64 128.301 227.063 128.521 227.61C128.748 228.15 128.861 228.78 128.861 229.5C128.861 230.22 128.748 230.853 128.521 231.4C128.301 231.94 127.984 232.363 127.571 232.67C127.158 232.97 126.661 233.12 126.081 233.12ZM126.081 232.38C126.448 232.38 126.774 232.267 127.061 232.04C127.348 231.807 127.574 231.477 127.741 231.05C127.914 230.617 128.001 230.1 128.001 229.5C128.001 228.893 127.914 228.377 127.741 227.95C127.574 227.523 127.348 227.197 127.061 226.97C126.774 226.743 126.448 226.63 126.081 226.63C125.708 226.63 125.374 226.743 125.081 226.97C124.788 227.197 124.558 227.523 124.391 227.95C124.224 228.377 124.141 228.893 124.141 229.5C124.141 230.1 124.224 230.617 124.391 231.05C124.558 231.477 124.788 231.807 125.081 232.04C125.374 232.267 125.708 232.38 126.081 232.38ZM132.644 233.12C132.064 233.12 131.564 232.97 131.144 232.67C130.73 232.363 130.41 231.94 130.184 231.4C129.957 230.853 129.844 230.22 129.844 229.5C129.844 228.78 129.957 228.15 130.184 227.61C130.41 227.063 130.73 226.64 131.144 226.34C131.564 226.033 132.064 225.88 132.644 225.88C133.224 225.88 133.72 226.033 134.134 226.34C134.547 226.64 134.864 227.063 135.084 227.61C135.31 228.15 135.424 228.78 135.424 229.5C135.424 230.22 135.31 230.853 135.084 231.4C134.864 231.94 134.547 232.363 134.134 232.67C133.72 232.97 133.224 233.12 132.644 233.12ZM132.644 232.38C133.01 232.38 133.337 232.267 133.624 232.04C133.91 231.807 134.137 231.477 134.304 231.05C134.477 230.617 134.564 230.1 134.564 229.5C134.564 228.893 134.477 228.377 134.304 227.95C134.137 227.523 133.91 227.197 133.624 226.97C133.337 226.743 133.01 226.63 132.644 226.63C132.27 226.63 131.937 226.743 131.644 226.97C131.35 227.197 131.12 227.523 130.954 227.95C130.787 228.377 130.704 228.893 130.704 229.5C130.704 230.1 130.787 230.617 130.954 231.05C131.12 231.477 131.35 231.807 131.644 232.04C131.937 232.267 132.27 232.38 132.644 232.38Z" fill="#77758D"/>
<path d="M164.97 233.12C164.523 233.12 164.117 233.04 163.75 232.88C163.39 232.713 163.103 232.467 162.89 232.14C162.677 231.813 162.563 231.407 162.55 230.92H163.4C163.407 231.187 163.47 231.433 163.59 231.66C163.717 231.88 163.897 232.057 164.13 232.19C164.363 232.323 164.643 232.39 164.97 232.39C165.297 232.39 165.57 232.327 165.79 232.2C166.01 232.073 166.177 231.907 166.29 231.7C166.403 231.487 166.46 231.25 166.46 230.99C166.46 230.677 166.38 230.423 166.22 230.23C166.067 230.03 165.857 229.883 165.59 229.79C165.33 229.69 165.043 229.64 164.73 229.64H164.21V228.93H164.73C165.203 228.93 165.573 228.823 165.84 228.61C166.113 228.39 166.25 228.087 166.25 227.7C166.25 227.387 166.143 227.127 165.93 226.92C165.717 226.713 165.397 226.61 164.97 226.61C164.55 226.61 164.22 226.723 163.98 226.95C163.74 227.177 163.603 227.467 163.57 227.82H162.72C162.74 227.44 162.843 227.103 163.03 226.81C163.223 226.517 163.483 226.29 163.81 226.13C164.143 225.963 164.53 225.88 164.97 225.88C165.437 225.88 165.827 225.96 166.14 226.12C166.46 226.28 166.7 226.493 166.86 226.76C167.02 227.027 167.1 227.323 167.1 227.65C167.1 227.89 167.053 228.12 166.96 228.34C166.873 228.56 166.74 228.75 166.56 228.91C166.38 229.07 166.15 229.183 165.87 229.25C166.143 229.303 166.387 229.407 166.6 229.56C166.82 229.713 166.993 229.91 167.12 230.15C167.247 230.39 167.31 230.67 167.31 230.99C167.31 231.37 167.22 231.723 167.04 232.05C166.867 232.37 166.607 232.63 166.26 232.83C165.913 233.023 165.483 233.12 164.97 233.12ZM171.267 233.12C170.687 233.12 170.187 232.97 169.767 232.67C169.353 232.363 169.033 231.94 168.807 231.4C168.58 230.853 168.467 230.22 168.467 229.5C168.467 228.78 168.58 228.15 168.807 227.61C169.033 227.063 169.353 226.64 169.767 226.34C170.187 226.033 170.687 225.88 171.267 225.88C171.847 225.88 172.343 226.033 172.757 226.34C173.17 226.64 173.487 227.063 173.707 227.61C173.933 228.15 174.047 228.78 174.047 229.5C174.047 230.22 173.933 230.853 173.707 231.4C173.487 231.94 173.17 232.363 172.757 232.67C172.343 232.97 171.847 233.12 171.267 233.12ZM171.267 232.38C171.633 232.38 171.96 232.267 172.247 232.04C172.533 231.807 172.76 231.477 172.927 231.05C173.1 230.617 173.187 230.1 173.187 229.5C173.187 228.893 173.1 228.377 172.927 227.95C172.76 227.523 172.533 227.197 172.247 226.97C171.96 226.743 171.633 226.63 171.267 226.63C170.893 226.63 170.56 226.743 170.267 226.97C169.973 227.197 169.743 227.523 169.577 227.95C169.41 228.377 169.327 228.893 169.327 229.5C169.327 230.1 169.41 230.617 169.577 231.05C169.743 231.477 169.973 231.807 170.267 232.04C170.56 232.267 170.893 232.38 171.267 232.38ZM177.829 233.12C177.249 233.12 176.749 232.97 176.329 232.67C175.916 232.363 175.596 231.94 175.369 231.4C175.142 230.853 175.029 230.22 175.029 229.5C175.029 228.78 175.142 228.15 175.369 227.61C175.596 227.063 175.916 226.64 176.329 226.34C176.749 226.033 177.249 225.88 177.829 225.88C178.409 225.88 178.906 226.033 179.319 226.34C179.732 226.64 180.049 227.063 180.269 227.61C180.496 228.15 180.609 228.78 180.609 229.5C180.609 230.22 180.496 230.853 180.269 231.4C180.049 231.94 179.732 232.363 179.319 232.67C178.906 232.97 178.409 233.12 177.829 233.12ZM177.829 232.38C178.196 232.38 178.522 232.267 178.809 232.04C179.096 231.807 179.322 231.477 179.489 231.05C179.662 230.617 179.749 230.1 179.749 229.5C179.749 228.893 179.662 228.377 179.489 227.95C179.322 227.523 179.096 227.197 178.809 226.97C178.522 226.743 178.196 226.63 177.829 226.63C177.456 226.63 177.122 226.743 176.829 226.97C176.536 227.197 176.306 227.523 176.139 227.95C175.972 228.377 175.889 228.893 175.889 229.5C175.889 230.1 175.972 230.617 176.139 231.05C176.306 231.477 176.536 231.807 176.829 232.04C177.122 232.267 177.456 232.38 177.829 232.38Z" fill="#77758D"/>
<path d="M211.96 233V231.5H208.41V230.85L211.81 226H212.79V230.76H213.83V231.5H212.79V233H211.96ZM209.34 230.76H212V226.93L209.34 230.76ZM217.433 233.12C216.853 233.12 216.353 232.97 215.933 232.67C215.519 232.363 215.199 231.94 214.973 231.4C214.746 230.853 214.633 230.22 214.633 229.5C214.633 228.78 214.746 228.15 214.973 227.61C215.199 227.063 215.519 226.64 215.933 226.34C216.353 226.033 216.853 225.88 217.433 225.88C218.013 225.88 218.509 226.033 218.923 226.34C219.336 226.64 219.653 227.063 219.873 227.61C220.099 228.15 220.213 228.78 220.213 229.5C220.213 230.22 220.099 230.853 219.873 231.4C219.653 231.94 219.336 232.363 218.923 232.67C218.509 232.97 218.013 233.12 217.433 233.12ZM217.433 232.38C217.799 232.38 218.126 232.267 218.413 232.04C218.699 231.807 218.926 231.477 219.093 231.05C219.266 230.617 219.353 230.1 219.353 229.5C219.353 228.893 219.266 228.377 219.093 227.95C218.926 227.523 218.699 227.197 218.413 226.97C218.126 226.743 217.799 226.63 217.433 226.63C217.059 226.63 216.726 226.743 216.433 226.97C216.139 227.197 215.909 227.523 215.743 227.95C215.576 228.377 215.493 228.893 215.493 229.5C215.493 230.1 215.576 230.617 215.743 231.05C215.909 231.477 216.139 231.807 216.433 232.04C216.726 232.267 217.059 232.38 217.433 232.38ZM223.995 233.12C223.415 233.12 222.915 232.97 222.495 232.67C222.082 232.363 221.762 231.94 221.535 231.4C221.308 230.853 221.195 230.22 221.195 229.5C221.195 228.78 221.308 228.15 221.535 227.61C221.762 227.063 222.082 226.64 222.495 226.34C222.915 226.033 223.415 225.88 223.995 225.88C224.575 225.88 225.072 226.033 225.485 226.34C225.898 226.64 226.215 227.063 226.435 227.61C226.662 228.15 226.775 228.78 226.775 229.5C226.775 230.22 226.662 230.853 226.435 231.4C226.215 231.94 225.898 232.363 225.485 232.67C225.072 232.97 224.575 233.12 223.995 233.12ZM223.995 232.38C224.362 232.38 224.688 232.267 224.975 232.04C225.262 231.807 225.488 231.477 225.655 231.05C225.828 230.617 225.915 230.1 225.915 229.5C225.915 228.893 225.828 228.377 225.655 227.95C225.488 227.523 225.262 227.197 224.975 226.97C224.688 226.743 224.362 226.63 223.995 226.63C223.622 226.63 223.288 226.743 222.995 226.97C222.702 227.197 222.472 227.523 222.305 227.95C222.138 228.377 222.055 228.893 222.055 229.5C222.055 230.1 222.138 230.617 222.305 231.05C222.472 231.477 222.702 231.807 222.995 232.04C223.288 232.267 223.622 232.38 223.995 232.38Z" fill="#77758D"/>
<path d="M257.08 233.12C256.613 233.12 256.207 233.037 255.86 232.87C255.52 232.703 255.25 232.48 255.05 232.2C254.857 231.913 254.737 231.587 254.69 231.22H255.51C255.583 231.567 255.753 231.85 256.02 232.07C256.293 232.29 256.65 232.4 257.09 232.4C257.417 232.4 257.693 232.327 257.92 232.18C258.153 232.027 258.333 231.82 258.46 231.56C258.587 231.293 258.65 230.997 258.65 230.67C258.65 230.343 258.587 230.057 258.46 229.81C258.34 229.557 258.167 229.36 257.94 229.22C257.713 229.073 257.447 229 257.14 229C256.773 229 256.46 229.073 256.2 229.22C255.947 229.367 255.75 229.547 255.61 229.76H254.78L255.31 226H259.07V226.73H255.96L255.6 228.92C255.767 228.733 255.987 228.583 256.26 228.47C256.54 228.35 256.863 228.29 257.23 228.29C257.57 228.29 257.877 228.35 258.15 228.47C258.423 228.59 258.657 228.76 258.85 228.98C259.05 229.193 259.2 229.443 259.3 229.73C259.407 230.017 259.46 230.327 259.46 230.66C259.46 230.993 259.403 231.31 259.29 231.61C259.183 231.903 259.027 232.163 258.82 232.39C258.62 232.617 258.373 232.797 258.08 232.93C257.787 233.057 257.453 233.12 257.08 233.12ZM263.354 233.12C262.774 233.12 262.274 232.97 261.854 232.67C261.441 232.363 261.121 231.94 260.894 231.4C260.668 230.853 260.554 230.22 260.554 229.5C260.554 228.78 260.668 228.15 260.894 227.61C261.121 227.063 261.441 226.64 261.854 226.34C262.274 226.033 262.774 225.88 263.354 225.88C263.934 225.88 264.431 226.033 264.844 226.34C265.258 226.64 265.574 227.063 265.794 227.61C266.021 228.15 266.134 228.78 266.134 229.5C266.134 230.22 266.021 230.853 265.794 231.4C265.574 231.94 265.258 232.363 264.844 232.67C264.431 232.97 263.934 233.12 263.354 233.12ZM263.354 232.38C263.721 232.38 264.048 232.267 264.334 232.04C264.621 231.807 264.848 231.477 265.014 231.05C265.188 230.617 265.274 230.1 265.274 229.5C265.274 228.893 265.188 228.377 265.014 227.95C264.848 227.523 264.621 227.197 264.334 226.97C264.048 226.743 263.721 226.63 263.354 226.63C262.981 226.63 262.648 226.743 262.354 226.97C262.061 227.197 261.831 227.523 261.664 227.95C261.498 228.377 261.414 228.893 261.414 229.5C261.414 230.1 261.498 230.617 261.664 231.05C261.831 231.477 262.061 231.807 262.354 232.04C262.648 232.267 262.981 232.38 263.354 232.38ZM269.917 233.12C269.337 233.12 268.837 232.97 268.417 232.67C268.004 232.363 267.684 231.94 267.457 231.4C267.23 230.853 267.117 230.22 267.117 229.5C267.117 228.78 267.23 228.15 267.457 227.61C267.684 227.063 268.004 226.64 268.417 226.34C268.837 226.033 269.337 225.88 269.917 225.88C270.497 225.88 270.994 226.033 271.407 226.34C271.82 226.64 272.137 227.063 272.357 227.61C272.584 228.15 272.697 228.78 272.697 229.5C272.697 230.22 272.584 230.853 272.357 231.4C272.137 231.94 271.82 232.363 271.407 232.67C270.994 232.97 270.497 233.12 269.917 233.12ZM269.917 232.38C270.284 232.38 270.61 232.267 270.897 232.04C271.184 231.807 271.41 231.477 271.577 231.05C271.75 230.617 271.837 230.1 271.837 229.5C271.837 228.893 271.75 228.377 271.577 227.95C271.41 227.523 271.184 227.197 270.897 226.97C270.61 226.743 270.284 226.63 269.917 226.63C269.544 226.63 269.21 226.743 268.917 226.97C268.624 227.197 268.394 227.523 268.227 227.95C268.06 228.377 267.977 228.893 267.977 229.5C267.977 230.1 268.06 230.617 268.227 231.05C268.394 231.477 268.624 231.807 268.917 232.04C269.21 232.267 269.544 232.38 269.917 232.38Z" fill="#77758D"/>
<path d="M303.25 233.12C302.75 233.12 302.327 233.027 301.98 232.84C301.64 232.653 301.367 232.403 301.16 232.09C300.96 231.77 300.813 231.41 300.72 231.01C300.627 230.61 300.58 230.2 300.58 229.78C300.58 229.007 300.683 228.33 300.89 227.75C301.103 227.163 301.41 226.707 301.81 226.38C302.21 226.047 302.693 225.88 303.26 225.88C303.7 225.88 304.077 225.963 304.39 226.13C304.71 226.297 304.963 226.52 305.15 226.8C305.337 227.073 305.45 227.38 305.49 227.72H304.71C304.643 227.367 304.48 227.093 304.22 226.9C303.967 226.707 303.643 226.61 303.25 226.61C302.897 226.61 302.58 226.72 302.3 226.94C302.027 227.16 301.81 227.493 301.65 227.94C301.49 228.38 301.4 228.943 301.38 229.63C301.38 229.643 301.38 229.657 301.38 229.67C301.38 229.683 301.38 229.697 301.38 229.71C301.473 229.497 301.613 229.3 301.8 229.12C301.987 228.94 302.213 228.797 302.48 228.69C302.747 228.577 303.04 228.52 303.36 228.52C303.753 228.52 304.117 228.613 304.45 228.8C304.79 228.987 305.063 229.25 305.27 229.59C305.477 229.923 305.58 230.317 305.58 230.77C305.58 231.163 305.483 231.54 305.29 231.9C305.103 232.26 304.837 232.553 304.49 232.78C304.143 233.007 303.73 233.12 303.25 233.12ZM303.19 232.38C303.483 232.38 303.743 232.313 303.97 232.18C304.203 232.047 304.387 231.863 304.52 231.63C304.66 231.39 304.73 231.117 304.73 230.81C304.73 230.497 304.66 230.223 304.52 229.99C304.387 229.757 304.203 229.577 303.97 229.45C303.743 229.317 303.483 229.25 303.19 229.25C302.89 229.25 302.62 229.32 302.38 229.46C302.14 229.593 301.95 229.78 301.81 230.02C301.67 230.253 301.6 230.52 301.6 230.82C301.6 231.127 301.67 231.4 301.81 231.64C301.95 231.873 302.14 232.057 302.38 232.19C302.62 232.317 302.89 232.38 303.19 232.38ZM309.53 233.12C308.95 233.12 308.45 232.97 308.03 232.67C307.617 232.363 307.297 231.94 307.07 231.4C306.844 230.853 306.73 230.22 306.73 229.5C306.73 228.78 306.844 228.15 307.07 227.61C307.297 227.063 307.617 226.64 308.03 226.34C308.45 226.033 308.95 225.88 309.53 225.88C310.11 225.88 310.607 226.033 311.02 226.34C311.434 226.64 311.75 227.063 311.97 227.61C312.197 228.15 312.31 228.78 312.31 229.5C312.31 230.22 312.197 230.853 311.97 231.4C311.75 231.94 311.434 232.363 311.02 232.67C310.607 232.97 310.11 233.12 309.53 233.12ZM309.53 232.38C309.897 232.38 310.224 232.267 310.51 232.04C310.797 231.807 311.024 231.477 311.19 231.05C311.364 230.617 311.45 230.1 311.45 229.5C311.45 228.893 311.364 228.377 311.19 227.95C311.024 227.523 310.797 227.197 310.51 226.97C310.224 226.743 309.897 226.63 309.53 226.63C309.157 226.63 308.824 226.743 308.53 226.97C308.237 227.197 308.007 227.523 307.84 227.95C307.674 228.377 307.59 228.893 307.59 229.5C307.59 230.1 307.674 230.617 307.84 231.05C308.007 231.477 308.237 231.807 308.53 232.04C308.824 232.267 309.157 232.38 309.53 232.38ZM316.093 233.12C315.513 233.12 315.013 232.97 314.593 232.67C314.179 232.363 313.859 231.94 313.633 231.4C313.406 230.853 313.293 230.22 313.293 229.5C313.293 228.78 313.406 228.15 313.633 227.61C313.859 227.063 314.179 226.64 314.593 226.34C315.013 226.033 315.513 225.88 316.093 225.88C316.673 225.88 317.169 226.033 317.583 226.34C317.996 226.64 318.313 227.063 318.533 227.61C318.759 228.15 318.873 228.78 318.873 229.5C318.873 230.22 318.759 230.853 318.533 231.4C318.313 231.94 317.996 232.363 317.583 232.67C317.169 232.97 316.673 233.12 316.093 233.12ZM316.093 232.38C316.459 232.38 316.786 232.267 317.073 232.04C317.359 231.807 317.586 231.477 317.753 231.05C317.926 230.617 318.013 230.1 318.013 229.5C318.013 228.893 317.926 228.377 317.753 227.95C317.586 227.523 317.359 227.197 317.073 226.97C316.786 226.743 316.459 226.63 316.093 226.63C315.719 226.63 315.386 226.743 315.093 226.97C314.799 227.197 314.569 227.523 314.403 227.95C314.236 228.377 314.153 228.893 314.153 229.5C314.153 230.1 314.236 230.617 314.403 231.05C314.569 231.477 314.799 231.807 315.093 232.04C315.386 232.267 315.719 232.38 316.093 232.38Z" fill="#77758D"/>
<line x1="166.75" y1="215.75" x2="166.75" y2="48.25" stroke="#343246" stroke-width="0.5" stroke-linecap="round" stroke-dasharray="4 4"/>
<line x1="102.75" y1="215.75" x2="102.75" y2="48.25" stroke="#343246" stroke-width="0.5" stroke-linecap="round" stroke-dasharray="4 4"/>
<line x1="40.75" y1="215.75" x2="40.75" y2="48.25" stroke="#343246" stroke-width="0.5" stroke-linecap="round" stroke-dasharray="4 4"/>
<line x1="231.75" y1="215.75" x2="231.75" y2="48.25" stroke="#343246" stroke-width="0.5" stroke-linecap="round" stroke-dasharray="4 4"/>
<line x1="297.75" y1="215.75" x2="297.75" y2="48.25" stroke="#343246" stroke-width="0.5" stroke-linecap="round" stroke-dasharray="4 4"/>
<line x1="323.75" y1="216.25" x2="33.25" y2="216.25" stroke="#343246" stroke-width="0.5" stroke-linecap="round" stroke-dasharray="4 4"/>
<line x1="323.75" y1="184.25" x2="33.25" y2="184.25" stroke="#343246" stroke-width="0.5" stroke-linecap="round" stroke-dasharray="4 4"/>
<line x1="323.75" y1="152.25" x2="33.25" y2="152.25" stroke="#343246" stroke-width="0.5" stroke-linecap="round" stroke-dasharray="4 4"/>
<line x1="323.75" y1="120.25" x2="33.25" y2="120.25" stroke="#343246" stroke-width="0.5" stroke-linecap="round" stroke-dasharray="4 4"/>
<line x1="323.75" y1="88.25" x2="33.25" y2="88.25" stroke="#343246" stroke-width="0.5" stroke-linecap="round" stroke-dasharray="4 4"/>
<line x1="323.75" y1="56.25" x2="33.25" y2="56.25" stroke="#343246" stroke-width="0.5" stroke-linecap="round" stroke-dasharray="4 4"/>
<rect x="235" y="18" width="2" height="6" rx="1" fill="#8471FA"/>
<path d="M243.2 24L241.28 17H242.18L243.69 23L245.4 17H246.34L248.01 23.02L249.54 17H250.44L248.48 24H247.52L245.85 18.21L244.14 24H243.2ZM251.407 24V16.8H252.247V19.59C252.421 19.29 252.657 19.0533 252.957 18.88C253.257 18.7067 253.581 18.62 253.927 18.62C254.334 18.62 254.677 18.6967 254.957 18.85C255.244 18.9967 255.461 19.2233 255.607 19.53C255.761 19.8367 255.837 20.2267 255.837 20.7V24H255.007V20.79C255.007 20.31 254.894 19.95 254.667 19.71C254.441 19.4633 254.134 19.34 253.747 19.34C253.474 19.34 253.224 19.4067 252.997 19.54C252.771 19.6667 252.587 19.8567 252.447 20.11C252.314 20.3633 252.247 20.67 252.247 21.03V24H251.407ZM257.308 24V18.74H258.148V24H257.308ZM257.728 17.74C257.561 17.74 257.421 17.6867 257.308 17.58C257.201 17.4667 257.148 17.3267 257.148 17.16C257.148 16.9933 257.201 16.86 257.308 16.76C257.421 16.6533 257.561 16.6 257.728 16.6C257.888 16.6 258.024 16.6533 258.138 16.76C258.251 16.86 258.308 16.9933 258.308 17.16C258.308 17.3267 258.251 17.4667 258.138 17.58C258.024 17.6867 257.888 17.74 257.728 17.74ZM261.54 24.12C261.066 24.12 260.673 24.05 260.36 23.91C260.053 23.7633 259.82 23.5633 259.66 23.31C259.5 23.05 259.403 22.75 259.37 22.41H260.23C260.256 22.59 260.316 22.7567 260.41 22.91C260.51 23.0567 260.653 23.1767 260.84 23.27C261.026 23.3633 261.263 23.41 261.55 23.41C261.776 23.41 261.97 23.3767 262.13 23.31C262.29 23.2367 262.41 23.1367 262.49 23.01C262.576 22.8833 262.62 22.7367 262.62 22.57C262.62 22.35 262.57 22.18 262.47 22.06C262.376 21.9333 262.236 21.84 262.05 21.78C261.87 21.7133 261.643 21.6633 261.37 21.63C261.076 21.59 260.816 21.5333 260.59 21.46C260.363 21.3867 260.17 21.29 260.01 21.17C259.856 21.05 259.74 20.9 259.66 20.72C259.58 20.54 259.54 20.3267 259.54 20.08C259.54 19.7933 259.616 19.54 259.77 19.32C259.923 19.1 260.14 18.93 260.42 18.81C260.706 18.6833 261.043 18.62 261.43 18.62C261.996 18.62 262.443 18.75 262.77 19.01C263.103 19.27 263.3 19.64 263.36 20.12H262.53C262.496 19.8733 262.383 19.68 262.19 19.54C261.996 19.4 261.74 19.33 261.42 19.33C261.08 19.33 260.823 19.3933 260.65 19.52C260.476 19.6467 260.39 19.8133 260.39 20.02C260.39 20.1733 260.426 20.3133 260.5 20.44C260.58 20.56 260.713 20.6633 260.9 20.75C261.086 20.83 261.336 20.89 261.65 20.93C262.043 20.9767 262.376 21.0533 262.65 21.16C262.923 21.26 263.13 21.4167 263.27 21.63C263.416 21.8433 263.486 22.1333 263.48 22.5C263.48 22.8467 263.396 23.14 263.23 23.38C263.07 23.62 262.843 23.8033 262.55 23.93C262.263 24.0567 261.926 24.12 261.54 24.12ZM264.728 26.2V18.74H265.488L265.558 19.56C265.664 19.3867 265.798 19.23 265.958 19.09C266.124 18.95 266.321 18.8367 266.548 18.75C266.781 18.6633 267.048 18.62 267.348 18.62C267.821 18.62 268.234 18.74 268.588 18.98C268.948 19.22 269.228 19.5467 269.428 19.96C269.628 20.3733 269.728 20.8467 269.728 21.38C269.728 21.9067 269.628 22.3767 269.428 22.79C269.228 23.2033 268.948 23.53 268.588 23.77C268.228 24.0033 267.811 24.12 267.338 24.12C266.931 24.12 266.574 24.0367 266.268 23.87C265.961 23.7033 265.728 23.47 265.568 23.17V26.2H264.728ZM267.238 23.39C267.551 23.39 267.828 23.31 268.068 23.15C268.314 22.9833 268.508 22.75 268.648 22.45C268.794 22.1433 268.868 21.7833 268.868 21.37C268.868 20.9567 268.794 20.6 268.648 20.3C268.508 19.9933 268.314 19.76 268.068 19.6C267.828 19.4333 267.551 19.35 267.238 19.35C266.904 19.35 266.614 19.4333 266.368 19.6C266.121 19.76 265.931 19.9933 265.798 20.3C265.664 20.6 265.598 20.9567 265.598 21.37C265.598 21.7833 265.664 22.1433 265.798 22.45C265.931 22.75 266.121 22.9833 266.368 23.15C266.614 23.31 266.904 23.39 267.238 23.39ZM273.128 24.12C272.662 24.12 272.248 24.0067 271.888 23.78C271.528 23.5533 271.245 23.2333 271.038 22.82C270.838 22.4067 270.738 21.9233 270.738 21.37C270.738 20.8167 270.838 20.3333 271.038 19.92C271.245 19.5067 271.528 19.1867 271.888 18.96C272.255 18.7333 272.675 18.62 273.148 18.62C273.655 18.62 274.078 18.7333 274.418 18.96C274.758 19.1867 275.015 19.49 275.188 19.87C275.362 20.25 275.448 20.6667 275.448 21.12C275.448 21.1867 275.448 21.2533 275.448 21.32C275.448 21.3867 275.445 21.4667 275.438 21.56H271.368V20.91H274.628C274.615 20.3967 274.465 20.0067 274.178 19.74C273.898 19.4667 273.548 19.33 273.128 19.33C272.848 19.33 272.588 19.4 272.348 19.54C272.115 19.6733 271.925 19.8733 271.778 20.14C271.632 20.4067 271.558 20.74 271.558 21.14V21.42C271.558 21.86 271.632 22.23 271.778 22.53C271.925 22.8233 272.115 23.0433 272.348 23.19C272.588 23.3367 272.848 23.41 273.128 23.41C273.502 23.41 273.795 23.34 274.008 23.2C274.222 23.0533 274.378 22.8467 274.478 22.58H275.308C275.228 22.8733 275.088 23.1367 274.888 23.37C274.695 23.6033 274.448 23.7867 274.148 23.92C273.855 24.0533 273.515 24.12 273.128 24.12ZM276.612 24V18.74H277.372L277.432 19.7C277.552 19.46 277.709 19.26 277.902 19.1C278.096 18.94 278.329 18.82 278.602 18.74C278.882 18.66 279.196 18.62 279.542 18.62V19.5H279.022C278.822 19.5 278.629 19.5267 278.442 19.58C278.256 19.6333 278.086 19.72 277.932 19.84C277.786 19.96 277.669 20.1233 277.582 20.33C277.496 20.5367 277.452 20.7967 277.452 21.11V24H276.612ZM280.509 25.15V24.36H285.399V25.15H280.509ZM288.857 24C288.557 24 288.297 23.9533 288.077 23.86C287.857 23.7667 287.687 23.61 287.567 23.39C287.454 23.1633 287.397 22.86 287.397 22.48V19.45H286.477V18.74H287.397L287.507 17.43H288.237V18.74H289.727V19.45H288.237V22.48C288.237 22.7933 288.301 23.0067 288.427 23.12C288.554 23.2267 288.777 23.28 289.097 23.28H289.707V24H288.857ZM290.96 24V18.74H291.8V24H290.96ZM291.38 17.74C291.213 17.74 291.073 17.6867 290.96 17.58C290.853 17.4667 290.8 17.3267 290.8 17.16C290.8 16.9933 290.853 16.86 290.96 16.76C291.073 16.6533 291.213 16.6 291.38 16.6C291.54 16.6 291.677 16.6533 291.79 16.76C291.903 16.86 291.96 16.9933 291.96 17.16C291.96 17.3267 291.903 17.4667 291.79 17.58C291.677 17.6867 291.54 17.74 291.38 17.74ZM293.292 24V18.74H294.052L294.092 19.57C294.245 19.27 294.465 19.0367 294.752 18.87C295.045 18.7033 295.382 18.62 295.762 18.62C296.149 18.62 296.485 18.6933 296.772 18.84C297.059 18.9867 297.282 19.21 297.442 19.51C297.602 19.81 297.682 20.19 297.682 20.65V24H296.842V20.74C296.842 20.2733 296.725 19.9233 296.492 19.69C296.265 19.4567 295.959 19.34 295.572 19.34C295.312 19.34 295.072 19.4033 294.852 19.53C294.632 19.65 294.455 19.83 294.322 20.07C294.195 20.31 294.132 20.6033 294.132 20.95V24H293.292ZM299.517 26.2L300.707 23.44H300.417L298.447 18.74H299.357L300.987 22.79L302.687 18.74H303.557L300.387 26.2H299.517Z" fill="#8471FA"/>
<rect x="235" y="34" width="2" height="6" rx="1" fill="#2EBBBF"/>
<path d="M243.2 40L241.28 33H242.18L243.69 39L245.4 33H246.34L248.01 39.02L249.54 33H250.44L248.48 40H247.52L245.85 34.21L244.14 40H243.2ZM251.407 40V32.8H252.247V35.59C252.421 35.29 252.657 35.0533 252.957 34.88C253.257 34.7067 253.581 34.62 253.927 34.62C254.334 34.62 254.677 34.6967 254.957 34.85C255.244 34.9967 255.461 35.2233 255.607 35.53C255.761 35.8367 255.837 36.2267 255.837 36.7V40H255.007V36.79C255.007 36.31 254.894 35.95 254.667 35.71C254.441 35.4633 254.134 35.34 253.747 35.34C253.474 35.34 253.224 35.4067 252.997 35.54C252.771 35.6667 252.587 35.8567 252.447 36.11C252.314 36.3633 252.247 36.67 252.247 37.03V40H251.407ZM257.308 40V34.74H258.148V40H257.308ZM257.728 33.74C257.561 33.74 257.421 33.6867 257.308 33.58C257.201 33.4667 257.148 33.3267 257.148 33.16C257.148 32.9933 257.201 32.86 257.308 32.76C257.421 32.6533 257.561 32.6 257.728 32.6C257.888 32.6 258.024 32.6533 258.138 32.76C258.251 32.86 258.308 32.9933 258.308 33.16C258.308 33.3267 258.251 33.4667 258.138 33.58C258.024 33.6867 257.888 33.74 257.728 33.74ZM261.54 40.12C261.066 40.12 260.673 40.05 260.36 39.91C260.053 39.7633 259.82 39.5633 259.66 39.31C259.5 39.05 259.403 38.75 259.37 38.41H260.23C260.256 38.59 260.316 38.7567 260.41 38.91C260.51 39.0567 260.653 39.1767 260.84 39.27C261.026 39.3633 261.263 39.41 261.55 39.41C261.776 39.41 261.97 39.3767 262.13 39.31C262.29 39.2367 262.41 39.1367 262.49 39.01C262.576 38.8833 262.62 38.7367 262.62 38.57C262.62 38.35 262.57 38.18 262.47 38.06C262.376 37.9333 262.236 37.84 262.05 37.78C261.87 37.7133 261.643 37.6633 261.37 37.63C261.076 37.59 260.816 37.5333 260.59 37.46C260.363 37.3867 260.17 37.29 260.01 37.17C259.856 37.05 259.74 36.9 259.66 36.72C259.58 36.54 259.54 36.3267 259.54 36.08C259.54 35.7933 259.616 35.54 259.77 35.32C259.923 35.1 260.14 34.93 260.42 34.81C260.706 34.6833 261.043 34.62 261.43 34.62C261.996 34.62 262.443 34.75 262.77 35.01C263.103 35.27 263.3 35.64 263.36 36.12H262.53C262.496 35.8733 262.383 35.68 262.19 35.54C261.996 35.4 261.74 35.33 261.42 35.33C261.08 35.33 260.823 35.3933 260.65 35.52C260.476 35.6467 260.39 35.8133 260.39 36.02C260.39 36.1733 260.426 36.3133 260.5 36.44C260.58 36.56 260.713 36.6633 260.9 36.75C261.086 36.83 261.336 36.89 261.65 36.93C262.043 36.9767 262.376 37.0533 262.65 37.16C262.923 37.26 263.13 37.4167 263.27 37.63C263.416 37.8433 263.486 38.1333 263.48 38.5C263.48 38.8467 263.396 39.14 263.23 39.38C263.07 39.62 262.843 39.8033 262.55 39.93C262.263 40.0567 261.926 40.12 261.54 40.12ZM264.728 40V32.8H265.568V35.59C265.741 35.29 265.978 35.0533 266.278 34.88C266.578 34.7067 266.901 34.62 267.248 34.62C267.654 34.62 267.998 34.6967 268.278 34.85C268.564 34.9967 268.781 35.2233 268.928 35.53C269.081 35.8367 269.158 36.2267 269.158 36.7V40H268.328V36.79C268.328 36.31 268.214 35.95 267.988 35.71C267.761 35.4633 267.454 35.34 267.068 35.34C266.794 35.34 266.544 35.4067 266.318 35.54C266.091 35.6667 265.908 35.8567 265.768 36.11C265.634 36.3633 265.568 36.67 265.568 37.03V40H264.728ZM270.548 42.2V34.74H271.308L271.378 35.56C271.485 35.3867 271.618 35.23 271.778 35.09C271.945 34.95 272.141 34.8367 272.368 34.75C272.601 34.6633 272.868 34.62 273.168 34.62C273.641 34.62 274.055 34.74 274.408 34.98C274.768 35.22 275.048 35.5467 275.248 35.96C275.448 36.3733 275.548 36.8467 275.548 37.38C275.548 37.9067 275.448 38.3767 275.248 38.79C275.048 39.2033 274.768 39.53 274.408 39.77C274.048 40.0033 273.631 40.12 273.158 40.12C272.751 40.12 272.395 40.0367 272.088 39.87C271.781 39.7033 271.548 39.47 271.388 39.17V42.2H270.548ZM273.058 39.39C273.371 39.39 273.648 39.31 273.888 39.15C274.135 38.9833 274.328 38.75 274.468 38.45C274.615 38.1433 274.688 37.7833 274.688 37.37C274.688 36.9567 274.615 36.6 274.468 36.3C274.328 35.9933 274.135 35.76 273.888 35.6C273.648 35.4333 273.371 35.35 273.058 35.35C272.725 35.35 272.435 35.4333 272.188 35.6C271.941 35.76 271.751 35.9933 271.618 36.3C271.485 36.6 271.418 36.9567 271.418 37.37C271.418 37.7833 271.485 38.1433 271.618 38.45C271.751 38.75 271.941 38.9833 272.188 39.15C272.435 39.31 272.725 39.39 273.058 39.39ZM278.949 40.12C278.482 40.12 278.069 40.0067 277.709 39.78C277.349 39.5533 277.065 39.2333 276.859 38.82C276.659 38.4067 276.559 37.9233 276.559 37.37C276.559 36.8167 276.659 36.3333 276.859 35.92C277.065 35.5067 277.349 35.1867 277.709 34.96C278.075 34.7333 278.495 34.62 278.969 34.62C279.475 34.62 279.899 34.7333 280.239 34.96C280.579 35.1867 280.835 35.49 281.009 35.87C281.182 36.25 281.269 36.6667 281.269 37.12C281.269 37.1867 281.269 37.2533 281.269 37.32C281.269 37.3867 281.265 37.4667 281.259 37.56H277.189V36.91H280.449C280.435 36.3967 280.285 36.0067 279.999 35.74C279.719 35.4667 279.369 35.33 278.949 35.33C278.669 35.33 278.409 35.4 278.169 35.54C277.935 35.6733 277.745 35.8733 277.599 36.14C277.452 36.4067 277.379 36.74 277.379 37.14V37.42C277.379 37.86 277.452 38.23 277.599 38.53C277.745 38.8233 277.935 39.0433 278.169 39.19C278.409 39.3367 278.669 39.41 278.949 39.41C279.322 39.41 279.615 39.34 279.829 39.2C280.042 39.0533 280.199 38.8467 280.299 38.58H281.129C281.049 38.8733 280.909 39.1367 280.709 39.37C280.515 39.6033 280.269 39.7867 279.969 39.92C279.675 40.0533 279.335 40.12 278.949 40.12ZM282.433 40V34.74H283.193L283.253 35.7C283.373 35.46 283.529 35.26 283.723 35.1C283.916 34.94 284.149 34.82 284.423 34.74C284.703 34.66 285.016 34.62 285.363 34.62V35.5H284.843C284.643 35.5 284.449 35.5267 284.263 35.58C284.076 35.6333 283.906 35.72 283.753 35.84C283.606 35.96 283.489 36.1233 283.403 36.33C283.316 36.5367 283.273 36.7967 283.273 37.11V40H282.433ZM286.329 41.15V40.36H291.219V41.15H286.329ZM295.258 40.12C294.938 40.12 294.661 40.0733 294.428 39.98C294.201 39.88 294.008 39.7567 293.848 39.61C293.694 39.4633 293.568 39.32 293.468 39.18L293.398 40H292.638V32.8H293.478V35.57C293.638 35.2567 293.874 35.02 294.188 34.86C294.501 34.7 294.851 34.62 295.238 34.62C295.718 34.62 296.138 34.7367 296.498 34.97C296.858 35.2033 297.138 35.5267 297.338 35.94C297.538 36.3467 297.638 36.8167 297.638 37.35C297.638 37.8767 297.538 38.35 297.338 38.77C297.138 39.19 296.858 39.52 296.498 39.76C296.144 40 295.731 40.12 295.258 40.12ZM295.148 39.39C295.461 39.39 295.738 39.31 295.978 39.15C296.224 38.9833 296.418 38.75 296.558 38.45C296.704 38.1433 296.778 37.7833 296.778 37.37C296.778 36.9567 296.704 36.6 296.558 36.3C296.418 35.9933 296.224 35.76 295.978 35.6C295.738 35.4333 295.461 35.35 295.148 35.35C294.814 35.35 294.524 35.4333 294.278 35.6C294.031 35.76 293.841 35.9933 293.708 36.3C293.574 36.6 293.508 36.9567 293.508 37.37C293.508 37.7833 293.574 38.1433 293.708 38.45C293.841 38.75 294.031 38.9833 294.278 39.15C294.524 39.31 294.814 39.39 295.148 39.39ZM300.498 40.12C300.098 40.12 299.765 40.0467 299.498 39.9C299.232 39.7467 299.032 39.5467 298.898 39.3C298.765 39.0467 298.698 38.7767 298.698 38.49C298.698 38.1433 298.785 37.85 298.958 37.61C299.138 37.3633 299.388 37.1767 299.708 37.05C300.028 36.9233 300.402 36.86 300.828 36.86H302.138C302.138 36.52 302.098 36.2367 302.018 36.01C301.938 35.7833 301.808 35.6133 301.628 35.5C301.448 35.3867 301.208 35.33 300.908 35.33C300.608 35.33 300.352 35.4067 300.138 35.56C299.925 35.7067 299.792 35.9267 299.738 36.22H298.878C298.918 35.8733 299.035 35.5833 299.228 35.35C299.422 35.11 299.665 34.93 299.958 34.81C300.258 34.6833 300.575 34.62 300.908 34.62C301.382 34.62 301.772 34.7067 302.078 34.88C302.385 35.0467 302.612 35.2833 302.758 35.59C302.905 35.89 302.978 36.2467 302.978 36.66V40H302.228L302.178 39.1C302.112 39.24 302.025 39.3733 301.918 39.5C301.818 39.62 301.698 39.7267 301.558 39.82C301.418 39.9133 301.258 39.9867 301.078 40.04C300.905 40.0933 300.712 40.12 300.498 40.12ZM300.618 39.41C300.838 39.41 301.042 39.36 301.228 39.26C301.415 39.16 301.575 39.0267 301.708 38.86C301.848 38.6867 301.955 38.4933 302.028 38.28C302.102 38.0667 302.138 37.8433 302.138 37.61V37.51H300.898C300.585 37.51 300.328 37.55 300.128 37.63C299.935 37.71 299.795 37.8233 299.708 37.97C299.622 38.11 299.578 38.27 299.578 38.45C299.578 38.6433 299.618 38.8133 299.698 38.96C299.778 39.1 299.895 39.21 300.048 39.29C300.208 39.37 300.398 39.41 300.618 39.41ZM306.266 40.12C305.793 40.12 305.4 40.05 305.086 39.91C304.78 39.7633 304.546 39.5633 304.386 39.31C304.226 39.05 304.13 38.75 304.096 38.41H304.956C304.983 38.59 305.043 38.7567 305.136 38.91C305.236 39.0567 305.38 39.1767 305.566 39.27C305.753 39.3633 305.99 39.41 306.276 39.41C306.503 39.41 306.696 39.3767 306.856 39.31C307.016 39.2367 307.136 39.1367 307.216 39.01C307.303 38.8833 307.346 38.7367 307.346 38.57C307.346 38.35 307.296 38.18 307.196 38.06C307.103 37.9333 306.963 37.84 306.776 37.78C306.596 37.7133 306.37 37.6633 306.096 37.63C305.803 37.59 305.543 37.5333 305.316 37.46C305.09 37.3867 304.896 37.29 304.736 37.17C304.583 37.05 304.466 36.9 304.386 36.72C304.306 36.54 304.266 36.3267 304.266 36.08C304.266 35.7933 304.343 35.54 304.496 35.32C304.65 35.1 304.866 34.93 305.146 34.81C305.433 34.6833 305.77 34.62 306.156 34.62C306.723 34.62 307.17 34.75 307.496 35.01C307.83 35.27 308.026 35.64 308.086 36.12H307.256C307.223 35.8733 307.11 35.68 306.916 35.54C306.723 35.4 306.466 35.33 306.146 35.33C305.806 35.33 305.55 35.3933 305.376 35.52C305.203 35.6467 305.116 35.8133 305.116 36.02C305.116 36.1733 305.153 36.3133 305.226 36.44C305.306 36.56 305.44 36.6633 305.626 36.75C305.813 36.83 306.063 36.89 306.376 36.93C306.77 36.9767 307.103 37.0533 307.376 37.16C307.65 37.26 307.856 37.4167 307.996 37.63C308.143 37.8433 308.213 38.1333 308.206 38.5C308.206 38.8467 308.123 39.14 307.956 39.38C307.796 39.62 307.57 39.8033 307.276 39.93C306.99 40.0567 306.653 40.12 306.266 40.12ZM311.634 40.12C311.167 40.12 310.754 40.0067 310.394 39.78C310.034 39.5533 309.751 39.2333 309.544 38.82C309.344 38.4067 309.244 37.9233 309.244 37.37C309.244 36.8167 309.344 36.3333 309.544 35.92C309.751 35.5067 310.034 35.1867 310.394 34.96C310.761 34.7333 311.181 34.62 311.654 34.62C312.161 34.62 312.584 34.7333 312.924 34.96C313.264 35.1867 313.521 35.49 313.694 35.87C313.867 36.25 313.954 36.6667 313.954 37.12C313.954 37.1867 313.954 37.2533 313.954 37.32C313.954 37.3867 313.951 37.4667 313.944 37.56H309.874V36.91H313.134C313.121 36.3967 312.971 36.0067 312.684 35.74C312.404 35.4667 312.054 35.33 311.634 35.33C311.354 35.33 311.094 35.4 310.854 35.54C310.621 35.6733 310.431 35.8733 310.284 36.14C310.137 36.4067 310.064 36.74 310.064 37.14V37.42C310.064 37.86 310.137 38.23 310.284 38.53C310.431 38.8233 310.621 39.0433 310.854 39.19C311.094 39.3367 311.354 39.41 311.634 39.41C312.007 39.41 312.301 39.34 312.514 39.2C312.727 39.0533 312.884 38.8467 312.984 38.58H313.814C313.734 38.8733 313.594 39.1367 313.394 39.37C313.201 39.6033 312.954 39.7867 312.654 39.92C312.361 40.0533 312.021 40.12 311.634 40.12Z" fill="#2EBBBF"/>
<rect x="235" y="50" width="2" height="6" rx="1" fill="#FFAD32"/>
<path d="M243.2 56L241.28 49H242.18L243.69 55L245.4 49H246.34L248.01 55.02L249.54 49H250.44L248.48 56H247.52L245.85 50.21L244.14 56H243.2ZM251.407 56V48.8H252.247V51.59C252.421 51.29 252.657 51.0533 252.957 50.88C253.257 50.7067 253.581 50.62 253.927 50.62C254.334 50.62 254.677 50.6967 254.957 50.85C255.244 50.9967 255.461 51.2233 255.607 51.53C255.761 51.8367 255.837 52.2267 255.837 52.7V56H255.007V52.79C255.007 52.31 254.894 51.95 254.667 51.71C254.441 51.4633 254.134 51.34 253.747 51.34C253.474 51.34 253.224 51.4067 252.997 51.54C252.771 51.6667 252.587 51.8567 252.447 52.11C252.314 52.3633 252.247 52.67 252.247 53.03V56H251.407ZM257.308 56V50.74H258.148V56H257.308ZM257.728 49.74C257.561 49.74 257.421 49.6867 257.308 49.58C257.201 49.4667 257.148 49.3267 257.148 49.16C257.148 48.9933 257.201 48.86 257.308 48.76C257.421 48.6533 257.561 48.6 257.728 48.6C257.888 48.6 258.024 48.6533 258.138 48.76C258.251 48.86 258.308 48.9933 258.308 49.16C258.308 49.3267 258.251 49.4667 258.138 49.58C258.024 49.6867 257.888 49.74 257.728 49.74ZM261.54 56.12C261.066 56.12 260.673 56.05 260.36 55.91C260.053 55.7633 259.82 55.5633 259.66 55.31C259.5 55.05 259.403 54.75 259.37 54.41H260.23C260.256 54.59 260.316 54.7567 260.41 54.91C260.51 55.0567 260.653 55.1767 260.84 55.27C261.026 55.3633 261.263 55.41 261.55 55.41C261.776 55.41 261.97 55.3767 262.13 55.31C262.29 55.2367 262.41 55.1367 262.49 55.01C262.576 54.8833 262.62 54.7367 262.62 54.57C262.62 54.35 262.57 54.18 262.47 54.06C262.376 53.9333 262.236 53.84 262.05 53.78C261.87 53.7133 261.643 53.6633 261.37 53.63C261.076 53.59 260.816 53.5333 260.59 53.46C260.363 53.3867 260.17 53.29 260.01 53.17C259.856 53.05 259.74 52.9 259.66 52.72C259.58 52.54 259.54 52.3267 259.54 52.08C259.54 51.7933 259.616 51.54 259.77 51.32C259.923 51.1 260.14 50.93 260.42 50.81C260.706 50.6833 261.043 50.62 261.43 50.62C261.996 50.62 262.443 50.75 262.77 51.01C263.103 51.27 263.3 51.64 263.36 52.12H262.53C262.496 51.8733 262.383 51.68 262.19 51.54C261.996 51.4 261.74 51.33 261.42 51.33C261.08 51.33 260.823 51.3933 260.65 51.52C260.476 51.6467 260.39 51.8133 260.39 52.02C260.39 52.1733 260.426 52.3133 260.5 52.44C260.58 52.56 260.713 52.6633 260.9 52.75C261.086 52.83 261.336 52.89 261.65 52.93C262.043 52.9767 262.376 53.0533 262.65 53.16C262.923 53.26 263.13 53.4167 263.27 53.63C263.416 53.8433 263.486 54.1333 263.48 54.5C263.48 54.8467 263.396 55.14 263.23 55.38C263.07 55.62 262.843 55.8033 262.55 55.93C262.263 56.0567 261.926 56.12 261.54 56.12ZM264.728 56V48.8H265.568V51.59C265.741 51.29 265.978 51.0533 266.278 50.88C266.578 50.7067 266.901 50.62 267.248 50.62C267.654 50.62 267.998 50.6967 268.278 50.85C268.564 50.9967 268.781 51.2233 268.928 51.53C269.081 51.8367 269.158 52.2267 269.158 52.7V56H268.328V52.79C268.328 52.31 268.214 51.95 267.988 51.71C267.761 51.4633 267.454 51.34 267.068 51.34C266.794 51.34 266.544 51.4067 266.318 51.54C266.091 51.6667 265.908 51.8567 265.768 52.11C265.634 52.3633 265.568 52.67 265.568 53.03V56H264.728ZM270.548 58.2V50.74H271.308L271.378 51.56C271.485 51.3867 271.618 51.23 271.778 51.09C271.945 50.95 272.141 50.8367 272.368 50.75C272.601 50.6633 272.868 50.62 273.168 50.62C273.641 50.62 274.055 50.74 274.408 50.98C274.768 51.22 275.048 51.5467 275.248 51.96C275.448 52.3733 275.548 52.8467 275.548 53.38C275.548 53.9067 275.448 54.3767 275.248 54.79C275.048 55.2033 274.768 55.53 274.408 55.77C274.048 56.0033 273.631 56.12 273.158 56.12C272.751 56.12 272.395 56.0367 272.088 55.87C271.781 55.7033 271.548 55.47 271.388 55.17V58.2H270.548ZM273.058 55.39C273.371 55.39 273.648 55.31 273.888 55.15C274.135 54.9833 274.328 54.75 274.468 54.45C274.615 54.1433 274.688 53.7833 274.688 53.37C274.688 52.9567 274.615 52.6 274.468 52.3C274.328 51.9933 274.135 51.76 273.888 51.6C273.648 51.4333 273.371 51.35 273.058 51.35C272.725 51.35 272.435 51.4333 272.188 51.6C271.941 51.76 271.751 51.9933 271.618 52.3C271.485 52.6 271.418 52.9567 271.418 53.37C271.418 53.7833 271.485 54.1433 271.618 54.45C271.751 54.75 271.941 54.9833 272.188 55.15C272.435 55.31 272.725 55.39 273.058 55.39ZM278.949 56.12C278.482 56.12 278.069 56.0067 277.709 55.78C277.349 55.5533 277.065 55.2333 276.859 54.82C276.659 54.4067 276.559 53.9233 276.559 53.37C276.559 52.8167 276.659 52.3333 276.859 51.92C277.065 51.5067 277.349 51.1867 277.709 50.96C278.075 50.7333 278.495 50.62 278.969 50.62C279.475 50.62 279.899 50.7333 280.239 50.96C280.579 51.1867 280.835 51.49 281.009 51.87C281.182 52.25 281.269 52.6667 281.269 53.12C281.269 53.1867 281.269 53.2533 281.269 53.32C281.269 53.3867 281.265 53.4667 281.259 53.56H277.189V52.91H280.449C280.435 52.3967 280.285 52.0067 279.999 51.74C279.719 51.4667 279.369 51.33 278.949 51.33C278.669 51.33 278.409 51.4 278.169 51.54C277.935 51.6733 277.745 51.8733 277.599 52.14C277.452 52.4067 277.379 52.74 277.379 53.14V53.42C277.379 53.86 277.452 54.23 277.599 54.53C277.745 54.8233 277.935 55.0433 278.169 55.19C278.409 55.3367 278.669 55.41 278.949 55.41C279.322 55.41 279.615 55.34 279.829 55.2C280.042 55.0533 280.199 54.8467 280.299 54.58H281.129C281.049 54.8733 280.909 55.1367 280.709 55.37C280.515 55.6033 280.269 55.7867 279.969 55.92C279.675 56.0533 279.335 56.12 278.949 56.12ZM282.433 56V50.74H283.193L283.253 51.7C283.373 51.46 283.529 51.26 283.723 51.1C283.916 50.94 284.149 50.82 284.423 50.74C284.703 50.66 285.016 50.62 285.363 50.62V51.5H284.843C284.643 51.5 284.449 51.5267 284.263 51.58C284.076 51.6333 283.906 51.72 283.753 51.84C283.606 51.96 283.489 52.1233 283.403 52.33C283.316 52.5367 283.273 52.7967 283.273 53.11V56H282.433ZM286.329 57.15V56.36H291.219V57.15H286.329ZM292.638 56V48.8H293.478V56H292.638ZM296.534 56.12C296.134 56.12 295.8 56.0467 295.534 55.9C295.267 55.7467 295.067 55.5467 294.934 55.3C294.8 55.0467 294.734 54.7767 294.734 54.49C294.734 54.1433 294.82 53.85 294.994 53.61C295.174 53.3633 295.424 53.1767 295.744 53.05C296.064 52.9233 296.437 52.86 296.864 52.86H298.174C298.174 52.52 298.134 52.2367 298.054 52.01C297.974 51.7833 297.844 51.6133 297.664 51.5C297.484 51.3867 297.244 51.33 296.944 51.33C296.644 51.33 296.387 51.4067 296.174 51.56C295.96 51.7067 295.827 51.9267 295.774 52.22H294.914C294.954 51.8733 295.07 51.5833 295.264 51.35C295.457 51.11 295.7 50.93 295.994 50.81C296.294 50.6833 296.61 50.62 296.944 50.62C297.417 50.62 297.807 50.7067 298.114 50.88C298.42 51.0467 298.647 51.2833 298.794 51.59C298.94 51.89 299.014 52.2467 299.014 52.66V56H298.264L298.214 55.1C298.147 55.24 298.06 55.3733 297.954 55.5C297.854 55.62 297.734 55.7267 297.594 55.82C297.454 55.9133 297.294 55.9867 297.114 56.04C296.94 56.0933 296.747 56.12 296.534 56.12ZM296.654 55.41C296.874 55.41 297.077 55.36 297.264 55.26C297.45 55.16 297.61 55.0267 297.744 54.86C297.884 54.6867 297.99 54.4933 298.064 54.28C298.137 54.0667 298.174 53.8433 298.174 53.61V53.51H296.934C296.62 53.51 296.364 53.55 296.164 53.63C295.97 53.71 295.83 53.8233 295.744 53.97C295.657 54.11 295.614 54.27 295.614 54.45C295.614 54.6433 295.654 54.8133 295.734 54.96C295.814 55.1 295.93 55.21 296.084 55.29C296.244 55.37 296.434 55.41 296.654 55.41ZM300.401 56V50.74H301.161L301.221 51.7C301.341 51.46 301.498 51.26 301.691 51.1C301.885 50.94 302.118 50.82 302.391 50.74C302.671 50.66 302.985 50.62 303.331 50.62V51.5H302.811C302.611 51.5 302.418 51.5267 302.231 51.58C302.045 51.6333 301.875 51.72 301.721 51.84C301.575 51.96 301.458 52.1233 301.371 52.33C301.285 52.5367 301.241 52.7967 301.241 53.11V56H300.401ZM306.241 58.32C305.767 58.32 305.351 58.26 304.991 58.14C304.637 58.0267 304.361 57.85 304.161 57.61C303.967 57.37 303.871 57.0733 303.871 56.72C303.871 56.5533 303.901 56.38 303.961 56.2C304.027 56.02 304.137 55.8467 304.291 55.68C304.451 55.5133 304.674 55.3633 304.961 55.23L305.601 55.57C305.221 55.7167 304.974 55.8867 304.861 56.08C304.747 56.2733 304.691 56.46 304.691 56.64C304.691 56.86 304.754 57.0433 304.881 57.19C305.014 57.3367 305.197 57.4467 305.431 57.52C305.664 57.5933 305.934 57.63 306.241 57.63C306.541 57.63 306.797 57.59 307.011 57.51C307.231 57.4367 307.397 57.3267 307.511 57.18C307.631 57.04 307.691 56.8733 307.691 56.68C307.691 56.4 307.601 56.18 307.421 56.02C307.241 55.8667 306.891 55.7767 306.371 55.75C305.964 55.7233 305.624 55.6867 305.351 55.64C305.077 55.5933 304.851 55.54 304.671 55.48C304.497 55.4133 304.351 55.34 304.231 55.26C304.117 55.18 304.014 55.0967 303.921 55.01V54.78L304.911 53.83L305.701 54.09L304.621 54.98L304.751 54.6C304.824 54.6533 304.894 54.7033 304.961 54.75C305.027 54.7967 305.117 54.84 305.231 54.88C305.351 54.9133 305.514 54.9467 305.721 54.98C305.934 55.0133 306.214 55.0433 306.561 55.07C307.041 55.1033 307.424 55.1833 307.711 55.31C307.997 55.4367 308.204 55.6133 308.331 55.84C308.457 56.06 308.521 56.33 308.521 56.65C308.521 56.93 308.441 57.1967 308.281 57.45C308.127 57.7033 307.881 57.91 307.541 58.07C307.207 58.2367 306.774 58.32 306.241 58.32ZM306.231 54.36C305.804 54.36 305.441 54.28 305.141 54.12C304.847 53.9533 304.624 53.73 304.471 53.45C304.317 53.1633 304.241 52.8433 304.241 52.49C304.241 52.1367 304.317 51.82 304.471 51.54C304.631 51.26 304.857 51.0367 305.151 50.87C305.451 50.7033 305.811 50.62 306.231 50.62C306.664 50.62 307.027 50.7033 307.321 50.87C307.614 51.0367 307.837 51.26 307.991 51.54C308.144 51.82 308.221 52.1367 308.221 52.49C308.221 52.8433 308.144 53.1633 307.991 53.45C307.837 53.73 307.614 53.9533 307.321 54.12C307.027 54.28 306.664 54.36 306.231 54.36ZM306.231 53.67C306.604 53.67 306.894 53.5733 307.101 53.38C307.307 53.18 307.411 52.8833 307.411 52.49C307.411 52.0967 307.307 51.8033 307.101 51.61C306.894 51.4167 306.604 51.32 306.231 51.32C305.877 51.32 305.587 51.4167 305.361 51.61C305.141 51.8033 305.031 52.0967 305.031 52.49C305.031 52.8833 305.137 53.18 305.351 53.38C305.571 53.5733 305.864 53.67 306.231 53.67ZM307.111 51.45L306.861 50.74H308.921V51.37L307.111 51.45ZM311.917 56.12C311.451 56.12 311.037 56.0067 310.677 55.78C310.317 55.5533 310.034 55.2333 309.827 54.82C309.627 54.4067 309.527 53.9233 309.527 53.37C309.527 52.8167 309.627 52.3333 309.827 51.92C310.034 51.5067 310.317 51.1867 310.677 50.96C311.044 50.7333 311.464 50.62 311.937 50.62C312.444 50.62 312.867 50.7333 313.207 50.96C313.547 51.1867 313.804 51.49 313.977 51.87C314.151 52.25 314.237 52.6667 314.237 53.12C314.237 53.1867 314.237 53.2533 314.237 53.32C314.237 53.3867 314.234 53.4667 314.227 53.56H310.157V52.91H313.417C313.404 52.3967 313.254 52.0067 312.967 51.74C312.687 51.4667 312.337 51.33 311.917 51.33C311.637 51.33 311.377 51.4 311.137 51.54C310.904 51.6733 310.714 51.8733 310.567 52.14C310.421 52.4067 310.347 52.74 310.347 53.14V53.42C310.347 53.86 310.421 54.23 310.567 54.53C310.714 54.8233 310.904 55.0433 311.137 55.19C311.377 55.3367 311.637 55.41 311.917 55.41C312.291 55.41 312.584 55.34 312.797 55.2C313.011 55.0533 313.167 54.8467 313.267 54.58H314.097C314.017 54.8733 313.877 55.1367 313.677 55.37C313.484 55.6033 313.237 55.7867 312.937 55.92C312.644 56.0533 312.304 56.12 311.917 56.12Z" fill="#FFAD32"/>
<path d="M41.4998 56.501L47.9998 114.001L53.9998 134.001L58.4998 171.001L63.9998 184.501L66.9998 174.001L68.9998 199.001L71.4998 179.501L74.4998 194.001L75.9998 181.501L80.4998 197.501L82.9998 186.001L85.9998 194.001L86.9998 188.501L90.4998 199.001L93.9998 187.001L94.9998 204.001L96.4998 192.501L101 204.001L102 190.501L104.5 200.001L105.5 192.501L108.5 200.001L110 189.501L113 206.501L115.5 195.001L118 201.501L119 190.501L123 207.001L125 192.501L127 203.001L128.5 194.001L131.5 207.001L133.5 190.501L136 204.001L137.5 194.001L140.5 201.501V194.001L143.5 203.001L145 197.001L146 201.501L147 197.501L148 201.501" stroke="#8471FA" stroke-linecap="round"/>
<path d="M40.5 97L45 125.5L47.5 119L50 133.5L52.5 125.5L54.5 155.5L57 146V173L59 165V187.5L63 175.5L64.5 188.5L68.5 175.5V196.5L73.5 180L76 198.5L79.5 182L83 201.5L84.5 187.5L88.5 201.5L89.5 188.5L92 201.5L93.5 192.5L95 198.5L97.5 188.5L99.5 210.5L100 193L102 202.5L103.5 193L106.5 204.5L108 196.5L110 203.5L111 195.5L114 207V199.5L116 204.5L117.5 196.5L119.5 208L120.5 198.5L122.5 208L124 199.5L126 207L128 201.5L129.5 209.5L130.5 204.5L133 209.5L135 204.5V208L136.5 205.5L137.5 208L139 200.5L141 212.5V205.5L143 209.5V204.5" stroke="#2EBBBF"/>
<path d="M41 110L43 85.5L46.5 136.5L49.5 107L52.5 149.5L54.5 130L57.5 198L59.5 210.5L62 187.5L64.5 214L67.5 191L69.5 214L73 182.5L75 214L78 185L81.5 85.5V187.5L84.5 171L86.5 198L90 179.5V214L93.5 198L95 215.5L98 191L101 214L104.5 176L107 214L109.5 185L111.5 210.5L113.5 187.5L115.5 210.5L118.5 195.5L120.5 212.5L122 204L125 215.5L127.5 189.5L130 214L133.5 189.5L135 214L136.5 189.5L139.5 214L142.5 97.5V212.5L145.5 194.5L148 214L150.5 193L152.5 212.5L155 201L158 210.5L160.5 189.5L163 209L164.5 203.5L168.5 214L170 189.5L172.5 210.5L174.5 202L178 210.5L180 101.5L181.5 209L183 201L186.5 210.5L188 193L190.5 210.5L195 198.5L198.5 214L200 201L204 212.5L206 185L210 212.5L210.5 198.5L213.5 210.5L217 189L222 212.5L225 195.5L228 207L229.5 185L233 212.5L235 192L236 210.5L242.5 185L246 210.5L248 189L250 210.5L254.5 192L256.5 215.5L260 193L263 214L264.5 195.5L269 210.5L269.5 197L275 214L277 204.5L280 214L279 195.5L283 209L284.5 198.5L288.5 210.5L290 197L294 215.5L295.5 198.5L298.5 210.5V164L302.5 214L303 197L307 214C307.5 202.667 307.5 196.5 307.5 198.5C307.5 200.5 309.833 205.333 310.5 215.5L309.5 197L314.5 215.5V202L317.5 206" stroke="#D9A215" stroke-linecap="round"/>
<path d="M250.75 184C250.45 184 250.19 183.953 249.97 183.86C249.75 183.767 249.58 183.61 249.46 183.39C249.347 183.163 249.29 182.86 249.29 182.48V179.45H248.37V178.74H249.29L249.4 177.43H250.13V178.74H251.62V179.45H250.13V182.48C250.13 182.793 250.193 183.007 250.32 183.12C250.447 183.227 250.67 183.28 250.99 183.28H251.6V184H250.75ZM252.773 184V178.74H253.532L253.593 179.7C253.713 179.46 253.869 179.26 254.063 179.1C254.256 178.94 254.489 178.82 254.763 178.74C255.043 178.66 255.356 178.62 255.703 178.62V179.5H255.183C254.983 179.5 254.789 179.527 254.603 179.58C254.416 179.633 254.246 179.72 254.093 179.84C253.946 179.96 253.829 180.123 253.743 180.33C253.656 180.537 253.613 180.797 253.613 181.11V184H252.773ZM258.309 184.12C257.909 184.12 257.576 184.047 257.309 183.9C257.042 183.747 256.842 183.547 256.709 183.3C256.576 183.047 256.509 182.777 256.509 182.49C256.509 182.143 256.596 181.85 256.769 181.61C256.949 181.363 257.199 181.177 257.519 181.05C257.839 180.923 258.212 180.86 258.639 180.86H259.949C259.949 180.52 259.909 180.237 259.829 180.01C259.749 179.783 259.619 179.613 259.439 179.5C259.259 179.387 259.019 179.33 258.719 179.33C258.419 179.33 258.162 179.407 257.949 179.56C257.736 179.707 257.602 179.927 257.549 180.22H256.689C256.729 179.873 256.846 179.583 257.039 179.35C257.232 179.11 257.476 178.93 257.769 178.81C258.069 178.683 258.386 178.62 258.719 178.62C259.192 178.62 259.582 178.707 259.889 178.88C260.196 179.047 260.422 179.283 260.569 179.59C260.716 179.89 260.789 180.247 260.789 180.66V184H260.039L259.989 183.1C259.922 183.24 259.836 183.373 259.729 183.5C259.629 183.62 259.509 183.727 259.369 183.82C259.229 183.913 259.069 183.987 258.889 184.04C258.716 184.093 258.522 184.12 258.309 184.12ZM258.429 183.41C258.649 183.41 258.852 183.36 259.039 183.26C259.226 183.16 259.386 183.027 259.519 182.86C259.659 182.687 259.766 182.493 259.839 182.28C259.912 182.067 259.949 181.843 259.949 181.61V181.51H258.709C258.396 181.51 258.139 181.55 257.939 181.63C257.746 181.71 257.606 181.823 257.519 181.97C257.432 182.11 257.389 182.27 257.389 182.45C257.389 182.643 257.429 182.813 257.509 182.96C257.589 183.1 257.706 183.21 257.859 183.29C258.019 183.37 258.209 183.41 258.429 183.41ZM262.257 184V178.74H263.097V184H262.257ZM262.677 177.74C262.51 177.74 262.37 177.687 262.257 177.58C262.15 177.467 262.097 177.327 262.097 177.16C262.097 176.993 262.15 176.86 262.257 176.76C262.37 176.653 262.51 176.6 262.677 176.6C262.837 176.6 262.973 176.653 263.087 176.76C263.2 176.86 263.257 176.993 263.257 177.16C263.257 177.327 263.2 177.467 263.087 177.58C262.973 177.687 262.837 177.74 262.677 177.74ZM264.589 184V178.74H265.349L265.389 179.57C265.542 179.27 265.762 179.037 266.049 178.87C266.342 178.703 266.679 178.62 267.059 178.62C267.446 178.62 267.782 178.693 268.069 178.84C268.356 178.987 268.579 179.21 268.739 179.51C268.899 179.81 268.979 180.19 268.979 180.65V184H268.139V180.74C268.139 180.273 268.022 179.923 267.789 179.69C267.562 179.457 267.256 179.34 266.869 179.34C266.609 179.34 266.369 179.403 266.149 179.53C265.929 179.65 265.752 179.83 265.619 180.07C265.492 180.31 265.429 180.603 265.429 180.95V184H264.589ZM269.95 184.95L272.46 176.36H273.29L270.78 184.95H269.95ZM276.024 186.32C275.551 186.32 275.134 186.26 274.774 186.14C274.421 186.027 274.144 185.85 273.944 185.61C273.751 185.37 273.654 185.073 273.654 184.72C273.654 184.553 273.684 184.38 273.744 184.2C273.811 184.02 273.921 183.847 274.074 183.68C274.234 183.513 274.457 183.363 274.744 183.23L275.384 183.57C275.004 183.717 274.757 183.887 274.644 184.08C274.531 184.273 274.474 184.46 274.474 184.64C274.474 184.86 274.537 185.043 274.664 185.19C274.797 185.337 274.981 185.447 275.214 185.52C275.447 185.593 275.717 185.63 276.024 185.63C276.324 185.63 276.581 185.59 276.794 185.51C277.014 185.437 277.181 185.327 277.294 185.18C277.414 185.04 277.474 184.873 277.474 184.68C277.474 184.4 277.384 184.18 277.204 184.02C277.024 183.867 276.674 183.777 276.154 183.75C275.747 183.723 275.407 183.687 275.134 183.64C274.861 183.593 274.634 183.54 274.454 183.48C274.281 183.413 274.134 183.34 274.014 183.26C273.901 183.18 273.797 183.097 273.704 183.01V182.78L274.694 181.83L275.484 182.09L274.404 182.98L274.534 182.6C274.607 182.653 274.677 182.703 274.744 182.75C274.811 182.797 274.901 182.84 275.014 182.88C275.134 182.913 275.297 182.947 275.504 182.98C275.717 183.013 275.997 183.043 276.344 183.07C276.824 183.103 277.207 183.183 277.494 183.31C277.781 183.437 277.987 183.613 278.114 183.84C278.241 184.06 278.304 184.33 278.304 184.65C278.304 184.93 278.224 185.197 278.064 185.45C277.911 185.703 277.664 185.91 277.324 186.07C276.991 186.237 276.557 186.32 276.024 186.32ZM276.014 182.36C275.587 182.36 275.224 182.28 274.924 182.12C274.631 181.953 274.407 181.73 274.254 181.45C274.101 181.163 274.024 180.843 274.024 180.49C274.024 180.137 274.101 179.82 274.254 179.54C274.414 179.26 274.641 179.037 274.934 178.87C275.234 178.703 275.594 178.62 276.014 178.62C276.447 178.62 276.811 178.703 277.104 178.87C277.397 179.037 277.621 179.26 277.774 179.54C277.927 179.82 278.004 180.137 278.004 180.49C278.004 180.843 277.927 181.163 277.774 181.45C277.621 181.73 277.397 181.953 277.104 182.12C276.811 182.28 276.447 182.36 276.014 182.36ZM276.014 181.67C276.387 181.67 276.677 181.573 276.884 181.38C277.091 181.18 277.194 180.883 277.194 180.49C277.194 180.097 277.091 179.803 276.884 179.61C276.677 179.417 276.387 179.32 276.014 179.32C275.661 179.32 275.371 179.417 275.144 179.61C274.924 179.803 274.814 180.097 274.814 180.49C274.814 180.883 274.921 181.18 275.134 181.38C275.354 181.573 275.647 181.67 276.014 181.67ZM276.894 179.45L276.644 178.74H278.704V179.37L276.894 179.45ZM279.716 184V176.8H280.556V184H279.716ZM284.232 184.12C283.745 184.12 283.315 184.007 282.942 183.78C282.568 183.553 282.278 183.233 282.072 182.82C281.865 182.407 281.762 181.923 281.762 181.37C281.762 180.81 281.865 180.327 282.072 179.92C282.285 179.507 282.578 179.187 282.952 178.96C283.332 178.733 283.765 178.62 284.252 178.62C284.745 178.62 285.175 178.733 285.542 178.96C285.915 179.187 286.205 179.507 286.412 179.92C286.618 180.327 286.722 180.81 286.722 181.37C286.722 181.923 286.615 182.407 286.402 182.82C286.195 183.233 285.905 183.553 285.532 183.78C285.158 184.007 284.725 184.12 284.232 184.12ZM284.232 183.4C284.538 183.4 284.815 183.327 285.062 183.18C285.308 183.027 285.502 182.8 285.642 182.5C285.788 182.193 285.862 181.817 285.862 181.37C285.862 180.917 285.792 180.54 285.652 180.24C285.512 179.94 285.318 179.717 285.072 179.57C284.832 179.417 284.558 179.34 284.252 179.34C283.952 179.34 283.678 179.417 283.432 179.57C283.185 179.717 282.988 179.94 282.842 180.24C282.695 180.54 282.622 180.917 282.622 181.37C282.622 181.817 282.692 182.193 282.832 182.5C282.978 182.8 283.172 183.027 283.412 183.18C283.658 183.327 283.932 183.4 284.232 183.4ZM290.559 184.12C290.239 184.12 289.962 184.073 289.729 183.98C289.502 183.88 289.309 183.757 289.149 183.61C288.995 183.463 288.869 183.32 288.769 183.18L288.699 184H287.939V176.8H288.779V179.57C288.939 179.257 289.175 179.02 289.489 178.86C289.802 178.7 290.152 178.62 290.539 178.62C291.019 178.62 291.439 178.737 291.799 178.97C292.159 179.203 292.439 179.527 292.639 179.94C292.839 180.347 292.939 180.817 292.939 181.35C292.939 181.877 292.839 182.35 292.639 182.77C292.439 183.19 292.159 183.52 291.799 183.76C291.445 184 291.032 184.12 290.559 184.12ZM290.449 183.39C290.762 183.39 291.039 183.31 291.279 183.15C291.525 182.983 291.719 182.75 291.859 182.45C292.005 182.143 292.079 181.783 292.079 181.37C292.079 180.957 292.005 180.6 291.859 180.3C291.719 179.993 291.525 179.76 291.279 179.6C291.039 179.433 290.762 179.35 290.449 179.35C290.115 179.35 289.825 179.433 289.579 179.6C289.332 179.76 289.142 179.993 289.009 180.3C288.875 180.6 288.809 180.957 288.809 181.37C288.809 181.783 288.875 182.143 289.009 182.45C289.142 182.75 289.332 182.983 289.579 183.15C289.825 183.31 290.115 183.39 290.449 183.39ZM295.799 184.12C295.399 184.12 295.066 184.047 294.799 183.9C294.533 183.747 294.333 183.547 294.199 183.3C294.066 183.047 293.999 182.777 293.999 182.49C293.999 182.143 294.086 181.85 294.259 181.61C294.439 181.363 294.689 181.177 295.009 181.05C295.329 180.923 295.703 180.86 296.129 180.86H297.439C297.439 180.52 297.399 180.237 297.319 180.01C297.239 179.783 297.109 179.613 296.929 179.5C296.749 179.387 296.509 179.33 296.209 179.33C295.909 179.33 295.653 179.407 295.439 179.56C295.226 179.707 295.093 179.927 295.039 180.22H294.179C294.219 179.873 294.336 179.583 294.529 179.35C294.723 179.11 294.966 178.93 295.259 178.81C295.559 178.683 295.876 178.62 296.209 178.62C296.683 178.62 297.073 178.707 297.379 178.88C297.686 179.047 297.913 179.283 298.059 179.59C298.206 179.89 298.279 180.247 298.279 180.66V184H297.529L297.479 183.1C297.413 183.24 297.326 183.373 297.219 183.5C297.119 183.62 296.999 183.727 296.859 183.82C296.719 183.913 296.559 183.987 296.379 184.04C296.206 184.093 296.013 184.12 295.799 184.12ZM295.919 183.41C296.139 183.41 296.343 183.36 296.529 183.26C296.716 183.16 296.876 183.027 297.009 182.86C297.149 182.687 297.256 182.493 297.329 182.28C297.403 182.067 297.439 181.843 297.439 181.61V181.51H296.199C295.886 181.51 295.629 181.55 295.429 181.63C295.236 181.71 295.096 181.823 295.009 181.97C294.923 182.11 294.879 182.27 294.879 182.45C294.879 182.643 294.919 182.813 294.999 182.96C295.079 183.1 295.196 183.21 295.349 183.29C295.509 183.37 295.699 183.41 295.919 183.41ZM299.667 184V176.8H300.507V184H299.667ZM301.923 185.15V184.36H306.813V185.15H301.923ZM310.131 184.12C309.658 184.12 309.265 184.05 308.951 183.91C308.645 183.763 308.411 183.563 308.251 183.31C308.091 183.05 307.995 182.75 307.961 182.41H308.821C308.848 182.59 308.908 182.757 309.001 182.91C309.101 183.057 309.245 183.177 309.431 183.27C309.618 183.363 309.855 183.41 310.141 183.41C310.368 183.41 310.561 183.377 310.721 183.31C310.881 183.237 311.001 183.137 311.081 183.01C311.168 182.883 311.211 182.737 311.211 182.57C311.211 182.35 311.161 182.18 311.061 182.06C310.968 181.933 310.828 181.84 310.641 181.78C310.461 181.713 310.235 181.663 309.961 181.63C309.668 181.59 309.408 181.533 309.181 181.46C308.955 181.387 308.761 181.29 308.601 181.17C308.448 181.05 308.331 180.9 308.251 180.72C308.171 180.54 308.131 180.327 308.131 180.08C308.131 179.793 308.208 179.54 308.361 179.32C308.515 179.1 308.731 178.93 309.011 178.81C309.298 178.683 309.635 178.62 310.021 178.62C310.588 178.62 311.035 178.75 311.361 179.01C311.695 179.27 311.891 179.64 311.951 180.12H311.121C311.088 179.873 310.975 179.68 310.781 179.54C310.588 179.4 310.331 179.33 310.011 179.33C309.671 179.33 309.415 179.393 309.241 179.52C309.068 179.647 308.981 179.813 308.981 180.02C308.981 180.173 309.018 180.313 309.091 180.44C309.171 180.56 309.305 180.663 309.491 180.75C309.678 180.83 309.928 180.89 310.241 180.93C310.635 180.977 310.968 181.053 311.241 181.16C311.515 181.26 311.721 181.417 311.861 181.63C312.008 181.843 312.078 182.133 312.071 182.5C312.071 182.847 311.988 183.14 311.821 183.38C311.661 183.62 311.435 183.803 311.141 183.93C310.855 184.057 310.518 184.12 310.131 184.12ZM315.135 184C314.835 184 314.575 183.953 314.355 183.86C314.135 183.767 313.965 183.61 313.845 183.39C313.731 183.163 313.675 182.86 313.675 182.48V179.45H312.755V178.74H313.675L313.785 177.43H314.515V178.74H316.005V179.45H314.515V182.48C314.515 182.793 314.578 183.007 314.705 183.12C314.831 183.227 315.055 183.28 315.375 183.28H315.985V184H315.135ZM319.201 184.12C318.734 184.12 318.321 184.007 317.961 183.78C317.601 183.553 317.317 183.233 317.111 182.82C316.911 182.407 316.811 181.923 316.811 181.37C316.811 180.817 316.911 180.333 317.111 179.92C317.317 179.507 317.601 179.187 317.961 178.96C318.327 178.733 318.747 178.62 319.221 178.62C319.727 178.62 320.151 178.733 320.491 178.96C320.831 179.187 321.087 179.49 321.261 179.87C321.434 180.25 321.521 180.667 321.521 181.12C321.521 181.187 321.521 181.253 321.521 181.32C321.521 181.387 321.517 181.467 321.511 181.56H317.441V180.91H320.701C320.687 180.397 320.537 180.007 320.251 179.74C319.971 179.467 319.621 179.33 319.201 179.33C318.921 179.33 318.661 179.4 318.421 179.54C318.187 179.673 317.997 179.873 317.851 180.14C317.704 180.407 317.631 180.74 317.631 181.14V181.42C317.631 181.86 317.704 182.23 317.851 182.53C317.997 182.823 318.187 183.043 318.421 183.19C318.661 183.337 318.921 183.41 319.201 183.41C319.574 183.41 319.867 183.34 320.081 183.2C320.294 183.053 320.451 182.847 320.551 182.58H321.381C321.301 182.873 321.161 183.137 320.961 183.37C320.767 183.603 320.521 183.787 320.221 183.92C319.927 184.053 319.587 184.12 319.201 184.12ZM322.685 186.2V178.74H323.445L323.515 179.56C323.621 179.387 323.755 179.23 323.915 179.09C324.081 178.95 324.278 178.837 324.505 178.75C324.738 178.663 325.005 178.62 325.305 178.62C325.778 178.62 326.191 178.74 326.545 178.98C326.905 179.22 327.185 179.547 327.385 179.96C327.585 180.373 327.685 180.847 327.685 181.38C327.685 181.907 327.585 182.377 327.385 182.79C327.185 183.203 326.905 183.53 326.545 183.77C326.185 184.003 325.768 184.12 325.295 184.12C324.888 184.12 324.531 184.037 324.225 183.87C323.918 183.703 323.685 183.47 323.525 183.17V186.2H322.685ZM325.195 183.39C325.508 183.39 325.785 183.31 326.025 183.15C326.271 182.983 326.465 182.75 326.605 182.45C326.751 182.143 326.825 181.783 326.825 181.37C326.825 180.957 326.751 180.6 326.605 180.3C326.465 179.993 326.271 179.76 326.025 179.6C325.785 179.433 325.508 179.35 325.195 179.35C324.861 179.35 324.571 179.433 324.325 179.6C324.078 179.76 323.888 179.993 323.755 180.3C323.621 180.6 323.555 180.957 323.555 181.37C323.555 181.783 323.621 182.143 323.755 182.45C323.888 182.75 324.078 182.983 324.325 183.15C324.571 183.31 324.861 183.39 325.195 183.39Z" fill="#77758D"/>
</svg>
