<svg width="202" height="60" viewBox="0 0 202 60" fill="none" xmlns="http://www.w3.org/2000/svg">
<rect y="12" width="97" height="36" rx="8" fill="#27233B"/>
<rect x="3" y="15" width="44" height="30" rx="6" fill="#38354E"/>
<path d="M25 30L32.5 30M25 22.5L25 37.5M21.5 22.5H28.5C29.9001 22.5 30.6002 22.5 31.135 22.7725C31.6054 23.0122 31.9878 23.3946 32.2275 23.865C32.5 24.3998 32.5 25.0999 32.5 26.5V33.5C32.5 34.9001 32.5 35.6002 32.2275 36.135C31.9878 36.6054 31.6054 36.9878 31.135 37.2275C30.6002 37.5 29.9001 37.5 28.5 37.5H21.5C20.0999 37.5 19.3998 37.5 18.865 37.2275C18.3946 36.9878 18.0122 36.6054 17.7725 36.135C17.5 35.6002 17.5 34.9001 17.5 33.5V26.5C17.5 25.0999 17.5 24.3998 17.7725 23.865C18.0122 23.3946 18.3946 23.0122 18.865 22.7725C19.3998 22.5 20.0999 22.5 21.5 22.5Z" stroke="url(#paint0_linear_222_2095)" stroke-width="1.07038" stroke-linecap="round" stroke-linejoin="round"/>
<g filter="url(#filter0_d_222_2095)">
<path d="M66 22.5H62.8333C62.3666 22.5 62.1333 22.5 61.955 22.5908C61.7982 22.6707 61.6707 22.7982 61.5908 22.955C61.5 23.1333 61.5 23.3666 61.5 23.8333V27C61.5 27.4667 61.5 27.7001 61.5908 27.8783C61.6707 28.0351 61.7982 28.1626 61.955 28.2425C62.1333 28.3333 62.3666 28.3333 62.8333 28.3333H66C66.4667 28.3333 66.7001 28.3333 66.8783 28.2425C67.0351 28.1626 67.1626 28.0351 67.2425 27.8783C67.3333 27.7001 67.3333 27.4667 67.3333 27V23.8333C67.3333 23.3666 67.3333 23.1333 67.2425 22.955C67.1626 22.7982 67.0351 22.6707 66.8783 22.5908C66.7001 22.5 66.4667 22.5 66 22.5Z" stroke="#77758D" stroke-width="1.07038" stroke-linecap="round" stroke-linejoin="round"/>
<path d="M75.1667 22.5H72C71.5333 22.5 71.2999 22.5 71.1217 22.5908C70.9649 22.6707 70.8374 22.7982 70.7575 22.955C70.6667 23.1333 70.6667 23.3666 70.6667 23.8333V27C70.6667 27.4667 70.6667 27.7001 70.7575 27.8783C70.8374 28.0351 70.9649 28.1626 71.1217 28.2425C71.2999 28.3333 71.5333 28.3333 72 28.3333H75.1667C75.6334 28.3333 75.8667 28.3333 76.045 28.2425C76.2018 28.1626 76.3293 28.0351 76.4092 27.8783C76.5 27.7001 76.5 27.4667 76.5 27V23.8333C76.5 23.3666 76.5 23.1333 76.4092 22.955C76.3293 22.7982 76.2018 22.6707 76.045 22.5908C75.8667 22.5 75.6334 22.5 75.1667 22.5Z" stroke="#77758D" stroke-width="1.07038" stroke-linecap="round" stroke-linejoin="round"/>
<path d="M75.1667 31.6667H72C71.5333 31.6667 71.2999 31.6667 71.1217 31.7575C70.9649 31.8374 70.8374 31.9649 70.7575 32.1217C70.6667 32.2999 70.6667 32.5333 70.6667 33V36.1667C70.6667 36.6334 70.6667 36.8667 70.7575 37.045C70.8374 37.2018 70.9649 37.3293 71.1217 37.4092C71.2999 37.5 71.5333 37.5 72 37.5H75.1667C75.6334 37.5 75.8667 37.5 76.045 37.4092C76.2018 37.3293 76.3293 37.2018 76.4092 37.045C76.5 36.8667 76.5 36.6334 76.5 36.1667V33C76.5 32.5333 76.5 32.2999 76.4092 32.1217C76.3293 31.9649 76.2018 31.8374 76.045 31.7575C75.8667 31.6667 75.6334 31.6667 75.1667 31.6667Z" stroke="#77758D" stroke-width="1.07038" stroke-linecap="round" stroke-linejoin="round"/>
<path d="M66 31.6667H62.8333C62.3666 31.6667 62.1333 31.6667 61.955 31.7575C61.7982 31.8374 61.6707 31.9649 61.5908 32.1217C61.5 32.2999 61.5 32.5333 61.5 33V36.1667C61.5 36.6334 61.5 36.8667 61.5908 37.045C61.6707 37.2018 61.7982 37.3293 61.955 37.4092C62.1333 37.5 62.3666 37.5 62.8333 37.5H66C66.4667 37.5 66.7001 37.5 66.8783 37.4092C67.0351 37.3293 67.1626 37.2018 67.2425 37.045C67.3333 36.8667 67.3333 36.6334 67.3333 36.1667V33C67.3333 32.5333 67.3333 32.2999 67.2425 32.1217C67.1626 31.9649 67.0351 31.8374 66.8783 31.7575C66.7001 31.6667 66.4667 31.6667 66 31.6667Z" stroke="#77758D" stroke-width="1.07038" stroke-linecap="round" stroke-linejoin="round"/>
</g>
<rect x="105" y="12" width="97" height="36" rx="8" fill="#27233B"/>
<g filter="url(#filter1_d_222_2095)">
<path d="M129.999 21.666V23.3327M129.999 36.666V38.3327M123.333 29.9993H121.666M125.261 25.2611L124.083 24.0826M134.738 25.2611L135.916 24.0826M125.261 34.741L124.083 35.9195M134.738 34.741L135.916 35.9195M138.333 29.9993H136.666M134.166 29.9993C134.166 32.3005 132.301 34.166 129.999 34.166C127.698 34.166 125.833 32.3005 125.833 29.9993C125.833 27.6982 127.698 25.8327 129.999 25.8327C132.301 25.8327 134.166 27.6982 134.166 29.9993Z" stroke="#77758D" stroke-width="1.07038" stroke-linecap="round" stroke-linejoin="round"/>
</g>
<rect x="152" y="15" width="44" height="30" rx="6" fill="#38354E"/>
<path d="M182.333 33.2029C181.238 33.6978 180.023 33.9734 178.744 33.9734C173.929 33.9734 170.025 30.0699 170.025 25.2548C170.025 23.9755 170.301 22.7605 170.796 21.666C167.771 23.034 165.666 26.0783 165.666 29.6141C165.666 34.4292 169.569 38.3327 174.385 38.3327C177.92 38.3327 180.965 36.2279 182.333 33.2029Z" stroke="url(#paint1_linear_222_2095)" stroke-width="1.07038" stroke-linecap="round" stroke-linejoin="round"/>
<defs>
<filter id="filter0_d_222_2095" x="27" y="-5" width="84" height="70" filterUnits="userSpaceOnUse" color-interpolation-filters="sRGB">
<feFlood flood-opacity="0" result="BackgroundImageFix"/>
<feColorMatrix in="SourceAlpha" type="matrix" values="0 0 0 0 0 0 0 0 0 0 0 0 0 0 0 0 0 0 127 0" result="hardAlpha"/>
<feOffset/>
<feGaussianBlur stdDeviation="10"/>
<feComposite in2="hardAlpha" operator="out"/>
<feColorMatrix type="matrix" values="0 0 0 0 0 0 0 0 0 0 0 0 0 0 0 0 0 0 1 0"/>
<feBlend mode="normal" in2="BackgroundImageFix" result="effect1_dropShadow_222_2095"/>
<feBlend mode="normal" in="SourceGraphic" in2="effect1_dropShadow_222_2095" result="shape"/>
</filter>
<filter id="filter1_d_222_2095" x="88" y="-5" width="84" height="70" filterUnits="userSpaceOnUse" color-interpolation-filters="sRGB">
<feFlood flood-opacity="0" result="BackgroundImageFix"/>
<feColorMatrix in="SourceAlpha" type="matrix" values="0 0 0 0 0 0 0 0 0 0 0 0 0 0 0 0 0 0 127 0" result="hardAlpha"/>
<feOffset/>
<feGaussianBlur stdDeviation="10"/>
<feComposite in2="hardAlpha" operator="out"/>
<feColorMatrix type="matrix" values="0 0 0 0 0 0 0 0 0 0 0 0 0 0 0 0 0 0 1 0"/>
<feBlend mode="normal" in2="BackgroundImageFix" result="effect1_dropShadow_222_2095"/>
<feBlend mode="normal" in="SourceGraphic" in2="effect1_dropShadow_222_2095" result="shape"/>
</filter>
<linearGradient id="paint0_linear_222_2095" x1="25" y1="22.5" x2="25" y2="37.5" gradientUnits="userSpaceOnUse">
<stop stop-color="white"/>
<stop offset="1" stop-color="#999999"/>
</linearGradient>
<linearGradient id="paint1_linear_222_2095" x1="173.999" y1="21.666" x2="173.999" y2="38.3327" gradientUnits="userSpaceOnUse">
<stop stop-color="white"/>
<stop offset="1" stop-color="#999999"/>
</linearGradient>
</defs>
</svg>
